  0
SECTION
  2
HEADER
  9
$ANGBASE
  50
0.0
  9
$ANGDIR
  70
  1
  9
$MEASUREMENT
  70
0
  0
ENDSEC
  0
SECTION
  2
TABLES
  0
TABLE
  2
LTYPE
  70
4
  0
LTYPE
  5
40F
  2
CONTINUOUS
  70
0
  3
Solid line
  72
65
  73
0
  40
0.0
  0
LTYPE
  5
410
  2
DASHDOT
 70
0
  3
Dash Dot ____ _ ____ _
 72
65
 73
4
 40
2.0
 49
1.25
 49
-0.25
 49
0.25
 49
-0.25
  0
LTYPE
  5
411
  2
DASHED
 70
0
  3
Dashed __ __ __ __ __
 72
65
 73
2
 40
0.75
 49
0.5
 49
-0.25
  0
LTYPE
  5
43B
  2
DOTTED
 70
0
  3
Dotted .  .  .  .
 72
65
 73
2
 40
0.2
 49
0.0
 49
-0.2
  0
ENDTAB
  0
TABLE
  2
STYLE
  70
4
  0
STYLE
  2
KICAD
  70
0
  40
0
  41
1
  42
1
  50
0
  71
0
  3
isocp.shx
  0
STYLE
  2
KICADB
  70
0
  40
0
  41
1
  42
1
  50
0
  71
0
  3
isocp.shx
  0
STYLE
  2
KICADI
  70
0
  40
0
  41
1
  42
1
  50
15
  71
0
  3
isocp.shx
  0
STYLE
  2
KICADBI
  70
0
  40
0
  41
1
  42
1
  50
15
  71
0
  3
isocp.shx
  0
ENDTAB
  0
TABLE
  2
LAYER
  70
30
  0
LAYER
  2
BLACK
  70
0
  62
7
  6
CONTINUOUS
  0
LAYER
  2
GRAY1
  70
0
  62
251
  6
CONTINUOUS
  0
LAYER
  2
GRAY2
  70
0
  62
8
  6
CONTINUOUS
  0
LAYER
  2
GRAY3
  70
0
  62
9
  6
CONTINUOUS
  0
LAYER
  2
WHITE
  70
0
  62
7
  6
CONTINUOUS
  0
LAYER
  2
LYELLOW
  70
0
  62
51
  6
CONTINUOUS
  0
LAYER
  2
BLUE1
  70
0
  62
178
  6
CONTINUOUS
  0
LAYER
  2
GREEN1
  70
0
  62
98
  6
CONTINUOUS
  0
LAYER
  2
CYAN1
  70
0
  62
138
  6
CONTINUOUS
  0
LAYER
  2
RED1
  70
0
  62
18
  6
CONTINUOUS
  0
LAYER
  2
MAGENTA1
  70
0
  62
228
  6
CONTINUOUS
  0
LAYER
  2
BROWN1
  70
0
  62
58
  6
CONTINUOUS
  0
LAYER
  2
BLUE2
  70
0
  62
5
  6
CONTINUOUS
  0
LAYER
  2
GREEN2
  70
0
  62
3
  6
CONTINUOUS
  0
LAYER
  2
CYAN2
  70
0
  62
4
  6
CONTINUOUS
  0
LAYER
  2
RED2
  70
0
  62
1
  6
CONTINUOUS
  0
LAYER
  2
MAGENTA2
  70
0
  62
6
  6
CONTINUOUS
  0
LAYER
  2
BROWN2
  70
0
  62
54
  6
CONTINUOUS
  0
LAYER
  2
BLUE3
  70
0
  62
171
  6
CONTINUOUS
  0
LAYER
  2
GREEN3
  70
0
  62
91
  6
CONTINUOUS
  0
LAYER
  2
CYAN3
  70
0
  62
131
  6
CONTINUOUS
  0
LAYER
  2
RED3
  70
0
  62
11
  6
CONTINUOUS
  0
LAYER
  2
MAGENTA3
  70
0
  62
221
  6
CONTINUOUS
  0
LAYER
  2
YELLOW3
  70
0
  62
2
  6
CONTINUOUS
  0
LAYER
  2
BLUE4
  70
0
  62
5
  6
CONTINUOUS
  0
LAYER
  2
GREEN4
  70
0
  62
3
  6
CONTINUOUS
  0
LAYER
  2
CYAN4
  70
0
  62
4
  6
CONTINUOUS
  0
LAYER
  2
RED4
  70
0
  62
1
  6
CONTINUOUS
  0
LAYER
  2
MAGENTA4
  70
0
  62
6
  6
CONTINUOUS
  0
LAYER
  2
YELLOW4
  70
0
  62
2
  6
CONTINUOUS
  0
ENDTAB
  0
ENDSEC
  0
SECTION
  2
ENTITIES
0
LINE
8
BLACK
6
CONTINUOUS
10
112.038
20
-45.9603
11
112.038
21
-45.9603
0
LINE
8
BLACK
6
CONTINUOUS
10
112.038
20
-45.9603
11
112.038
21
-45.9603
0
LINE
8
BLACK
6
CONTINUOUS
10
112.038
20
-45.9603
11
112.595
21
-45.9616
0
LINE
8
BLACK
6
CONTINUOUS
10
112.595
20
-45.9616
11
112.595
21
-45.9616
0
LINE
8
BLACK
6
CONTINUOUS
10
112.595
20
-45.9616
11
112.595
21
-45.9616
0
LINE
8
BLACK
6
CONTINUOUS
10
112.595
20
-45.9616
11
113.419
21
-45.9654
0
LINE
8
BLACK
6
CONTINUOUS
10
113.419
20
-45.9654
11
113.419
21
-45.9654
0
LINE
8
BLACK
6
CONTINUOUS
10
113.419
20
-45.9654
11
113.419
21
-45.9654
0
LINE
8
BLACK
6
CONTINUOUS
10
113.419
20
-45.9654
11
114.174
21
-45.9712
0
LINE
8
BLACK
6
CONTINUOUS
10
114.174
20
-45.9712
11
114.174
21
-45.9712
0
LINE
8
BLACK
6
CONTINUOUS
10
114.174
20
-45.9712
11
114.174
21
-45.9712
0
LINE
8
BLACK
6
CONTINUOUS
10
114.174
20
-45.9712
11
114.847
21
-45.9785
0
LINE
8
BLACK
6
CONTINUOUS
10
114.847
20
-45.9785
11
114.847
21
-45.9785
0
LINE
8
BLACK
6
CONTINUOUS
10
114.847
20
-45.9785
11
114.847
21
-45.9785
0
LINE
8
BLACK
6
CONTINUOUS
10
114.847
20
-45.9785
11
115.422
21
-45.9873
0
LINE
8
BLACK
6
CONTINUOUS
10
115.422
20
-45.9873
11
115.422
21
-45.9873
0
LINE
8
BLACK
6
CONTINUOUS
10
115.422
20
-45.9873
11
115.422
21
-45.9873
0
LINE
8
BLACK
6
CONTINUOUS
10
115.422
20
-45.9873
11
115.885
21
-45.9973
0
LINE
8
BLACK
6
CONTINUOUS
10
115.885
20
-45.9973
11
115.885
21
-45.9973
0
LINE
8
BLACK
6
CONTINUOUS
10
115.885
20
-45.9973
11
115.885
21
-45.9973
0
LINE
8
BLACK
6
CONTINUOUS
10
115.885
20
-45.9973
11
116.223
21
-46.0083
0
LINE
8
BLACK
6
CONTINUOUS
10
116.223
20
-46.0083
11
116.223
21
-46.0083
0
LINE
8
BLACK
6
CONTINUOUS
10
116.223
20
-46.0083
11
116.223
21
-46.0083
0
LINE
8
BLACK
6
CONTINUOUS
10
116.223
20
-46.0083
11
116.419
21
-46.02
0
LINE
8
BLACK
6
CONTINUOUS
10
116.419
20
-46.02
11
116.42
21
-46.0201
0
LINE
8
BLACK
6
CONTINUOUS
10
116.42
20
-46.0201
11
116.42
21
-46.0201
0
LINE
8
BLACK
6
CONTINUOUS
10
116.42
20
-46.0201
11
116.462
21
-46.0323
0
LINE
8
BLACK
6
CONTINUOUS
10
116.462
20
-46.0323
11
116.462
21
-46.0323
0
LINE
8
BLACK
6
CONTINUOUS
10
116.462
20
-46.0323
11
116.462
21
-46.0323
0
LINE
8
BLACK
6
CONTINUOUS
10
116.462
20
-46.0323
11
116.463
21
-46.0327
0
LINE
8
BLACK
6
CONTINUOUS
10
116.463
20
-46.0327
11
116.464
21
-46.0331
0
LINE
8
BLACK
6
CONTINUOUS
10
116.464
20
-46.0331
11
116.464
21
-46.0331
0
LINE
8
BLACK
6
CONTINUOUS
10
116.464
20
-46.0331
11
116.464
21
-46.0331
0
LINE
8
BLACK
6
CONTINUOUS
10
116.464
20
-46.0331
11
116.464
21
-46.0337
0
LINE
8
BLACK
6
CONTINUOUS
10
116.464
20
-46.0337
11
116.465
21
-46.0343
0
LINE
8
BLACK
6
CONTINUOUS
10
116.465
20
-46.0343
11
116.465
21
-46.0344
0
LINE
8
BLACK
6
CONTINUOUS
10
116.465
20
-46.0344
11
116.465
21
-46.0344
0
LINE
8
BLACK
6
CONTINUOUS
10
116.465
20
-46.0344
11
116.465
21
-46.0352
0
LINE
8
BLACK
6
CONTINUOUS
10
116.465
20
-46.0352
11
116.466
21
-46.0359
0
LINE
8
BLACK
6
CONTINUOUS
10
116.466
20
-46.0359
11
116.466
21
-46.036
0
LINE
8
BLACK
6
CONTINUOUS
10
116.466
20
-46.036
11
116.466
21
-46.036
0
LINE
8
BLACK
6
CONTINUOUS
10
116.466
20
-46.036
11
116.466
21
-46.0368
0
LINE
8
BLACK
6
CONTINUOUS
10
116.466
20
-46.0368
11
116.466
21
-46.0377
0
LINE
8
BLACK
6
CONTINUOUS
10
116.466
20
-46.0377
11
116.466
21
-46.0377
0
LINE
8
BLACK
6
CONTINUOUS
10
116.466
20
-46.0377
11
116.466
21
-46.0378
0
LINE
8
BLACK
6
CONTINUOUS
10
116.466
20
-46.0378
11
116.466
21
-46.0385
0
LINE
8
BLACK
6
CONTINUOUS
10
116.466
20
-46.0385
11
116.465
21
-46.0393
0
LINE
8
BLACK
6
CONTINUOUS
10
116.465
20
-46.0393
11
116.465
21
-46.0394
0
LINE
8
BLACK
6
CONTINUOUS
10
116.465
20
-46.0394
11
116.465
21
-46.0394
0
LINE
8
BLACK
6
CONTINUOUS
10
116.465
20
-46.0394
11
116.465
21
-46.0401
0
LINE
8
BLACK
6
CONTINUOUS
10
116.465
20
-46.0401
11
116.464
21
-46.0407
0
LINE
8
BLACK
6
CONTINUOUS
10
116.464
20
-46.0407
11
116.464
21
-46.0408
0
LINE
8
BLACK
6
CONTINUOUS
10
116.464
20
-46.0408
11
116.464
21
-46.0408
0
LINE
8
BLACK
6
CONTINUOUS
10
116.464
20
-46.0408
11
116.463
21
-46.0412
0
LINE
8
BLACK
6
CONTINUOUS
10
116.463
20
-46.0412
11
116.463
21
-46.0417
0
LINE
8
BLACK
6
CONTINUOUS
10
116.463
20
-46.0417
11
116.463
21
-46.0417
0
LINE
8
BLACK
6
CONTINUOUS
10
116.463
20
-46.0417
11
116.463
21
-46.0417
0
LINE
8
BLACK
6
CONTINUOUS
10
116.463
20
-46.0417
11
116.076
21
-46.2006
0
LINE
8
BLACK
6
CONTINUOUS
10
116.076
20
-46.2006
11
115.63
21
-46.5289
0
LINE
8
BLACK
6
CONTINUOUS
10
115.63
20
-46.5289
11
115.306
21
-46.9707
0
LINE
8
BLACK
6
CONTINUOUS
10
115.306
20
-46.9707
11
115.114
21
-47.5155
0
LINE
8
BLACK
6
CONTINUOUS
10
115.114
20
-47.5155
11
115.08
21
-47.7708
0
LINE
8
BLACK
6
CONTINUOUS
10
115.08
20
-47.7708
11
115.056
21
-48.1473
0
LINE
8
BLACK
6
CONTINUOUS
10
115.056
20
-48.1473
11
115.044
21
-48.5918
0
LINE
8
BLACK
6
CONTINUOUS
10
115.044
20
-48.5918
11
115.046
21
-49.0533
0
LINE
8
BLACK
6
CONTINUOUS
10
115.046
20
-49.0533
11
115.069
21
-50.1444
0
LINE
8
BLACK
6
CONTINUOUS
10
115.069
20
-50.1444
11
115.352
21
-50.1714
0
LINE
8
BLACK
6
CONTINUOUS
10
115.352
20
-50.1714
11
115.572
21
-50.1621
0
LINE
8
BLACK
6
CONTINUOUS
10
115.572
20
-50.1621
11
115.706
21
-50.0885
0
LINE
8
BLACK
6
CONTINUOUS
10
115.706
20
-50.0885
11
115.731
21
-49.9862
0
LINE
8
BLACK
6
CONTINUOUS
10
115.731
20
-49.9862
11
115.755
21
-49.7428
0
LINE
8
BLACK
6
CONTINUOUS
10
115.755
20
-49.7428
11
115.772
21
-49.4031
0
LINE
8
BLACK
6
CONTINUOUS
10
115.772
20
-49.4031
11
115.778
21
-49.0059
0
LINE
8
BLACK
6
CONTINUOUS
10
115.778
20
-49.0059
11
115.784
21
-48.6672
0
LINE
8
BLACK
6
CONTINUOUS
10
115.784
20
-48.6672
11
115.784
21
-48.6672
0
LINE
8
BLACK
6
CONTINUOUS
10
115.784
20
-48.6672
11
115.784
21
-48.6671
0
LINE
8
BLACK
6
CONTINUOUS
10
115.784
20
-48.6671
11
115.803
21
-48.2636
0
LINE
8
BLACK
6
CONTINUOUS
10
115.803
20
-48.2636
11
115.803
21
-48.2635
0
LINE
8
BLACK
6
CONTINUOUS
10
115.803
20
-48.2635
11
115.803
21
-48.2634
0
LINE
8
BLACK
6
CONTINUOUS
10
115.803
20
-48.2634
11
115.832
21
-47.9303
0
LINE
8
BLACK
6
CONTINUOUS
10
115.832
20
-47.9303
11
115.832
21
-47.9301
0
LINE
8
BLACK
6
CONTINUOUS
10
115.832
20
-47.9301
11
115.832
21
-47.9299
0
LINE
8
BLACK
6
CONTINUOUS
10
115.832
20
-47.9299
11
115.867
21
-47.7166
0
LINE
8
BLACK
6
CONTINUOUS
10
115.867
20
-47.7166
11
115.868
21
-47.7162
0
LINE
8
BLACK
6
CONTINUOUS
10
115.868
20
-47.7162
11
115.868
21
-47.7157
0
LINE
8
BLACK
6
CONTINUOUS
10
115.868
20
-47.7157
11
115.955
21
-47.4758
0
LINE
8
BLACK
6
CONTINUOUS
10
115.955
20
-47.4758
11
115.956
21
-47.4753
0
LINE
8
BLACK
6
CONTINUOUS
10
115.956
20
-47.4753
11
115.956
21
-47.4747
0
LINE
8
BLACK
6
CONTINUOUS
10
115.956
20
-47.4747
11
116.221
21
-47.0906
0
LINE
8
BLACK
6
CONTINUOUS
10
116.221
20
-47.0906
11
116.221
21
-47.0906
0
LINE
8
BLACK
6
CONTINUOUS
10
116.221
20
-47.0906
11
116.221
21
-47.0906
0
LINE
8
BLACK
6
CONTINUOUS
10
116.221
20
-47.0906
11
116.222
21
-47.0899
0
LINE
8
BLACK
6
CONTINUOUS
10
116.222
20
-47.0899
11
116.222
21
-47.0894
0
LINE
8
BLACK
6
CONTINUOUS
10
116.222
20
-47.0894
11
116.222
21
-47.0894
0
LINE
8
BLACK
6
CONTINUOUS
10
116.222
20
-47.0894
11
116.222
21
-47.0893
0
LINE
8
BLACK
6
CONTINUOUS
10
116.222
20
-47.0893
11
116.607
21
-46.8203
0
LINE
8
BLACK
6
CONTINUOUS
10
116.607
20
-46.8203
11
116.607
21
-46.82
0
LINE
8
BLACK
6
CONTINUOUS
10
116.607
20
-46.82
11
116.608
21
-46.8196
0
LINE
8
BLACK
6
CONTINUOUS
10
116.608
20
-46.8196
11
117.104
21
-46.6699
0
LINE
8
BLACK
6
CONTINUOUS
10
117.104
20
-46.6699
11
117.105
21
-46.6698
0
LINE
8
BLACK
6
CONTINUOUS
10
117.105
20
-46.6698
11
117.105
21
-46.6697
0
LINE
8
BLACK
6
CONTINUOUS
10
117.105
20
-46.6697
11
117.706
21
-46.6434
0
LINE
8
BLACK
6
CONTINUOUS
10
117.706
20
-46.6434
11
117.706
21
-46.6434
0
LINE
8
BLACK
6
CONTINUOUS
10
117.706
20
-46.6434
11
117.706
21
-46.6434
0
LINE
8
BLACK
6
CONTINUOUS
10
117.706
20
-46.6434
11
117.779
21
-46.6481
0
LINE
8
BLACK
6
CONTINUOUS
10
117.779
20
-46.6481
11
117.779
21
-46.6482
0
LINE
8
BLACK
6
CONTINUOUS
10
117.779
20
-46.6482
11
117.78
21
-46.6482
0
LINE
8
BLACK
6
CONTINUOUS
10
117.78
20
-46.6482
11
118.296
21
-46.726
0
LINE
8
BLACK
6
CONTINUOUS
10
118.296
20
-46.726
11
118.296
21
-46.7262
0
LINE
8
BLACK
6
CONTINUOUS
10
118.296
20
-46.7262
11
118.297
21
-46.7263
0
LINE
8
BLACK
6
CONTINUOUS
10
118.297
20
-46.7263
11
118.697
21
-46.8866
0
LINE
8
BLACK
6
CONTINUOUS
10
118.697
20
-46.8866
11
118.697
21
-46.887
0
LINE
8
BLACK
6
CONTINUOUS
10
118.697
20
-46.887
11
118.698
21
-46.8875
0
LINE
8
BLACK
6
CONTINUOUS
10
118.698
20
-46.8875
11
118.995
21
-47.146
0
LINE
8
BLACK
6
CONTINUOUS
10
118.995
20
-47.146
11
118.995
21
-47.1467
0
LINE
8
BLACK
6
CONTINUOUS
10
118.995
20
-47.1467
11
118.996
21
-47.1473
0
LINE
8
BLACK
6
CONTINUOUS
10
118.996
20
-47.1473
11
119.203
21
-47.5201
0
LINE
8
BLACK
6
CONTINUOUS
10
119.203
20
-47.5201
11
119.203
21
-47.5207
0
LINE
8
BLACK
6
CONTINUOUS
10
119.203
20
-47.5207
11
119.203
21
-47.5212
0
LINE
8
BLACK
6
CONTINUOUS
10
119.203
20
-47.5212
11
119.334
21
-48.024
0
LINE
8
BLACK
6
CONTINUOUS
10
119.334
20
-48.024
11
119.334
21
-48.0244
0
LINE
8
BLACK
6
CONTINUOUS
10
119.334
20
-48.0244
11
119.334
21
-48.0247
0
LINE
8
BLACK
6
CONTINUOUS
10
119.334
20
-48.0247
11
119.402
21
-48.6734
0
LINE
8
BLACK
6
CONTINUOUS
10
119.402
20
-48.6734
11
119.402
21
-48.6735
0
LINE
8
BLACK
6
CONTINUOUS
10
119.402
20
-48.6735
11
119.402
21
-48.6737
0
LINE
8
BLACK
6
CONTINUOUS
10
119.402
20
-48.6737
11
119.416
21
-48.9756
0
LINE
8
BLACK
6
CONTINUOUS
10
119.416
20
-48.9756
11
119.416
21
-48.9757
0
LINE
8
BLACK
6
CONTINUOUS
10
119.416
20
-48.9757
11
119.416
21
-48.9758
0
LINE
8
BLACK
6
CONTINUOUS
10
119.416
20
-48.9758
11
119.416
21
-49.4367
0
LINE
8
BLACK
6
CONTINUOUS
10
119.416
20
-49.4367
11
119.416
21
-49.437
0
LINE
8
BLACK
6
CONTINUOUS
10
119.416
20
-49.437
11
119.416
21
-49.4373
0
LINE
8
BLACK
6
CONTINUOUS
10
119.416
20
-49.4373
11
119.373
21
-49.8173
0
LINE
8
BLACK
6
CONTINUOUS
10
119.373
20
-49.8173
11
119.372
21
-49.8178
0
LINE
8
BLACK
6
CONTINUOUS
10
119.372
20
-49.8178
11
119.372
21
-49.8183
0
LINE
8
BLACK
6
CONTINUOUS
10
119.372
20
-49.8183
11
119.269
21
-50.1392
0
LINE
8
BLACK
6
CONTINUOUS
10
119.269
20
-50.1392
11
119.268
21
-50.1398
0
LINE
8
BLACK
6
CONTINUOUS
10
119.268
20
-50.1398
11
119.268
21
-50.1404
0
LINE
8
BLACK
6
CONTINUOUS
10
119.268
20
-50.1404
11
119.089
21
-50.4242
0
LINE
8
BLACK
6
CONTINUOUS
10
119.089
20
-50.4242
11
119.089
21
-50.4246
0
LINE
8
BLACK
6
CONTINUOUS
10
119.089
20
-50.4246
11
119.089
21
-50.4251
0
LINE
8
BLACK
6
CONTINUOUS
10
119.089
20
-50.4251
11
118.818
21
-50.6937
0
LINE
8
BLACK
6
CONTINUOUS
10
118.818
20
-50.6937
11
118.818
21
-50.6939
0
LINE
8
BLACK
6
CONTINUOUS
10
118.818
20
-50.6939
11
118.818
21
-50.6941
0
LINE
8
BLACK
6
CONTINUOUS
10
118.818
20
-50.6941
11
118.441
21
-50.9694
0
LINE
8
BLACK
6
CONTINUOUS
10
118.441
20
-50.9694
11
118.441
21
-50.9695
0
LINE
8
BLACK
6
CONTINUOUS
10
118.441
20
-50.9695
11
118.441
21
-50.9696
0
LINE
8
BLACK
6
CONTINUOUS
10
118.441
20
-50.9696
11
117.942
21
-51.2734
0
LINE
8
BLACK
6
CONTINUOUS
10
117.942
20
-51.2734
11
117.942
21
-51.2734
0
LINE
8
BLACK
6
CONTINUOUS
10
117.942
20
-51.2734
11
117.942
21
-51.2735
0
LINE
8
BLACK
6
CONTINUOUS
10
117.942
20
-51.2735
11
117.306
21
-51.6277
0
LINE
8
BLACK
6
CONTINUOUS
10
117.306
20
-51.6277
11
117.306
21
-51.6277
0
LINE
8
BLACK
6
CONTINUOUS
10
117.306
20
-51.6277
11
117.306
21
-51.6277
0
LINE
8
BLACK
6
CONTINUOUS
10
117.306
20
-51.6277
11
117.118
21
-51.7306
0
LINE
8
BLACK
6
CONTINUOUS
10
117.118
20
-51.7306
11
116.512
21
-52.0673
0
LINE
8
BLACK
6
CONTINUOUS
10
116.512
20
-52.0673
11
116.036
21
-52.3522
0
LINE
8
BLACK
6
CONTINUOUS
10
116.036
20
-52.3522
11
115.675
21
-52.6058
0
LINE
8
BLACK
6
CONTINUOUS
10
115.675
20
-52.6058
11
115.413
21
-52.8491
0
LINE
8
BLACK
6
CONTINUOUS
10
115.413
20
-52.8491
11
115.234
21
-53.1027
0
LINE
8
BLACK
6
CONTINUOUS
10
115.234
20
-53.1027
11
115.121
21
-53.3877
0
LINE
8
BLACK
6
CONTINUOUS
10
115.121
20
-53.3877
11
115.06
21
-53.7254
0
LINE
8
BLACK
6
CONTINUOUS
10
115.06
20
-53.7254
11
115.035
21
-54.1366
0
LINE
8
BLACK
6
CONTINUOUS
10
115.035
20
-54.1366
11
115.029
21
-54.6422
0
LINE
8
BLACK
6
CONTINUOUS
10
115.029
20
-54.6422
11
115.029
21
-54.7035
0
LINE
8
BLACK
6
CONTINUOUS
10
115.029
20
-54.7035
11
115.043
21
-55.3437
0
LINE
8
BLACK
6
CONTINUOUS
10
115.043
20
-55.3437
11
115.086
21
-55.8331
0
LINE
8
BLACK
6
CONTINUOUS
10
115.086
20
-55.8331
11
115.157
21
-56.1871
0
LINE
8
BLACK
6
CONTINUOUS
10
115.157
20
-56.1871
11
115.264
21
-56.4697
0
LINE
8
BLACK
6
CONTINUOUS
10
115.264
20
-56.4697
11
115.573
21
-56.9449
0
LINE
8
BLACK
6
CONTINUOUS
10
115.573
20
-56.9449
11
116.006
21
-57.3125
0
LINE
8
BLACK
6
CONTINUOUS
10
116.006
20
-57.3125
11
116.548
21
-57.5583
0
LINE
8
BLACK
6
CONTINUOUS
10
116.548
20
-57.5583
11
116.548
21
-57.5588
0
LINE
8
BLACK
6
CONTINUOUS
10
116.548
20
-57.5588
11
116.549
21
-57.5592
0
LINE
8
BLACK
6
CONTINUOUS
10
116.549
20
-57.5592
11
116.549
21
-57.5593
0
LINE
8
BLACK
6
CONTINUOUS
10
116.549
20
-57.5593
11
116.549
21
-57.5593
0
LINE
8
BLACK
6
CONTINUOUS
10
116.549
20
-57.5593
11
116.549
21
-57.56
0
LINE
8
BLACK
6
CONTINUOUS
10
116.549
20
-57.56
11
116.55
21
-57.5606
0
LINE
8
BLACK
6
CONTINUOUS
10
116.55
20
-57.5606
11
116.55
21
-57.5607
0
LINE
8
BLACK
6
CONTINUOUS
10
116.55
20
-57.5607
11
116.55
21
-57.5607
0
LINE
8
BLACK
6
CONTINUOUS
10
116.55
20
-57.5607
11
116.55
21
-57.5615
0
LINE
8
BLACK
6
CONTINUOUS
10
116.55
20
-57.5615
11
116.55
21
-57.5623
0
LINE
8
BLACK
6
CONTINUOUS
10
116.55
20
-57.5623
11
116.55
21
-57.5623
0
LINE
8
BLACK
6
CONTINUOUS
10
116.55
20
-57.5623
11
116.55
21
-57.5624
0
LINE
8
BLACK
6
CONTINUOUS
10
116.55
20
-57.5624
11
116.55
21
-57.5632
0
LINE
8
BLACK
6
CONTINUOUS
10
116.55
20
-57.5632
11
116.55
21
-57.564
0
LINE
8
BLACK
6
CONTINUOUS
10
116.55
20
-57.564
11
116.55
21
-57.5641
0
LINE
8
BLACK
6
CONTINUOUS
10
116.55
20
-57.5641
11
116.55
21
-57.5641
0
LINE
8
BLACK
6
CONTINUOUS
10
116.55
20
-57.5641
11
116.55
21
-57.5649
0
LINE
8
BLACK
6
CONTINUOUS
10
116.55
20
-57.5649
11
116.55
21
-57.5656
0
LINE
8
BLACK
6
CONTINUOUS
10
116.55
20
-57.5656
11
116.55
21
-57.5657
0
LINE
8
BLACK
6
CONTINUOUS
10
116.55
20
-57.5657
11
116.55
21
-57.5657
0
LINE
8
BLACK
6
CONTINUOUS
10
116.55
20
-57.5657
11
116.549
21
-57.5663
0
LINE
8
BLACK
6
CONTINUOUS
10
116.549
20
-57.5663
11
116.548
21
-57.5669
0
LINE
8
BLACK
6
CONTINUOUS
10
116.548
20
-57.5669
11
116.538
21
-57.5752
0
LINE
8
BLACK
6
CONTINUOUS
10
116.538
20
-57.5752
11
116.537
21
-57.5754
0
LINE
8
BLACK
6
CONTINUOUS
10
116.537
20
-57.5754
11
116.537
21
-57.5757
0
LINE
8
BLACK
6
CONTINUOUS
10
116.537
20
-57.5757
11
116.536
21
-57.5758
0
LINE
8
BLACK
6
CONTINUOUS
10
116.536
20
-57.5758
11
116.536
21
-57.5759
0
LINE
8
BLACK
6
CONTINUOUS
10
116.536
20
-57.5759
11
116.535
21
-57.576
0
LINE
8
BLACK
6
CONTINUOUS
10
116.535
20
-57.576
11
116.535
21
-57.5761
0
LINE
8
BLACK
6
CONTINUOUS
10
116.535
20
-57.5761
11
116.386
21
-57.5879
0
LINE
8
BLACK
6
CONTINUOUS
10
116.386
20
-57.5879
11
116.386
21
-57.5879
0
LINE
8
BLACK
6
CONTINUOUS
10
116.386
20
-57.5879
11
116.386
21
-57.588
0
LINE
8
BLACK
6
CONTINUOUS
10
116.386
20
-57.588
11
116.092
21
-57.5991
0
LINE
8
BLACK
6
CONTINUOUS
10
116.092
20
-57.5991
11
116.092
21
-57.5991
0
LINE
8
BLACK
6
CONTINUOUS
10
116.092
20
-57.5991
11
116.092
21
-57.5991
0
LINE
8
BLACK
6
CONTINUOUS
10
116.092
20
-57.5991
11
115.667
21
-57.6094
0
LINE
8
BLACK
6
CONTINUOUS
10
115.667
20
-57.6094
11
115.667
21
-57.6094
0
LINE
8
BLACK
6
CONTINUOUS
10
115.667
20
-57.6094
11
115.667
21
-57.6094
0
LINE
8
BLACK
6
CONTINUOUS
10
115.667
20
-57.6094
11
115.125
21
-57.6186
0
LINE
8
BLACK
6
CONTINUOUS
10
115.125
20
-57.6186
11
115.125
21
-57.6186
0
LINE
8
BLACK
6
CONTINUOUS
10
115.125
20
-57.6186
11
115.125
21
-57.6186
0
LINE
8
BLACK
6
CONTINUOUS
10
115.125
20
-57.6186
11
114.481
21
-57.6265
0
LINE
8
BLACK
6
CONTINUOUS
10
114.481
20
-57.6265
11
114.481
21
-57.6265
0
LINE
8
BLACK
6
CONTINUOUS
10
114.481
20
-57.6265
11
114.481
21
-57.6265
0
LINE
8
BLACK
6
CONTINUOUS
10
114.481
20
-57.6265
11
113.75
21
-57.6328
0
LINE
8
BLACK
6
CONTINUOUS
10
113.75
20
-57.6328
11
113.75
21
-57.6328
0
LINE
8
BLACK
6
CONTINUOUS
10
113.75
20
-57.6328
11
113.749
21
-57.6328
0
LINE
8
BLACK
6
CONTINUOUS
10
113.749
20
-57.6328
11
112.944
21
-57.6372
0
LINE
8
BLACK
6
CONTINUOUS
10
112.944
20
-57.6372
11
112.944
21
-57.6372
0
LINE
8
BLACK
6
CONTINUOUS
10
112.944
20
-57.6372
11
112.944
21
-57.6372
0
LINE
8
BLACK
6
CONTINUOUS
10
112.944
20
-57.6372
11
112.08
21
-57.6397
0
LINE
8
BLACK
6
CONTINUOUS
10
112.08
20
-57.6397
11
112.08
21
-57.6397
0
LINE
8
BLACK
6
CONTINUOUS
10
112.08
20
-57.6397
11
112.08
21
-57.6397
0
LINE
8
BLACK
6
CONTINUOUS
10
112.08
20
-57.6397
11
107.402
21
-57.647
0
LINE
8
BLACK
6
CONTINUOUS
10
107.402
20
-57.647
11
107.402
21
-57.6469
0
LINE
8
BLACK
6
CONTINUOUS
10
107.402
20
-57.6469
11
107.401
21
-57.6469
0
LINE
8
BLACK
6
CONTINUOUS
10
107.401
20
-57.6469
11
107.401
21
-57.6468
0
LINE
8
BLACK
6
CONTINUOUS
10
107.401
20
-57.6468
11
107.4
21
-57.6467
0
LINE
8
BLACK
6
CONTINUOUS
10
107.4
20
-57.6467
11
107.4
21
-57.6465
0
LINE
8
BLACK
6
CONTINUOUS
10
107.4
20
-57.6465
11
107.399
21
-57.6463
0
LINE
8
BLACK
6
CONTINUOUS
10
107.399
20
-57.6463
11
107.399
21
-57.646
0
LINE
8
BLACK
6
CONTINUOUS
10
107.399
20
-57.646
11
107.399
21
-57.6458
0
LINE
8
BLACK
6
CONTINUOUS
10
107.399
20
-57.6458
11
107.399
21
-57.6455
0
LINE
8
BLACK
6
CONTINUOUS
10
107.399
20
-57.6455
11
107.398
21
-57.6452
0
LINE
8
BLACK
6
CONTINUOUS
10
107.398
20
-57.6452
11
107.398
21
-57.6448
0
LINE
8
BLACK
6
CONTINUOUS
10
107.398
20
-57.6448
11
107.398
21
-57.6445
0
LINE
8
BLACK
6
CONTINUOUS
10
107.398
20
-57.6445
11
107.398
21
-57.6441
0
LINE
8
BLACK
6
CONTINUOUS
10
107.398
20
-57.6441
11
107.397
21
-57.6437
0
LINE
8
BLACK
6
CONTINUOUS
10
107.397
20
-57.6437
11
107.397
21
-57.6433
0
LINE
8
BLACK
6
CONTINUOUS
10
107.397
20
-57.6433
11
107.397
21
-57.6429
0
LINE
8
BLACK
6
CONTINUOUS
10
107.397
20
-57.6429
11
107.397
21
-57.6424
0
LINE
8
BLACK
6
CONTINUOUS
10
107.397
20
-57.6424
11
107.397
21
-57.642
0
LINE
8
BLACK
6
CONTINUOUS
10
107.397
20
-57.642
11
107.403
21
-52.1598
0
LINE
8
BLACK
6
CONTINUOUS
10
107.403
20
-52.1598
11
107.409
21
-46.6777
0
LINE
8
BLACK
6
CONTINUOUS
10
107.409
20
-46.6777
11
107.409
21
-46.6774
0
LINE
8
BLACK
6
CONTINUOUS
10
107.409
20
-46.6774
11
107.409
21
-46.6771
0
LINE
8
BLACK
6
CONTINUOUS
10
107.409
20
-46.6771
11
107.409
21
-46.6765
0
LINE
8
BLACK
6
CONTINUOUS
10
107.409
20
-46.6765
11
107.409
21
-46.676
0
LINE
8
BLACK
6
CONTINUOUS
10
107.409
20
-46.676
11
107.409
21
-46.6757
0
LINE
8
BLACK
6
CONTINUOUS
10
107.409
20
-46.6757
11
107.409
21
-46.6754
0
LINE
8
BLACK
6
CONTINUOUS
10
107.409
20
-46.6754
11
107.41
21
-46.6749
0
LINE
8
BLACK
6
CONTINUOUS
10
107.41
20
-46.6749
11
107.41
21
-46.6744
0
LINE
8
BLACK
6
CONTINUOUS
10
107.41
20
-46.6744
11
107.41
21
-46.6743
0
LINE
8
BLACK
6
CONTINUOUS
10
107.41
20
-46.6743
11
107.41
21
-46.674
0
LINE
8
BLACK
6
CONTINUOUS
10
107.41
20
-46.674
11
107.411
21
-46.6737
0
LINE
8
BLACK
6
CONTINUOUS
10
107.411
20
-46.6737
11
107.411
21
-46.6733
0
LINE
8
BLACK
6
CONTINUOUS
10
107.411
20
-46.6733
11
107.411
21
-46.6732
0
LINE
8
BLACK
6
CONTINUOUS
10
107.411
20
-46.6732
11
107.412
21
-46.6731
0
LINE
8
BLACK
6
CONTINUOUS
10
107.412
20
-46.6731
11
107.412
21
-46.6729
0
LINE
8
BLACK
6
CONTINUOUS
10
107.412
20
-46.6729
11
107.413
21
-46.6727
0
LINE
8
BLACK
6
CONTINUOUS
10
107.413
20
-46.6727
11
107.413
21
-46.6727
0
LINE
8
BLACK
6
CONTINUOUS
10
107.413
20
-46.6727
11
107.413
21
-46.6727
0
LINE
8
BLACK
6
CONTINUOUS
10
107.413
20
-46.6727
11
107.414
21
-46.6727
0
LINE
8
BLACK
6
CONTINUOUS
10
107.414
20
-46.6727
11
107.415
21
-46.6727
0
LINE
8
BLACK
6
CONTINUOUS
10
107.415
20
-46.6727
11
107.415
21
-46.6728
0
LINE
8
BLACK
6
CONTINUOUS
10
107.415
20
-46.6728
11
107.415
21
-46.6729
0
LINE
8
BLACK
6
CONTINUOUS
10
107.415
20
-46.6729
11
107.416
21
-46.6731
0
LINE
8
BLACK
6
CONTINUOUS
10
107.416
20
-46.6731
11
107.416
21
-46.6733
0
LINE
8
BLACK
6
CONTINUOUS
10
107.416
20
-46.6733
11
107.416
21
-46.6735
0
LINE
8
BLACK
6
CONTINUOUS
10
107.416
20
-46.6735
11
107.417
21
-46.6737
0
LINE
8
BLACK
6
CONTINUOUS
10
107.417
20
-46.6737
11
107.417
21
-46.6741
0
LINE
8
BLACK
6
CONTINUOUS
10
107.417
20
-46.6741
11
107.418
21
-46.6745
0
LINE
8
BLACK
6
CONTINUOUS
10
107.418
20
-46.6745
11
107.418
21
-46.6747
0
LINE
8
BLACK
6
CONTINUOUS
10
107.418
20
-46.6747
11
107.418
21
-46.6749
0
LINE
8
BLACK
6
CONTINUOUS
10
107.418
20
-46.6749
11
107.418
21
-46.6755
0
LINE
8
BLACK
6
CONTINUOUS
10
107.418
20
-46.6755
11
107.418
21
-46.676
0
LINE
8
BLACK
6
CONTINUOUS
10
107.418
20
-46.676
11
107.418
21
-46.6763
0
LINE
8
BLACK
6
CONTINUOUS
10
107.418
20
-46.6763
11
107.419
21
-46.6765
0
LINE
8
BLACK
6
CONTINUOUS
10
107.419
20
-46.6765
11
108.64
21
-51.9259
0
LINE
8
BLACK
6
CONTINUOUS
10
108.64
20
-51.9259
11
108.64
21
-51.9259
0
LINE
8
BLACK
6
CONTINUOUS
10
108.64
20
-51.9259
11
108.69
21
-52.1418
0
LINE
8
BLACK
6
CONTINUOUS
10
108.69
20
-52.1418
11
108.903
21
-53.053
0
LINE
8
BLACK
6
CONTINUOUS
10
108.903
20
-53.053
11
109.106
21
-53.9154
0
LINE
8
BLACK
6
CONTINUOUS
10
109.106
20
-53.9154
11
109.295
21
-54.7144
0
LINE
8
BLACK
6
CONTINUOUS
10
109.295
20
-54.7144
11
109.466
21
-55.4356
0
LINE
8
BLACK
6
CONTINUOUS
10
109.466
20
-55.4356
11
109.466
21
-55.4356
0
LINE
8
BLACK
6
CONTINUOUS
10
109.466
20
-55.4356
11
109.617
21
-56.0645
0
LINE
8
BLACK
6
CONTINUOUS
10
109.617
20
-56.0645
11
109.617
21
-56.0645
0
LINE
8
BLACK
6
CONTINUOUS
10
109.617
20
-56.0645
11
109.744
21
-56.5864
0
LINE
8
BLACK
6
CONTINUOUS
10
109.744
20
-56.5864
11
109.744
21
-56.5864
0
LINE
8
BLACK
6
CONTINUOUS
10
109.744
20
-56.5864
11
109.843
21
-56.9869
0
LINE
8
BLACK
6
CONTINUOUS
10
109.843
20
-56.9869
11
109.843
21
-56.9869
0
LINE
8
BLACK
6
CONTINUOUS
10
109.843
20
-56.9869
11
109.911
21
-57.2514
0
LINE
8
BLACK
6
CONTINUOUS
10
109.911
20
-57.2514
11
109.944
21
-57.365
0
LINE
8
BLACK
6
CONTINUOUS
10
109.944
20
-57.365
11
109.961
21
-57.3984
0
LINE
8
BLACK
6
CONTINUOUS
10
109.961
20
-57.3984
11
110.085
21
-57.5185
0
LINE
8
BLACK
6
CONTINUOUS
10
110.085
20
-57.5185
11
110.311
21
-57.5523
0
LINE
8
BLACK
6
CONTINUOUS
10
110.311
20
-57.5523
11
110.328
21
-57.5521
0
LINE
8
BLACK
6
CONTINUOUS
10
110.328
20
-57.5521
11
110.544
21
-57.5193
0
LINE
8
BLACK
6
CONTINUOUS
10
110.544
20
-57.5193
11
110.678
21
-57.448
0
LINE
8
BLACK
6
CONTINUOUS
10
110.678
20
-57.448
11
110.707
21
-57.3719
0
LINE
8
BLACK
6
CONTINUOUS
10
110.707
20
-57.3719
11
110.772
21
-57.1419
0
LINE
8
BLACK
6
CONTINUOUS
10
110.772
20
-57.1419
11
110.868
21
-56.7777
0
LINE
8
BLACK
6
CONTINUOUS
10
110.868
20
-56.7777
11
110.989
21
-56.2964
0
LINE
8
BLACK
6
CONTINUOUS
10
110.989
20
-56.2964
11
110.989
21
-56.2964
0
LINE
8
BLACK
6
CONTINUOUS
10
110.989
20
-56.2964
11
111.132
21
-55.7143
0
LINE
8
BLACK
6
CONTINUOUS
10
111.132
20
-55.7143
11
111.132
21
-55.7143
0
LINE
8
BLACK
6
CONTINUOUS
10
111.132
20
-55.7143
11
111.293
21
-55.0482
0
LINE
8
BLACK
6
CONTINUOUS
10
111.293
20
-55.0482
11
111.293
21
-55.0482
0
LINE
8
BLACK
6
CONTINUOUS
10
111.293
20
-55.0482
11
111.469
21
-54.3145
0
LINE
8
BLACK
6
CONTINUOUS
10
111.469
20
-54.3145
11
111.469
21
-54.3145
0
LINE
8
BLACK
6
CONTINUOUS
10
111.469
20
-54.3145
11
111.655
21
-53.5299
0
LINE
8
BLACK
6
CONTINUOUS
10
111.655
20
-53.5299
11
111.655
21
-53.5299
0
LINE
8
BLACK
6
CONTINUOUS
10
111.655
20
-53.5299
11
111.848
21
-52.711
0
LINE
8
BLACK
6
CONTINUOUS
10
111.848
20
-52.711
11
112.043
21
-51.8743
0
LINE
8
BLACK
6
CONTINUOUS
10
112.043
20
-51.8743
11
112.237
21
-51.0364
0
LINE
8
BLACK
6
CONTINUOUS
10
112.237
20
-51.0364
11
112.426
21
-50.214
0
LINE
8
BLACK
6
CONTINUOUS
10
112.426
20
-50.214
11
112.606
21
-49.4235
0
LINE
8
BLACK
6
CONTINUOUS
10
112.606
20
-49.4235
11
112.606
21
-49.4235
0
LINE
8
BLACK
6
CONTINUOUS
10
112.606
20
-49.4235
11
112.774
21
-48.6815
0
LINE
8
BLACK
6
CONTINUOUS
10
112.774
20
-48.6815
11
112.925
21
-48.0047
0
LINE
8
BLACK
6
CONTINUOUS
10
112.925
20
-48.0047
11
113.056
21
-47.4096
0
LINE
8
BLACK
6
CONTINUOUS
10
113.056
20
-47.4096
11
113.056
21
-47.4096
0
LINE
8
BLACK
6
CONTINUOUS
10
113.056
20
-47.4096
11
113.162
21
-46.9128
0
LINE
8
BLACK
6
CONTINUOUS
10
113.162
20
-46.9128
11
113.24
21
-46.531
0
LINE
8
BLACK
6
CONTINUOUS
10
113.24
20
-46.531
11
113.286
21
-46.2808
0
LINE
8
BLACK
6
CONTINUOUS
10
113.286
20
-46.2808
11
113.297
21
-46.1801
0
LINE
8
BLACK
6
CONTINUOUS
10
113.297
20
-46.1801
11
113.282
21
-46.1534
0
LINE
8
BLACK
6
CONTINUOUS
10
113.282
20
-46.1534
11
113.141
21
-46.0682
0
LINE
8
BLACK
6
CONTINUOUS
10
113.141
20
-46.0682
11
112.934
21
-46.0447
0
LINE
8
BLACK
6
CONTINUOUS
10
112.934
20
-46.0447
11
112.736
21
-46.0834
0
LINE
8
BLACK
6
CONTINUOUS
10
112.736
20
-46.0834
11
112.621
21
-46.1831
0
LINE
8
BLACK
6
CONTINUOUS
10
112.621
20
-46.1831
11
112.599
21
-46.2636
0
LINE
8
BLACK
6
CONTINUOUS
10
112.599
20
-46.2636
11
112.542
21
-46.4997
0
LINE
8
BLACK
6
CONTINUOUS
10
112.542
20
-46.4997
11
112.542
21
-46.4997
0
LINE
8
BLACK
6
CONTINUOUS
10
112.542
20
-46.4997
11
112.453
21
-46.8731
0
LINE
8
BLACK
6
CONTINUOUS
10
112.453
20
-46.8731
11
112.337
21
-47.3686
0
LINE
8
BLACK
6
CONTINUOUS
10
112.337
20
-47.3686
11
112.337
21
-47.3686
0
LINE
8
BLACK
6
CONTINUOUS
10
112.337
20
-47.3686
11
112.196
21
-47.9713
0
LINE
8
BLACK
6
CONTINUOUS
10
112.196
20
-47.9713
11
112.035
21
-48.6662
0
LINE
8
BLACK
6
CONTINUOUS
10
112.035
20
-48.6662
11
111.857
21
-49.4383
0
LINE
8
BLACK
6
CONTINUOUS
10
111.857
20
-49.4383
11
111.666
21
-50.2726
0
LINE
8
BLACK
6
CONTINUOUS
10
111.666
20
-50.2726
11
111.666
21
-50.2726
0
LINE
8
BLACK
6
CONTINUOUS
10
111.666
20
-50.2726
11
111.464
21
-51.154
0
LINE
8
BLACK
6
CONTINUOUS
10
111.464
20
-51.154
11
111.285
21
-51.935
0
LINE
8
BLACK
6
CONTINUOUS
10
111.285
20
-51.935
11
111.285
21
-51.935
0
LINE
8
BLACK
6
CONTINUOUS
10
111.285
20
-51.935
11
111.285
21
-51.935
0
LINE
8
BLACK
6
CONTINUOUS
10
111.285
20
-51.935
11
111.094
21
-52.768
0
LINE
8
BLACK
6
CONTINUOUS
10
111.094
20
-52.768
11
111.094
21
-52.768
0
LINE
8
BLACK
6
CONTINUOUS
10
111.094
20
-52.768
11
110.917
21
-53.5376
0
LINE
8
BLACK
6
CONTINUOUS
10
110.917
20
-53.5376
11
110.917
21
-53.5376
0
LINE
8
BLACK
6
CONTINUOUS
10
110.917
20
-53.5376
11
110.917
21
-53.5376
0
LINE
8
BLACK
6
CONTINUOUS
10
110.917
20
-53.5376
11
110.758
21
-54.2292
0
LINE
8
BLACK
6
CONTINUOUS
10
110.758
20
-54.2292
11
110.758
21
-54.2292
0
LINE
8
BLACK
6
CONTINUOUS
10
110.758
20
-54.2292
11
110.758
21
-54.2292
0
LINE
8
BLACK
6
CONTINUOUS
10
110.758
20
-54.2292
11
110.619
21
-54.8283
0
LINE
8
BLACK
6
CONTINUOUS
10
110.619
20
-54.8283
11
110.619
21
-54.8283
0
LINE
8
BLACK
6
CONTINUOUS
10
110.619
20
-54.8283
11
110.619
21
-54.8283
0
LINE
8
BLACK
6
CONTINUOUS
10
110.619
20
-54.8283
11
110.504
21
-55.3204
0
LINE
8
BLACK
6
CONTINUOUS
10
110.504
20
-55.3204
11
110.504
21
-55.3204
0
LINE
8
BLACK
6
CONTINUOUS
10
110.504
20
-55.3204
11
110.504
21
-55.3205
0
LINE
8
BLACK
6
CONTINUOUS
10
110.504
20
-55.3205
11
110.417
21
-55.691
0
LINE
8
BLACK
6
CONTINUOUS
10
110.417
20
-55.691
11
110.417
21
-55.691
0
LINE
8
BLACK
6
CONTINUOUS
10
110.417
20
-55.691
11
110.417
21
-55.691
0
LINE
8
BLACK
6
CONTINUOUS
10
110.417
20
-55.691
11
110.361
21
-55.9256
0
LINE
8
BLACK
6
CONTINUOUS
10
110.361
20
-55.9256
11
110.361
21
-55.9256
0
LINE
8
BLACK
6
CONTINUOUS
10
110.361
20
-55.9256
11
110.361
21
-55.9257
0
LINE
8
BLACK
6
CONTINUOUS
10
110.361
20
-55.9257
11
110.339
21
-56.0096
0
LINE
8
BLACK
6
CONTINUOUS
10
110.339
20
-56.0096
11
110.339
21
-56.01
0
LINE
8
BLACK
6
CONTINUOUS
10
110.339
20
-56.01
11
110.338
21
-56.0104
0
LINE
8
BLACK
6
CONTINUOUS
10
110.338
20
-56.0104
11
110.338
21
-56.0107
0
LINE
8
BLACK
6
CONTINUOUS
10
110.338
20
-56.0107
11
110.338
21
-56.0112
0
LINE
8
BLACK
6
CONTINUOUS
10
110.338
20
-56.0112
11
110.338
21
-56.0115
0
LINE
8
BLACK
6
CONTINUOUS
10
110.338
20
-56.0115
11
110.337
21
-56.0118
0
LINE
8
BLACK
6
CONTINUOUS
10
110.337
20
-56.0118
11
110.337
21
-56.0121
0
LINE
8
BLACK
6
CONTINUOUS
10
110.337
20
-56.0121
11
110.337
21
-56.0124
0
LINE
8
BLACK
6
CONTINUOUS
10
110.337
20
-56.0124
11
110.336
21
-56.0126
0
LINE
8
BLACK
6
CONTINUOUS
10
110.336
20
-56.0126
11
110.336
21
-56.0128
0
LINE
8
BLACK
6
CONTINUOUS
10
110.336
20
-56.0128
11
110.336
21
-56.0129
0
LINE
8
BLACK
6
CONTINUOUS
10
110.336
20
-56.0129
11
110.335
21
-56.0131
0
LINE
8
BLACK
6
CONTINUOUS
10
110.335
20
-56.0131
11
110.335
21
-56.0132
0
LINE
8
BLACK
6
CONTINUOUS
10
110.335
20
-56.0132
11
110.334
21
-56.0133
0
LINE
8
BLACK
6
CONTINUOUS
10
110.334
20
-56.0133
11
110.334
21
-56.0133
0
LINE
8
BLACK
6
CONTINUOUS
10
110.334
20
-56.0133
11
110.333
21
-56.0133
0
LINE
8
BLACK
6
CONTINUOUS
10
110.333
20
-56.0133
11
110.333
21
-56.0132
0
LINE
8
BLACK
6
CONTINUOUS
10
110.333
20
-56.0132
11
110.333
21
-56.0132
0
LINE
8
BLACK
6
CONTINUOUS
10
110.333
20
-56.0132
11
110.332
21
-56.013
0
LINE
8
BLACK
6
CONTINUOUS
10
110.332
20
-56.013
11
110.332
21
-56.0129
0
LINE
8
BLACK
6
CONTINUOUS
10
110.332
20
-56.0129
11
110.331
21
-56.0126
0
LINE
8
BLACK
6
CONTINUOUS
10
110.331
20
-56.0126
11
110.331
21
-56.0125
0
LINE
8
BLACK
6
CONTINUOUS
10
110.331
20
-56.0125
11
110.331
21
-56.0121
0
LINE
8
BLACK
6
CONTINUOUS
10
110.331
20
-56.0121
11
110.33
21
-56.0119
0
LINE
8
BLACK
6
CONTINUOUS
10
110.33
20
-56.0119
11
110.33
21
-56.0115
0
LINE
8
BLACK
6
CONTINUOUS
10
110.33
20
-56.0115
11
110.33
21
-56.0113
0
LINE
8
BLACK
6
CONTINUOUS
10
110.33
20
-56.0113
11
110.33
21
-56.0109
0
LINE
8
BLACK
6
CONTINUOUS
10
110.33
20
-56.0109
11
110.329
21
-56.0105
0
LINE
8
BLACK
6
CONTINUOUS
10
110.329
20
-56.0105
11
110.329
21
-56.0101
0
LINE
8
BLACK
6
CONTINUOUS
10
110.329
20
-56.0101
11
110.329
21
-56.0097
0
LINE
8
BLACK
6
CONTINUOUS
10
110.329
20
-56.0097
11
110.308
21
-55.9364
0
LINE
8
BLACK
6
CONTINUOUS
10
110.308
20
-55.9364
11
110.308
21
-55.9363
0
LINE
8
BLACK
6
CONTINUOUS
10
110.308
20
-55.9363
11
110.308
21
-55.9362
0
LINE
8
BLACK
6
CONTINUOUS
10
110.308
20
-55.9362
11
110.252
21
-55.7118
0
LINE
8
BLACK
6
CONTINUOUS
10
110.252
20
-55.7118
11
110.252
21
-55.7117
0
LINE
8
BLACK
6
CONTINUOUS
10
110.252
20
-55.7117
11
110.252
21
-55.7117
0
LINE
8
BLACK
6
CONTINUOUS
10
110.252
20
-55.7117
11
110.166
21
-55.3503
0
LINE
8
BLACK
6
CONTINUOUS
10
110.166
20
-55.3503
11
110.166
21
-55.3503
0
LINE
8
BLACK
6
CONTINUOUS
10
110.166
20
-55.3503
11
110.166
21
-55.3503
0
LINE
8
BLACK
6
CONTINUOUS
10
110.166
20
-55.3503
11
110.052
21
-54.8662
0
LINE
8
BLACK
6
CONTINUOUS
10
110.052
20
-54.8662
11
110.052
21
-54.8662
0
LINE
8
BLACK
6
CONTINUOUS
10
110.052
20
-54.8662
11
110.052
21
-54.8662
0
LINE
8
BLACK
6
CONTINUOUS
10
110.052
20
-54.8662
11
109.914
21
-54.2736
0
LINE
8
BLACK
6
CONTINUOUS
10
109.914
20
-54.2736
11
109.914
21
-54.2736
0
LINE
8
BLACK
6
CONTINUOUS
10
109.914
20
-54.2736
11
109.914
21
-54.2736
0
LINE
8
BLACK
6
CONTINUOUS
10
109.914
20
-54.2736
11
109.755
21
-53.5867
0
LINE
8
BLACK
6
CONTINUOUS
10
109.755
20
-53.5867
11
109.755
21
-53.5867
0
LINE
8
BLACK
6
CONTINUOUS
10
109.755
20
-53.5867
11
109.755
21
-53.5867
0
LINE
8
BLACK
6
CONTINUOUS
10
109.755
20
-53.5867
11
109.578
21
-52.8197
0
LINE
8
BLACK
6
CONTINUOUS
10
109.578
20
-52.8197
11
109.578
21
-52.8197
0
LINE
8
BLACK
6
CONTINUOUS
10
109.578
20
-52.8197
11
109.578
21
-52.8197
0
LINE
8
BLACK
6
CONTINUOUS
10
109.578
20
-52.8197
11
109.387
21
-51.987
0
LINE
8
BLACK
6
CONTINUOUS
10
109.387
20
-51.987
11
109.387
21
-51.987
0
LINE
8
BLACK
6
CONTINUOUS
10
109.387
20
-51.987
11
109.387
21
-51.987
0
LINE
8
BLACK
6
CONTINUOUS
10
109.387
20
-51.987
11
109.185
21
-51.1027
0
LINE
8
BLACK
6
CONTINUOUS
10
109.185
20
-51.1027
11
108.99
21
-50.2492
0
LINE
8
BLACK
6
CONTINUOUS
10
108.99
20
-50.2492
11
108.797
21
-49.4082
0
LINE
8
BLACK
6
CONTINUOUS
10
108.797
20
-49.4082
11
108.617
21
-48.6302
0
LINE
8
BLACK
6
CONTINUOUS
10
108.617
20
-48.6302
11
108.617
21
-48.6302
0
LINE
8
BLACK
6
CONTINUOUS
10
108.617
20
-48.6302
11
108.455
21
-47.9297
0
LINE
8
BLACK
6
CONTINUOUS
10
108.455
20
-47.9297
11
108.455
21
-47.9297
0
LINE
8
BLACK
6
CONTINUOUS
10
108.455
20
-47.9297
11
108.312
21
-47.3214
0
LINE
8
BLACK
6
CONTINUOUS
10
108.312
20
-47.3214
11
108.312
21
-47.3214
0
LINE
8
BLACK
6
CONTINUOUS
10
108.312
20
-47.3214
11
108.194
21
-46.8198
0
LINE
8
BLACK
6
CONTINUOUS
10
108.194
20
-46.8198
11
108.103
21
-46.4396
0
LINE
8
BLACK
6
CONTINUOUS
10
108.103
20
-46.4396
11
108.042
21
-46.1954
0
LINE
8
BLACK
6
CONTINUOUS
10
108.042
20
-46.1954
11
108.016
21
-46.1027
0
LINE
8
BLACK
6
CONTINUOUS
10
108.016
20
-46.1027
11
108.012
21
-46.0983
0
LINE
8
BLACK
6
CONTINUOUS
10
108.012
20
-46.0983
11
107.893
21
-46.0619
0
LINE
8
BLACK
6
CONTINUOUS
10
107.893
20
-46.0619
11
107.689
21
-46.0649
0
LINE
8
BLACK
6
CONTINUOUS
10
107.689
20
-46.0649
11
107.656
21
-46.0683
0
LINE
8
BLACK
6
CONTINUOUS
10
107.656
20
-46.0683
11
107.656
21
-46.0682
0
LINE
8
BLACK
6
CONTINUOUS
10
107.656
20
-46.0682
11
107.655
21
-46.0683
0
LINE
8
BLACK
6
CONTINUOUS
10
107.655
20
-46.0683
11
107.475
21
-46.0672
0
LINE
8
BLACK
6
CONTINUOUS
10
107.475
20
-46.0672
11
107.475
21
-46.0672
0
LINE
8
BLACK
6
CONTINUOUS
10
107.475
20
-46.0672
11
107.475
21
-46.0672
0
LINE
8
BLACK
6
CONTINUOUS
10
107.475
20
-46.0672
11
107.474
21
-46.067
0
LINE
8
BLACK
6
CONTINUOUS
10
107.474
20
-46.067
11
107.474
21
-46.0669
0
LINE
8
BLACK
6
CONTINUOUS
10
107.474
20
-46.0669
11
107.473
21
-46.0668
0
LINE
8
BLACK
6
CONTINUOUS
10
107.473
20
-46.0668
11
107.473
21
-46.0667
0
LINE
8
BLACK
6
CONTINUOUS
10
107.473
20
-46.0667
11
107.4
21
-46.0301
0
LINE
8
BLACK
6
CONTINUOUS
10
107.4
20
-46.0301
11
107.399
21
-46.0296
0
LINE
8
BLACK
6
CONTINUOUS
10
107.399
20
-46.0296
11
107.398
21
-46.0292
0
LINE
8
BLACK
6
CONTINUOUS
10
107.398
20
-46.0292
11
107.398
21
-46.0291
0
LINE
8
BLACK
6
CONTINUOUS
10
107.398
20
-46.0291
11
107.398
21
-46.0291
0
LINE
8
BLACK
6
CONTINUOUS
10
107.398
20
-46.0291
11
107.398
21
-46.0284
0
LINE
8
BLACK
6
CONTINUOUS
10
107.398
20
-46.0284
11
107.397
21
-46.0277
0
LINE
8
BLACK
6
CONTINUOUS
10
107.397
20
-46.0277
11
107.397
21
-46.0277
0
LINE
8
BLACK
6
CONTINUOUS
10
107.397
20
-46.0277
11
107.397
21
-46.0277
0
LINE
8
BLACK
6
CONTINUOUS
10
107.397
20
-46.0277
11
107.397
21
-46.0269
0
LINE
8
BLACK
6
CONTINUOUS
10
107.397
20
-46.0269
11
107.397
21
-46.026
0
LINE
8
BLACK
6
CONTINUOUS
10
107.397
20
-46.026
11
107.397
21
-46.026
0
LINE
8
BLACK
6
CONTINUOUS
10
107.397
20
-46.026
11
107.397
21
-46.026
0
LINE
8
BLACK
6
CONTINUOUS
10
107.397
20
-46.026
11
107.397
21
-46.0251
0
LINE
8
BLACK
6
CONTINUOUS
10
107.397
20
-46.0251
11
107.397
21
-46.0243
0
LINE
8
BLACK
6
CONTINUOUS
10
107.397
20
-46.0243
11
107.397
21
-46.0243
0
LINE
8
BLACK
6
CONTINUOUS
10
107.397
20
-46.0243
11
107.397
21
-46.0242
0
LINE
8
BLACK
6
CONTINUOUS
10
107.397
20
-46.0242
11
107.398
21
-46.0235
0
LINE
8
BLACK
6
CONTINUOUS
10
107.398
20
-46.0235
11
107.398
21
-46.0228
0
LINE
8
BLACK
6
CONTINUOUS
10
107.398
20
-46.0228
11
107.398
21
-46.0227
0
LINE
8
BLACK
6
CONTINUOUS
10
107.398
20
-46.0227
11
107.398
21
-46.0227
0
LINE
8
BLACK
6
CONTINUOUS
10
107.398
20
-46.0227
11
107.399
21
-46.0221
0
LINE
8
BLACK
6
CONTINUOUS
10
107.399
20
-46.0221
11
107.399
21
-46.0215
0
LINE
8
BLACK
6
CONTINUOUS
10
107.399
20
-46.0215
11
107.399
21
-46.0215
0
LINE
8
BLACK
6
CONTINUOUS
10
107.399
20
-46.0215
11
107.399
21
-46.0215
0
LINE
8
BLACK
6
CONTINUOUS
10
107.399
20
-46.0215
11
107.4
21
-46.0212
0
LINE
8
BLACK
6
CONTINUOUS
10
107.4
20
-46.0212
11
107.401
21
-46.0208
0
LINE
8
BLACK
6
CONTINUOUS
10
107.401
20
-46.0208
11
107.43
21
-46.0132
0
LINE
8
BLACK
6
CONTINUOUS
10
107.43
20
-46.0132
11
107.431
21
-46.0132
0
LINE
8
BLACK
6
CONTINUOUS
10
107.431
20
-46.0132
11
107.431
21
-46.0131
0
LINE
8
BLACK
6
CONTINUOUS
10
107.431
20
-46.0131
11
107.607
21
-46.0011
0
LINE
8
BLACK
6
CONTINUOUS
10
107.607
20
-46.0011
11
107.607
21
-46.0011
0
LINE
8
BLACK
6
CONTINUOUS
10
107.607
20
-46.0011
11
107.607
21
-46.0011
0
LINE
8
BLACK
6
CONTINUOUS
10
107.607
20
-46.0011
11
107.928
21
-45.9903
0
LINE
8
BLACK
6
CONTINUOUS
10
107.928
20
-45.9903
11
107.928
21
-45.9903
0
LINE
8
BLACK
6
CONTINUOUS
10
107.928
20
-45.9903
11
107.928
21
-45.9903
0
LINE
8
BLACK
6
CONTINUOUS
10
107.928
20
-45.9903
11
108.379
21
-45.9808
0
LINE
8
BLACK
6
CONTINUOUS
10
108.379
20
-45.9808
11
108.379
21
-45.9808
0
LINE
8
BLACK
6
CONTINUOUS
10
108.379
20
-45.9808
11
108.379
21
-45.9808
0
LINE
8
BLACK
6
CONTINUOUS
10
108.379
20
-45.9808
11
108.943
21
-45.9728
0
LINE
8
BLACK
6
CONTINUOUS
10
108.943
20
-45.9728
11
108.943
21
-45.9728
0
LINE
8
BLACK
6
CONTINUOUS
10
108.943
20
-45.9728
11
108.943
21
-45.9728
0
LINE
8
BLACK
6
CONTINUOUS
10
108.943
20
-45.9728
11
109.607
21
-45.9666
0
LINE
8
BLACK
6
CONTINUOUS
10
109.607
20
-45.9666
11
109.607
21
-45.9666
0
LINE
8
BLACK
6
CONTINUOUS
10
109.607
20
-45.9666
11
109.607
21
-45.9666
0
LINE
8
BLACK
6
CONTINUOUS
10
109.607
20
-45.9666
11
110.354
21
-45.9623
0
LINE
8
BLACK
6
CONTINUOUS
10
110.354
20
-45.9623
11
110.354
21
-45.9623
0
LINE
8
BLACK
6
CONTINUOUS
10
110.354
20
-45.9623
11
110.354
21
-45.9623
0
LINE
8
BLACK
6
CONTINUOUS
10
110.354
20
-45.9623
11
111.169
21
-45.9601
0
LINE
8
BLACK
6
CONTINUOUS
10
111.169
20
-45.9601
11
111.169
21
-45.9601
0
LINE
8
BLACK
6
CONTINUOUS
10
111.169
20
-45.9601
11
111.169
21
-45.9601
0
LINE
8
BLACK
6
CONTINUOUS
10
111.169
20
-45.9601
11
112.038
21
-45.9603
0
LINE
8
BLACK
6
CONTINUOUS
10
174.698
20
-57.5102
11
174.698
21
-57.5102
0
LINE
8
BLACK
6
CONTINUOUS
10
174.698
20
-57.5102
11
174.698
21
-57.5102
0
LINE
8
BLACK
6
CONTINUOUS
10
174.698
20
-57.5102
11
175.314
21
-57.5136
0
LINE
8
BLACK
6
CONTINUOUS
10
175.314
20
-57.5136
11
175.314
21
-57.5136
0
LINE
8
BLACK
6
CONTINUOUS
10
175.314
20
-57.5136
11
175.314
21
-57.5136
0
LINE
8
BLACK
6
CONTINUOUS
10
175.314
20
-57.5136
11
175.865
21
-57.5205
0
LINE
8
BLACK
6
CONTINUOUS
10
175.865
20
-57.5205
11
175.865
21
-57.5206
0
LINE
8
BLACK
6
CONTINUOUS
10
175.865
20
-57.5206
11
175.865
21
-57.5205
0
LINE
8
BLACK
6
CONTINUOUS
10
175.865
20
-57.5205
11
176.33
21
-57.5305
0
LINE
8
BLACK
6
CONTINUOUS
10
176.33
20
-57.5305
11
176.33
21
-57.5305
0
LINE
8
BLACK
6
CONTINUOUS
10
176.33
20
-57.5305
11
176.33
21
-57.5305
0
LINE
8
BLACK
6
CONTINUOUS
10
176.33
20
-57.5305
11
176.687
21
-57.543
0
LINE
8
BLACK
6
CONTINUOUS
10
176.687
20
-57.543
11
176.687
21
-57.543
0
LINE
8
BLACK
6
CONTINUOUS
10
176.687
20
-57.543
11
176.687
21
-57.543
0
LINE
8
BLACK
6
CONTINUOUS
10
176.687
20
-57.543
11
176.917
21
-57.5575
0
LINE
8
BLACK
6
CONTINUOUS
10
176.917
20
-57.5575
11
176.917
21
-57.5576
0
LINE
8
BLACK
6
CONTINUOUS
10
176.917
20
-57.5576
11
176.918
21
-57.5576
0
LINE
8
BLACK
6
CONTINUOUS
10
176.918
20
-57.5576
11
176.999
21
-57.5736
0
LINE
8
BLACK
6
CONTINUOUS
10
176.999
20
-57.5736
11
177
21
-57.5738
0
LINE
8
BLACK
6
CONTINUOUS
10
177
20
-57.5738
11
177
21
-57.574
0
LINE
8
BLACK
6
CONTINUOUS
10
177
20
-57.574
11
177
21
-57.5741
0
LINE
8
BLACK
6
CONTINUOUS
10
177
20
-57.5741
11
177.001
21
-57.5742
0
LINE
8
BLACK
6
CONTINUOUS
10
177.001
20
-57.5742
11
177.001
21
-57.5746
0
LINE
8
BLACK
6
CONTINUOUS
10
177.001
20
-57.5746
11
177.002
21
-57.5749
0
LINE
8
BLACK
6
CONTINUOUS
10
177.002
20
-57.5749
11
177.002
21
-57.5752
0
LINE
8
BLACK
6
CONTINUOUS
10
177.002
20
-57.5752
11
177.002
21
-57.5754
0
LINE
8
BLACK
6
CONTINUOUS
10
177.002
20
-57.5754
11
177.002
21
-57.5759
0
LINE
8
BLACK
6
CONTINUOUS
10
177.002
20
-57.5759
11
177.003
21
-57.5764
0
LINE
8
BLACK
6
CONTINUOUS
10
177.003
20
-57.5764
11
177.003
21
-57.5766
0
LINE
8
BLACK
6
CONTINUOUS
10
177.003
20
-57.5766
11
177.003
21
-57.5769
0
LINE
8
BLACK
6
CONTINUOUS
10
177.003
20
-57.5769
11
177.003
21
-57.5775
0
LINE
8
BLACK
6
CONTINUOUS
10
177.003
20
-57.5775
11
177.003
21
-57.578
0
LINE
8
BLACK
6
CONTINUOUS
10
177.003
20
-57.578
11
177.003
21
-57.5783
0
LINE
8
BLACK
6
CONTINUOUS
10
177.003
20
-57.5783
11
177.003
21
-57.5786
0
LINE
8
BLACK
6
CONTINUOUS
10
177.003
20
-57.5786
11
177.003
21
-57.5792
0
LINE
8
BLACK
6
CONTINUOUS
10
177.003
20
-57.5792
11
177.003
21
-57.5798
0
LINE
8
BLACK
6
CONTINUOUS
10
177.003
20
-57.5798
11
177.003
21
-57.58
0
LINE
8
BLACK
6
CONTINUOUS
10
177.003
20
-57.58
11
177.003
21
-57.5803
0
LINE
8
BLACK
6
CONTINUOUS
10
177.003
20
-57.5803
11
177.002
21
-57.5808
0
LINE
8
BLACK
6
CONTINUOUS
10
177.002
20
-57.5808
11
177.002
21
-57.5814
0
LINE
8
BLACK
6
CONTINUOUS
10
177.002
20
-57.5814
11
177.002
21
-57.5815
0
LINE
8
BLACK
6
CONTINUOUS
10
177.002
20
-57.5815
11
177.002
21
-57.5818
0
LINE
8
BLACK
6
CONTINUOUS
10
177.002
20
-57.5818
11
177.001
21
-57.5822
0
LINE
8
BLACK
6
CONTINUOUS
10
177.001
20
-57.5822
11
177.001
21
-57.5826
0
LINE
8
BLACK
6
CONTINUOUS
10
177.001
20
-57.5826
11
177.001
21
-57.5827
0
LINE
8
BLACK
6
CONTINUOUS
10
177.001
20
-57.5827
11
177
21
-57.5829
0
LINE
8
BLACK
6
CONTINUOUS
10
177
20
-57.5829
11
177
21
-57.5831
0
LINE
8
BLACK
6
CONTINUOUS
10
177
20
-57.5831
11
176.999
21
-57.5833
0
LINE
8
BLACK
6
CONTINUOUS
10
176.999
20
-57.5833
11
176.994
21
-57.5849
0
LINE
8
BLACK
6
CONTINUOUS
10
176.994
20
-57.5849
11
176.993
21
-57.585
0
LINE
8
BLACK
6
CONTINUOUS
10
176.993
20
-57.585
11
176.992
21
-57.5851
0
LINE
8
BLACK
6
CONTINUOUS
10
176.992
20
-57.5851
11
176.866
21
-57.591
0
LINE
8
BLACK
6
CONTINUOUS
10
176.866
20
-57.591
11
176.866
21
-57.591
0
LINE
8
BLACK
6
CONTINUOUS
10
176.866
20
-57.591
11
176.866
21
-57.591
0
LINE
8
BLACK
6
CONTINUOUS
10
176.866
20
-57.591
11
176.579
21
-57.5967
0
LINE
8
BLACK
6
CONTINUOUS
10
176.579
20
-57.5967
11
176.579
21
-57.5967
0
LINE
8
BLACK
6
CONTINUOUS
10
176.579
20
-57.5967
11
176.579
21
-57.5967
0
LINE
8
BLACK
6
CONTINUOUS
10
176.579
20
-57.5967
11
176.141
21
-57.6022
0
LINE
8
BLACK
6
CONTINUOUS
10
176.141
20
-57.6022
11
176.141
21
-57.6022
0
LINE
8
BLACK
6
CONTINUOUS
10
176.141
20
-57.6022
11
176.141
21
-57.6022
0
LINE
8
BLACK
6
CONTINUOUS
10
176.141
20
-57.6022
11
175.558
21
-57.6074
0
LINE
8
BLACK
6
CONTINUOUS
10
175.558
20
-57.6074
11
175.558
21
-57.6074
0
LINE
8
BLACK
6
CONTINUOUS
10
175.558
20
-57.6074
11
175.558
21
-57.6074
0
LINE
8
BLACK
6
CONTINUOUS
10
175.558
20
-57.6074
11
174.838
21
-57.6124
0
LINE
8
BLACK
6
CONTINUOUS
10
174.838
20
-57.6124
11
174.838
21
-57.6124
0
LINE
8
BLACK
6
CONTINUOUS
10
174.838
20
-57.6124
11
174.838
21
-57.6124
0
LINE
8
BLACK
6
CONTINUOUS
10
174.838
20
-57.6124
11
173.989
21
-57.617
0
LINE
8
BLACK
6
CONTINUOUS
10
173.989
20
-57.617
11
173.989
21
-57.617
0
LINE
8
BLACK
6
CONTINUOUS
10
173.989
20
-57.617
11
173.019
21
-57.6213
0
LINE
8
BLACK
6
CONTINUOUS
10
173.019
20
-57.6213
11
173.019
21
-57.6213
0
LINE
8
BLACK
6
CONTINUOUS
10
173.019
20
-57.6213
11
171.935
21
-57.6252
0
LINE
8
BLACK
6
CONTINUOUS
10
171.935
20
-57.6252
11
171.935
21
-57.6252
0
LINE
8
BLACK
6
CONTINUOUS
10
171.935
20
-57.6252
11
170.744
21
-57.6288
0
LINE
8
BLACK
6
CONTINUOUS
10
170.744
20
-57.6288
11
170.744
21
-57.6288
0
LINE
8
BLACK
6
CONTINUOUS
10
170.744
20
-57.6288
11
169.455
21
-57.632
0
LINE
8
BLACK
6
CONTINUOUS
10
169.455
20
-57.632
11
169.455
21
-57.632
0
LINE
8
BLACK
6
CONTINUOUS
10
169.455
20
-57.632
11
168.074
21
-57.6347
0
LINE
8
BLACK
6
CONTINUOUS
10
168.074
20
-57.6347
11
168.074
21
-57.6347
0
LINE
8
BLACK
6
CONTINUOUS
10
168.074
20
-57.6347
11
166.611
21
-57.637
0
LINE
8
BLACK
6
CONTINUOUS
10
166.611
20
-57.637
11
166.611
21
-57.637
0
LINE
8
BLACK
6
CONTINUOUS
10
166.611
20
-57.637
11
165.071
21
-57.6389
0
LINE
8
BLACK
6
CONTINUOUS
10
165.071
20
-57.6389
11
165.071
21
-57.6389
0
LINE
8
BLACK
6
CONTINUOUS
10
165.071
20
-57.6389
11
163.463
21
-57.6402
0
LINE
8
BLACK
6
CONTINUOUS
10
163.463
20
-57.6402
11
163.463
21
-57.6402
0
LINE
8
BLACK
6
CONTINUOUS
10
163.463
20
-57.6402
11
161.795
21
-57.641
0
LINE
8
BLACK
6
CONTINUOUS
10
161.795
20
-57.641
11
161.795
21
-57.641
0
LINE
8
BLACK
6
CONTINUOUS
10
161.795
20
-57.641
11
160.074
21
-57.6413
0
LINE
8
BLACK
6
CONTINUOUS
10
160.074
20
-57.6413
11
160.074
21
-57.6413
0
LINE
8
BLACK
6
CONTINUOUS
10
160.074
20
-57.6413
11
158.308
21
-57.641
0
LINE
8
BLACK
6
CONTINUOUS
10
158.308
20
-57.641
11
158.308
21
-57.641
0
LINE
8
BLACK
6
CONTINUOUS
10
158.308
20
-57.641
11
157.718
21
-57.6408
0
LINE
8
BLACK
6
CONTINUOUS
10
157.718
20
-57.6408
11
155.647
21
-57.64
0
LINE
8
BLACK
6
CONTINUOUS
10
155.647
20
-57.64
11
155.647
21
-57.64
0
LINE
8
BLACK
6
CONTINUOUS
10
155.647
20
-57.64
11
153.738
21
-57.639
0
LINE
8
BLACK
6
CONTINUOUS
10
153.738
20
-57.639
11
153.738
21
-57.639
0
LINE
8
BLACK
6
CONTINUOUS
10
153.738
20
-57.639
11
151.985
21
-57.6378
0
LINE
8
BLACK
6
CONTINUOUS
10
151.985
20
-57.6378
11
150.38
21
-57.6363
0
LINE
8
BLACK
6
CONTINUOUS
10
150.38
20
-57.6363
11
150.38
21
-57.6363
0
LINE
8
BLACK
6
CONTINUOUS
10
150.38
20
-57.6363
11
148.919
21
-57.6345
0
LINE
8
BLACK
6
CONTINUOUS
10
148.919
20
-57.6345
11
148.919
21
-57.6345
0
LINE
8
BLACK
6
CONTINUOUS
10
148.919
20
-57.6345
11
147.594
21
-57.6323
0
LINE
8
BLACK
6
CONTINUOUS
10
147.594
20
-57.6323
11
147.594
21
-57.6323
0
LINE
8
BLACK
6
CONTINUOUS
10
147.594
20
-57.6323
11
146.4
21
-57.6297
0
LINE
8
BLACK
6
CONTINUOUS
10
146.4
20
-57.6297
11
146.4
21
-57.6297
0
LINE
8
BLACK
6
CONTINUOUS
10
146.4
20
-57.6297
11
145.33
21
-57.6267
0
LINE
8
BLACK
6
CONTINUOUS
10
145.33
20
-57.6267
11
145.33
21
-57.6267
0
LINE
8
BLACK
6
CONTINUOUS
10
145.33
20
-57.6267
11
144.378
21
-57.6232
0
LINE
8
BLACK
6
CONTINUOUS
10
144.378
20
-57.6232
11
144.378
21
-57.6232
0
LINE
8
BLACK
6
CONTINUOUS
10
144.378
20
-57.6232
11
144.378
21
-57.6232
0
LINE
8
BLACK
6
CONTINUOUS
10
144.378
20
-57.6232
11
143.539
21
-57.6191
0
LINE
8
BLACK
6
CONTINUOUS
10
143.539
20
-57.6191
11
143.539
21
-57.6191
0
LINE
8
BLACK
6
CONTINUOUS
10
143.539
20
-57.6191
11
143.539
21
-57.6191
0
LINE
8
BLACK
6
CONTINUOUS
10
143.539
20
-57.6191
11
142.805
21
-57.6145
0
LINE
8
BLACK
6
CONTINUOUS
10
142.805
20
-57.6145
11
142.805
21
-57.6145
0
LINE
8
BLACK
6
CONTINUOUS
10
142.805
20
-57.6145
11
142.805
21
-57.6145
0
LINE
8
BLACK
6
CONTINUOUS
10
142.805
20
-57.6145
11
142.171
21
-57.6093
0
LINE
8
BLACK
6
CONTINUOUS
10
142.171
20
-57.6093
11
142.171
21
-57.6093
0
LINE
8
BLACK
6
CONTINUOUS
10
142.171
20
-57.6093
11
142.171
21
-57.6093
0
LINE
8
BLACK
6
CONTINUOUS
10
142.171
20
-57.6093
11
141.63
21
-57.6034
0
LINE
8
BLACK
6
CONTINUOUS
10
141.63
20
-57.6034
11
141.63
21
-57.6034
0
LINE
8
BLACK
6
CONTINUOUS
10
141.63
20
-57.6034
11
141.63
21
-57.6034
0
LINE
8
BLACK
6
CONTINUOUS
10
141.63
20
-57.6034
11
141.177
21
-57.5968
0
LINE
8
BLACK
6
CONTINUOUS
10
141.177
20
-57.5968
11
141.177
21
-57.5968
0
LINE
8
BLACK
6
CONTINUOUS
10
141.177
20
-57.5968
11
141.177
21
-57.5968
0
LINE
8
BLACK
6
CONTINUOUS
10
141.177
20
-57.5968
11
140.804
21
-57.5895
0
LINE
8
BLACK
6
CONTINUOUS
10
140.804
20
-57.5895
11
140.804
21
-57.5895
0
LINE
8
BLACK
6
CONTINUOUS
10
140.804
20
-57.5895
11
140.804
21
-57.5895
0
LINE
8
BLACK
6
CONTINUOUS
10
140.804
20
-57.5895
11
140.507
21
-57.5814
0
LINE
8
BLACK
6
CONTINUOUS
10
140.507
20
-57.5814
11
140.507
21
-57.5814
0
LINE
8
BLACK
6
CONTINUOUS
10
140.507
20
-57.5814
11
140.507
21
-57.5814
0
LINE
8
BLACK
6
CONTINUOUS
10
140.507
20
-57.5814
11
140.278
21
-57.5724
0
LINE
8
BLACK
6
CONTINUOUS
10
140.278
20
-57.5724
11
140.278
21
-57.5724
0
LINE
8
BLACK
6
CONTINUOUS
10
140.278
20
-57.5724
11
140.278
21
-57.5724
0
LINE
8
BLACK
6
CONTINUOUS
10
140.278
20
-57.5724
11
140.112
21
-57.5626
0
LINE
8
BLACK
6
CONTINUOUS
10
140.112
20
-57.5626
11
140.111
21
-57.5626
0
LINE
8
BLACK
6
CONTINUOUS
10
140.111
20
-57.5626
11
140.111
21
-57.5626
0
LINE
8
BLACK
6
CONTINUOUS
10
140.111
20
-57.5626
11
140.001
21
-57.5519
0
LINE
8
BLACK
6
CONTINUOUS
10
140.001
20
-57.5519
11
140.001
21
-57.5518
0
LINE
8
BLACK
6
CONTINUOUS
10
140.001
20
-57.5518
11
140.001
21
-57.5518
0
LINE
8
BLACK
6
CONTINUOUS
10
140.001
20
-57.5518
11
139.941
21
-57.5401
0
LINE
8
BLACK
6
CONTINUOUS
10
139.941
20
-57.5401
11
139.941
21
-57.54
0
LINE
8
BLACK
6
CONTINUOUS
10
139.941
20
-57.54
11
139.941
21
-57.5399
0
LINE
8
BLACK
6
CONTINUOUS
10
139.941
20
-57.5399
11
139.94
21
-57.5397
0
LINE
8
BLACK
6
CONTINUOUS
10
139.94
20
-57.5397
11
139.94
21
-57.5395
0
LINE
8
BLACK
6
CONTINUOUS
10
139.94
20
-57.5395
11
139.939
21
-57.5393
0
LINE
8
BLACK
6
CONTINUOUS
10
139.939
20
-57.5393
11
139.939
21
-57.5391
0
LINE
8
BLACK
6
CONTINUOUS
10
139.939
20
-57.5391
11
139.923
21
-57.5264
0
LINE
8
BLACK
6
CONTINUOUS
10
139.923
20
-57.5264
11
139.923
21
-57.5261
0
LINE
8
BLACK
6
CONTINUOUS
10
139.923
20
-57.5261
11
139.923
21
-57.5259
0
LINE
8
BLACK
6
CONTINUOUS
10
139.923
20
-57.5259
11
139.923
21
-57.5255
0
LINE
8
BLACK
6
CONTINUOUS
10
139.923
20
-57.5255
11
139.922
21
-57.5251
0
LINE
8
BLACK
6
CONTINUOUS
10
139.922
20
-57.5251
11
139.922
21
-57.5247
0
LINE
8
BLACK
6
CONTINUOUS
10
139.922
20
-57.5247
11
139.922
21
-57.5244
0
LINE
8
BLACK
6
CONTINUOUS
10
139.922
20
-57.5244
11
139.922
21
-57.5239
0
LINE
8
BLACK
6
CONTINUOUS
10
139.922
20
-57.5239
11
139.922
21
-57.5235
0
LINE
8
BLACK
6
CONTINUOUS
10
139.922
20
-57.5235
11
139.922
21
-57.5231
0
LINE
8
BLACK
6
CONTINUOUS
10
139.922
20
-57.5231
11
139.922
21
-57.5227
0
LINE
8
BLACK
6
CONTINUOUS
10
139.922
20
-57.5227
11
139.922
21
-57.5222
0
LINE
8
BLACK
6
CONTINUOUS
10
139.922
20
-57.5222
11
139.922
21
-57.5218
0
LINE
8
BLACK
6
CONTINUOUS
10
139.922
20
-57.5218
11
139.922
21
-57.5214
0
LINE
8
BLACK
6
CONTINUOUS
10
139.922
20
-57.5214
11
139.922
21
-57.521
0
LINE
8
BLACK
6
CONTINUOUS
10
139.922
20
-57.521
11
139.922
21
-57.5206
0
LINE
8
BLACK
6
CONTINUOUS
10
139.922
20
-57.5206
11
139.922
21
-57.5201
0
LINE
8
BLACK
6
CONTINUOUS
10
139.922
20
-57.5201
11
139.922
21
-57.5198
0
LINE
8
BLACK
6
CONTINUOUS
10
139.922
20
-57.5198
11
139.923
21
-57.5194
0
LINE
8
BLACK
6
CONTINUOUS
10
139.923
20
-57.5194
11
139.923
21
-57.5191
0
LINE
8
BLACK
6
CONTINUOUS
10
139.923
20
-57.5191
11
139.923
21
-57.5188
0
LINE
8
BLACK
6
CONTINUOUS
10
139.923
20
-57.5188
11
139.924
21
-57.5185
0
LINE
8
BLACK
6
CONTINUOUS
10
139.924
20
-57.5185
11
139.924
21
-57.5183
0
LINE
8
BLACK
6
CONTINUOUS
10
139.924
20
-57.5183
11
139.946
21
-57.5046
0
LINE
8
BLACK
6
CONTINUOUS
10
139.946
20
-57.5046
11
139.946
21
-57.5045
0
LINE
8
BLACK
6
CONTINUOUS
10
139.946
20
-57.5045
11
139.946
21
-57.5043
0
LINE
8
BLACK
6
CONTINUOUS
10
139.946
20
-57.5043
11
140.354
21
-57.3074
0
LINE
8
BLACK
6
CONTINUOUS
10
140.354
20
-57.3074
11
140.774
21
-56.949
0
LINE
8
BLACK
6
CONTINUOUS
10
140.774
20
-56.949
11
141.084
21
-56.4633
0
LINE
8
BLACK
6
CONTINUOUS
10
141.084
20
-56.4633
11
141.306
21
-55.9899
0
LINE
8
BLACK
6
CONTINUOUS
10
141.306
20
-55.9899
11
141.306
21
-47.6101
0
LINE
8
BLACK
6
CONTINUOUS
10
141.306
20
-47.6101
11
141.084
21
-47.1366
0
LINE
8
BLACK
6
CONTINUOUS
10
141.084
20
-47.1366
11
140.853
21
-46.7489
0
LINE
8
BLACK
6
CONTINUOUS
10
140.853
20
-46.7489
11
140.459
21
-46.3628
0
LINE
8
BLACK
6
CONTINUOUS
10
140.459
20
-46.3628
11
139.947
21
-46.0957
0
LINE
8
BLACK
6
CONTINUOUS
10
139.947
20
-46.0957
11
139.937
21
-46.092
0
LINE
8
BLACK
6
CONTINUOUS
10
139.937
20
-46.092
11
139.937
21
-46.0919
0
LINE
8
BLACK
6
CONTINUOUS
10
139.937
20
-46.0919
11
139.937
21
-46.0918
0
LINE
8
BLACK
6
CONTINUOUS
10
139.937
20
-46.0918
11
139.936
21
-46.0914
0
LINE
8
BLACK
6
CONTINUOUS
10
139.936
20
-46.0914
11
139.936
21
-46.0911
0
LINE
8
BLACK
6
CONTINUOUS
10
139.936
20
-46.0911
11
139.936
21
-46.0909
0
LINE
8
BLACK
6
CONTINUOUS
10
139.936
20
-46.0909
11
139.936
21
-46.0908
0
LINE
8
BLACK
6
CONTINUOUS
10
139.936
20
-46.0908
11
139.923
21
-46.0773
0
LINE
8
BLACK
6
CONTINUOUS
10
139.923
20
-46.0773
11
139.923
21
-46.077
0
LINE
8
BLACK
6
CONTINUOUS
10
139.923
20
-46.077
11
139.923
21
-46.0768
0
LINE
8
BLACK
6
CONTINUOUS
10
139.923
20
-46.0768
11
139.922
21
-46.0763
0
LINE
8
BLACK
6
CONTINUOUS
10
139.922
20
-46.0763
11
139.922
21
-46.0759
0
LINE
8
BLACK
6
CONTINUOUS
10
139.922
20
-46.0759
11
139.922
21
-46.0755
0
LINE
8
BLACK
6
CONTINUOUS
10
139.922
20
-46.0755
11
139.922
21
-46.0752
0
LINE
8
BLACK
6
CONTINUOUS
10
139.922
20
-46.0752
11
139.922
21
-46.0747
0
LINE
8
BLACK
6
CONTINUOUS
10
139.922
20
-46.0747
11
139.922
21
-46.0742
0
LINE
8
BLACK
6
CONTINUOUS
10
139.922
20
-46.0742
11
139.922
21
-46.0738
0
LINE
8
BLACK
6
CONTINUOUS
10
139.922
20
-46.0738
11
139.922
21
-46.0735
0
LINE
8
BLACK
6
CONTINUOUS
10
139.922
20
-46.0735
11
139.922
21
-46.073
0
LINE
8
BLACK
6
CONTINUOUS
10
139.922
20
-46.073
11
139.922
21
-46.0725
0
LINE
8
BLACK
6
CONTINUOUS
10
139.922
20
-46.0725
11
139.922
21
-46.0721
0
LINE
8
BLACK
6
CONTINUOUS
10
139.922
20
-46.0721
11
139.922
21
-46.0718
0
LINE
8
BLACK
6
CONTINUOUS
10
139.922
20
-46.0718
11
139.923
21
-46.0714
0
LINE
8
BLACK
6
CONTINUOUS
10
139.923
20
-46.0714
11
139.923
21
-46.0709
0
LINE
8
BLACK
6
CONTINUOUS
10
139.923
20
-46.0709
11
139.923
21
-46.0707
0
LINE
8
BLACK
6
CONTINUOUS
10
139.923
20
-46.0707
11
139.923
21
-46.0704
0
LINE
8
BLACK
6
CONTINUOUS
10
139.923
20
-46.0704
11
139.924
21
-46.0701
0
LINE
8
BLACK
6
CONTINUOUS
10
139.924
20
-46.0701
11
139.924
21
-46.0697
0
LINE
8
BLACK
6
CONTINUOUS
10
139.924
20
-46.0697
11
139.924
21
-46.0696
0
LINE
8
BLACK
6
CONTINUOUS
10
139.924
20
-46.0696
11
139.925
21
-46.0694
0
LINE
8
BLACK
6
CONTINUOUS
10
139.925
20
-46.0694
11
139.952
21
-46.057
0
LINE
8
BLACK
6
CONTINUOUS
10
139.952
20
-46.057
11
139.952
21
-46.0568
0
LINE
8
BLACK
6
CONTINUOUS
10
139.952
20
-46.0568
11
139.953
21
-46.0566
0
LINE
8
BLACK
6
CONTINUOUS
10
139.953
20
-46.0566
11
140.026
21
-46.0452
0
LINE
8
BLACK
6
CONTINUOUS
10
140.026
20
-46.0452
11
140.026
21
-46.0452
0
LINE
8
BLACK
6
CONTINUOUS
10
140.026
20
-46.0452
11
140.026
21
-46.0451
0
LINE
8
BLACK
6
CONTINUOUS
10
140.026
20
-46.0451
11
140.151
21
-46.0346
0
LINE
8
BLACK
6
CONTINUOUS
10
140.151
20
-46.0346
11
140.151
21
-46.0346
0
LINE
8
BLACK
6
CONTINUOUS
10
140.151
20
-46.0346
11
140.151
21
-46.0346
0
LINE
8
BLACK
6
CONTINUOUS
10
140.151
20
-46.0346
11
140.333
21
-46.0251
0
LINE
8
BLACK
6
CONTINUOUS
10
140.333
20
-46.0251
11
140.333
21
-46.0251
0
LINE
8
BLACK
6
CONTINUOUS
10
140.333
20
-46.0251
11
140.333
21
-46.025
0
LINE
8
BLACK
6
CONTINUOUS
10
140.333
20
-46.025
11
140.58
21
-46.0163
0
LINE
8
BLACK
6
CONTINUOUS
10
140.58
20
-46.0163
11
140.58
21
-46.0163
0
LINE
8
BLACK
6
CONTINUOUS
10
140.58
20
-46.0163
11
140.58
21
-46.0163
0
LINE
8
BLACK
6
CONTINUOUS
10
140.58
20
-46.0163
11
140.897
21
-46.0084
0
LINE
8
BLACK
6
CONTINUOUS
10
140.897
20
-46.0084
11
140.897
21
-46.0084
0
LINE
8
BLACK
6
CONTINUOUS
10
140.897
20
-46.0084
11
140.898
21
-46.0084
0
LINE
8
BLACK
6
CONTINUOUS
10
140.898
20
-46.0084
11
141.291
21
-46.0013
0
LINE
8
BLACK
6
CONTINUOUS
10
141.291
20
-46.0013
11
141.291
21
-46.0013
0
LINE
8
BLACK
6
CONTINUOUS
10
141.291
20
-46.0013
11
141.291
21
-46.0013
0
LINE
8
BLACK
6
CONTINUOUS
10
141.291
20
-46.0013
11
141.768
21
-45.9949
0
LINE
8
BLACK
6
CONTINUOUS
10
141.768
20
-45.9949
11
141.768
21
-45.9949
0
LINE
8
BLACK
6
CONTINUOUS
10
141.768
20
-45.9949
11
141.768
21
-45.9949
0
LINE
8
BLACK
6
CONTINUOUS
10
141.768
20
-45.9949
11
142.333
21
-45.9892
0
LINE
8
BLACK
6
CONTINUOUS
10
142.333
20
-45.9892
11
142.333
21
-45.9892
0
LINE
8
BLACK
6
CONTINUOUS
10
142.333
20
-45.9892
11
142.333
21
-45.9892
0
LINE
8
BLACK
6
CONTINUOUS
10
142.333
20
-45.9892
11
142.994
21
-45.9842
0
LINE
8
BLACK
6
CONTINUOUS
10
142.994
20
-45.9842
11
142.994
21
-45.9842
0
LINE
8
BLACK
6
CONTINUOUS
10
142.994
20
-45.9842
11
142.994
21
-45.9842
0
LINE
8
BLACK
6
CONTINUOUS
10
142.994
20
-45.9842
11
143.756
21
-45.9797
0
LINE
8
BLACK
6
CONTINUOUS
10
143.756
20
-45.9797
11
143.756
21
-45.9797
0
LINE
8
BLACK
6
CONTINUOUS
10
143.756
20
-45.9797
11
143.756
21
-45.9797
0
LINE
8
BLACK
6
CONTINUOUS
10
143.756
20
-45.9797
11
144.625
21
-45.9758
0
LINE
8
BLACK
6
CONTINUOUS
10
144.625
20
-45.9758
11
144.625
21
-45.9758
0
LINE
8
BLACK
6
CONTINUOUS
10
144.625
20
-45.9758
11
145.608
21
-45.9725
0
LINE
8
BLACK
6
CONTINUOUS
10
145.608
20
-45.9725
11
145.608
21
-45.9725
0
LINE
8
BLACK
6
CONTINUOUS
10
145.608
20
-45.9725
11
146.711
21
-45.9696
0
LINE
8
BLACK
6
CONTINUOUS
10
146.711
20
-45.9696
11
146.711
21
-45.9696
0
LINE
8
BLACK
6
CONTINUOUS
10
146.711
20
-45.9696
11
147.94
21
-45.9671
0
LINE
8
BLACK
6
CONTINUOUS
10
147.94
20
-45.9671
11
147.94
21
-45.9671
0
LINE
8
BLACK
6
CONTINUOUS
10
147.94
20
-45.9671
11
149.302
21
-45.965
0
LINE
8
BLACK
6
CONTINUOUS
10
149.302
20
-45.965
11
149.302
21
-45.965
0
LINE
8
BLACK
6
CONTINUOUS
10
149.302
20
-45.965
11
150.801
21
-45.9633
0
LINE
8
BLACK
6
CONTINUOUS
10
150.801
20
-45.9633
11
150.801
21
-45.9633
0
LINE
8
BLACK
6
CONTINUOUS
10
150.801
20
-45.9633
11
152.446
21
-45.9619
0
LINE
8
BLACK
6
CONTINUOUS
10
152.446
20
-45.9619
11
152.446
21
-45.9619
0
LINE
8
BLACK
6
CONTINUOUS
10
152.446
20
-45.9619
11
154.241
21
-45.9607
0
LINE
8
BLACK
6
CONTINUOUS
10
154.241
20
-45.9607
11
154.241
21
-45.9607
0
LINE
8
BLACK
6
CONTINUOUS
10
154.241
20
-45.9607
11
156.193
21
-45.9597
0
LINE
8
BLACK
6
CONTINUOUS
10
156.193
20
-45.9597
11
156.193
21
-45.9597
0
LINE
8
BLACK
6
CONTINUOUS
10
156.193
20
-45.9597
11
158.308
21
-45.959
0
LINE
8
BLACK
6
CONTINUOUS
10
158.308
20
-45.959
11
176.998
21
-45.953
0
LINE
8
BLACK
6
CONTINUOUS
10
176.998
20
-45.953
11
176.998
21
-45.9531
0
LINE
8
BLACK
6
CONTINUOUS
10
176.998
20
-45.9531
11
176.999
21
-45.9531
0
LINE
8
BLACK
6
CONTINUOUS
10
176.999
20
-45.9531
11
176.999
21
-45.9532
0
LINE
8
BLACK
6
CONTINUOUS
10
176.999
20
-45.9532
11
177
21
-45.9533
0
LINE
8
BLACK
6
CONTINUOUS
10
177
20
-45.9533
11
177
21
-45.9535
0
LINE
8
BLACK
6
CONTINUOUS
10
177
20
-45.9535
11
177
21
-45.9537
0
LINE
8
BLACK
6
CONTINUOUS
10
177
20
-45.9537
11
177.001
21
-45.9539
0
LINE
8
BLACK
6
CONTINUOUS
10
177.001
20
-45.9539
11
177.001
21
-45.9542
0
LINE
8
BLACK
6
CONTINUOUS
10
177.001
20
-45.9542
11
177.001
21
-45.9545
0
LINE
8
BLACK
6
CONTINUOUS
10
177.001
20
-45.9545
11
177.002
21
-45.9548
0
LINE
8
BLACK
6
CONTINUOUS
10
177.002
20
-45.9548
11
177.002
21
-45.9552
0
LINE
8
BLACK
6
CONTINUOUS
10
177.002
20
-45.9552
11
177.002
21
-45.9555
0
LINE
8
BLACK
6
CONTINUOUS
10
177.002
20
-45.9555
11
177.002
21
-45.9559
0
LINE
8
BLACK
6
CONTINUOUS
10
177.002
20
-45.9559
11
177.003
21
-45.9563
0
LINE
8
BLACK
6
CONTINUOUS
10
177.003
20
-45.9563
11
177.003
21
-45.9567
0
LINE
8
BLACK
6
CONTINUOUS
10
177.003
20
-45.9567
11
177.003
21
-45.9571
0
LINE
8
BLACK
6
CONTINUOUS
10
177.003
20
-45.9571
11
177.003
21
-45.9576
0
LINE
8
BLACK
6
CONTINUOUS
10
177.003
20
-45.9576
11
177.003
21
-45.958
0
LINE
8
BLACK
6
CONTINUOUS
10
177.003
20
-45.958
11
177.003
21
-56.88
0
LINE
8
BLACK
6
CONTINUOUS
10
177.003
20
-56.88
11
177.003
21
-56.8804
0
LINE
8
BLACK
6
CONTINUOUS
10
177.003
20
-56.8804
11
177.003
21
-56.8809
0
LINE
8
BLACK
6
CONTINUOUS
10
177.003
20
-56.8809
11
177.003
21
-56.8813
0
LINE
8
BLACK
6
CONTINUOUS
10
177.003
20
-56.8813
11
177.003
21
-56.8817
0
LINE
8
BLACK
6
CONTINUOUS
10
177.003
20
-56.8817
11
177.002
21
-56.8821
0
LINE
8
BLACK
6
CONTINUOUS
10
177.002
20
-56.8821
11
177.002
21
-56.8825
0
LINE
8
BLACK
6
CONTINUOUS
10
177.002
20
-56.8825
11
177.002
21
-56.8828
0
LINE
8
BLACK
6
CONTINUOUS
10
177.002
20
-56.8828
11
177.002
21
-56.8832
0
LINE
8
BLACK
6
CONTINUOUS
10
177.002
20
-56.8832
11
177.001
21
-56.8835
0
LINE
8
BLACK
6
CONTINUOUS
10
177.001
20
-56.8835
11
177.001
21
-56.8838
0
LINE
8
BLACK
6
CONTINUOUS
10
177.001
20
-56.8838
11
177.001
21
-56.884
0
LINE
8
BLACK
6
CONTINUOUS
10
177.001
20
-56.884
11
177
21
-56.8843
0
LINE
8
BLACK
6
CONTINUOUS
10
177
20
-56.8843
11
177
21
-56.8845
0
LINE
8
BLACK
6
CONTINUOUS
10
177
20
-56.8845
11
177
21
-56.8847
0
LINE
8
BLACK
6
CONTINUOUS
10
177
20
-56.8847
11
176.999
21
-56.8848
0
LINE
8
BLACK
6
CONTINUOUS
10
176.999
20
-56.8848
11
176.999
21
-56.8849
0
LINE
8
BLACK
6
CONTINUOUS
10
176.999
20
-56.8849
11
176.998
21
-56.8849
0
LINE
8
BLACK
6
CONTINUOUS
10
176.998
20
-56.8849
11
176.998
21
-56.885
0
LINE
8
BLACK
6
CONTINUOUS
10
176.998
20
-56.885
11
174.798
21
-56.885
0
LINE
8
BLACK
6
CONTINUOUS
10
174.798
20
-56.885
11
174.797
21
-56.8849
0
LINE
8
BLACK
6
CONTINUOUS
10
174.797
20
-56.8849
11
174.797
21
-56.8849
0
LINE
8
BLACK
6
CONTINUOUS
10
174.797
20
-56.8849
11
174.797
21
-56.8848
0
LINE
8
BLACK
6
CONTINUOUS
10
174.797
20
-56.8848
11
174.796
21
-56.8847
0
LINE
8
BLACK
6
CONTINUOUS
10
174.796
20
-56.8847
11
174.796
21
-56.8845
0
LINE
8
BLACK
6
CONTINUOUS
10
174.796
20
-56.8845
11
174.795
21
-56.8843
0
LINE
8
BLACK
6
CONTINUOUS
10
174.795
20
-56.8843
11
174.795
21
-56.8841
0
LINE
8
BLACK
6
CONTINUOUS
10
174.795
20
-56.8841
11
174.795
21
-56.8838
0
LINE
8
BLACK
6
CONTINUOUS
10
174.795
20
-56.8838
11
174.794
21
-56.8835
0
LINE
8
BLACK
6
CONTINUOUS
10
174.794
20
-56.8835
11
174.794
21
-56.8832
0
LINE
8
BLACK
6
CONTINUOUS
10
174.794
20
-56.8832
11
174.794
21
-56.8828
0
LINE
8
BLACK
6
CONTINUOUS
10
174.794
20
-56.8828
11
174.794
21
-56.8825
0
LINE
8
BLACK
6
CONTINUOUS
10
174.794
20
-56.8825
11
174.793
21
-56.8821
0
LINE
8
BLACK
6
CONTINUOUS
10
174.793
20
-56.8821
11
174.793
21
-56.8817
0
LINE
8
BLACK
6
CONTINUOUS
10
174.793
20
-56.8817
11
174.793
21
-56.8813
0
LINE
8
BLACK
6
CONTINUOUS
10
174.793
20
-56.8813
11
174.793
21
-56.8809
0
LINE
8
BLACK
6
CONTINUOUS
10
174.793
20
-56.8809
11
174.793
21
-56.8804
0
LINE
8
BLACK
6
CONTINUOUS
10
174.793
20
-56.8804
11
174.793
21
-56.88
0
LINE
8
BLACK
6
CONTINUOUS
10
174.793
20
-56.88
11
174.771
21
-51.4825
0
LINE
8
BLACK
6
CONTINUOUS
10
174.771
20
-51.4825
11
174.749
21
-46.09
0
LINE
8
BLACK
6
CONTINUOUS
10
174.749
20
-46.09
11
174.167
21
-46.09
0
LINE
8
BLACK
6
CONTINUOUS
10
174.167
20
-46.09
11
174.145
21
-51.48
0
LINE
8
BLACK
6
CONTINUOUS
10
174.145
20
-51.48
11
174.123
21
-56.875
0
LINE
8
BLACK
6
CONTINUOUS
10
174.123
20
-56.875
11
174.123
21
-56.8753
0
LINE
8
BLACK
6
CONTINUOUS
10
174.123
20
-56.8753
11
174.123
21
-56.8757
0
LINE
8
BLACK
6
CONTINUOUS
10
174.123
20
-56.8757
11
174.123
21
-56.8762
0
LINE
8
BLACK
6
CONTINUOUS
10
174.123
20
-56.8762
11
174.123
21
-56.8767
0
LINE
8
BLACK
6
CONTINUOUS
10
174.123
20
-56.8767
11
174.123
21
-56.877
0
LINE
8
BLACK
6
CONTINUOUS
10
174.123
20
-56.877
11
174.122
21
-56.8774
0
LINE
8
BLACK
6
CONTINUOUS
10
174.122
20
-56.8774
11
174.122
21
-56.8777
0
LINE
8
BLACK
6
CONTINUOUS
10
174.122
20
-56.8777
11
174.122
21
-56.8782
0
LINE
8
BLACK
6
CONTINUOUS
10
174.122
20
-56.8782
11
174.122
21
-56.8784
0
LINE
8
BLACK
6
CONTINUOUS
10
174.122
20
-56.8784
11
174.121
21
-56.8787
0
LINE
8
BLACK
6
CONTINUOUS
10
174.121
20
-56.8787
11
174.121
21
-56.879
0
LINE
8
BLACK
6
CONTINUOUS
10
174.121
20
-56.879
11
174.121
21
-56.8793
0
LINE
8
BLACK
6
CONTINUOUS
10
174.121
20
-56.8793
11
174.12
21
-56.8794
0
LINE
8
BLACK
6
CONTINUOUS
10
174.12
20
-56.8794
11
174.12
21
-56.8796
0
LINE
8
BLACK
6
CONTINUOUS
10
174.12
20
-56.8796
11
174.119
21
-56.8797
0
LINE
8
BLACK
6
CONTINUOUS
10
174.119
20
-56.8797
11
174.119
21
-56.8799
0
LINE
8
BLACK
6
CONTINUOUS
10
174.119
20
-56.8799
11
174.119
21
-56.8799
0
LINE
8
BLACK
6
CONTINUOUS
10
174.119
20
-56.8799
11
174.118
21
-56.8799
0
LINE
8
BLACK
6
CONTINUOUS
10
174.118
20
-56.8799
11
173.039
21
-56.9036
0
LINE
8
BLACK
6
CONTINUOUS
10
173.039
20
-56.9036
11
171.965
21
-56.9272
0
LINE
8
BLACK
6
CONTINUOUS
10
171.965
20
-56.9272
11
171.965
21
-57.51
0
LINE
8
BLACK
6
CONTINUOUS
10
171.965
20
-57.51
11
174.479
21
-57.51
0
LINE
8
BLACK
6
CONTINUOUS
10
174.479
20
-57.51
11
174.698
21
-57.5102
0
LINE
8
BLACK
6
CONTINUOUS
10
162.074
20
-46.0913
11
161.949
21
-46.1937
0
LINE
8
BLACK
6
CONTINUOUS
10
161.949
20
-46.1937
11
161.925
21
-46.2706
0
LINE
8
BLACK
6
CONTINUOUS
10
161.925
20
-46.2706
11
161.865
21
-46.504
0
LINE
8
BLACK
6
CONTINUOUS
10
161.865
20
-46.504
11
161.775
21
-46.8749
0
LINE
8
BLACK
6
CONTINUOUS
10
161.775
20
-46.8749
11
161.657
21
-47.3683
0
LINE
8
BLACK
6
CONTINUOUS
10
161.657
20
-47.3683
11
161.657
21
-47.3683
0
LINE
8
BLACK
6
CONTINUOUS
10
161.657
20
-47.3683
11
161.515
21
-47.9691
0
LINE
8
BLACK
6
CONTINUOUS
10
161.515
20
-47.9691
11
161.515
21
-47.9691
0
LINE
8
BLACK
6
CONTINUOUS
10
161.515
20
-47.9691
11
161.354
21
-48.6621
0
LINE
8
BLACK
6
CONTINUOUS
10
161.354
20
-48.6621
11
161.176
21
-49.4323
0
LINE
8
BLACK
6
CONTINUOUS
10
161.176
20
-49.4323
11
161.176
21
-49.4323
0
LINE
8
BLACK
6
CONTINUOUS
10
161.176
20
-49.4323
11
160.985
21
-50.2645
0
LINE
8
BLACK
6
CONTINUOUS
10
160.985
20
-50.2645
11
160.985
21
-50.2645
0
LINE
8
BLACK
6
CONTINUOUS
10
160.985
20
-50.2645
11
160.785
21
-51.1436
0
LINE
8
BLACK
6
CONTINUOUS
10
160.785
20
-51.1436
11
160.785
21
-51.1436
0
LINE
8
BLACK
6
CONTINUOUS
10
160.785
20
-51.1436
11
160.611
21
-51.9064
0
LINE
8
BLACK
6
CONTINUOUS
10
160.611
20
-51.9064
11
160.611
21
-51.9064
0
LINE
8
BLACK
6
CONTINUOUS
10
160.611
20
-51.9064
11
160.611
21
-51.9064
0
LINE
8
BLACK
6
CONTINUOUS
10
160.611
20
-51.9064
11
160.42
21
-52.7326
0
LINE
8
BLACK
6
CONTINUOUS
10
160.42
20
-52.7326
11
160.42
21
-52.7326
0
LINE
8
BLACK
6
CONTINUOUS
10
160.42
20
-52.7326
11
160.42
21
-52.7326
0
LINE
8
BLACK
6
CONTINUOUS
10
160.42
20
-52.7326
11
160.243
21
-53.4933
0
LINE
8
BLACK
6
CONTINUOUS
10
160.243
20
-53.4933
11
160.243
21
-53.4933
0
LINE
8
BLACK
6
CONTINUOUS
10
160.243
20
-53.4933
11
160.243
21
-53.4933
0
LINE
8
BLACK
6
CONTINUOUS
10
160.243
20
-53.4933
11
160.082
21
-54.1744
0
LINE
8
BLACK
6
CONTINUOUS
10
160.082
20
-54.1744
11
160.082
21
-54.1744
0
LINE
8
BLACK
6
CONTINUOUS
10
160.082
20
-54.1744
11
160.082
21
-54.1744
0
LINE
8
BLACK
6
CONTINUOUS
10
160.082
20
-54.1744
11
159.94
21
-54.7614
0
LINE
8
BLACK
6
CONTINUOUS
10
159.94
20
-54.7614
11
159.94
21
-54.7615
0
LINE
8
BLACK
6
CONTINUOUS
10
159.94
20
-54.7615
11
159.94
21
-54.7615
0
LINE
8
BLACK
6
CONTINUOUS
10
159.94
20
-54.7615
11
159.822
21
-55.2403
0
LINE
8
BLACK
6
CONTINUOUS
10
159.822
20
-55.2403
11
159.822
21
-55.2403
0
LINE
8
BLACK
6
CONTINUOUS
10
159.822
20
-55.2403
11
159.822
21
-55.2404
0
LINE
8
BLACK
6
CONTINUOUS
10
159.822
20
-55.2404
11
159.73
21
-55.5968
0
LINE
8
BLACK
6
CONTINUOUS
10
159.73
20
-55.5968
11
159.73
21
-55.5968
0
LINE
8
BLACK
6
CONTINUOUS
10
159.73
20
-55.5968
11
159.73
21
-55.5969
0
LINE
8
BLACK
6
CONTINUOUS
10
159.73
20
-55.5969
11
159.669
21
-55.8165
0
LINE
8
BLACK
6
CONTINUOUS
10
159.669
20
-55.8165
11
159.669
21
-55.8168
0
LINE
8
BLACK
6
CONTINUOUS
10
159.669
20
-55.8168
11
159.669
21
-55.8171
0
LINE
8
BLACK
6
CONTINUOUS
10
159.669
20
-55.8171
11
159.641
21
-55.8857
0
LINE
8
BLACK
6
CONTINUOUS
10
159.641
20
-55.8857
11
159.641
21
-55.8857
0
LINE
8
BLACK
6
CONTINUOUS
10
159.641
20
-55.8857
11
159.641
21
-55.8858
0
LINE
8
BLACK
6
CONTINUOUS
10
159.641
20
-55.8858
11
159.641
21
-55.8866
0
LINE
8
BLACK
6
CONTINUOUS
10
159.641
20
-55.8866
11
159.64
21
-55.8872
0
LINE
8
BLACK
6
CONTINUOUS
10
159.64
20
-55.8872
11
159.64
21
-55.8872
0
LINE
8
BLACK
6
CONTINUOUS
10
159.64
20
-55.8872
11
159.64
21
-55.8872
0
LINE
8
BLACK
6
CONTINUOUS
10
159.64
20
-55.8872
11
159.639
21
-55.8878
0
LINE
8
BLACK
6
CONTINUOUS
10
159.639
20
-55.8878
11
159.639
21
-55.8883
0
LINE
8
BLACK
6
CONTINUOUS
10
159.639
20
-55.8883
11
159.639
21
-55.8883
0
LINE
8
BLACK
6
CONTINUOUS
10
159.639
20
-55.8883
11
159.639
21
-55.8883
0
LINE
8
BLACK
6
CONTINUOUS
10
159.639
20
-55.8883
11
159.638
21
-55.8886
0
LINE
8
BLACK
6
CONTINUOUS
10
159.638
20
-55.8886
11
159.637
21
-55.8888
0
LINE
8
BLACK
6
CONTINUOUS
10
159.637
20
-55.8888
11
159.637
21
-55.8888
0
LINE
8
BLACK
6
CONTINUOUS
10
159.637
20
-55.8888
11
159.637
21
-55.8888
0
LINE
8
BLACK
6
CONTINUOUS
10
159.637
20
-55.8888
11
159.636
21
-55.8888
0
LINE
8
BLACK
6
CONTINUOUS
10
159.636
20
-55.8888
11
159.635
21
-55.8887
0
LINE
8
BLACK
6
CONTINUOUS
10
159.635
20
-55.8887
11
159.635
21
-55.8887
0
LINE
8
BLACK
6
CONTINUOUS
10
159.635
20
-55.8887
11
159.635
21
-55.8887
0
LINE
8
BLACK
6
CONTINUOUS
10
159.635
20
-55.8887
11
159.634
21
-55.8884
0
LINE
8
BLACK
6
CONTINUOUS
10
159.634
20
-55.8884
11
159.634
21
-55.8881
0
LINE
8
BLACK
6
CONTINUOUS
10
159.634
20
-55.8881
11
159.634
21
-55.8881
0
LINE
8
BLACK
6
CONTINUOUS
10
159.634
20
-55.8881
11
159.634
21
-55.8881
0
LINE
8
BLACK
6
CONTINUOUS
10
159.634
20
-55.8881
11
159.633
21
-55.8875
0
LINE
8
BLACK
6
CONTINUOUS
10
159.633
20
-55.8875
11
159.632
21
-55.8869
0
LINE
8
BLACK
6
CONTINUOUS
10
159.632
20
-55.8869
11
159.632
21
-55.8869
0
LINE
8
BLACK
6
CONTINUOUS
10
159.632
20
-55.8869
11
159.632
21
-55.8869
0
LINE
8
BLACK
6
CONTINUOUS
10
159.632
20
-55.8869
11
159.632
21
-55.8861
0
LINE
8
BLACK
6
CONTINUOUS
10
159.632
20
-55.8861
11
159.632
21
-55.8854
0
LINE
8
BLACK
6
CONTINUOUS
10
159.632
20
-55.8854
11
159.632
21
-55.8854
0
LINE
8
BLACK
6
CONTINUOUS
10
159.632
20
-55.8854
11
159.632
21
-55.8854
0
LINE
8
BLACK
6
CONTINUOUS
10
159.632
20
-55.8854
11
159.611
21
-55.8203
0
LINE
8
BLACK
6
CONTINUOUS
10
159.611
20
-55.8203
11
159.611
21
-55.8202
0
LINE
8
BLACK
6
CONTINUOUS
10
159.611
20
-55.8202
11
159.611
21
-55.8201
0
LINE
8
BLACK
6
CONTINUOUS
10
159.611
20
-55.8201
11
159.555
21
-55.6025
0
LINE
8
BLACK
6
CONTINUOUS
10
159.555
20
-55.6025
11
159.555
21
-55.6025
0
LINE
8
BLACK
6
CONTINUOUS
10
159.555
20
-55.6025
11
159.555
21
-55.6025
0
LINE
8
BLACK
6
CONTINUOUS
10
159.555
20
-55.6025
11
159.468
21
-55.2468
0
LINE
8
BLACK
6
CONTINUOUS
10
159.468
20
-55.2468
11
159.468
21
-55.2468
0
LINE
8
BLACK
6
CONTINUOUS
10
159.468
20
-55.2468
11
159.468
21
-55.2468
0
LINE
8
BLACK
6
CONTINUOUS
10
159.468
20
-55.2468
11
159.354
21
-54.7677
0
LINE
8
BLACK
6
CONTINUOUS
10
159.354
20
-54.7677
11
159.354
21
-54.7677
0
LINE
8
BLACK
6
CONTINUOUS
10
159.354
20
-54.7677
11
159.354
21
-54.7677
0
LINE
8
BLACK
6
CONTINUOUS
10
159.354
20
-54.7677
11
159.215
21
-54.18
0
LINE
8
BLACK
6
CONTINUOUS
10
159.215
20
-54.18
11
159.215
21
-54.18
0
LINE
8
BLACK
6
CONTINUOUS
10
159.215
20
-54.18
11
159.215
21
-54.18
0
LINE
8
BLACK
6
CONTINUOUS
10
159.215
20
-54.18
11
159.057
21
-53.4985
0
LINE
8
BLACK
6
CONTINUOUS
10
159.057
20
-53.4985
11
159.057
21
-53.4985
0
LINE
8
BLACK
6
CONTINUOUS
10
159.057
20
-53.4985
11
159.057
21
-53.4985
0
LINE
8
BLACK
6
CONTINUOUS
10
159.057
20
-53.4985
11
158.882
21
-52.738
0
LINE
8
BLACK
6
CONTINUOUS
10
158.882
20
-52.738
11
158.882
21
-52.738
0
LINE
8
BLACK
6
CONTINUOUS
10
158.882
20
-52.738
11
158.882
21
-52.738
0
LINE
8
BLACK
6
CONTINUOUS
10
158.882
20
-52.738
11
158.693
21
-51.9133
0
LINE
8
BLACK
6
CONTINUOUS
10
158.693
20
-51.9133
11
158.693
21
-51.9133
0
LINE
8
BLACK
6
CONTINUOUS
10
158.693
20
-51.9133
11
158.693
21
-51.9133
0
LINE
8
BLACK
6
CONTINUOUS
10
158.693
20
-51.9133
11
158.494
21
-51.0391
0
LINE
8
BLACK
6
CONTINUOUS
10
158.494
20
-51.0391
11
158.33
21
-50.3183
0
LINE
8
BLACK
6
CONTINUOUS
10
158.33
20
-50.3183
11
158.137
21
-49.4809
0
LINE
8
BLACK
6
CONTINUOUS
10
158.137
20
-49.4809
11
158.137
21
-49.4809
0
LINE
8
BLACK
6
CONTINUOUS
10
158.137
20
-49.4809
11
157.957
21
-48.7039
0
LINE
8
BLACK
6
CONTINUOUS
10
157.957
20
-48.7039
11
157.957
21
-48.7039
0
LINE
8
BLACK
6
CONTINUOUS
10
157.957
20
-48.7039
11
157.792
21
-48.0023
0
LINE
8
BLACK
6
CONTINUOUS
10
157.792
20
-48.0023
11
157.792
21
-48.0023
0
LINE
8
BLACK
6
CONTINUOUS
10
157.792
20
-48.0023
11
157.647
21
-47.3911
0
LINE
8
BLACK
6
CONTINUOUS
10
157.647
20
-47.3911
11
157.524
21
-46.8853
0
LINE
8
BLACK
6
CONTINUOUS
10
157.524
20
-46.8853
11
157.524
21
-46.8853
0
LINE
8
BLACK
6
CONTINUOUS
10
157.524
20
-46.8853
11
157.427
21
-46.4998
0
LINE
8
BLACK
6
CONTINUOUS
10
157.427
20
-46.4998
11
157.36
21
-46.2499
0
LINE
8
BLACK
6
CONTINUOUS
10
157.36
20
-46.2499
11
157.328
21
-46.1518
0
LINE
8
BLACK
6
CONTINUOUS
10
157.328
20
-46.1518
11
157.216
21
-46.0797
0
LINE
8
BLACK
6
CONTINUOUS
10
157.216
20
-46.0797
11
157.017
21
-46.0502
0
LINE
8
BLACK
6
CONTINUOUS
10
157.017
20
-46.0502
11
156.824
21
-46.0818
0
LINE
8
BLACK
6
CONTINUOUS
10
156.824
20
-46.0818
11
156.714
21
-46.1707
0
LINE
8
BLACK
6
CONTINUOUS
10
156.714
20
-46.1707
11
156.715
21
-46.2057
0
LINE
8
BLACK
6
CONTINUOUS
10
156.715
20
-46.2057
11
156.746
21
-46.3938
0
LINE
8
BLACK
6
CONTINUOUS
10
156.746
20
-46.3938
11
156.811
21
-46.7255
0
LINE
8
BLACK
6
CONTINUOUS
10
156.811
20
-46.7255
11
156.907
21
-47.1867
0
LINE
8
BLACK
6
CONTINUOUS
10
156.907
20
-47.1867
11
157.032
21
-47.7638
0
LINE
8
BLACK
6
CONTINUOUS
10
157.032
20
-47.7638
11
157.032
21
-47.7638
0
LINE
8
BLACK
6
CONTINUOUS
10
157.032
20
-47.7638
11
157.181
21
-48.4429
0
LINE
8
BLACK
6
CONTINUOUS
10
157.181
20
-48.4429
11
157.181
21
-48.4429
0
LINE
8
BLACK
6
CONTINUOUS
10
157.181
20
-48.4429
11
157.352
21
-49.2101
0
LINE
8
BLACK
6
CONTINUOUS
10
157.352
20
-49.2101
11
157.542
21
-50.0518
0
LINE
8
BLACK
6
CONTINUOUS
10
157.542
20
-50.0518
11
157.542
21
-50.0518
0
LINE
8
BLACK
6
CONTINUOUS
10
157.542
20
-50.0518
11
157.748
21
-50.9542
0
LINE
8
BLACK
6
CONTINUOUS
10
157.748
20
-50.9542
11
157.748
21
-50.9542
0
LINE
8
BLACK
6
CONTINUOUS
10
157.748
20
-50.9542
11
157.967
21
-51.9034
0
LINE
8
BLACK
6
CONTINUOUS
10
157.967
20
-51.9034
11
157.967
21
-51.9034
0
LINE
8
BLACK
6
CONTINUOUS
10
157.967
20
-51.9034
11
159.267
21
-57.5103
0
LINE
8
BLACK
6
CONTINUOUS
10
159.267
20
-57.5103
11
159.591
21
-57.537
0
LINE
8
BLACK
6
CONTINUOUS
10
159.591
20
-57.537
11
159.647
21
-57.5404
0
LINE
8
BLACK
6
CONTINUOUS
10
159.647
20
-57.5404
11
159.865
21
-57.5311
0
LINE
8
BLACK
6
CONTINUOUS
10
159.865
20
-57.5311
11
159.988
21
-57.4903
0
LINE
8
BLACK
6
CONTINUOUS
10
159.988
20
-57.4903
11
160.021
21
-57.4027
0
LINE
8
BLACK
6
CONTINUOUS
10
160.021
20
-57.4027
11
160.088
21
-57.1631
0
LINE
8
BLACK
6
CONTINUOUS
10
160.088
20
-57.1631
11
160.184
21
-56.7907
0
LINE
8
BLACK
6
CONTINUOUS
10
160.184
20
-56.7907
11
160.307
21
-56.3022
0
LINE
8
BLACK
6
CONTINUOUS
10
160.307
20
-56.3022
11
160.451
21
-55.714
0
LINE
8
BLACK
6
CONTINUOUS
10
160.451
20
-55.714
11
160.451
21
-55.714
0
LINE
8
BLACK
6
CONTINUOUS
10
160.451
20
-55.714
11
160.614
21
-55.0426
0
LINE
8
BLACK
6
CONTINUOUS
10
160.614
20
-55.0426
11
160.614
21
-55.0426
0
LINE
8
BLACK
6
CONTINUOUS
10
160.614
20
-55.0426
11
160.791
21
-54.3047
0
LINE
8
BLACK
6
CONTINUOUS
10
160.791
20
-54.3047
11
160.791
21
-54.3047
0
LINE
8
BLACK
6
CONTINUOUS
10
160.791
20
-54.3047
11
160.978
21
-53.5167
0
LINE
8
BLACK
6
CONTINUOUS
10
160.978
20
-53.5167
11
161.171
21
-52.6951
0
LINE
8
BLACK
6
CONTINUOUS
10
161.171
20
-52.6951
11
161.171
21
-52.6951
0
LINE
8
BLACK
6
CONTINUOUS
10
161.171
20
-52.6951
11
161.368
21
-51.8565
0
LINE
8
BLACK
6
CONTINUOUS
10
161.368
20
-51.8565
11
161.368
21
-51.8565
0
LINE
8
BLACK
6
CONTINUOUS
10
161.368
20
-51.8565
11
161.563
21
-51.0173
0
LINE
8
BLACK
6
CONTINUOUS
10
161.563
20
-51.0173
11
161.753
21
-50.1942
0
LINE
8
BLACK
6
CONTINUOUS
10
161.753
20
-50.1942
11
161.934
21
-49.4035
0
LINE
8
BLACK
6
CONTINUOUS
10
161.934
20
-49.4035
11
161.99
21
-49.1548
0
LINE
8
BLACK
6
CONTINUOUS
10
161.99
20
-49.1548
11
162.102
21
-48.6618
0
LINE
8
BLACK
6
CONTINUOUS
10
162.102
20
-48.6618
11
162.254
21
-47.9856
0
LINE
8
BLACK
6
CONTINUOUS
10
162.254
20
-47.9856
11
162.385
21
-47.3915
0
LINE
8
BLACK
6
CONTINUOUS
10
162.385
20
-47.3915
11
162.385
21
-47.3915
0
LINE
8
BLACK
6
CONTINUOUS
10
162.385
20
-47.3915
11
162.492
21
-46.8959
0
LINE
8
BLACK
6
CONTINUOUS
10
162.492
20
-46.8959
11
162.571
21
-46.5155
0
LINE
8
BLACK
6
CONTINUOUS
10
162.571
20
-46.5155
11
162.618
21
-46.2668
0
LINE
8
BLACK
6
CONTINUOUS
10
162.618
20
-46.2668
11
162.629
21
-46.1676
0
LINE
8
BLACK
6
CONTINUOUS
10
162.629
20
-46.1676
11
162.617
21
-46.1449
0
LINE
8
BLACK
6
CONTINUOUS
10
162.617
20
-46.1449
11
162.481
21
-46.0643
0
LINE
8
BLACK
6
CONTINUOUS
10
162.481
20
-46.0643
11
162.276
21
-46.047
0
LINE
8
BLACK
6
CONTINUOUS
10
162.276
20
-46.047
11
162.074
21
-46.0913
0
LINE
8
BLACK
6
CONTINUOUS
10
164.793
20
-46.0715
11
164.682
21
-46.146
0
LINE
8
BLACK
6
CONTINUOUS
10
164.682
20
-46.146
11
164.679
21
-46.1696
0
LINE
8
BLACK
6
CONTINUOUS
10
164.679
20
-46.1696
11
164.673
21
-46.3432
0
LINE
8
BLACK
6
CONTINUOUS
10
164.673
20
-46.3432
11
164.667
21
-46.6656
0
LINE
8
BLACK
6
CONTINUOUS
10
164.667
20
-46.6656
11
164.667
21
-46.6656
0
LINE
8
BLACK
6
CONTINUOUS
10
164.667
20
-46.6656
11
164.663
21
-47.1224
0
LINE
8
BLACK
6
CONTINUOUS
10
164.663
20
-47.1224
11
164.66
21
-47.6992
0
LINE
8
BLACK
6
CONTINUOUS
10
164.66
20
-47.6992
11
164.658
21
-48.3818
0
LINE
8
BLACK
6
CONTINUOUS
10
164.658
20
-48.3818
11
164.657
21
-49.1559
0
LINE
8
BLACK
6
CONTINUOUS
10
164.657
20
-49.1559
11
164.657
21
-50.0073
0
LINE
8
BLACK
6
CONTINUOUS
10
164.657
20
-50.0073
11
164.659
21
-50.9216
0
LINE
8
BLACK
6
CONTINUOUS
10
164.659
20
-50.9216
11
164.662
21
-51.8846
0
LINE
8
BLACK
6
CONTINUOUS
10
164.662
20
-51.8846
11
164.684
21
-57.5105
0
LINE
8
BLACK
6
CONTINUOUS
10
164.684
20
-57.5105
11
164.96
21
-57.537
0
LINE
8
BLACK
6
CONTINUOUS
10
164.96
20
-57.537
11
164.96
21
-57.537
0
LINE
8
BLACK
6
CONTINUOUS
10
164.96
20
-57.537
11
164.97
21
-57.5378
0
LINE
8
BLACK
6
CONTINUOUS
10
164.97
20
-57.5378
11
165.192
21
-57.5301
0
LINE
8
BLACK
6
CONTINUOUS
10
165.192
20
-57.5301
11
165.34
21
-57.479
0
LINE
8
BLACK
6
CONTINUOUS
10
165.34
20
-57.479
11
165.383
21
-57.401
0
LINE
8
BLACK
6
CONTINUOUS
10
165.383
20
-57.401
11
165.487
21
-57.1767
0
LINE
8
BLACK
6
CONTINUOUS
10
165.487
20
-57.1767
11
165.643
21
-56.8222
0
LINE
8
BLACK
6
CONTINUOUS
10
165.643
20
-56.8222
11
165.845
21
-56.3516
0
LINE
8
BLACK
6
CONTINUOUS
10
165.845
20
-56.3516
11
166.088
21
-55.7791
0
LINE
8
BLACK
6
CONTINUOUS
10
166.088
20
-55.7791
11
166.088
21
-55.7791
0
LINE
8
BLACK
6
CONTINUOUS
10
166.088
20
-55.7791
11
166.365
21
-55.1185
0
LINE
8
BLACK
6
CONTINUOUS
10
166.365
20
-55.1185
11
166.365
21
-55.1185
0
LINE
8
BLACK
6
CONTINUOUS
10
166.365
20
-55.1185
11
166.671
21
-54.3838
0
LINE
8
BLACK
6
CONTINUOUS
10
166.671
20
-54.3838
11
166.999
21
-53.5891
0
LINE
8
BLACK
6
CONTINUOUS
10
166.999
20
-53.5891
11
166.999
21
-53.5891
0
LINE
8
BLACK
6
CONTINUOUS
10
166.999
20
-53.5891
11
167.344
21
-52.7483
0
LINE
8
BLACK
6
CONTINUOUS
10
167.344
20
-52.7483
11
169.246
21
-48.1011
0
LINE
8
BLACK
6
CONTINUOUS
10
169.246
20
-48.1011
11
169.247
21
-48.1005
0
LINE
8
BLACK
6
CONTINUOUS
10
169.247
20
-48.1005
11
169.247
21
-48.0998
0
LINE
8
BLACK
6
CONTINUOUS
10
169.247
20
-48.0998
11
169.247
21
-48.0998
0
LINE
8
BLACK
6
CONTINUOUS
10
169.247
20
-48.0998
11
169.247
21
-48.0997
0
LINE
8
BLACK
6
CONTINUOUS
10
169.247
20
-48.0997
11
169.248
21
-48.0992
0
LINE
8
BLACK
6
CONTINUOUS
10
169.248
20
-48.0992
11
169.248
21
-48.0987
0
LINE
8
BLACK
6
CONTINUOUS
10
169.248
20
-48.0987
11
169.249
21
-48.0987
0
LINE
8
BLACK
6
CONTINUOUS
10
169.249
20
-48.0987
11
169.249
21
-48.0986
0
LINE
8
BLACK
6
CONTINUOUS
10
169.249
20
-48.0986
11
169.249
21
-48.0984
0
LINE
8
BLACK
6
CONTINUOUS
10
169.249
20
-48.0984
11
169.25
21
-48.0981
0
LINE
8
BLACK
6
CONTINUOUS
10
169.25
20
-48.0981
11
169.25
21
-48.0981
0
LINE
8
BLACK
6
CONTINUOUS
10
169.25
20
-48.0981
11
169.25
21
-48.0981
0
LINE
8
BLACK
6
CONTINUOUS
10
169.25
20
-48.0981
11
169.251
21
-48.0981
0
LINE
8
BLACK
6
CONTINUOUS
10
169.251
20
-48.0981
11
169.252
21
-48.0981
0
LINE
8
BLACK
6
CONTINUOUS
10
169.252
20
-48.0981
11
169.252
21
-48.0981
0
LINE
8
BLACK
6
CONTINUOUS
10
169.252
20
-48.0981
11
169.252
21
-48.0982
0
LINE
8
BLACK
6
CONTINUOUS
10
169.252
20
-48.0982
11
169.253
21
-48.0984
0
LINE
8
BLACK
6
CONTINUOUS
10
169.253
20
-48.0984
11
169.253
21
-48.0987
0
LINE
8
BLACK
6
CONTINUOUS
10
169.253
20
-48.0987
11
169.254
21
-48.0988
0
LINE
8
BLACK
6
CONTINUOUS
10
169.254
20
-48.0988
11
169.254
21
-48.0988
0
LINE
8
BLACK
6
CONTINUOUS
10
169.254
20
-48.0988
11
169.254
21
-48.0993
0
LINE
8
BLACK
6
CONTINUOUS
10
169.254
20
-48.0993
11
169.255
21
-48.0998
0
LINE
8
BLACK
6
CONTINUOUS
10
169.255
20
-48.0998
11
169.255
21
-48.0999
0
LINE
8
BLACK
6
CONTINUOUS
10
169.255
20
-48.0999
11
169.255
21
-48.1
0
LINE
8
BLACK
6
CONTINUOUS
10
169.255
20
-48.1
11
169.255
21
-48.1006
0
LINE
8
BLACK
6
CONTINUOUS
10
169.255
20
-48.1006
11
169.256
21
-48.1013
0
LINE
8
BLACK
6
CONTINUOUS
10
169.256
20
-48.1013
11
169.256
21
-48.1014
0
LINE
8
BLACK
6
CONTINUOUS
10
169.256
20
-48.1014
11
169.256
21
-48.1015
0
LINE
8
BLACK
6
CONTINUOUS
10
169.256
20
-48.1015
11
169.256
21
-48.1023
0
LINE
8
BLACK
6
CONTINUOUS
10
169.256
20
-48.1023
11
169.256
21
-48.103
0
LINE
8
BLACK
6
CONTINUOUS
10
169.256
20
-48.103
11
169.278
21
-52.7165
0
LINE
8
BLACK
6
CONTINUOUS
10
169.278
20
-52.7165
11
169.281
21
-53.2653
0
LINE
8
BLACK
6
CONTINUOUS
10
169.281
20
-53.2653
11
169.288
21
-54.284
0
LINE
8
BLACK
6
CONTINUOUS
10
169.288
20
-54.284
11
169.288
21
-54.284
0
LINE
8
BLACK
6
CONTINUOUS
10
169.288
20
-54.284
11
169.297
21
-55.1452
0
LINE
8
BLACK
6
CONTINUOUS
10
169.297
20
-55.1452
11
169.297
21
-55.1452
0
LINE
8
BLACK
6
CONTINUOUS
10
169.297
20
-55.1452
11
169.308
21
-55.8567
0
LINE
8
BLACK
6
CONTINUOUS
10
169.308
20
-55.8567
11
169.308
21
-55.8567
0
LINE
8
BLACK
6
CONTINUOUS
10
169.308
20
-55.8567
11
169.32
21
-56.4265
0
LINE
8
BLACK
6
CONTINUOUS
10
169.32
20
-56.4265
11
169.336
21
-56.8625
0
LINE
8
BLACK
6
CONTINUOUS
10
169.336
20
-56.8625
11
169.354
21
-57.1727
0
LINE
8
BLACK
6
CONTINUOUS
10
169.354
20
-57.1727
11
169.374
21
-57.3646
0
LINE
8
BLACK
6
CONTINUOUS
10
169.374
20
-57.3646
11
169.397
21
-57.4446
0
LINE
8
BLACK
6
CONTINUOUS
10
169.397
20
-57.4446
11
169.53
21
-57.5176
0
LINE
8
BLACK
6
CONTINUOUS
10
169.53
20
-57.5176
11
169.752
21
-57.5355
0
LINE
8
BLACK
6
CONTINUOUS
10
169.752
20
-57.5355
11
170.008
21
-57.5105
0
LINE
8
BLACK
6
CONTINUOUS
10
170.008
20
-57.5105
11
170.008
21
-46.0896
0
LINE
8
BLACK
6
CONTINUOUS
10
170.008
20
-46.0896
11
169.709
21
-46.0645
0
LINE
8
BLACK
6
CONTINUOUS
10
169.709
20
-46.0645
11
169.709
21
-46.0645
0
LINE
8
BLACK
6
CONTINUOUS
10
169.709
20
-46.0645
11
169.701
21
-46.0639
0
LINE
8
BLACK
6
CONTINUOUS
10
169.701
20
-46.0639
11
169.465
21
-46.078
0
LINE
8
BLACK
6
CONTINUOUS
10
169.465
20
-46.078
11
169.323
21
-46.148
0
LINE
8
BLACK
6
CONTINUOUS
10
169.323
20
-46.148
11
169.278
21
-46.2396
0
LINE
8
BLACK
6
CONTINUOUS
10
169.278
20
-46.2396
11
169.174
21
-46.4761
0
LINE
8
BLACK
6
CONTINUOUS
10
169.174
20
-46.4761
11
169.017
21
-46.8416
0
LINE
8
BLACK
6
CONTINUOUS
10
169.017
20
-46.8416
11
169.017
21
-46.8416
0
LINE
8
BLACK
6
CONTINUOUS
10
169.017
20
-46.8416
11
168.813
21
-47.3223
0
LINE
8
BLACK
6
CONTINUOUS
10
168.813
20
-47.3223
11
168.813
21
-47.3223
0
LINE
8
BLACK
6
CONTINUOUS
10
168.813
20
-47.3223
11
168.568
21
-47.904
0
LINE
8
BLACK
6
CONTINUOUS
10
168.568
20
-47.904
11
168.568
21
-47.9041
0
LINE
8
BLACK
6
CONTINUOUS
10
168.568
20
-47.9041
11
168.289
21
-48.5729
0
LINE
8
BLACK
6
CONTINUOUS
10
168.289
20
-48.5729
11
168.289
21
-48.573
0
LINE
8
BLACK
6
CONTINUOUS
10
168.289
20
-48.573
11
167.98
21
-49.3151
0
LINE
8
BLACK
6
CONTINUOUS
10
167.98
20
-49.3151
11
167.98
21
-49.3151
0
LINE
8
BLACK
6
CONTINUOUS
10
167.98
20
-49.3151
11
167.648
21
-50.1164
0
LINE
8
BLACK
6
CONTINUOUS
10
167.648
20
-50.1164
11
167.648
21
-50.1164
0
LINE
8
BLACK
6
CONTINUOUS
10
167.648
20
-50.1164
11
167.299
21
-50.963
0
LINE
8
BLACK
6
CONTINUOUS
10
167.299
20
-50.963
11
165.361
21
-55.6697
0
LINE
8
BLACK
6
CONTINUOUS
10
165.361
20
-55.6697
11
165.361
21
-55.6703
0
LINE
8
BLACK
6
CONTINUOUS
10
165.361
20
-55.6703
11
165.36
21
-55.671
0
LINE
8
BLACK
6
CONTINUOUS
10
165.36
20
-55.671
11
165.36
21
-55.671
0
LINE
8
BLACK
6
CONTINUOUS
10
165.36
20
-55.671
11
165.36
21
-55.6712
0
LINE
8
BLACK
6
CONTINUOUS
10
165.36
20
-55.6712
11
165.359
21
-55.6716
0
LINE
8
BLACK
6
CONTINUOUS
10
165.359
20
-55.6716
11
165.359
21
-55.6721
0
LINE
8
BLACK
6
CONTINUOUS
10
165.359
20
-55.6721
11
165.359
21
-55.6721
0
LINE
8
BLACK
6
CONTINUOUS
10
165.359
20
-55.6721
11
165.359
21
-55.6722
0
LINE
8
BLACK
6
CONTINUOUS
10
165.359
20
-55.6722
11
165.358
21
-55.6724
0
LINE
8
BLACK
6
CONTINUOUS
10
165.358
20
-55.6724
11
165.357
21
-55.6727
0
LINE
8
BLACK
6
CONTINUOUS
10
165.357
20
-55.6727
11
165.357
21
-55.6727
0
LINE
8
BLACK
6
CONTINUOUS
10
165.357
20
-55.6727
11
165.357
21
-55.6727
0
LINE
8
BLACK
6
CONTINUOUS
10
165.357
20
-55.6727
11
165.356
21
-55.6727
0
LINE
8
BLACK
6
CONTINUOUS
10
165.356
20
-55.6727
11
165.356
21
-55.6727
0
LINE
8
BLACK
6
CONTINUOUS
10
165.356
20
-55.6727
11
165.355
21
-55.6727
0
LINE
8
BLACK
6
CONTINUOUS
10
165.355
20
-55.6727
11
165.355
21
-55.6727
0
LINE
8
BLACK
6
CONTINUOUS
10
165.355
20
-55.6727
11
165.355
21
-55.6724
0
LINE
8
BLACK
6
CONTINUOUS
10
165.355
20
-55.6724
11
165.354
21
-55.6721
0
LINE
8
BLACK
6
CONTINUOUS
10
165.354
20
-55.6721
11
165.354
21
-55.6721
0
LINE
8
BLACK
6
CONTINUOUS
10
165.354
20
-55.6721
11
165.354
21
-55.672
0
LINE
8
BLACK
6
CONTINUOUS
10
165.354
20
-55.672
11
165.353
21
-55.6715
0
LINE
8
BLACK
6
CONTINUOUS
10
165.353
20
-55.6715
11
165.353
21
-55.671
0
LINE
8
BLACK
6
CONTINUOUS
10
165.353
20
-55.671
11
165.352
21
-55.6709
0
LINE
8
BLACK
6
CONTINUOUS
10
165.352
20
-55.6709
11
165.352
21
-55.6708
0
LINE
8
BLACK
6
CONTINUOUS
10
165.352
20
-55.6708
11
165.352
21
-55.6702
0
LINE
8
BLACK
6
CONTINUOUS
10
165.352
20
-55.6702
11
165.352
21
-55.6695
0
LINE
8
BLACK
6
CONTINUOUS
10
165.352
20
-55.6695
11
165.352
21
-55.6694
0
LINE
8
BLACK
6
CONTINUOUS
10
165.352
20
-55.6694
11
165.352
21
-55.6693
0
LINE
8
BLACK
6
CONTINUOUS
10
165.352
20
-55.6693
11
165.351
21
-55.6686
0
LINE
8
BLACK
6
CONTINUOUS
10
165.351
20
-55.6686
11
165.351
21
-55.6678
0
LINE
8
BLACK
6
CONTINUOUS
10
165.351
20
-55.6678
11
165.309
21
-50.8764
0
LINE
8
BLACK
6
CONTINUOUS
10
165.309
20
-50.8764
11
165.267
21
-46.0895
0
LINE
8
BLACK
6
CONTINUOUS
10
165.267
20
-46.0895
11
164.996
21
-46.0634
0
LINE
8
BLACK
6
CONTINUOUS
10
164.996
20
-46.0634
11
164.793
21
-46.0715
0
LINE
8
BLACK
6
CONTINUOUS
10
152.972
20
-46.0673
11
152.727
21
-46.0648
0
LINE
8
BLACK
6
CONTINUOUS
10
152.727
20
-46.0648
11
152.727
21
-46.0648
0
LINE
8
BLACK
6
CONTINUOUS
10
152.727
20
-46.0648
11
152.105
21
-46.0613
0
LINE
8
BLACK
6
CONTINUOUS
10
152.105
20
-46.0613
11
151.631
21
-46.0641
0
LINE
8
BLACK
6
CONTINUOUS
10
151.631
20
-46.0641
11
151.287
21
-46.0739
0
LINE
8
BLACK
6
CONTINUOUS
10
151.287
20
-46.0739
11
151.058
21
-46.0913
0
LINE
8
BLACK
6
CONTINUOUS
10
151.058
20
-46.0913
11
150.928
21
-46.1169
0
LINE
8
BLACK
6
CONTINUOUS
10
150.928
20
-46.1169
11
150.88
21
-46.1498
0
LINE
8
BLACK
6
CONTINUOUS
10
150.88
20
-46.1498
11
150.877
21
-46.1732
0
LINE
8
BLACK
6
CONTINUOUS
10
150.877
20
-46.1732
11
150.871
21
-46.3463
0
LINE
8
BLACK
6
CONTINUOUS
10
150.871
20
-46.3463
11
150.866
21
-46.6681
0
LINE
8
BLACK
6
CONTINUOUS
10
150.866
20
-46.6681
11
150.866
21
-46.6681
0
LINE
8
BLACK
6
CONTINUOUS
10
150.866
20
-46.6681
11
150.862
21
-47.1244
0
LINE
8
BLACK
6
CONTINUOUS
10
150.862
20
-47.1244
11
150.859
21
-47.7007
0
LINE
8
BLACK
6
CONTINUOUS
10
150.859
20
-47.7007
11
150.857
21
-48.3829
0
LINE
8
BLACK
6
CONTINUOUS
10
150.857
20
-48.3829
11
150.856
21
-49.1566
0
LINE
8
BLACK
6
CONTINUOUS
10
150.856
20
-49.1566
11
150.856
21
-49.1566
0
LINE
8
BLACK
6
CONTINUOUS
10
150.856
20
-49.1566
11
150.856
21
-50.0076
0
LINE
8
BLACK
6
CONTINUOUS
10
150.856
20
-50.0076
11
150.858
21
-50.9217
0
LINE
8
BLACK
6
CONTINUOUS
10
150.858
20
-50.9217
11
150.861
21
-51.8846
0
LINE
8
BLACK
6
CONTINUOUS
10
150.861
20
-51.8846
11
150.883
21
-57.5105
0
LINE
8
BLACK
6
CONTINUOUS
10
150.883
20
-57.5105
11
151.166
21
-57.5374
0
LINE
8
BLACK
6
CONTINUOUS
10
151.166
20
-57.5374
11
151.386
21
-57.5281
0
LINE
8
BLACK
6
CONTINUOUS
10
151.386
20
-57.5281
11
151.52
21
-57.4543
0
LINE
8
BLACK
6
CONTINUOUS
10
151.52
20
-57.4543
11
151.522
21
-57.4503
0
LINE
8
BLACK
6
CONTINUOUS
10
151.522
20
-57.4503
11
151.534
21
-57.3196
0
LINE
8
BLACK
6
CONTINUOUS
10
151.534
20
-57.3196
11
151.546
21
-57.0364
0
LINE
8
BLACK
6
CONTINUOUS
10
151.546
20
-57.0364
11
151.557
21
-56.6159
0
LINE
8
BLACK
6
CONTINUOUS
10
151.557
20
-56.6159
11
151.566
21
-56.0728
0
LINE
8
BLACK
6
CONTINUOUS
10
151.566
20
-56.0728
11
151.566
21
-56.0728
0
LINE
8
BLACK
6
CONTINUOUS
10
151.566
20
-56.0728
11
151.575
21
-55.4219
0
LINE
8
BLACK
6
CONTINUOUS
10
151.575
20
-55.4219
11
151.575
21
-55.4219
0
LINE
8
BLACK
6
CONTINUOUS
10
151.575
20
-55.4219
11
151.582
21
-54.6779
0
LINE
8
BLACK
6
CONTINUOUS
10
151.582
20
-54.6779
11
151.582
21
-54.6779
0
LINE
8
BLACK
6
CONTINUOUS
10
151.582
20
-54.6779
11
151.587
21
-53.8555
0
LINE
8
BLACK
6
CONTINUOUS
10
151.587
20
-53.8555
11
151.59
21
-52.9695
0
LINE
8
BLACK
6
CONTINUOUS
10
151.59
20
-52.9695
11
151.592
21
-52.0346
0
LINE
8
BLACK
6
CONTINUOUS
10
151.592
20
-52.0346
11
151.593
21
-46.7235
0
LINE
8
BLACK
6
CONTINUOUS
10
151.593
20
-46.7235
11
151.593
21
-46.7231
0
LINE
8
BLACK
6
CONTINUOUS
10
151.593
20
-46.7231
11
151.593
21
-46.7227
0
LINE
8
BLACK
6
CONTINUOUS
10
151.593
20
-46.7227
11
151.593
21
-46.7223
0
LINE
8
BLACK
6
CONTINUOUS
10
151.593
20
-46.7223
11
151.593
21
-46.7218
0
LINE
8
BLACK
6
CONTINUOUS
10
151.593
20
-46.7218
11
151.594
21
-46.7214
0
LINE
8
BLACK
6
CONTINUOUS
10
151.594
20
-46.7214
11
151.594
21
-46.7211
0
LINE
8
BLACK
6
CONTINUOUS
10
151.594
20
-46.7211
11
151.594
21
-46.7207
0
LINE
8
BLACK
6
CONTINUOUS
10
151.594
20
-46.7207
11
151.594
21
-46.7203
0
LINE
8
BLACK
6
CONTINUOUS
10
151.594
20
-46.7203
11
151.594
21
-46.72
0
LINE
8
BLACK
6
CONTINUOUS
10
151.594
20
-46.72
11
151.595
21
-46.7197
0
LINE
8
BLACK
6
CONTINUOUS
10
151.595
20
-46.7197
11
151.595
21
-46.7195
0
LINE
8
BLACK
6
CONTINUOUS
10
151.595
20
-46.7195
11
151.596
21
-46.7192
0
LINE
8
BLACK
6
CONTINUOUS
10
151.596
20
-46.7192
11
151.596
21
-46.719
0
LINE
8
BLACK
6
CONTINUOUS
10
151.596
20
-46.719
11
151.596
21
-46.7188
0
LINE
8
BLACK
6
CONTINUOUS
10
151.596
20
-46.7188
11
151.597
21
-46.7187
0
LINE
8
BLACK
6
CONTINUOUS
10
151.597
20
-46.7187
11
151.597
21
-46.7186
0
LINE
8
BLACK
6
CONTINUOUS
10
151.597
20
-46.7186
11
151.598
21
-46.7186
0
LINE
8
BLACK
6
CONTINUOUS
10
151.598
20
-46.7186
11
151.598
21
-46.7185
0
LINE
8
BLACK
6
CONTINUOUS
10
151.598
20
-46.7185
11
155.022
21
-46.6727
0
LINE
8
BLACK
6
CONTINUOUS
10
155.022
20
-46.6727
11
155.022
21
-46.0899
0
LINE
8
BLACK
6
CONTINUOUS
10
155.022
20
-46.0899
11
152.972
21
-46.0673
0
LINE
8
BLACK
6
CONTINUOUS
10
144.316
20
-50.9583
11
144.316
21
-50.9583
0
LINE
8
BLACK
6
CONTINUOUS
10
144.316
20
-50.9583
11
144.315
21
-50.9581
0
LINE
8
BLACK
6
CONTINUOUS
10
144.315
20
-50.9581
11
144.315
21
-50.958
0
LINE
8
BLACK
6
CONTINUOUS
10
144.315
20
-50.958
11
144.315
21
-50.9578
0
LINE
8
BLACK
6
CONTINUOUS
10
144.315
20
-50.9578
11
144.314
21
-50.9577
0
LINE
8
BLACK
6
CONTINUOUS
10
144.314
20
-50.9577
11
144.314
21
-50.9574
0
LINE
8
BLACK
6
CONTINUOUS
10
144.314
20
-50.9574
11
144.313
21
-50.9572
0
LINE
8
BLACK
6
CONTINUOUS
10
144.313
20
-50.9572
11
144.313
21
-50.9568
0
LINE
8
BLACK
6
CONTINUOUS
10
144.313
20
-50.9568
11
144.313
21
-50.9565
0
LINE
8
BLACK
6
CONTINUOUS
10
144.313
20
-50.9565
11
144.313
21
-50.9562
0
LINE
8
BLACK
6
CONTINUOUS
10
144.313
20
-50.9562
11
144.312
21
-50.9558
0
LINE
8
BLACK
6
CONTINUOUS
10
144.312
20
-50.9558
11
144.312
21
-50.9554
0
LINE
8
BLACK
6
CONTINUOUS
10
144.312
20
-50.9554
11
144.312
21
-50.955
0
LINE
8
BLACK
6
CONTINUOUS
10
144.312
20
-50.955
11
144.312
21
-50.9546
0
LINE
8
BLACK
6
CONTINUOUS
10
144.312
20
-50.9546
11
144.312
21
-50.9542
0
LINE
8
BLACK
6
CONTINUOUS
10
144.312
20
-50.9542
11
144.312
21
-50.9538
0
LINE
8
BLACK
6
CONTINUOUS
10
144.312
20
-50.9538
11
144.312
21
-50.9533
0
LINE
8
BLACK
6
CONTINUOUS
10
144.312
20
-50.9533
11
144.312
21
-48.5996
0
LINE
8
BLACK
6
CONTINUOUS
10
144.312
20
-48.5996
11
144.312
21
-48.5051
0
LINE
8
BLACK
6
CONTINUOUS
10
144.312
20
-48.5051
11
144.312
21
-48.5051
0
LINE
8
BLACK
6
CONTINUOUS
10
144.312
20
-48.5051
11
144.309
21
-47.7632
0
LINE
8
BLACK
6
CONTINUOUS
10
144.309
20
-47.7632
11
144.301
21
-47.177
0
LINE
8
BLACK
6
CONTINUOUS
10
144.301
20
-47.177
11
144.288
21
-46.7343
0
LINE
8
BLACK
6
CONTINUOUS
10
144.288
20
-46.7343
11
144.269
21
-46.423
0
LINE
8
BLACK
6
CONTINUOUS
10
144.269
20
-46.423
11
144.243
21
-46.2312
0
LINE
8
BLACK
6
CONTINUOUS
10
144.243
20
-46.2312
11
144.211
21
-46.1477
0
LINE
8
BLACK
6
CONTINUOUS
10
144.211
20
-46.1477
11
144.096
21
-46.0829
0
LINE
8
BLACK
6
CONTINUOUS
10
144.096
20
-46.0829
11
143.895
21
-46.0508
0
LINE
8
BLACK
6
CONTINUOUS
10
143.895
20
-46.0508
11
143.704
21
-46.0742
0
LINE
8
BLACK
6
CONTINUOUS
10
143.704
20
-46.0742
11
143.598
21
-46.1513
0
LINE
8
BLACK
6
CONTINUOUS
10
143.598
20
-46.1513
11
143.595
21
-46.1746
0
LINE
8
BLACK
6
CONTINUOUS
10
143.595
20
-46.1746
11
143.589
21
-46.3475
0
LINE
8
BLACK
6
CONTINUOUS
10
143.589
20
-46.3475
11
143.584
21
-46.6691
0
LINE
8
BLACK
6
CONTINUOUS
10
143.584
20
-46.6691
11
143.584
21
-46.6691
0
LINE
8
BLACK
6
CONTINUOUS
10
143.584
20
-46.6691
11
143.58
21
-47.1252
0
LINE
8
BLACK
6
CONTINUOUS
10
143.58
20
-47.1252
11
143.577
21
-47.7013
0
LINE
8
BLACK
6
CONTINUOUS
10
143.577
20
-47.7013
11
143.575
21
-48.3833
0
LINE
8
BLACK
6
CONTINUOUS
10
143.575
20
-48.3833
11
143.575
21
-49.1569
0
LINE
8
BLACK
6
CONTINUOUS
10
143.575
20
-49.1569
11
143.575
21
-49.1569
0
LINE
8
BLACK
6
CONTINUOUS
10
143.575
20
-49.1569
11
143.575
21
-50.0078
0
LINE
8
BLACK
6
CONTINUOUS
10
143.575
20
-50.0078
11
143.577
21
-50.9218
0
LINE
8
BLACK
6
CONTINUOUS
10
143.577
20
-50.9218
11
143.58
21
-51.8846
0
LINE
8
BLACK
6
CONTINUOUS
10
143.58
20
-51.8846
11
143.602
21
-57.5101
0
LINE
8
BLACK
6
CONTINUOUS
10
143.602
20
-57.5101
11
145.119
21
-57.5332
0
LINE
8
BLACK
6
CONTINUOUS
10
145.119
20
-57.5332
11
145.119
21
-57.5332
0
LINE
8
BLACK
6
CONTINUOUS
10
145.119
20
-57.5332
11
145.488
21
-57.5362
0
LINE
8
BLACK
6
CONTINUOUS
10
145.488
20
-57.5362
11
146.01
21
-57.5317
0
LINE
8
BLACK
6
CONTINUOUS
10
146.01
20
-57.5317
11
146.474
21
-57.5177
0
LINE
8
BLACK
6
CONTINUOUS
10
146.474
20
-57.5177
11
146.841
21
-57.4953
0
LINE
8
BLACK
6
CONTINUOUS
10
146.841
20
-57.4953
11
147.076
21
-57.466
0
LINE
8
BLACK
6
CONTINUOUS
10
147.076
20
-57.466
11
147.186
21
-57.4405
0
LINE
8
BLACK
6
CONTINUOUS
10
147.186
20
-57.4405
11
147.742
21
-57.2233
0
LINE
8
BLACK
6
CONTINUOUS
10
147.742
20
-57.2233
11
148.192
21
-56.885
0
LINE
8
BLACK
6
CONTINUOUS
10
148.192
20
-56.885
11
148.521
21
-56.4369
0
LINE
8
BLACK
6
CONTINUOUS
10
148.521
20
-56.4369
11
148.581
21
-56.321
0
LINE
8
BLACK
6
CONTINUOUS
10
148.581
20
-56.321
11
148.646
21
-56.1802
0
LINE
8
BLACK
6
CONTINUOUS
10
148.646
20
-56.1802
11
148.693
21
-56.0364
0
LINE
8
BLACK
6
CONTINUOUS
10
148.693
20
-56.0364
11
148.724
21
-55.8616
0
LINE
8
BLACK
6
CONTINUOUS
10
148.724
20
-55.8616
11
148.743
21
-55.628
0
LINE
8
BLACK
6
CONTINUOUS
10
148.743
20
-55.628
11
148.752
21
-55.3078
0
LINE
8
BLACK
6
CONTINUOUS
10
148.752
20
-55.3078
11
148.756
21
-54.8736
0
LINE
8
BLACK
6
CONTINUOUS
10
148.756
20
-54.8736
11
148.757
21
-54.2977
0
LINE
8
BLACK
6
CONTINUOUS
10
148.757
20
-54.2977
11
148.755
21
-53.7365
0
LINE
8
BLACK
6
CONTINUOUS
10
148.755
20
-53.7365
11
148.743
21
-53.1903
0
LINE
8
BLACK
6
CONTINUOUS
10
148.743
20
-53.1903
11
148.717
21
-52.7666
0
LINE
8
BLACK
6
CONTINUOUS
10
148.717
20
-52.7666
11
148.669
21
-52.4397
0
LINE
8
BLACK
6
CONTINUOUS
10
148.669
20
-52.4397
11
148.596
21
-52.1839
0
LINE
8
BLACK
6
CONTINUOUS
10
148.596
20
-52.1839
11
148.491
21
-51.9734
0
LINE
8
BLACK
6
CONTINUOUS
10
148.491
20
-51.9734
11
148.348
21
-51.7821
0
LINE
8
BLACK
6
CONTINUOUS
10
148.348
20
-51.7821
11
148.162
21
-51.5843
0
LINE
8
BLACK
6
CONTINUOUS
10
148.162
20
-51.5843
11
148.053
21
-51.4806
0
LINE
8
BLACK
6
CONTINUOUS
10
148.053
20
-51.4806
11
147.81
21
-51.2922
0
LINE
8
BLACK
6
CONTINUOUS
10
147.81
20
-51.2922
11
147.539
21
-51.1537
0
LINE
8
BLACK
6
CONTINUOUS
10
147.539
20
-51.1537
11
147.213
21
-51.0579
0
LINE
8
BLACK
6
CONTINUOUS
10
147.213
20
-51.0579
11
146.801
21
-50.998
0
LINE
8
BLACK
6
CONTINUOUS
10
146.801
20
-50.998
11
146.278
21
-50.9671
0
LINE
8
BLACK
6
CONTINUOUS
10
146.278
20
-50.9671
11
145.614
21
-50.9583
0
LINE
8
BLACK
6
CONTINUOUS
10
145.614
20
-50.9583
11
144.317
21
-50.9583
0
LINE
8
BLACK
6
CONTINUOUS
10
144.317
20
-50.9583
11
144.316
21
-50.9583
0
LINE
8
BLACK
6
CONTINUOUS
10
145.422
20
-51.6257
11
145.422
21
-51.6257
0
LINE
8
BLACK
6
CONTINUOUS
10
145.422
20
-51.6257
11
145.809
21
-51.6291
0
LINE
8
BLACK
6
CONTINUOUS
10
145.809
20
-51.6291
11
145.809
21
-51.6291
0
LINE
8
BLACK
6
CONTINUOUS
10
145.809
20
-51.6291
11
145.809
21
-51.6291
0
LINE
8
BLACK
6
CONTINUOUS
10
145.809
20
-51.6291
11
146.358
21
-51.6534
0
LINE
8
BLACK
6
CONTINUOUS
10
146.358
20
-51.6534
11
146.358
21
-51.6534
0
LINE
8
BLACK
6
CONTINUOUS
10
146.358
20
-51.6534
11
146.358
21
-51.6534
0
LINE
8
BLACK
6
CONTINUOUS
10
146.358
20
-51.6534
11
146.782
21
-51.7061
0
LINE
8
BLACK
6
CONTINUOUS
10
146.782
20
-51.7061
11
146.782
21
-51.7062
0
LINE
8
BLACK
6
CONTINUOUS
10
146.782
20
-51.7062
11
146.783
21
-51.7063
0
LINE
8
BLACK
6
CONTINUOUS
10
146.783
20
-51.7063
11
147.108
21
-51.7933
0
LINE
8
BLACK
6
CONTINUOUS
10
147.108
20
-51.7933
11
147.109
21
-51.7936
0
LINE
8
BLACK
6
CONTINUOUS
10
147.109
20
-51.7936
11
147.109
21
-51.7937
0
LINE
8
BLACK
6
CONTINUOUS
10
147.109
20
-51.7937
11
147.364
21
-51.9211
0
LINE
8
BLACK
6
CONTINUOUS
10
147.364
20
-51.9211
11
147.365
21
-51.9214
0
LINE
8
BLACK
6
CONTINUOUS
10
147.365
20
-51.9214
11
147.365
21
-51.9217
0
LINE
8
BLACK
6
CONTINUOUS
10
147.365
20
-51.9217
11
147.577
21
-52.0953
0
LINE
8
BLACK
6
CONTINUOUS
10
147.577
20
-52.0953
11
147.577
21
-52.0956
0
LINE
8
BLACK
6
CONTINUOUS
10
147.577
20
-52.0956
11
147.577
21
-52.0958
0
LINE
8
BLACK
6
CONTINUOUS
10
147.577
20
-52.0958
11
147.694
21
-52.2278
0
LINE
8
BLACK
6
CONTINUOUS
10
147.694
20
-52.2278
11
147.695
21
-52.2282
0
LINE
8
BLACK
6
CONTINUOUS
10
147.695
20
-52.2282
11
147.695
21
-52.2286
0
LINE
8
BLACK
6
CONTINUOUS
10
147.695
20
-52.2286
11
147.837
21
-52.4623
0
LINE
8
BLACK
6
CONTINUOUS
10
147.837
20
-52.4623
11
147.837
21
-52.4628
0
LINE
8
BLACK
6
CONTINUOUS
10
147.837
20
-52.4628
11
147.837
21
-52.4633
0
LINE
8
BLACK
6
CONTINUOUS
10
147.837
20
-52.4633
11
147.938
21
-52.7572
0
LINE
8
BLACK
6
CONTINUOUS
10
147.938
20
-52.7572
11
147.938
21
-52.7576
0
LINE
8
BLACK
6
CONTINUOUS
10
147.938
20
-52.7576
11
147.938
21
-52.758
0
LINE
8
BLACK
6
CONTINUOUS
10
147.938
20
-52.758
11
148.002
21
-53.139
0
LINE
8
BLACK
6
CONTINUOUS
10
148.002
20
-53.139
11
148.002
21
-53.1393
0
LINE
8
BLACK
6
CONTINUOUS
10
148.002
20
-53.1393
11
148.002
21
-53.1395
0
LINE
8
BLACK
6
CONTINUOUS
10
148.002
20
-53.1395
11
148.037
21
-53.6348
0
LINE
8
BLACK
6
CONTINUOUS
10
148.037
20
-53.6348
11
148.037
21
-53.6349
0
LINE
8
BLACK
6
CONTINUOUS
10
148.037
20
-53.6349
11
148.037
21
-53.6351
0
LINE
8
BLACK
6
CONTINUOUS
10
148.037
20
-53.6351
11
148.047
21
-54.2716
0
LINE
8
BLACK
6
CONTINUOUS
10
148.047
20
-54.2716
11
148.047
21
-54.2716
0
LINE
8
BLACK
6
CONTINUOUS
10
148.047
20
-54.2716
11
148.047
21
-54.2717
0
LINE
8
BLACK
6
CONTINUOUS
10
148.047
20
-54.2717
11
148.043
21
-54.6647
0
LINE
8
BLACK
6
CONTINUOUS
10
148.043
20
-54.6647
11
148.043
21
-54.6647
0
LINE
8
BLACK
6
CONTINUOUS
10
148.043
20
-54.6647
11
148.043
21
-54.6648
0
LINE
8
BLACK
6
CONTINUOUS
10
148.043
20
-54.6648
11
148.023
21
-55.1681
0
LINE
8
BLACK
6
CONTINUOUS
10
148.023
20
-55.1681
11
148.023
21
-55.1682
0
LINE
8
BLACK
6
CONTINUOUS
10
148.023
20
-55.1682
11
148.023
21
-55.1684
0
LINE
8
BLACK
6
CONTINUOUS
10
148.023
20
-55.1684
11
147.979
21
-55.5527
0
LINE
8
BLACK
6
CONTINUOUS
10
147.979
20
-55.5527
11
147.979
21
-55.553
0
LINE
8
BLACK
6
CONTINUOUS
10
147.979
20
-55.553
11
147.979
21
-55.5533
0
LINE
8
BLACK
6
CONTINUOUS
10
147.979
20
-55.5533
11
147.906
21
-55.8491
0
LINE
8
BLACK
6
CONTINUOUS
10
147.906
20
-55.8491
11
147.906
21
-55.8496
0
LINE
8
BLACK
6
CONTINUOUS
10
147.906
20
-55.8496
11
147.906
21
-55.85
0
LINE
8
BLACK
6
CONTINUOUS
10
147.906
20
-55.85
11
147.796
21
-56.0879
0
LINE
8
BLACK
6
CONTINUOUS
10
147.796
20
-56.0879
11
147.796
21
-56.0883
0
LINE
8
BLACK
6
CONTINUOUS
10
147.796
20
-56.0883
11
147.796
21
-56.0887
0
LINE
8
BLACK
6
CONTINUOUS
10
147.796
20
-56.0887
11
147.645
21
-56.2991
0
LINE
8
BLACK
6
CONTINUOUS
10
147.645
20
-56.2991
11
147.644
21
-56.2993
0
LINE
8
BLACK
6
CONTINUOUS
10
147.644
20
-56.2993
11
147.644
21
-56.2995
0
LINE
8
BLACK
6
CONTINUOUS
10
147.644
20
-56.2995
11
147.616
21
-56.3329
0
LINE
8
BLACK
6
CONTINUOUS
10
147.616
20
-56.3329
11
147.616
21
-56.3331
0
LINE
8
BLACK
6
CONTINUOUS
10
147.616
20
-56.3331
11
147.615
21
-56.3332
0
LINE
8
BLACK
6
CONTINUOUS
10
147.615
20
-56.3332
11
147.434
21
-56.511
0
LINE
8
BLACK
6
CONTINUOUS
10
147.434
20
-56.511
11
147.434
21
-56.5113
0
LINE
8
BLACK
6
CONTINUOUS
10
147.434
20
-56.5113
11
147.434
21
-56.5116
0
LINE
8
BLACK
6
CONTINUOUS
10
147.434
20
-56.5116
11
147.227
21
-56.6433
0
LINE
8
BLACK
6
CONTINUOUS
10
147.227
20
-56.6433
11
147.226
21
-56.6435
0
LINE
8
BLACK
6
CONTINUOUS
10
147.226
20
-56.6435
11
147.226
21
-56.6438
0
LINE
8
BLACK
6
CONTINUOUS
10
147.226
20
-56.6438
11
146.965
21
-56.7373
0
LINE
8
BLACK
6
CONTINUOUS
10
146.965
20
-56.7373
11
146.964
21
-56.7374
0
LINE
8
BLACK
6
CONTINUOUS
10
146.964
20
-56.7374
11
146.964
21
-56.7375
0
LINE
8
BLACK
6
CONTINUOUS
10
146.964
20
-56.7375
11
146.619
21
-56.8006
0
LINE
8
BLACK
6
CONTINUOUS
10
146.619
20
-56.8006
11
146.619
21
-56.8006
0
LINE
8
BLACK
6
CONTINUOUS
10
146.619
20
-56.8006
11
146.619
21
-56.8007
0
LINE
8
BLACK
6
CONTINUOUS
10
146.619
20
-56.8007
11
146.163
21
-56.8413
0
LINE
8
BLACK
6
CONTINUOUS
10
146.163
20
-56.8413
11
146.163
21
-56.8412
0
LINE
8
BLACK
6
CONTINUOUS
10
146.163
20
-56.8412
11
146.162
21
-56.8413
0
LINE
8
BLACK
6
CONTINUOUS
10
146.162
20
-56.8413
11
145.566
21
-56.8671
0
LINE
8
BLACK
6
CONTINUOUS
10
145.566
20
-56.8671
11
145.566
21
-56.8671
0
LINE
8
BLACK
6
CONTINUOUS
10
145.566
20
-56.8671
11
145.566
21
-56.8671
0
LINE
8
BLACK
6
CONTINUOUS
10
145.566
20
-56.8671
11
144.317
21
-56.906
0
LINE
8
BLACK
6
CONTINUOUS
10
144.317
20
-56.906
11
144.316
21
-56.9059
0
LINE
8
BLACK
6
CONTINUOUS
10
144.316
20
-56.9059
11
144.316
21
-56.9059
0
LINE
8
BLACK
6
CONTINUOUS
10
144.316
20
-56.9059
11
144.315
21
-56.9058
0
LINE
8
BLACK
6
CONTINUOUS
10
144.315
20
-56.9058
11
144.315
21
-56.9057
0
LINE
8
BLACK
6
CONTINUOUS
10
144.315
20
-56.9057
11
144.315
21
-56.9055
0
LINE
8
BLACK
6
CONTINUOUS
10
144.315
20
-56.9055
11
144.314
21
-56.9053
0
LINE
8
BLACK
6
CONTINUOUS
10
144.314
20
-56.9053
11
144.314
21
-56.9051
0
LINE
8
BLACK
6
CONTINUOUS
10
144.314
20
-56.9051
11
144.314
21
-56.9049
0
LINE
8
BLACK
6
CONTINUOUS
10
144.314
20
-56.9049
11
144.313
21
-56.9045
0
LINE
8
BLACK
6
CONTINUOUS
10
144.313
20
-56.9045
11
144.313
21
-56.9042
0
LINE
8
BLACK
6
CONTINUOUS
10
144.313
20
-56.9042
11
144.313
21
-56.9039
0
LINE
8
BLACK
6
CONTINUOUS
10
144.313
20
-56.9039
11
144.312
21
-56.9036
0
LINE
8
BLACK
6
CONTINUOUS
10
144.312
20
-56.9036
11
144.312
21
-56.9031
0
LINE
8
BLACK
6
CONTINUOUS
10
144.312
20
-56.9031
11
144.312
21
-56.9027
0
LINE
8
BLACK
6
CONTINUOUS
10
144.312
20
-56.9027
11
144.312
21
-56.9023
0
LINE
8
BLACK
6
CONTINUOUS
10
144.312
20
-56.9023
11
144.312
21
-56.902
0
LINE
8
BLACK
6
CONTINUOUS
10
144.312
20
-56.902
11
144.312
21
-56.9015
0
LINE
8
BLACK
6
CONTINUOUS
10
144.312
20
-56.9015
11
144.312
21
-56.901
0
LINE
8
BLACK
6
CONTINUOUS
10
144.312
20
-56.901
11
144.312
21
-51.6307
0
LINE
8
BLACK
6
CONTINUOUS
10
144.312
20
-51.6307
11
144.312
21
-51.6302
0
LINE
8
BLACK
6
CONTINUOUS
10
144.312
20
-51.6302
11
144.312
21
-51.6298
0
LINE
8
BLACK
6
CONTINUOUS
10
144.312
20
-51.6298
11
144.312
21
-51.6294
0
LINE
8
BLACK
6
CONTINUOUS
10
144.312
20
-51.6294
11
144.312
21
-51.629
0
LINE
8
BLACK
6
CONTINUOUS
10
144.312
20
-51.629
11
144.312
21
-51.6286
0
LINE
8
BLACK
6
CONTINUOUS
10
144.312
20
-51.6286
11
144.312
21
-51.6282
0
LINE
8
BLACK
6
CONTINUOUS
10
144.312
20
-51.6282
11
144.313
21
-51.6278
0
LINE
8
BLACK
6
CONTINUOUS
10
144.313
20
-51.6278
11
144.313
21
-51.6275
0
LINE
8
BLACK
6
CONTINUOUS
10
144.313
20
-51.6275
11
144.313
21
-51.6272
0
LINE
8
BLACK
6
CONTINUOUS
10
144.313
20
-51.6272
11
144.313
21
-51.6268
0
LINE
8
BLACK
6
CONTINUOUS
10
144.313
20
-51.6268
11
144.314
21
-51.6266
0
LINE
8
BLACK
6
CONTINUOUS
10
144.314
20
-51.6266
11
144.314
21
-51.6263
0
LINE
8
BLACK
6
CONTINUOUS
10
144.314
20
-51.6263
11
144.315
21
-51.6262
0
LINE
8
BLACK
6
CONTINUOUS
10
144.315
20
-51.6262
11
144.315
21
-51.626
0
LINE
8
BLACK
6
CONTINUOUS
10
144.315
20
-51.626
11
144.315
21
-51.6259
0
LINE
8
BLACK
6
CONTINUOUS
10
144.315
20
-51.6259
11
144.316
21
-51.6257
0
LINE
8
BLACK
6
CONTINUOUS
10
144.316
20
-51.6257
11
144.316
21
-51.6257
0
LINE
8
BLACK
6
CONTINUOUS
10
144.316
20
-51.6257
11
144.317
21
-51.6257
0
LINE
8
BLACK
6
CONTINUOUS
10
144.317
20
-51.6257
11
145.422
21
-51.6257
0
LINE
8
BLACK
6
CONTINUOUS
10
145.422
20
-51.6257
11
145.422
21
-51.6257
0
LINE
8
BLACK
6
CONTINUOUS
10
128.657
20
-45.9643
11
128.657
21
-45.9643
0
LINE
8
BLACK
6
CONTINUOUS
10
128.657
20
-45.9643
11
129.894
21
-45.9658
0
LINE
8
BLACK
6
CONTINUOUS
10
129.894
20
-45.9658
11
129.894
21
-45.9658
0
LINE
8
BLACK
6
CONTINUOUS
10
129.894
20
-45.9658
11
131.076
21
-45.9683
0
LINE
8
BLACK
6
CONTINUOUS
10
131.076
20
-45.9683
11
131.076
21
-45.9683
0
LINE
8
BLACK
6
CONTINUOUS
10
131.076
20
-45.9683
11
132.191
21
-45.9717
0
LINE
8
BLACK
6
CONTINUOUS
10
132.191
20
-45.9717
11
132.191
21
-45.9717
0
LINE
8
BLACK
6
CONTINUOUS
10
132.191
20
-45.9717
11
132.191
21
-45.9717
0
LINE
8
BLACK
6
CONTINUOUS
10
132.191
20
-45.9717
11
133.229
21
-45.976
0
LINE
8
BLACK
6
CONTINUOUS
10
133.229
20
-45.976
11
133.229
21
-45.976
0
LINE
8
BLACK
6
CONTINUOUS
10
133.229
20
-45.976
11
133.229
21
-45.976
0
LINE
8
BLACK
6
CONTINUOUS
10
133.229
20
-45.976
11
134.18
21
-45.981
0
LINE
8
BLACK
6
CONTINUOUS
10
134.18
20
-45.981
11
134.18
21
-45.981
0
LINE
8
BLACK
6
CONTINUOUS
10
134.18
20
-45.981
11
134.18
21
-45.981
0
LINE
8
BLACK
6
CONTINUOUS
10
134.18
20
-45.981
11
135.035
21
-45.9868
0
LINE
8
BLACK
6
CONTINUOUS
10
135.035
20
-45.9868
11
135.035
21
-45.9868
0
LINE
8
BLACK
6
CONTINUOUS
10
135.035
20
-45.9868
11
135.035
21
-45.9868
0
LINE
8
BLACK
6
CONTINUOUS
10
135.035
20
-45.9868
11
135.782
21
-45.9932
0
LINE
8
BLACK
6
CONTINUOUS
10
135.782
20
-45.9932
11
135.782
21
-45.9932
0
LINE
8
BLACK
6
CONTINUOUS
10
135.782
20
-45.9932
11
135.782
21
-45.9932
0
LINE
8
BLACK
6
CONTINUOUS
10
135.782
20
-45.9932
11
136.411
21
-46.0001
0
LINE
8
BLACK
6
CONTINUOUS
10
136.411
20
-46.0001
11
136.411
21
-46.0001
0
LINE
8
BLACK
6
CONTINUOUS
10
136.411
20
-46.0001
11
136.411
21
-46.0001
0
LINE
8
BLACK
6
CONTINUOUS
10
136.411
20
-46.0001
11
136.912
21
-46.0076
0
LINE
8
BLACK
6
CONTINUOUS
10
136.912
20
-46.0076
11
136.912
21
-46.0076
0
LINE
8
BLACK
6
CONTINUOUS
10
136.912
20
-46.0076
11
136.912
21
-46.0076
0
LINE
8
BLACK
6
CONTINUOUS
10
136.912
20
-46.0076
11
137.274
21
-46.0155
0
LINE
8
BLACK
6
CONTINUOUS
10
137.274
20
-46.0155
11
137.274
21
-46.0155
0
LINE
8
BLACK
6
CONTINUOUS
10
137.274
20
-46.0155
11
137.274
21
-46.0155
0
LINE
8
BLACK
6
CONTINUOUS
10
137.274
20
-46.0155
11
137.488
21
-46.0237
0
LINE
8
BLACK
6
CONTINUOUS
10
137.488
20
-46.0237
11
137.488
21
-46.0237
0
LINE
8
BLACK
6
CONTINUOUS
10
137.488
20
-46.0237
11
137.489
21
-46.0237
0
LINE
8
BLACK
6
CONTINUOUS
10
137.489
20
-46.0237
11
137.544
21
-46.0322
0
LINE
8
BLACK
6
CONTINUOUS
10
137.544
20
-46.0322
11
137.544
21
-46.0323
0
LINE
8
BLACK
6
CONTINUOUS
10
137.544
20
-46.0323
11
137.544
21
-46.0324
0
LINE
8
BLACK
6
CONTINUOUS
10
137.544
20
-46.0324
11
137.545
21
-46.0326
0
LINE
8
BLACK
6
CONTINUOUS
10
137.545
20
-46.0326
11
137.545
21
-46.0327
0
LINE
8
BLACK
6
CONTINUOUS
10
137.545
20
-46.0327
11
137.546
21
-46.033
0
LINE
8
BLACK
6
CONTINUOUS
10
137.546
20
-46.033
11
137.546
21
-46.0332
0
LINE
8
BLACK
6
CONTINUOUS
10
137.546
20
-46.0332
11
137.546
21
-46.0336
0
LINE
8
BLACK
6
CONTINUOUS
10
137.546
20
-46.0336
11
137.547
21
-46.0338
0
LINE
8
BLACK
6
CONTINUOUS
10
137.547
20
-46.0338
11
137.547
21
-46.0342
0
LINE
8
BLACK
6
CONTINUOUS
10
137.547
20
-46.0342
11
137.547
21
-46.0346
0
LINE
8
BLACK
6
CONTINUOUS
10
137.547
20
-46.0346
11
137.547
21
-46.0349
0
LINE
8
BLACK
6
CONTINUOUS
10
137.547
20
-46.0349
11
137.547
21
-46.0353
0
LINE
8
BLACK
6
CONTINUOUS
10
137.547
20
-46.0353
11
137.548
21
-46.0357
0
LINE
8
BLACK
6
CONTINUOUS
10
137.548
20
-46.0357
11
137.548
21
-46.0362
0
LINE
8
BLACK
6
CONTINUOUS
10
137.548
20
-46.0362
11
137.548
21
-46.0366
0
LINE
8
BLACK
6
CONTINUOUS
10
137.548
20
-46.0366
11
137.548
21
-46.037
0
LINE
8
BLACK
6
CONTINUOUS
10
137.548
20
-46.037
11
137.548
21
-46.0375
0
LINE
8
BLACK
6
CONTINUOUS
10
137.548
20
-46.0375
11
137.548
21
-46.0379
0
LINE
8
BLACK
6
CONTINUOUS
10
137.548
20
-46.0379
11
137.548
21
-46.0383
0
LINE
8
BLACK
6
CONTINUOUS
10
137.548
20
-46.0383
11
137.548
21
-46.0387
0
LINE
8
BLACK
6
CONTINUOUS
10
137.548
20
-46.0387
11
137.547
21
-46.0391
0
LINE
8
BLACK
6
CONTINUOUS
10
137.547
20
-46.0391
11
137.547
21
-46.0395
0
LINE
8
BLACK
6
CONTINUOUS
10
137.547
20
-46.0395
11
137.547
21
-46.0399
0
LINE
8
BLACK
6
CONTINUOUS
10
137.547
20
-46.0399
11
137.547
21
-46.0402
0
LINE
8
BLACK
6
CONTINUOUS
10
137.547
20
-46.0402
11
137.546
21
-46.0405
0
LINE
8
BLACK
6
CONTINUOUS
10
137.546
20
-46.0405
11
137.546
21
-46.0409
0
LINE
8
BLACK
6
CONTINUOUS
10
137.546
20
-46.0409
11
137.546
21
-46.0411
0
LINE
8
BLACK
6
CONTINUOUS
10
137.546
20
-46.0411
11
137.545
21
-46.0414
0
LINE
8
BLACK
6
CONTINUOUS
10
137.545
20
-46.0414
11
137.545
21
-46.0415
0
LINE
8
BLACK
6
CONTINUOUS
10
137.545
20
-46.0415
11
137.545
21
-46.0418
0
LINE
8
BLACK
6
CONTINUOUS
10
137.545
20
-46.0418
11
137.252
21
-46.1525
0
LINE
8
BLACK
6
CONTINUOUS
10
137.252
20
-46.1525
11
136.765
21
-46.463
0
LINE
8
BLACK
6
CONTINUOUS
10
136.765
20
-46.463
11
136.395
21
-46.8879
0
LINE
8
BLACK
6
CONTINUOUS
10
136.395
20
-46.8879
11
136.155
21
-47.4131
0
LINE
8
BLACK
6
CONTINUOUS
10
136.155
20
-47.4131
11
136.135
21
-47.5056
0
LINE
8
BLACK
6
CONTINUOUS
10
136.135
20
-47.5056
11
136.103
21
-47.7954
0
LINE
8
BLACK
6
CONTINUOUS
10
136.103
20
-47.7954
11
136.075
21
-48.221
0
LINE
8
BLACK
6
CONTINUOUS
10
136.075
20
-48.221
11
136.053
21
-48.7606
0
LINE
8
BLACK
6
CONTINUOUS
10
136.053
20
-48.7606
11
136.035
21
-49.3922
0
LINE
8
BLACK
6
CONTINUOUS
10
136.035
20
-49.3922
11
136.021
21
-50.0941
0
LINE
8
BLACK
6
CONTINUOUS
10
136.021
20
-50.0941
11
136.021
21
-50.0941
0
LINE
8
BLACK
6
CONTINUOUS
10
136.021
20
-50.0941
11
136.013
21
-50.8446
0
LINE
8
BLACK
6
CONTINUOUS
10
136.013
20
-50.8446
11
136.01
21
-51.6218
0
LINE
8
BLACK
6
CONTINUOUS
10
136.01
20
-51.6218
11
136.011
21
-52.4039
0
LINE
8
BLACK
6
CONTINUOUS
10
136.011
20
-52.4039
11
136.017
21
-53.1692
0
LINE
8
BLACK
6
CONTINUOUS
10
136.017
20
-53.1692
11
136.028
21
-53.8959
0
LINE
8
BLACK
6
CONTINUOUS
10
136.028
20
-53.8959
11
136.028
21
-53.8959
0
LINE
8
BLACK
6
CONTINUOUS
10
136.028
20
-53.8959
11
136.044
21
-54.5623
0
LINE
8
BLACK
6
CONTINUOUS
10
136.044
20
-54.5623
11
136.064
21
-55.1464
0
LINE
8
BLACK
6
CONTINUOUS
10
136.064
20
-55.1464
11
136.09
21
-55.6265
0
LINE
8
BLACK
6
CONTINUOUS
10
136.09
20
-55.6265
11
136.12
21
-55.9808
0
LINE
8
BLACK
6
CONTINUOUS
10
136.12
20
-55.9808
11
136.155
21
-56.1872
0
LINE
8
BLACK
6
CONTINUOUS
10
136.155
20
-56.1872
11
136.261
21
-56.4697
0
LINE
8
BLACK
6
CONTINUOUS
10
136.261
20
-56.4697
11
136.57
21
-56.9449
0
LINE
8
BLACK
6
CONTINUOUS
10
136.57
20
-56.9449
11
137.003
21
-57.3125
0
LINE
8
BLACK
6
CONTINUOUS
10
137.003
20
-57.3125
11
137.545
21
-57.5583
0
LINE
8
BLACK
6
CONTINUOUS
10
137.545
20
-57.5583
11
137.545
21
-57.5588
0
LINE
8
BLACK
6
CONTINUOUS
10
137.545
20
-57.5588
11
137.546
21
-57.5592
0
LINE
8
BLACK
6
CONTINUOUS
10
137.546
20
-57.5592
11
137.546
21
-57.5593
0
LINE
8
BLACK
6
CONTINUOUS
10
137.546
20
-57.5593
11
137.546
21
-57.5593
0
LINE
8
BLACK
6
CONTINUOUS
10
137.546
20
-57.5593
11
137.547
21
-57.5599
0
LINE
8
BLACK
6
CONTINUOUS
10
137.547
20
-57.5599
11
137.547
21
-57.5605
0
LINE
8
BLACK
6
CONTINUOUS
10
137.547
20
-57.5605
11
137.547
21
-57.5606
0
LINE
8
BLACK
6
CONTINUOUS
10
137.547
20
-57.5606
11
137.547
21
-57.5607
0
LINE
8
BLACK
6
CONTINUOUS
10
137.547
20
-57.5607
11
137.547
21
-57.5615
0
LINE
8
BLACK
6
CONTINUOUS
10
137.547
20
-57.5615
11
137.548
21
-57.5622
0
LINE
8
BLACK
6
CONTINUOUS
10
137.548
20
-57.5622
11
137.548
21
-57.5623
0
LINE
8
BLACK
6
CONTINUOUS
10
137.548
20
-57.5623
11
137.548
21
-57.5624
0
LINE
8
BLACK
6
CONTINUOUS
10
137.548
20
-57.5624
11
137.548
21
-57.5632
0
LINE
8
BLACK
6
CONTINUOUS
10
137.548
20
-57.5632
11
137.548
21
-57.5639
0
LINE
8
BLACK
6
CONTINUOUS
10
137.548
20
-57.5639
11
137.548
21
-57.564
0
LINE
8
BLACK
6
CONTINUOUS
10
137.548
20
-57.564
11
137.548
21
-57.5641
0
LINE
8
BLACK
6
CONTINUOUS
10
137.548
20
-57.5641
11
137.547
21
-57.5648
0
LINE
8
BLACK
6
CONTINUOUS
10
137.547
20
-57.5648
11
137.547
21
-57.5655
0
LINE
8
BLACK
6
CONTINUOUS
10
137.547
20
-57.5655
11
137.547
21
-57.5656
0
LINE
8
BLACK
6
CONTINUOUS
10
137.547
20
-57.5656
11
137.547
21
-57.5657
0
LINE
8
BLACK
6
CONTINUOUS
10
137.547
20
-57.5657
11
137.546
21
-57.5663
0
LINE
8
BLACK
6
CONTINUOUS
10
137.546
20
-57.5663
11
137.546
21
-57.5668
0
LINE
8
BLACK
6
CONTINUOUS
10
137.546
20
-57.5668
11
137.541
21
-57.5707
0
LINE
8
BLACK
6
CONTINUOUS
10
137.541
20
-57.5707
11
137.54
21
-57.571
0
LINE
8
BLACK
6
CONTINUOUS
10
137.54
20
-57.571
11
137.54
21
-57.5714
0
LINE
8
BLACK
6
CONTINUOUS
10
137.54
20
-57.5714
11
137.54
21
-57.5715
0
LINE
8
BLACK
6
CONTINUOUS
10
137.54
20
-57.5715
11
137.539
21
-57.5716
0
LINE
8
BLACK
6
CONTINUOUS
10
137.539
20
-57.5716
11
137.539
21
-57.5717
0
LINE
8
BLACK
6
CONTINUOUS
10
137.539
20
-57.5717
11
137.538
21
-57.5718
0
LINE
8
BLACK
6
CONTINUOUS
10
137.538
20
-57.5718
11
137.408
21
-57.5801
0
LINE
8
BLACK
6
CONTINUOUS
10
137.408
20
-57.5801
11
137.408
21
-57.5801
0
LINE
8
BLACK
6
CONTINUOUS
10
137.408
20
-57.5801
11
137.408
21
-57.5801
0
LINE
8
BLACK
6
CONTINUOUS
10
137.408
20
-57.5801
11
137.124
21
-57.588
0
LINE
8
BLACK
6
CONTINUOUS
10
137.124
20
-57.588
11
137.124
21
-57.588
0
LINE
8
BLACK
6
CONTINUOUS
10
137.124
20
-57.588
11
137.124
21
-57.588
0
LINE
8
BLACK
6
CONTINUOUS
10
137.124
20
-57.588
11
136.696
21
-57.5955
0
LINE
8
BLACK
6
CONTINUOUS
10
136.696
20
-57.5955
11
136.696
21
-57.5955
0
LINE
8
BLACK
6
CONTINUOUS
10
136.696
20
-57.5955
11
136.696
21
-57.5955
0
LINE
8
BLACK
6
CONTINUOUS
10
136.696
20
-57.5955
11
136.134
21
-57.6025
0
LINE
8
BLACK
6
CONTINUOUS
10
136.134
20
-57.6025
11
136.134
21
-57.6025
0
LINE
8
BLACK
6
CONTINUOUS
10
136.134
20
-57.6025
11
136.134
21
-57.6025
0
LINE
8
BLACK
6
CONTINUOUS
10
136.134
20
-57.6025
11
135.449
21
-57.609
0
LINE
8
BLACK
6
CONTINUOUS
10
135.449
20
-57.609
11
135.449
21
-57.609
0
LINE
8
BLACK
6
CONTINUOUS
10
135.449
20
-57.609
11
135.449
21
-57.609
0
LINE
8
BLACK
6
CONTINUOUS
10
135.449
20
-57.609
11
134.651
21
-57.6148
0
LINE
8
BLACK
6
CONTINUOUS
10
134.651
20
-57.6148
11
134.651
21
-57.6148
0
LINE
8
BLACK
6
CONTINUOUS
10
134.651
20
-57.6148
11
134.651
21
-57.6148
0
LINE
8
BLACK
6
CONTINUOUS
10
134.651
20
-57.6148
11
133.749
21
-57.6199
0
LINE
8
BLACK
6
CONTINUOUS
10
133.749
20
-57.6199
11
133.749
21
-57.6199
0
LINE
8
BLACK
6
CONTINUOUS
10
133.749
20
-57.6199
11
133.749
21
-57.6199
0
LINE
8
BLACK
6
CONTINUOUS
10
133.749
20
-57.6199
11
132.756
21
-57.6242
0
LINE
8
BLACK
6
CONTINUOUS
10
132.756
20
-57.6242
11
132.756
21
-57.6242
0
LINE
8
BLACK
6
CONTINUOUS
10
132.756
20
-57.6242
11
131.68
21
-57.6277
0
LINE
8
BLACK
6
CONTINUOUS
10
131.68
20
-57.6277
11
131.68
21
-57.6277
0
LINE
8
BLACK
6
CONTINUOUS
10
131.68
20
-57.6277
11
130.532
21
-57.6303
0
LINE
8
BLACK
6
CONTINUOUS
10
130.532
20
-57.6303
11
130.532
21
-57.6303
0
LINE
8
BLACK
6
CONTINUOUS
10
130.532
20
-57.6303
11
129.322
21
-57.6319
0
LINE
8
BLACK
6
CONTINUOUS
10
129.322
20
-57.6319
11
129.322
21
-57.6319
0
LINE
8
BLACK
6
CONTINUOUS
10
129.322
20
-57.6319
11
128.061
21
-57.6324
0
LINE
8
BLACK
6
CONTINUOUS
10
128.061
20
-57.6324
11
128.061
21
-57.6324
0
LINE
8
BLACK
6
CONTINUOUS
10
128.061
20
-57.6324
11
127.471
21
-57.6323
0
LINE
8
BLACK
6
CONTINUOUS
10
127.471
20
-57.6323
11
127.471
21
-57.6323
0
LINE
8
BLACK
6
CONTINUOUS
10
127.471
20
-57.6323
11
126.232
21
-57.6313
0
LINE
8
BLACK
6
CONTINUOUS
10
126.232
20
-57.6313
11
126.232
21
-57.6313
0
LINE
8
BLACK
6
CONTINUOUS
10
126.232
20
-57.6313
11
125.05
21
-57.6292
0
LINE
8
BLACK
6
CONTINUOUS
10
125.05
20
-57.6292
11
125.05
21
-57.6292
0
LINE
8
BLACK
6
CONTINUOUS
10
125.05
20
-57.6292
11
123.934
21
-57.6262
0
LINE
8
BLACK
6
CONTINUOUS
10
123.934
20
-57.6262
11
123.934
21
-57.6262
0
LINE
8
BLACK
6
CONTINUOUS
10
123.934
20
-57.6262
11
122.895
21
-57.6223
0
LINE
8
BLACK
6
CONTINUOUS
10
122.895
20
-57.6223
11
122.895
21
-57.6223
0
LINE
8
BLACK
6
CONTINUOUS
10
122.895
20
-57.6223
11
121.942
21
-57.6176
0
LINE
8
BLACK
6
CONTINUOUS
10
121.942
20
-57.6176
11
121.942
21
-57.6176
0
LINE
8
BLACK
6
CONTINUOUS
10
121.942
20
-57.6176
11
121.942
21
-57.6176
0
LINE
8
BLACK
6
CONTINUOUS
10
121.942
20
-57.6176
11
121.088
21
-57.6122
0
LINE
8
BLACK
6
CONTINUOUS
10
121.088
20
-57.6122
11
121.088
21
-57.6122
0
LINE
8
BLACK
6
CONTINUOUS
10
121.088
20
-57.6122
11
121.088
21
-57.6122
0
LINE
8
BLACK
6
CONTINUOUS
10
121.088
20
-57.6122
11
120.34
21
-57.606
0
LINE
8
BLACK
6
CONTINUOUS
10
120.34
20
-57.606
11
120.34
21
-57.606
0
LINE
8
BLACK
6
CONTINUOUS
10
120.34
20
-57.606
11
120.34
21
-57.606
0
LINE
8
BLACK
6
CONTINUOUS
10
120.34
20
-57.606
11
119.711
21
-57.5993
0
LINE
8
BLACK
6
CONTINUOUS
10
119.711
20
-57.5993
11
119.711
21
-57.5993
0
LINE
8
BLACK
6
CONTINUOUS
10
119.711
20
-57.5993
11
119.711
21
-57.5993
0
LINE
8
BLACK
6
CONTINUOUS
10
119.711
20
-57.5993
11
119.21
21
-57.5921
0
LINE
8
BLACK
6
CONTINUOUS
10
119.21
20
-57.5921
11
119.21
21
-57.5921
0
LINE
8
BLACK
6
CONTINUOUS
10
119.21
20
-57.5921
11
119.21
21
-57.5921
0
LINE
8
BLACK
6
CONTINUOUS
10
119.21
20
-57.5921
11
118.847
21
-57.5844
0
LINE
8
BLACK
6
CONTINUOUS
10
118.847
20
-57.5844
11
118.847
21
-57.5844
0
LINE
8
BLACK
6
CONTINUOUS
10
118.847
20
-57.5844
11
118.847
21
-57.5844
0
LINE
8
BLACK
6
CONTINUOUS
10
118.847
20
-57.5844
11
118.633
21
-57.5763
0
LINE
8
BLACK
6
CONTINUOUS
10
118.633
20
-57.5763
11
118.633
21
-57.5762
0
LINE
8
BLACK
6
CONTINUOUS
10
118.633
20
-57.5762
11
118.633
21
-57.5762
0
LINE
8
BLACK
6
CONTINUOUS
10
118.633
20
-57.5762
11
118.578
21
-57.5678
0
LINE
8
BLACK
6
CONTINUOUS
10
118.578
20
-57.5678
11
118.577
21
-57.5677
0
LINE
8
BLACK
6
CONTINUOUS
10
118.577
20
-57.5677
11
118.577
21
-57.5676
0
LINE
8
BLACK
6
CONTINUOUS
10
118.577
20
-57.5676
11
118.577
21
-57.5674
0
LINE
8
BLACK
6
CONTINUOUS
10
118.577
20
-57.5674
11
118.576
21
-57.5673
0
LINE
8
BLACK
6
CONTINUOUS
10
118.576
20
-57.5673
11
118.576
21
-57.567
0
LINE
8
BLACK
6
CONTINUOUS
10
118.576
20
-57.567
11
118.575
21
-57.5668
0
LINE
8
BLACK
6
CONTINUOUS
10
118.575
20
-57.5668
11
118.575
21
-57.5665
0
LINE
8
BLACK
6
CONTINUOUS
10
118.575
20
-57.5665
11
118.575
21
-57.5662
0
LINE
8
BLACK
6
CONTINUOUS
10
118.575
20
-57.5662
11
118.575
21
-57.5658
0
LINE
8
BLACK
6
CONTINUOUS
10
118.575
20
-57.5658
11
118.574
21
-57.5655
0
LINE
8
BLACK
6
CONTINUOUS
10
118.574
20
-57.5655
11
118.574
21
-57.5651
0
LINE
8
BLACK
6
CONTINUOUS
10
118.574
20
-57.5651
11
118.574
21
-57.5647
0
LINE
8
BLACK
6
CONTINUOUS
10
118.574
20
-57.5647
11
118.574
21
-57.5643
0
LINE
8
BLACK
6
CONTINUOUS
10
118.574
20
-57.5643
11
118.574
21
-57.5638
0
LINE
8
BLACK
6
CONTINUOUS
10
118.574
20
-57.5638
11
118.574
21
-57.5634
0
LINE
8
BLACK
6
CONTINUOUS
10
118.574
20
-57.5634
11
118.574
21
-57.563
0
LINE
8
BLACK
6
CONTINUOUS
10
118.574
20
-57.563
11
118.574
21
-57.5626
0
LINE
8
BLACK
6
CONTINUOUS
10
118.574
20
-57.5626
11
118.574
21
-57.5621
0
LINE
8
BLACK
6
CONTINUOUS
10
118.574
20
-57.5621
11
118.574
21
-57.5617
0
LINE
8
BLACK
6
CONTINUOUS
10
118.574
20
-57.5617
11
118.574
21
-57.5613
0
LINE
8
BLACK
6
CONTINUOUS
10
118.574
20
-57.5613
11
118.574
21
-57.5609
0
LINE
8
BLACK
6
CONTINUOUS
10
118.574
20
-57.5609
11
118.574
21
-57.5605
0
LINE
8
BLACK
6
CONTINUOUS
10
118.574
20
-57.5605
11
118.574
21
-57.5601
0
LINE
8
BLACK
6
CONTINUOUS
10
118.574
20
-57.5601
11
118.575
21
-57.5598
0
LINE
8
BLACK
6
CONTINUOUS
10
118.575
20
-57.5598
11
118.575
21
-57.5595
0
LINE
8
BLACK
6
CONTINUOUS
10
118.575
20
-57.5595
11
118.575
21
-57.5591
0
LINE
8
BLACK
6
CONTINUOUS
10
118.575
20
-57.5591
11
118.576
21
-57.5589
0
LINE
8
BLACK
6
CONTINUOUS
10
118.576
20
-57.5589
11
118.576
21
-57.5586
0
LINE
8
BLACK
6
CONTINUOUS
10
118.576
20
-57.5586
11
118.576
21
-57.5585
0
LINE
8
BLACK
6
CONTINUOUS
10
118.576
20
-57.5585
11
118.577
21
-57.5582
0
LINE
8
BLACK
6
CONTINUOUS
10
118.577
20
-57.5582
11
118.702
21
-57.5103
0
LINE
8
BLACK
6
CONTINUOUS
10
118.702
20
-57.5103
11
118.702
21
-57.5103
0
LINE
8
BLACK
6
CONTINUOUS
10
118.702
20
-57.5103
11
118.88
21
-57.4424
0
LINE
8
BLACK
6
CONTINUOUS
10
118.88
20
-57.4424
11
119.365
21
-57.1292
0
LINE
8
BLACK
6
CONTINUOUS
10
119.365
20
-57.1292
11
119.733
21
-56.7007
0
LINE
8
BLACK
6
CONTINUOUS
10
119.733
20
-56.7007
11
119.971
21
-56.1697
0
LINE
8
BLACK
6
CONTINUOUS
10
119.971
20
-56.1697
11
120.008
21
-56.0209
0
LINE
8
BLACK
6
CONTINUOUS
10
120.008
20
-56.0209
11
120.059
21
-55.6784
0
LINE
8
BLACK
6
CONTINUOUS
10
120.059
20
-55.6784
11
120.081
21
-55.2397
0
LINE
8
BLACK
6
CONTINUOUS
10
120.081
20
-55.2397
11
120.079
21
-54.669
0
LINE
8
BLACK
6
CONTINUOUS
10
120.079
20
-54.669
11
120.055
21
-53.6253
0
LINE
8
BLACK
6
CONTINUOUS
10
120.055
20
-53.6253
11
119.387
21
-53.6253
0
LINE
8
BLACK
6
CONTINUOUS
10
119.387
20
-53.6253
11
119.344
21
-54.7635
0
LINE
8
BLACK
6
CONTINUOUS
10
119.344
20
-54.7635
11
119.344
21
-54.7635
0
LINE
8
BLACK
6
CONTINUOUS
10
119.344
20
-54.7635
11
119.344
21
-54.7636
0
LINE
8
BLACK
6
CONTINUOUS
10
119.344
20
-54.7636
11
119.323
21
-55.2102
0
LINE
8
BLACK
6
CONTINUOUS
10
119.323
20
-55.2102
11
119.323
21
-55.2103
0
LINE
8
BLACK
6
CONTINUOUS
10
119.323
20
-55.2103
11
119.323
21
-55.2104
0
LINE
8
BLACK
6
CONTINUOUS
10
119.323
20
-55.2104
11
119.285
21
-55.645
0
LINE
8
BLACK
6
CONTINUOUS
10
119.285
20
-55.645
11
119.285
21
-55.6452
0
LINE
8
BLACK
6
CONTINUOUS
10
119.285
20
-55.6452
11
119.285
21
-55.6455
0
LINE
8
BLACK
6
CONTINUOUS
10
119.285
20
-55.6455
11
119.225
21
-55.9688
0
LINE
8
BLACK
6
CONTINUOUS
10
119.225
20
-55.9688
11
119.225
21
-55.9692
0
LINE
8
BLACK
6
CONTINUOUS
10
119.225
20
-55.9692
11
119.225
21
-55.9696
0
LINE
8
BLACK
6
CONTINUOUS
10
119.225
20
-55.9696
11
119.134
21
-56.214
0
LINE
8
BLACK
6
CONTINUOUS
10
119.134
20
-56.214
11
119.134
21
-56.2144
0
LINE
8
BLACK
6
CONTINUOUS
10
119.134
20
-56.2144
11
119.134
21
-56.215
0
LINE
8
BLACK
6
CONTINUOUS
10
119.134
20
-56.215
11
119.003
21
-56.4126
0
LINE
8
BLACK
6
CONTINUOUS
10
119.003
20
-56.4126
11
119.003
21
-56.413
0
LINE
8
BLACK
6
CONTINUOUS
10
119.003
20
-56.413
11
119.002
21
-56.4134
0
LINE
8
BLACK
6
CONTINUOUS
10
119.002
20
-56.4134
11
118.822
21
-56.5966
0
LINE
8
BLACK
6
CONTINUOUS
10
118.822
20
-56.5966
11
118.822
21
-56.5969
0
LINE
8
BLACK
6
CONTINUOUS
10
118.822
20
-56.5969
11
118.822
21
-56.5972
0
LINE
8
BLACK
6
CONTINUOUS
10
118.822
20
-56.5972
11
118.6
21
-56.754
0
LINE
8
BLACK
6
CONTINUOUS
10
118.6
20
-56.754
11
118.599
21
-56.7543
0
LINE
8
BLACK
6
CONTINUOUS
10
118.599
20
-56.7543
11
118.599
21
-56.7546
0
LINE
8
BLACK
6
CONTINUOUS
10
118.599
20
-56.7546
11
118.145
21
-56.9159
0
LINE
8
BLACK
6
CONTINUOUS
10
118.145
20
-56.9159
11
118.144
21
-56.916
0
LINE
8
BLACK
6
CONTINUOUS
10
118.144
20
-56.916
11
118.144
21
-56.9162
0
LINE
8
BLACK
6
CONTINUOUS
10
118.144
20
-56.9162
11
117.562
21
-56.9696
0
LINE
8
BLACK
6
CONTINUOUS
10
117.562
20
-56.9696
11
117.562
21
-56.9696
0
LINE
8
BLACK
6
CONTINUOUS
10
117.562
20
-56.9696
11
117.562
21
-56.9697
0
LINE
8
BLACK
6
CONTINUOUS
10
117.562
20
-56.9697
11
117.527
21
-56.9695
0
LINE
8
BLACK
6
CONTINUOUS
10
117.527
20
-56.9695
11
117.527
21
-56.9695
0
LINE
8
BLACK
6
CONTINUOUS
10
117.527
20
-56.9695
11
117.527
21
-56.9695
0
LINE
8
BLACK
6
CONTINUOUS
10
117.527
20
-56.9695
11
116.968
21
-56.9151
0
LINE
8
BLACK
6
CONTINUOUS
10
116.968
20
-56.9151
11
116.967
21
-56.9149
0
LINE
8
BLACK
6
CONTINUOUS
10
116.967
20
-56.9149
11
116.967
21
-56.9148
0
LINE
8
BLACK
6
CONTINUOUS
10
116.967
20
-56.9148
11
116.529
21
-56.7553
0
LINE
8
BLACK
6
CONTINUOUS
10
116.529
20
-56.7553
11
116.528
21
-56.7549
0
LINE
8
BLACK
6
CONTINUOUS
10
116.528
20
-56.7549
11
116.527
21
-56.7545
0
LINE
8
BLACK
6
CONTINUOUS
10
116.527
20
-56.7545
11
116.192
21
-56.4797
0
LINE
8
BLACK
6
CONTINUOUS
10
116.192
20
-56.4797
11
116.191
21
-56.4791
0
LINE
8
BLACK
6
CONTINUOUS
10
116.191
20
-56.4791
11
116.191
21
-56.4785
0
LINE
8
BLACK
6
CONTINUOUS
10
116.191
20
-56.4785
11
115.94
21
-56.0783
0
LINE
8
BLACK
6
CONTINUOUS
10
115.94
20
-56.0783
11
115.94
21
-56.078
0
LINE
8
BLACK
6
CONTINUOUS
10
115.94
20
-56.078
11
115.939
21
-56.0777
0
LINE
8
BLACK
6
CONTINUOUS
10
115.939
20
-56.0777
11
115.937
21
-56.0712
0
LINE
8
BLACK
6
CONTINUOUS
10
115.937
20
-56.0712
11
115.936
21
-56.0709
0
LINE
8
BLACK
6
CONTINUOUS
10
115.936
20
-56.0709
11
115.936
21
-56.0705
0
LINE
8
BLACK
6
CONTINUOUS
10
115.936
20
-56.0705
11
115.86
21
-55.8039
0
LINE
8
BLACK
6
CONTINUOUS
10
115.86
20
-55.8039
11
115.86
21
-55.8036
0
LINE
8
BLACK
6
CONTINUOUS
10
115.86
20
-55.8036
11
115.86
21
-55.8032
0
LINE
8
BLACK
6
CONTINUOUS
10
115.86
20
-55.8032
11
115.807
21
-55.4257
0
LINE
8
BLACK
6
CONTINUOUS
10
115.807
20
-55.4257
11
115.807
21
-55.4255
0
LINE
8
BLACK
6
CONTINUOUS
10
115.807
20
-55.4255
11
115.807
21
-55.4253
0
LINE
8
BLACK
6
CONTINUOUS
10
115.807
20
-55.4253
11
115.777
21
-54.9831
0
LINE
8
BLACK
6
CONTINUOUS
10
115.777
20
-54.9831
11
115.777
21
-54.983
0
LINE
8
BLACK
6
CONTINUOUS
10
115.777
20
-54.983
11
115.777
21
-54.9829
0
LINE
8
BLACK
6
CONTINUOUS
10
115.777
20
-54.9829
11
115.772
21
-54.5225
0
LINE
8
BLACK
6
CONTINUOUS
10
115.772
20
-54.5225
11
115.772
21
-54.5224
0
LINE
8
BLACK
6
CONTINUOUS
10
115.772
20
-54.5224
11
115.772
21
-54.5222
0
LINE
8
BLACK
6
CONTINUOUS
10
115.772
20
-54.5222
11
115.79
21
-54.09
0
LINE
8
BLACK
6
CONTINUOUS
10
115.79
20
-54.09
11
115.791
21
-54.0899
0
LINE
8
BLACK
6
CONTINUOUS
10
115.791
20
-54.0899
11
115.791
21
-54.0897
0
LINE
8
BLACK
6
CONTINUOUS
10
115.791
20
-54.0897
11
115.835
21
-53.732
0
LINE
8
BLACK
6
CONTINUOUS
10
115.835
20
-53.732
11
115.835
21
-53.7316
0
LINE
8
BLACK
6
CONTINUOUS
10
115.835
20
-53.7316
11
115.835
21
-53.7312
0
LINE
8
BLACK
6
CONTINUOUS
10
115.835
20
-53.7312
11
115.905
21
-53.4944
0
LINE
8
BLACK
6
CONTINUOUS
10
115.905
20
-53.4944
11
115.905
21
-53.4939
0
LINE
8
BLACK
6
CONTINUOUS
10
115.905
20
-53.4939
11
115.905
21
-53.4934
0
LINE
8
BLACK
6
CONTINUOUS
10
115.905
20
-53.4934
11
115.944
21
-53.4237
0
LINE
8
BLACK
6
CONTINUOUS
10
115.944
20
-53.4237
11
115.944
21
-53.4234
0
LINE
8
BLACK
6
CONTINUOUS
10
115.944
20
-53.4234
11
115.944
21
-53.4232
0
LINE
8
BLACK
6
CONTINUOUS
10
115.944
20
-53.4232
11
116.023
21
-53.3117
0
LINE
8
BLACK
6
CONTINUOUS
10
116.023
20
-53.3117
11
116.023
21
-53.3114
0
LINE
8
BLACK
6
CONTINUOUS
10
116.023
20
-53.3114
11
116.023
21
-53.311
0
LINE
8
BLACK
6
CONTINUOUS
10
116.023
20
-53.311
11
116.134
21
-53.1996
0
LINE
8
BLACK
6
CONTINUOUS
10
116.134
20
-53.1996
11
116.134
21
-53.1994
0
LINE
8
BLACK
6
CONTINUOUS
10
116.134
20
-53.1994
11
116.134
21
-53.1992
0
LINE
8
BLACK
6
CONTINUOUS
10
116.134
20
-53.1992
11
116.297
21
-53.0748
0
LINE
8
BLACK
6
CONTINUOUS
10
116.297
20
-53.0748
11
116.297
21
-53.0747
0
LINE
8
BLACK
6
CONTINUOUS
10
116.297
20
-53.0747
11
116.297
21
-53.0745
0
LINE
8
BLACK
6
CONTINUOUS
10
116.297
20
-53.0745
11
116.531
21
-52.9239
0
LINE
8
BLACK
6
CONTINUOUS
10
116.531
20
-52.9239
11
116.531
21
-52.9238
0
LINE
8
BLACK
6
CONTINUOUS
10
116.531
20
-52.9238
11
116.531
21
-52.9238
0
LINE
8
BLACK
6
CONTINUOUS
10
116.531
20
-52.9238
11
116.855
21
-52.7337
0
LINE
8
BLACK
6
CONTINUOUS
10
116.855
20
-52.7337
11
116.855
21
-52.7337
0
LINE
8
BLACK
6
CONTINUOUS
10
116.855
20
-52.7337
11
116.855
21
-52.7337
0
LINE
8
BLACK
6
CONTINUOUS
10
116.855
20
-52.7337
11
117.291
21
-52.491
0
LINE
8
BLACK
6
CONTINUOUS
10
117.291
20
-52.491
11
117.291
21
-52.491
0
LINE
8
BLACK
6
CONTINUOUS
10
117.291
20
-52.491
11
117.291
21
-52.491
0
LINE
8
BLACK
6
CONTINUOUS
10
117.291
20
-52.491
11
117.856
21
-52.1826
0
LINE
8
BLACK
6
CONTINUOUS
10
117.856
20
-52.1826
11
117.856
21
-52.1826
0
LINE
8
BLACK
6
CONTINUOUS
10
117.856
20
-52.1826
11
118.459
21
-51.8499
0
LINE
8
BLACK
6
CONTINUOUS
10
118.459
20
-51.8499
11
118.975
21
-51.544
0
LINE
8
BLACK
6
CONTINUOUS
10
118.975
20
-51.544
11
119.369
21
-51.2685
0
LINE
8
BLACK
6
CONTINUOUS
10
119.369
20
-51.2685
11
119.658
21
-51.0005
0
LINE
8
BLACK
6
CONTINUOUS
10
119.658
20
-51.0005
11
119.859
21
-50.7167
0
LINE
8
BLACK
6
CONTINUOUS
10
119.859
20
-50.7167
11
119.987
21
-50.3939
0
LINE
8
BLACK
6
CONTINUOUS
10
119.987
20
-50.3939
11
120.059
21
-50.0086
0
LINE
8
BLACK
6
CONTINUOUS
10
120.059
20
-50.0086
11
120.09
21
-49.5377
0
LINE
8
BLACK
6
CONTINUOUS
10
120.09
20
-49.5377
11
120.097
21
-48.958
0
LINE
8
BLACK
6
CONTINUOUS
10
120.097
20
-48.958
11
120.096
21
-48.788
0
LINE
8
BLACK
6
CONTINUOUS
10
120.096
20
-48.788
11
120.085
21
-48.3186
0
LINE
8
BLACK
6
CONTINUOUS
10
120.085
20
-48.3186
11
120.065
21
-47.8962
0
LINE
8
BLACK
6
CONTINUOUS
10
120.065
20
-47.8962
11
120.037
21
-47.5618
0
LINE
8
BLACK
6
CONTINUOUS
10
120.037
20
-47.5618
11
120.004
21
-47.3562
0
LINE
8
BLACK
6
CONTINUOUS
10
120.004
20
-47.3562
11
119.95
21
-47.1886
0
LINE
8
BLACK
6
CONTINUOUS
10
119.95
20
-47.1886
11
119.688
21
-46.7175
0
LINE
8
BLACK
6
CONTINUOUS
10
119.688
20
-46.7175
11
119.292
21
-46.3477
0
LINE
8
BLACK
6
CONTINUOUS
10
119.292
20
-46.3477
11
118.766
21
-46.083
0
LINE
8
BLACK
6
CONTINUOUS
10
118.766
20
-46.083
11
118.748
21
-46.0758
0
LINE
8
BLACK
6
CONTINUOUS
10
118.748
20
-46.0758
11
118.748
21
-46.0753
0
LINE
8
BLACK
6
CONTINUOUS
10
118.748
20
-46.0753
11
118.747
21
-46.0749
0
LINE
8
BLACK
6
CONTINUOUS
10
118.747
20
-46.0749
11
118.747
21
-46.0749
0
LINE
8
BLACK
6
CONTINUOUS
10
118.747
20
-46.0749
11
118.747
21
-46.0748
0
LINE
8
BLACK
6
CONTINUOUS
10
118.747
20
-46.0748
11
118.747
21
-46.0742
0
LINE
8
BLACK
6
CONTINUOUS
10
118.747
20
-46.0742
11
118.746
21
-46.0736
0
LINE
8
BLACK
6
CONTINUOUS
10
118.746
20
-46.0736
11
118.737
21
-46.0567
0
LINE
8
BLACK
6
CONTINUOUS
10
118.737
20
-46.0567
11
118.737
21
-46.0567
0
LINE
8
BLACK
6
CONTINUOUS
10
118.737
20
-46.0567
11
118.737
21
-46.0567
0
LINE
8
BLACK
6
CONTINUOUS
10
118.737
20
-46.0567
11
118.737
21
-46.0558
0
LINE
8
BLACK
6
CONTINUOUS
10
118.737
20
-46.0558
11
118.736
21
-46.0551
0
LINE
8
BLACK
6
CONTINUOUS
10
118.736
20
-46.0551
11
118.736
21
-46.0551
0
LINE
8
BLACK
6
CONTINUOUS
10
118.736
20
-46.0551
11
118.736
21
-46.055
0
LINE
8
BLACK
6
CONTINUOUS
10
118.736
20
-46.055
11
118.736
21
-46.0542
0
LINE
8
BLACK
6
CONTINUOUS
10
118.736
20
-46.0542
11
118.736
21
-46.0533
0
LINE
8
BLACK
6
CONTINUOUS
10
118.736
20
-46.0533
11
118.736
21
-46.0533
0
LINE
8
BLACK
6
CONTINUOUS
10
118.736
20
-46.0533
11
118.736
21
-46.0533
0
LINE
8
BLACK
6
CONTINUOUS
10
118.736
20
-46.0533
11
118.737
21
-46.0525
0
LINE
8
BLACK
6
CONTINUOUS
10
118.737
20
-46.0525
11
118.737
21
-46.0517
0
LINE
8
BLACK
6
CONTINUOUS
10
118.737
20
-46.0517
11
118.737
21
-46.0517
0
LINE
8
BLACK
6
CONTINUOUS
10
118.737
20
-46.0517
11
118.737
21
-46.0517
0
LINE
8
BLACK
6
CONTINUOUS
10
118.737
20
-46.0517
11
118.738
21
-46.0511
0
LINE
8
BLACK
6
CONTINUOUS
10
118.738
20
-46.0511
11
118.738
21
-46.0504
0
LINE
8
BLACK
6
CONTINUOUS
10
118.738
20
-46.0504
11
118.738
21
-46.0504
0
LINE
8
BLACK
6
CONTINUOUS
10
118.738
20
-46.0504
11
118.738
21
-46.0504
0
LINE
8
BLACK
6
CONTINUOUS
10
118.738
20
-46.0504
11
118.739
21
-46.05
0
LINE
8
BLACK
6
CONTINUOUS
10
118.739
20
-46.05
11
118.74
21
-46.0496
0
LINE
8
BLACK
6
CONTINUOUS
10
118.74
20
-46.0496
11
118.74
21
-46.0496
0
LINE
8
BLACK
6
CONTINUOUS
10
118.74
20
-46.0496
11
118.74
21
-46.0496
0
LINE
8
BLACK
6
CONTINUOUS
10
118.74
20
-46.0496
11
118.786
21
-46.0346
0
LINE
8
BLACK
6
CONTINUOUS
10
118.786
20
-46.0346
11
118.786
21
-46.0345
0
LINE
8
BLACK
6
CONTINUOUS
10
118.786
20
-46.0345
11
118.786
21
-46.0344
0
LINE
8
BLACK
6
CONTINUOUS
10
118.786
20
-46.0344
11
118.895
21
-46.0211
0
LINE
8
BLACK
6
CONTINUOUS
10
118.895
20
-46.0211
11
118.896
21
-46.0211
0
LINE
8
BLACK
6
CONTINUOUS
10
118.896
20
-46.0211
11
118.896
21
-46.0211
0
LINE
8
BLACK
6
CONTINUOUS
10
118.896
20
-46.0211
11
119.076
21
-46.0095
0
LINE
8
BLACK
6
CONTINUOUS
10
119.076
20
-46.0095
11
119.076
21
-46.0095
0
LINE
8
BLACK
6
CONTINUOUS
10
119.076
20
-46.0095
11
119.076
21
-46.0095
0
LINE
8
BLACK
6
CONTINUOUS
10
119.076
20
-46.0095
11
119.336
21
-45.9995
0
LINE
8
BLACK
6
CONTINUOUS
10
119.336
20
-45.9995
11
119.336
21
-45.9995
0
LINE
8
BLACK
6
CONTINUOUS
10
119.336
20
-45.9995
11
119.336
21
-45.9995
0
LINE
8
BLACK
6
CONTINUOUS
10
119.336
20
-45.9995
11
119.683
21
-45.9909
0
LINE
8
BLACK
6
CONTINUOUS
10
119.683
20
-45.9909
11
119.683
21
-45.9909
0
LINE
8
BLACK
6
CONTINUOUS
10
119.683
20
-45.9909
11
119.684
21
-45.9909
0
LINE
8
BLACK
6
CONTINUOUS
10
119.684
20
-45.9909
11
120.127
21
-45.9837
0
LINE
8
BLACK
6
CONTINUOUS
10
120.127
20
-45.9837
11
120.127
21
-45.9837
0
LINE
8
BLACK
6
CONTINUOUS
10
120.127
20
-45.9837
11
120.127
21
-45.9837
0
LINE
8
BLACK
6
CONTINUOUS
10
120.127
20
-45.9837
11
120.674
21
-45.9778
0
LINE
8
BLACK
6
CONTINUOUS
10
120.674
20
-45.9778
11
120.674
21
-45.9778
0
LINE
8
BLACK
6
CONTINUOUS
10
120.674
20
-45.9778
11
120.674
21
-45.9778
0
LINE
8
BLACK
6
CONTINUOUS
10
120.674
20
-45.9778
11
121.334
21
-45.9731
0
LINE
8
BLACK
6
CONTINUOUS
10
121.334
20
-45.9731
11
121.334
21
-45.9731
0
LINE
8
BLACK
6
CONTINUOUS
10
121.334
20
-45.9731
11
121.334
21
-45.9731
0
LINE
8
BLACK
6
CONTINUOUS
10
121.334
20
-45.9731
11
122.113
21
-45.9694
0
LINE
8
BLACK
6
CONTINUOUS
10
122.113
20
-45.9694
11
122.113
21
-45.9694
0
LINE
8
BLACK
6
CONTINUOUS
10
122.113
20
-45.9694
11
122.113
21
-45.9694
0
LINE
8
BLACK
6
CONTINUOUS
10
122.113
20
-45.9694
11
123.022
21
-45.9667
0
LINE
8
BLACK
6
CONTINUOUS
10
123.022
20
-45.9667
11
123.022
21
-45.9667
0
LINE
8
BLACK
6
CONTINUOUS
10
123.022
20
-45.9667
11
123.022
21
-45.9667
0
LINE
8
BLACK
6
CONTINUOUS
10
123.022
20
-45.9667
11
124.067
21
-45.965
0
LINE
8
BLACK
6
CONTINUOUS
10
124.067
20
-45.965
11
124.067
21
-45.965
0
LINE
8
BLACK
6
CONTINUOUS
10
124.067
20
-45.965
11
125.256
21
-45.964
0
LINE
8
BLACK
6
CONTINUOUS
10
125.256
20
-45.964
11
125.256
21
-45.964
0
LINE
8
BLACK
6
CONTINUOUS
10
125.256
20
-45.964
11
126.599
21
-45.9637
0
LINE
8
BLACK
6
CONTINUOUS
10
126.599
20
-45.9637
11
126.599
21
-45.9637
0
LINE
8
BLACK
6
CONTINUOUS
10
126.599
20
-45.9637
11
128.103
21
-45.964
0
LINE
8
BLACK
6
CONTINUOUS
10
128.103
20
-45.964
11
128.103
21
-45.964
0
LINE
8
BLACK
6
CONTINUOUS
10
128.103
20
-45.964
11
128.657
21
-45.9643
0
LINE
8
BLACK
6
CONTINUOUS
10
128.831
20
-46.0769
11
128.678
21
-46.1444
0
LINE
8
BLACK
6
CONTINUOUS
10
128.678
20
-46.1444
11
128.669
21
-46.1581
0
LINE
8
BLACK
6
CONTINUOUS
10
128.669
20
-46.1581
11
128.649
21
-46.2451
0
LINE
8
BLACK
6
CONTINUOUS
10
128.649
20
-46.2451
11
128.631
21
-46.4121
0
LINE
8
BLACK
6
CONTINUOUS
10
128.631
20
-46.4121
11
128.616
21
-46.6687
0
LINE
8
BLACK
6
CONTINUOUS
10
128.616
20
-46.6687
11
128.604
21
-47.0246
0
LINE
8
BLACK
6
CONTINUOUS
10
128.604
20
-47.0246
11
128.594
21
-47.4899
0
LINE
8
BLACK
6
CONTINUOUS
10
128.594
20
-47.4899
11
128.594
21
-47.4899
0
LINE
8
BLACK
6
CONTINUOUS
10
128.594
20
-47.4899
11
128.586
21
-48.0746
0
LINE
8
BLACK
6
CONTINUOUS
10
128.586
20
-48.0746
11
128.58
21
-48.7886
0
LINE
8
BLACK
6
CONTINUOUS
10
128.58
20
-48.7886
11
128.577
21
-49.6419
0
LINE
8
BLACK
6
CONTINUOUS
10
128.577
20
-49.6419
11
128.574
21
-50.6446
0
LINE
8
BLACK
6
CONTINUOUS
10
128.574
20
-50.6446
11
128.574
21
-51.8066
0
LINE
8
BLACK
6
CONTINUOUS
10
128.574
20
-51.8066
11
128.574
21
-51.8066
0
LINE
8
BLACK
6
CONTINUOUS
10
128.574
20
-51.8066
11
128.574
21
-52.7929
0
LINE
8
BLACK
6
CONTINUOUS
10
128.574
20
-52.7929
11
128.575
21
-53.7796
0
LINE
8
BLACK
6
CONTINUOUS
10
128.575
20
-53.7796
11
128.578
21
-54.6188
0
LINE
8
BLACK
6
CONTINUOUS
10
128.578
20
-54.6188
11
128.582
21
-55.3223
0
LINE
8
BLACK
6
CONTINUOUS
10
128.582
20
-55.3223
11
128.582
21
-55.3223
0
LINE
8
BLACK
6
CONTINUOUS
10
128.582
20
-55.3223
11
128.587
21
-55.9018
0
LINE
8
BLACK
6
CONTINUOUS
10
128.587
20
-55.9018
11
128.595
21
-56.3689
0
LINE
8
BLACK
6
CONTINUOUS
10
128.595
20
-56.3689
11
128.605
21
-56.7355
0
LINE
8
BLACK
6
CONTINUOUS
10
128.605
20
-56.7355
11
128.618
21
-57.0131
0
LINE
8
BLACK
6
CONTINUOUS
10
128.618
20
-57.0131
11
128.633
21
-57.2135
0
LINE
8
BLACK
6
CONTINUOUS
10
128.633
20
-57.2135
11
128.651
21
-57.3482
0
LINE
8
BLACK
6
CONTINUOUS
10
128.651
20
-57.3482
11
128.672
21
-57.4286
0
LINE
8
BLACK
6
CONTINUOUS
10
128.672
20
-57.4286
11
128.696
21
-57.4665
0
LINE
8
BLACK
6
CONTINUOUS
10
128.696
20
-57.4665
11
128.703
21
-57.4717
0
LINE
8
BLACK
6
CONTINUOUS
10
128.703
20
-57.4717
11
128.816
21
-57.5072
0
LINE
8
BLACK
6
CONTINUOUS
10
128.816
20
-57.5072
11
129.036
21
-57.5311
0
LINE
8
BLACK
6
CONTINUOUS
10
129.036
20
-57.5311
11
129.378
21
-57.5437
0
LINE
8
BLACK
6
CONTINUOUS
10
129.378
20
-57.5437
11
129.858
21
-57.5457
0
LINE
8
BLACK
6
CONTINUOUS
10
129.858
20
-57.5457
11
130.492
21
-57.5376
0
LINE
8
BLACK
6
CONTINUOUS
10
130.492
20
-57.5376
11
130.492
21
-57.5376
0
LINE
8
BLACK
6
CONTINUOUS
10
130.492
20
-57.5376
11
131.026
21
-57.5268
0
LINE
8
BLACK
6
CONTINUOUS
10
131.026
20
-57.5268
11
131.481
21
-57.5132
0
LINE
8
BLACK
6
CONTINUOUS
10
131.481
20
-57.5132
11
131.821
21
-57.4949
0
LINE
8
BLACK
6
CONTINUOUS
10
131.821
20
-57.4949
11
132.073
21
-57.4688
0
LINE
8
BLACK
6
CONTINUOUS
10
132.073
20
-57.4688
11
132.266
21
-57.4321
0
LINE
8
BLACK
6
CONTINUOUS
10
132.266
20
-57.4321
11
132.428
21
-57.3817
0
LINE
8
BLACK
6
CONTINUOUS
10
132.428
20
-57.3817
11
132.587
21
-57.3145
0
LINE
8
BLACK
6
CONTINUOUS
10
132.587
20
-57.3145
11
132.62
21
-57.2993
0
LINE
8
BLACK
6
CONTINUOUS
10
132.62
20
-57.2993
11
133.038
21
-57.063
0
LINE
8
BLACK
6
CONTINUOUS
10
133.038
20
-57.063
11
133.344
21
-56.7832
0
LINE
8
BLACK
6
CONTINUOUS
10
133.344
20
-56.7832
11
133.589
21
-56.4118
0
LINE
8
BLACK
6
CONTINUOUS
10
133.589
20
-56.4118
11
133.611
21
-56.3703
0
LINE
8
BLACK
6
CONTINUOUS
10
133.611
20
-56.3703
11
133.667
21
-56.2476
0
LINE
8
BLACK
6
CONTINUOUS
10
133.667
20
-56.2476
11
133.708
21
-56.1103
0
LINE
8
BLACK
6
CONTINUOUS
10
133.708
20
-56.1103
11
133.736
21
-55.9322
0
LINE
8
BLACK
6
CONTINUOUS
10
133.736
20
-55.9322
11
133.755
21
-55.6876
0
LINE
8
BLACK
6
CONTINUOUS
10
133.755
20
-55.6876
11
133.765
21
-55.3508
0
LINE
8
BLACK
6
CONTINUOUS
10
133.765
20
-55.3508
11
133.77
21
-54.896
0
LINE
8
BLACK
6
CONTINUOUS
10
133.77
20
-54.896
11
133.771
21
-54.2977
0
LINE
8
BLACK
6
CONTINUOUS
10
133.771
20
-54.2977
11
133.771
21
-54.042
0
LINE
8
BLACK
6
CONTINUOUS
10
133.771
20
-54.042
11
133.771
21
-54.042
0
LINE
8
BLACK
6
CONTINUOUS
10
133.771
20
-54.042
11
133.768
21
-53.5044
0
LINE
8
BLACK
6
CONTINUOUS
10
133.768
20
-53.5044
11
133.762
21
-53.1001
0
LINE
8
BLACK
6
CONTINUOUS
10
133.762
20
-53.1001
11
133.749
21
-52.8032
0
LINE
8
BLACK
6
CONTINUOUS
10
133.749
20
-52.8032
11
133.727
21
-52.588
0
LINE
8
BLACK
6
CONTINUOUS
10
133.727
20
-52.588
11
133.693
21
-52.4286
0
LINE
8
BLACK
6
CONTINUOUS
10
133.693
20
-52.4286
11
133.647
21
-52.2989
0
LINE
8
BLACK
6
CONTINUOUS
10
133.647
20
-52.2989
11
133.585
21
-52.1729
0
LINE
8
BLACK
6
CONTINUOUS
10
133.585
20
-52.1729
11
133.42
21
-51.9157
0
LINE
8
BLACK
6
CONTINUOUS
10
133.42
20
-51.9157
11
133.042
21
-51.5349
0
LINE
8
BLACK
6
CONTINUOUS
10
133.042
20
-51.5349
11
132.588
21
-51.285
0
LINE
8
BLACK
6
CONTINUOUS
10
132.588
20
-51.285
11
132.54
21
-51.2668
0
LINE
8
BLACK
6
CONTINUOUS
10
132.54
20
-51.2668
11
132.54
21
-51.2666
0
LINE
8
BLACK
6
CONTINUOUS
10
132.54
20
-51.2666
11
132.54
21
-51.2666
0
LINE
8
BLACK
6
CONTINUOUS
10
132.54
20
-51.2666
11
132.363
21
-51.1801
0
LINE
8
BLACK
6
CONTINUOUS
10
132.363
20
-51.1801
11
132.363
21
-51.1797
0
LINE
8
BLACK
6
CONTINUOUS
10
132.363
20
-51.1797
11
132.362
21
-51.1792
0
LINE
8
BLACK
6
CONTINUOUS
10
132.362
20
-51.1792
11
132.291
21
-51.1099
0
LINE
8
BLACK
6
CONTINUOUS
10
132.291
20
-51.1099
11
132.29
21
-51.1092
0
LINE
8
BLACK
6
CONTINUOUS
10
132.29
20
-51.1092
11
132.29
21
-51.1086
0
LINE
8
BLACK
6
CONTINUOUS
10
132.29
20
-51.1086
11
132.29
21
-51.1085
0
LINE
8
BLACK
6
CONTINUOUS
10
132.29
20
-51.1085
11
132.29
21
-51.1085
0
LINE
8
BLACK
6
CONTINUOUS
10
132.29
20
-51.1085
11
132.289
21
-51.1077
0
LINE
8
BLACK
6
CONTINUOUS
10
132.289
20
-51.1077
11
132.289
21
-51.1069
0
LINE
8
BLACK
6
CONTINUOUS
10
132.289
20
-51.1069
11
132.289
21
-51.1069
0
LINE
8
BLACK
6
CONTINUOUS
10
132.289
20
-51.1069
11
132.289
21
-51.1068
0
LINE
8
BLACK
6
CONTINUOUS
10
132.289
20
-51.1068
11
132.289
21
-51.106
0
LINE
8
BLACK
6
CONTINUOUS
10
132.289
20
-51.106
11
132.289
21
-51.1052
0
LINE
8
BLACK
6
CONTINUOUS
10
132.289
20
-51.1052
11
132.292
21
-51.0915
0
LINE
8
BLACK
6
CONTINUOUS
10
132.292
20
-51.0915
11
132.292
21
-51.0913
0
LINE
8
BLACK
6
CONTINUOUS
10
132.292
20
-51.0913
11
132.293
21
-51.091
0
LINE
8
BLACK
6
CONTINUOUS
10
132.293
20
-51.091
11
132.341
21
-50.9521
0
LINE
8
BLACK
6
CONTINUOUS
10
132.341
20
-50.9521
11
132.342
21
-50.952
0
LINE
8
BLACK
6
CONTINUOUS
10
132.342
20
-50.952
11
132.342
21
-50.952
0
LINE
8
BLACK
6
CONTINUOUS
10
132.342
20
-50.952
11
132.443
21
-50.6824
0
LINE
8
BLACK
6
CONTINUOUS
10
132.443
20
-50.6824
11
132.443
21
-50.6824
0
LINE
8
BLACK
6
CONTINUOUS
10
132.443
20
-50.6824
11
132.443
21
-50.6823
0
LINE
8
BLACK
6
CONTINUOUS
10
132.443
20
-50.6823
11
132.59
21
-50.3021
0
LINE
8
BLACK
6
CONTINUOUS
10
132.59
20
-50.3021
11
132.59
21
-50.3021
0
LINE
8
BLACK
6
CONTINUOUS
10
132.59
20
-50.3021
11
132.59
21
-50.3021
0
LINE
8
BLACK
6
CONTINUOUS
10
132.59
20
-50.3021
11
132.775
21
-49.8312
0
LINE
8
BLACK
6
CONTINUOUS
10
132.775
20
-49.8312
11
132.775
21
-49.8312
0
LINE
8
BLACK
6
CONTINUOUS
10
132.775
20
-49.8312
11
132.775
21
-49.8312
0
LINE
8
BLACK
6
CONTINUOUS
10
132.775
20
-49.8312
11
132.989
21
-49.2897
0
LINE
8
BLACK
6
CONTINUOUS
10
132.989
20
-49.2897
11
132.989
21
-49.2897
0
LINE
8
BLACK
6
CONTINUOUS
10
132.989
20
-49.2897
11
132.989
21
-49.2897
0
LINE
8
BLACK
6
CONTINUOUS
10
132.989
20
-49.2897
11
133.225
21
-48.6975
0
LINE
8
BLACK
6
CONTINUOUS
10
133.225
20
-48.6975
11
133.225
21
-48.6975
0
LINE
8
BLACK
6
CONTINUOUS
10
133.225
20
-48.6975
11
133.299
21
-48.5116
0
LINE
8
BLACK
6
CONTINUOUS
10
133.299
20
-48.5116
11
133.528
21
-47.9279
0
LINE
8
BLACK
6
CONTINUOUS
10
133.528
20
-47.9279
11
133.731
21
-47.3973
0
LINE
8
BLACK
6
CONTINUOUS
10
133.731
20
-47.3973
11
133.901
21
-46.9405
0
LINE
8
BLACK
6
CONTINUOUS
10
133.901
20
-46.9405
11
134.03
21
-46.5784
0
LINE
8
BLACK
6
CONTINUOUS
10
134.03
20
-46.5784
11
134.11
21
-46.3318
0
LINE
8
BLACK
6
CONTINUOUS
10
134.11
20
-46.3318
11
134.133
21
-46.2225
0
LINE
8
BLACK
6
CONTINUOUS
10
134.133
20
-46.2225
11
134.123
21
-46.1906
0
LINE
8
BLACK
6
CONTINUOUS
10
134.123
20
-46.1906
11
134.016
21
-46.1136
0
LINE
8
BLACK
6
CONTINUOUS
10
134.016
20
-46.1136
11
133.774
21
-46.09
0
LINE
8
BLACK
6
CONTINUOUS
10
133.774
20
-46.09
11
133.44
21
-46.09
0
LINE
8
BLACK
6
CONTINUOUS
10
133.44
20
-46.09
11
131.468
21
-50.9975
0
LINE
8
BLACK
6
CONTINUOUS
10
131.468
20
-50.9975
11
131.468
21
-50.9978
0
LINE
8
BLACK
6
CONTINUOUS
10
131.468
20
-50.9978
11
131.467
21
-50.9981
0
LINE
8
BLACK
6
CONTINUOUS
10
131.467
20
-50.9981
11
131.467
21
-50.9985
0
LINE
8
BLACK
6
CONTINUOUS
10
131.467
20
-50.9985
11
131.467
21
-50.999
0
LINE
8
BLACK
6
CONTINUOUS
10
131.467
20
-50.999
11
131.467
21
-50.9992
0
LINE
8
BLACK
6
CONTINUOUS
10
131.467
20
-50.9992
11
131.466
21
-50.9994
0
LINE
8
BLACK
6
CONTINUOUS
10
131.466
20
-50.9994
11
131.466
21
-50.9997
0
LINE
8
BLACK
6
CONTINUOUS
10
131.466
20
-50.9997
11
131.465
21
-51.0001
0
LINE
8
BLACK
6
CONTINUOUS
10
131.465
20
-51.0001
11
131.465
21
-51.0002
0
LINE
8
BLACK
6
CONTINUOUS
10
131.465
20
-51.0002
11
131.465
21
-51.0003
0
LINE
8
BLACK
6
CONTINUOUS
10
131.465
20
-51.0003
11
131.464
21
-51.0004
0
LINE
8
BLACK
6
CONTINUOUS
10
131.464
20
-51.0004
11
131.464
21
-51.0006
0
LINE
8
BLACK
6
CONTINUOUS
10
131.464
20
-51.0006
11
131.463
21
-51.0006
0
LINE
8
BLACK
6
CONTINUOUS
10
131.463
20
-51.0006
11
131.463
21
-51.0007
0
LINE
8
BLACK
6
CONTINUOUS
10
131.463
20
-51.0007
11
129.333
21
-51.048
0
LINE
8
BLACK
6
CONTINUOUS
10
129.333
20
-51.048
11
129.333
21
-51.048
0
LINE
8
BLACK
6
CONTINUOUS
10
129.333
20
-51.048
11
129.332
21
-51.048
0
LINE
8
BLACK
6
CONTINUOUS
10
129.332
20
-51.048
11
129.332
21
-51.0478
0
LINE
8
BLACK
6
CONTINUOUS
10
129.332
20
-51.0478
11
129.332
21
-51.0478
0
LINE
8
BLACK
6
CONTINUOUS
10
129.332
20
-51.0478
11
129.331
21
-51.0476
0
LINE
8
BLACK
6
CONTINUOUS
10
129.331
20
-51.0476
11
129.331
21
-51.0474
0
LINE
8
BLACK
6
CONTINUOUS
10
129.331
20
-51.0474
11
129.33
21
-51.0471
0
LINE
8
BLACK
6
CONTINUOUS
10
129.33
20
-51.0471
11
129.33
21
-51.0469
0
LINE
8
BLACK
6
CONTINUOUS
10
129.33
20
-51.0469
11
129.33
21
-51.0466
0
LINE
8
BLACK
6
CONTINUOUS
10
129.33
20
-51.0466
11
129.329
21
-51.0463
0
LINE
8
BLACK
6
CONTINUOUS
10
129.329
20
-51.0463
11
129.329
21
-51.0459
0
LINE
8
BLACK
6
CONTINUOUS
10
129.329
20
-51.0459
11
129.329
21
-51.0456
0
LINE
8
BLACK
6
CONTINUOUS
10
129.329
20
-51.0456
11
129.329
21
-51.0452
0
LINE
8
BLACK
6
CONTINUOUS
10
129.329
20
-51.0452
11
129.329
21
-51.0448
0
LINE
8
BLACK
6
CONTINUOUS
10
129.329
20
-51.0448
11
129.328
21
-51.0444
0
LINE
8
BLACK
6
CONTINUOUS
10
129.328
20
-51.0444
11
129.328
21
-51.044
0
LINE
8
BLACK
6
CONTINUOUS
10
129.328
20
-51.044
11
129.328
21
-51.0435
0
LINE
8
BLACK
6
CONTINUOUS
10
129.328
20
-51.0435
11
129.328
21
-51.0431
0
LINE
8
BLACK
6
CONTINUOUS
10
129.328
20
-51.0431
11
129.306
21
-48.5641
0
LINE
8
BLACK
6
CONTINUOUS
10
129.306
20
-48.5641
11
129.283
21
-46.0895
0
LINE
8
BLACK
6
CONTINUOUS
10
129.283
20
-46.0895
11
129.034
21
-46.065
0
LINE
8
BLACK
6
CONTINUOUS
10
129.034
20
-46.065
11
128.831
21
-46.0769
0
LINE
8
BLACK
6
CONTINUOUS
10
124.584
20
-50.6438
11
124.582
21
-49.6206
0
LINE
8
BLACK
6
CONTINUOUS
10
124.582
20
-49.6206
11
124.578
21
-48.7501
0
LINE
8
BLACK
6
CONTINUOUS
10
124.578
20
-48.7501
11
124.572
21
-48.0229
0
LINE
8
BLACK
6
CONTINUOUS
10
124.572
20
-48.0229
11
124.563
21
-47.4296
0
LINE
8
BLACK
6
CONTINUOUS
10
124.563
20
-47.4296
11
124.553
21
-46.9609
0
LINE
8
BLACK
6
CONTINUOUS
10
124.553
20
-46.9609
11
124.54
21
-46.6074
0
LINE
8
BLACK
6
CONTINUOUS
10
124.54
20
-46.6074
11
124.524
21
-46.3599
0
LINE
8
BLACK
6
CONTINUOUS
10
124.524
20
-46.3599
11
124.505
21
-46.2094
0
LINE
8
BLACK
6
CONTINUOUS
10
124.505
20
-46.2094
11
124.484
21
-46.1474
0
LINE
8
BLACK
6
CONTINUOUS
10
124.484
20
-46.1474
11
124.432
21
-46.1118
0
LINE
8
BLACK
6
CONTINUOUS
10
124.432
20
-46.1118
11
124.242
21
-46.0576
0
LINE
8
BLACK
6
CONTINUOUS
10
124.242
20
-46.0576
11
124.03
21
-46.0527
0
LINE
8
BLACK
6
CONTINUOUS
10
124.03
20
-46.0527
11
123.888
21
-46.103
0
LINE
8
BLACK
6
CONTINUOUS
10
123.888
20
-46.103
11
123.886
21
-46.1071
0
LINE
8
BLACK
6
CONTINUOUS
10
123.886
20
-46.1071
11
123.877
21
-46.2362
0
LINE
8
BLACK
6
CONTINUOUS
10
123.877
20
-46.2362
11
123.868
21
-46.5173
0
LINE
8
BLACK
6
CONTINUOUS
10
123.868
20
-46.5173
11
123.859
21
-46.9357
0
LINE
8
BLACK
6
CONTINUOUS
10
123.859
20
-46.9357
11
123.859
21
-46.9357
0
LINE
8
BLACK
6
CONTINUOUS
10
123.859
20
-46.9357
11
123.852
21
-47.4767
0
LINE
8
BLACK
6
CONTINUOUS
10
123.852
20
-47.4767
11
123.845
21
-48.1258
0
LINE
8
BLACK
6
CONTINUOUS
10
123.845
20
-48.1258
11
123.84
21
-48.8687
0
LINE
8
BLACK
6
CONTINUOUS
10
123.84
20
-48.8687
11
123.836
21
-49.6909
0
LINE
8
BLACK
6
CONTINUOUS
10
123.836
20
-49.6909
11
123.833
21
-50.5779
0
LINE
8
BLACK
6
CONTINUOUS
10
123.833
20
-50.5779
11
123.832
21
-51.5152
0
LINE
8
BLACK
6
CONTINUOUS
10
123.832
20
-51.5152
11
123.832
21
-56.8749
0
LINE
8
BLACK
6
CONTINUOUS
10
123.832
20
-56.8749
11
123.832
21
-56.8753
0
LINE
8
BLACK
6
CONTINUOUS
10
123.832
20
-56.8753
11
123.832
21
-56.8757
0
LINE
8
BLACK
6
CONTINUOUS
10
123.832
20
-56.8757
11
123.832
21
-56.8762
0
LINE
8
BLACK
6
CONTINUOUS
10
123.832
20
-56.8762
11
123.832
21
-56.8767
0
LINE
8
BLACK
6
CONTINUOUS
10
123.832
20
-56.8767
11
123.832
21
-56.877
0
LINE
8
BLACK
6
CONTINUOUS
10
123.832
20
-56.877
11
123.832
21
-56.8773
0
LINE
8
BLACK
6
CONTINUOUS
10
123.832
20
-56.8773
11
123.831
21
-56.8777
0
LINE
8
BLACK
6
CONTINUOUS
10
123.831
20
-56.8777
11
123.831
21
-56.8782
0
LINE
8
BLACK
6
CONTINUOUS
10
123.831
20
-56.8782
11
123.831
21
-56.8784
0
LINE
8
BLACK
6
CONTINUOUS
10
123.831
20
-56.8784
11
123.831
21
-56.8787
0
LINE
8
BLACK
6
CONTINUOUS
10
123.831
20
-56.8787
11
123.83
21
-56.879
0
LINE
8
BLACK
6
CONTINUOUS
10
123.83
20
-56.879
11
123.83
21
-56.8793
0
LINE
8
BLACK
6
CONTINUOUS
10
123.83
20
-56.8793
11
123.829
21
-56.8794
0
LINE
8
BLACK
6
CONTINUOUS
10
123.829
20
-56.8794
11
123.829
21
-56.8796
0
LINE
8
BLACK
6
CONTINUOUS
10
123.829
20
-56.8796
11
123.829
21
-56.8797
0
LINE
8
BLACK
6
CONTINUOUS
10
123.829
20
-56.8797
11
123.828
21
-56.8799
0
LINE
8
BLACK
6
CONTINUOUS
10
123.828
20
-56.8799
11
123.828
21
-56.8799
0
LINE
8
BLACK
6
CONTINUOUS
10
123.828
20
-56.8799
11
123.827
21
-56.8799
0
LINE
8
BLACK
6
CONTINUOUS
10
123.827
20
-56.8799
11
121.673
21
-56.9272
0
LINE
8
BLACK
6
CONTINUOUS
10
121.673
20
-56.9272
11
121.673
21
-57.51
0
LINE
8
BLACK
6
CONTINUOUS
10
121.673
20
-57.51
11
124.133
21
-57.5324
0
LINE
8
BLACK
6
CONTINUOUS
10
124.133
20
-57.5324
11
124.652
21
-57.5369
0
LINE
8
BLACK
6
CONTINUOUS
10
124.652
20
-57.5369
11
124.652
21
-57.5369
0
LINE
8
BLACK
6
CONTINUOUS
10
124.652
20
-57.5369
11
125.3
21
-57.54
0
LINE
8
BLACK
6
CONTINUOUS
10
125.3
20
-57.54
11
125.807
21
-57.5363
0
LINE
8
BLACK
6
CONTINUOUS
10
125.807
20
-57.5363
11
126.188
21
-57.5231
0
LINE
8
BLACK
6
CONTINUOUS
10
126.188
20
-57.5231
11
126.459
21
-57.4977
0
LINE
8
BLACK
6
CONTINUOUS
10
126.459
20
-57.4977
11
126.637
21
-57.4573
0
LINE
8
BLACK
6
CONTINUOUS
10
126.637
20
-57.4573
11
126.738
21
-57.3998
0
LINE
8
BLACK
6
CONTINUOUS
10
126.738
20
-57.3998
11
126.78
21
-57.323
0
LINE
8
BLACK
6
CONTINUOUS
10
126.78
20
-57.323
11
126.779
21
-57.2222
0
LINE
8
BLACK
6
CONTINUOUS
10
126.779
20
-57.2222
11
126.751
21
-57.0939
0
LINE
8
BLACK
6
CONTINUOUS
10
126.751
20
-57.0939
11
126.699
21
-56.885
0
LINE
8
BLACK
6
CONTINUOUS
10
126.699
20
-56.885
11
124.589
21
-56.885
0
LINE
8
BLACK
6
CONTINUOUS
10
124.589
20
-56.885
11
124.589
21
-56.8849
0
LINE
8
BLACK
6
CONTINUOUS
10
124.589
20
-56.8849
11
124.588
21
-56.8849
0
LINE
8
BLACK
6
CONTINUOUS
10
124.588
20
-56.8849
11
124.588
21
-56.8848
0
LINE
8
BLACK
6
CONTINUOUS
10
124.588
20
-56.8848
11
124.588
21
-56.8847
0
LINE
8
BLACK
6
CONTINUOUS
10
124.588
20
-56.8847
11
124.587
21
-56.8845
0
LINE
8
BLACK
6
CONTINUOUS
10
124.587
20
-56.8845
11
124.587
21
-56.8843
0
LINE
8
BLACK
6
CONTINUOUS
10
124.587
20
-56.8843
11
124.586
21
-56.884
0
LINE
8
BLACK
6
CONTINUOUS
10
124.586
20
-56.884
11
124.586
21
-56.8838
0
LINE
8
BLACK
6
CONTINUOUS
10
124.586
20
-56.8838
11
124.586
21
-56.8835
0
LINE
8
BLACK
6
CONTINUOUS
10
124.586
20
-56.8835
11
124.586
21
-56.8832
0
LINE
8
BLACK
6
CONTINUOUS
10
124.586
20
-56.8832
11
124.585
21
-56.8828
0
LINE
8
BLACK
6
CONTINUOUS
10
124.585
20
-56.8828
11
124.585
21
-56.8825
0
LINE
8
BLACK
6
CONTINUOUS
10
124.585
20
-56.8825
11
124.585
21
-56.8821
0
LINE
8
BLACK
6
CONTINUOUS
10
124.585
20
-56.8821
11
124.585
21
-56.8817
0
LINE
8
BLACK
6
CONTINUOUS
10
124.585
20
-56.8817
11
124.585
21
-56.8813
0
LINE
8
BLACK
6
CONTINUOUS
10
124.585
20
-56.8813
11
124.584
21
-56.8809
0
LINE
8
BLACK
6
CONTINUOUS
10
124.584
20
-56.8809
11
124.584
21
-56.8804
0
LINE
8
BLACK
6
CONTINUOUS
10
124.584
20
-56.8804
11
124.584
21
-56.88
0
LINE
8
BLACK
6
CONTINUOUS
10
124.584
20
-56.88
11
124.584
21
-51.5629
0
LINE
8
BLACK
6
CONTINUOUS
10
124.584
20
-51.5629
11
124.584
21
-50.6438
0
LINE
8
BLACK
6
CONTINUOUS
10
130.706
20
-51.795
11
130.706
21
-51.795
0
LINE
8
BLACK
6
CONTINUOUS
10
130.706
20
-51.795
11
130.706
21
-51.795
0
LINE
8
BLACK
6
CONTINUOUS
10
130.706
20
-51.795
11
131.192
21
-51.7976
0
LINE
8
BLACK
6
CONTINUOUS
10
131.192
20
-51.7976
11
131.192
21
-51.7976
0
LINE
8
BLACK
6
CONTINUOUS
10
131.192
20
-51.7976
11
131.192
21
-51.7976
0
LINE
8
BLACK
6
CONTINUOUS
10
131.192
20
-51.7976
11
131.545
21
-51.807
0
LINE
8
BLACK
6
CONTINUOUS
10
131.545
20
-51.807
11
131.545
21
-51.807
0
LINE
8
BLACK
6
CONTINUOUS
10
131.545
20
-51.807
11
131.545
21
-51.807
0
LINE
8
BLACK
6
CONTINUOUS
10
131.545
20
-51.807
11
131.8
21
-51.8272
0
LINE
8
BLACK
6
CONTINUOUS
10
131.8
20
-51.8272
11
131.8
21
-51.8273
0
LINE
8
BLACK
6
CONTINUOUS
10
131.8
20
-51.8273
11
131.8
21
-51.8273
0
LINE
8
BLACK
6
CONTINUOUS
10
131.8
20
-51.8273
11
131.989
21
-51.8621
0
LINE
8
BLACK
6
CONTINUOUS
10
131.989
20
-51.8621
11
131.989
21
-51.8622
0
LINE
8
BLACK
6
CONTINUOUS
10
131.989
20
-51.8622
11
131.99
21
-51.8623
0
LINE
8
BLACK
6
CONTINUOUS
10
131.99
20
-51.8623
11
132.145
21
-51.9157
0
LINE
8
BLACK
6
CONTINUOUS
10
132.145
20
-51.9157
11
132.146
21
-51.9158
0
LINE
8
BLACK
6
CONTINUOUS
10
132.146
20
-51.9158
11
132.146
21
-51.9159
0
LINE
8
BLACK
6
CONTINUOUS
10
132.146
20
-51.9159
11
132.302
21
-51.9917
0
LINE
8
BLACK
6
CONTINUOUS
10
132.302
20
-51.9917
11
132.302
21
-51.9918
0
LINE
8
BLACK
6
CONTINUOUS
10
132.302
20
-51.9918
11
132.302
21
-51.9919
0
LINE
8
BLACK
6
CONTINUOUS
10
132.302
20
-51.9919
11
132.381
21
-52.0358
0
LINE
8
BLACK
6
CONTINUOUS
10
132.381
20
-52.0358
11
132.381
21
-52.0361
0
LINE
8
BLACK
6
CONTINUOUS
10
132.381
20
-52.0361
11
132.381
21
-52.0363
0
LINE
8
BLACK
6
CONTINUOUS
10
132.381
20
-52.0363
11
132.666
21
-52.2679
0
LINE
8
BLACK
6
CONTINUOUS
10
132.666
20
-52.2679
11
132.666
21
-52.2684
0
LINE
8
BLACK
6
CONTINUOUS
10
132.666
20
-52.2684
11
132.667
21
-52.269
0
LINE
8
BLACK
6
CONTINUOUS
10
132.667
20
-52.269
11
132.889
21
-52.605
0
LINE
8
BLACK
6
CONTINUOUS
10
132.889
20
-52.605
11
132.889
21
-52.6053
0
LINE
8
BLACK
6
CONTINUOUS
10
132.889
20
-52.6053
11
132.889
21
-52.6055
0
LINE
8
BLACK
6
CONTINUOUS
10
132.889
20
-52.6055
11
132.91
21
-52.6467
0
LINE
8
BLACK
6
CONTINUOUS
10
132.91
20
-52.6467
11
132.91
21
-52.6468
0
LINE
8
BLACK
6
CONTINUOUS
10
132.91
20
-52.6468
11
132.91
21
-52.6469
0
LINE
8
BLACK
6
CONTINUOUS
10
132.91
20
-52.6469
11
132.987
21
-52.8131
0
LINE
8
BLACK
6
CONTINUOUS
10
132.987
20
-52.8131
11
132.987
21
-52.8134
0
LINE
8
BLACK
6
CONTINUOUS
10
132.987
20
-52.8134
11
132.987
21
-52.8136
0
LINE
8
BLACK
6
CONTINUOUS
10
132.987
20
-52.8136
11
133.041
21
-52.9775
0
LINE
8
BLACK
6
CONTINUOUS
10
133.041
20
-52.9775
11
133.041
21
-52.9779
0
LINE
8
BLACK
6
CONTINUOUS
10
133.041
20
-52.9779
11
133.041
21
-52.9782
0
LINE
8
BLACK
6
CONTINUOUS
10
133.041
20
-52.9782
11
133.075
21
-53.174
0
LINE
8
BLACK
6
CONTINUOUS
10
133.075
20
-53.174
11
133.075
21
-53.1743
0
LINE
8
BLACK
6
CONTINUOUS
10
133.075
20
-53.1743
11
133.075
21
-53.1745
0
LINE
8
BLACK
6
CONTINUOUS
10
133.075
20
-53.1745
11
133.093
21
-53.4367
0
LINE
8
BLACK
6
CONTINUOUS
10
133.093
20
-53.4367
11
133.093
21
-53.4368
0
LINE
8
BLACK
6
CONTINUOUS
10
133.093
20
-53.4368
11
133.093
21
-53.4369
0
LINE
8
BLACK
6
CONTINUOUS
10
133.093
20
-53.4369
11
133.102
21
-53.7998
0
LINE
8
BLACK
6
CONTINUOUS
10
133.102
20
-53.7998
11
133.102
21
-53.7998
0
LINE
8
BLACK
6
CONTINUOUS
10
133.102
20
-53.7998
11
133.102
21
-53.7999
0
LINE
8
BLACK
6
CONTINUOUS
10
133.102
20
-53.7999
11
133.103
21
-54.2976
0
LINE
8
BLACK
6
CONTINUOUS
10
133.103
20
-54.2976
11
133.103
21
-54.2977
0
LINE
8
BLACK
6
CONTINUOUS
10
133.103
20
-54.2977
11
133.103
21
-54.2977
0
LINE
8
BLACK
6
CONTINUOUS
10
133.103
20
-54.2977
11
133.103
21
-54.4151
0
LINE
8
BLACK
6
CONTINUOUS
10
133.103
20
-54.4151
11
133.103
21
-54.4151
0
LINE
8
BLACK
6
CONTINUOUS
10
133.103
20
-54.4151
11
133.103
21
-54.4151
0
LINE
8
BLACK
6
CONTINUOUS
10
133.103
20
-54.4151
11
133.101
21
-54.8821
0
LINE
8
BLACK
6
CONTINUOUS
10
133.101
20
-54.8821
11
133.101
21
-54.8822
0
LINE
8
BLACK
6
CONTINUOUS
10
133.101
20
-54.8822
11
133.101
21
-54.8823
0
LINE
8
BLACK
6
CONTINUOUS
10
133.101
20
-54.8823
11
133.09
21
-55.2217
0
LINE
8
BLACK
6
CONTINUOUS
10
133.09
20
-55.2217
11
133.09
21
-55.2219
0
LINE
8
BLACK
6
CONTINUOUS
10
133.09
20
-55.2219
11
133.09
21
-55.222
0
LINE
8
BLACK
6
CONTINUOUS
10
133.09
20
-55.222
11
133.069
21
-55.4684
0
LINE
8
BLACK
6
CONTINUOUS
10
133.069
20
-55.4684
11
133.069
21
-55.4686
0
LINE
8
BLACK
6
CONTINUOUS
10
133.069
20
-55.4686
11
133.069
21
-55.4689
0
LINE
8
BLACK
6
CONTINUOUS
10
133.069
20
-55.4689
11
133.031
21
-55.6566
0
LINE
8
BLACK
6
CONTINUOUS
10
133.031
20
-55.6566
11
133.031
21
-55.657
0
LINE
8
BLACK
6
CONTINUOUS
10
133.031
20
-55.657
11
133.031
21
-55.6573
0
LINE
8
BLACK
6
CONTINUOUS
10
133.031
20
-55.6573
11
132.972
21
-55.821
0
LINE
8
BLACK
6
CONTINUOUS
10
132.972
20
-55.821
11
132.972
21
-55.8212
0
LINE
8
BLACK
6
CONTINUOUS
10
132.972
20
-55.8212
11
132.972
21
-55.8214
0
LINE
8
BLACK
6
CONTINUOUS
10
132.972
20
-55.8214
11
132.889
21
-55.9954
0
LINE
8
BLACK
6
CONTINUOUS
10
132.889
20
-55.9954
11
132.889
21
-55.9956
0
LINE
8
BLACK
6
CONTINUOUS
10
132.889
20
-55.9956
11
132.889
21
-55.9958
0
LINE
8
BLACK
6
CONTINUOUS
10
132.889
20
-55.9958
11
132.76
21
-56.2196
0
LINE
8
BLACK
6
CONTINUOUS
10
132.76
20
-56.2196
11
132.76
21
-56.22
0
LINE
8
BLACK
6
CONTINUOUS
10
132.76
20
-56.22
11
132.76
21
-56.2205
0
LINE
8
BLACK
6
CONTINUOUS
10
132.76
20
-56.2205
11
132.555
21
-56.4449
0
LINE
8
BLACK
6
CONTINUOUS
10
132.555
20
-56.4449
11
132.554
21
-56.4454
0
LINE
8
BLACK
6
CONTINUOUS
10
132.554
20
-56.4454
11
132.553
21
-56.4458
0
LINE
8
BLACK
6
CONTINUOUS
10
132.553
20
-56.4458
11
132.257
21
-56.6263
0
LINE
8
BLACK
6
CONTINUOUS
10
132.257
20
-56.6263
11
132.256
21
-56.6264
0
LINE
8
BLACK
6
CONTINUOUS
10
132.256
20
-56.6264
11
132.256
21
-56.6266
0
LINE
8
BLACK
6
CONTINUOUS
10
132.256
20
-56.6266
11
132.114
21
-56.6929
0
LINE
8
BLACK
6
CONTINUOUS
10
132.114
20
-56.6929
11
132.114
21
-56.693
0
LINE
8
BLACK
6
CONTINUOUS
10
132.114
20
-56.693
11
132.114
21
-56.6931
0
LINE
8
BLACK
6
CONTINUOUS
10
132.114
20
-56.6931
11
131.934
21
-56.7573
0
LINE
8
BLACK
6
CONTINUOUS
10
131.934
20
-56.7573
11
131.934
21
-56.7574
0
LINE
8
BLACK
6
CONTINUOUS
10
131.934
20
-56.7574
11
131.934
21
-56.7575
0
LINE
8
BLACK
6
CONTINUOUS
10
131.934
20
-56.7575
11
131.726
21
-56.8022
0
LINE
8
BLACK
6
CONTINUOUS
10
131.726
20
-56.8022
11
131.726
21
-56.8022
0
LINE
8
BLACK
6
CONTINUOUS
10
131.726
20
-56.8022
11
131.726
21
-56.8023
0
LINE
8
BLACK
6
CONTINUOUS
10
131.726
20
-56.8023
11
131.456
21
-56.8325
0
LINE
8
BLACK
6
CONTINUOUS
10
131.456
20
-56.8325
11
131.456
21
-56.8325
0
LINE
8
BLACK
6
CONTINUOUS
10
131.456
20
-56.8325
11
131.455
21
-56.8325
0
LINE
8
BLACK
6
CONTINUOUS
10
131.455
20
-56.8325
11
131.087
21
-56.8535
0
LINE
8
BLACK
6
CONTINUOUS
10
131.087
20
-56.8535
11
131.087
21
-56.8535
0
LINE
8
BLACK
6
CONTINUOUS
10
131.087
20
-56.8535
11
131.086
21
-56.8535
0
LINE
8
BLACK
6
CONTINUOUS
10
131.086
20
-56.8535
11
130.584
21
-56.8704
0
LINE
8
BLACK
6
CONTINUOUS
10
130.584
20
-56.8704
11
130.584
21
-56.8704
0
LINE
8
BLACK
6
CONTINUOUS
10
130.584
20
-56.8704
11
130.584
21
-56.8704
0
LINE
8
BLACK
6
CONTINUOUS
10
130.584
20
-56.8704
11
129.331
21
-56.906
0
LINE
8
BLACK
6
CONTINUOUS
10
129.331
20
-56.906
11
129.33
21
-56.9059
0
LINE
8
BLACK
6
CONTINUOUS
10
129.33
20
-56.9059
11
129.33
21
-56.9059
0
LINE
8
BLACK
6
CONTINUOUS
10
129.33
20
-56.9059
11
129.329
21
-56.9058
0
LINE
8
BLACK
6
CONTINUOUS
10
129.329
20
-56.9058
11
129.329
21
-56.9057
0
LINE
8
BLACK
6
CONTINUOUS
10
129.329
20
-56.9057
11
129.329
21
-56.9055
0
LINE
8
BLACK
6
CONTINUOUS
10
129.329
20
-56.9055
11
129.328
21
-56.9053
0
LINE
8
BLACK
6
CONTINUOUS
10
129.328
20
-56.9053
11
129.328
21
-56.905
0
LINE
8
BLACK
6
CONTINUOUS
10
129.328
20
-56.905
11
129.328
21
-56.9049
0
LINE
8
BLACK
6
CONTINUOUS
10
129.328
20
-56.9049
11
129.327
21
-56.9045
0
LINE
8
BLACK
6
CONTINUOUS
10
129.327
20
-56.9045
11
129.327
21
-56.9042
0
LINE
8
BLACK
6
CONTINUOUS
10
129.327
20
-56.9042
11
129.327
21
-56.9039
0
LINE
8
BLACK
6
CONTINUOUS
10
129.327
20
-56.9039
11
129.326
21
-56.9036
0
LINE
8
BLACK
6
CONTINUOUS
10
129.326
20
-56.9036
11
129.326
21
-56.9031
0
LINE
8
BLACK
6
CONTINUOUS
10
129.326
20
-56.9031
11
129.326
21
-56.9027
0
LINE
8
BLACK
6
CONTINUOUS
10
129.326
20
-56.9027
11
129.326
21
-56.9023
0
LINE
8
BLACK
6
CONTINUOUS
10
129.326
20
-56.9023
11
129.326
21
-56.902
0
LINE
8
BLACK
6
CONTINUOUS
10
129.326
20
-56.902
11
129.326
21
-56.9015
0
LINE
8
BLACK
6
CONTINUOUS
10
129.326
20
-56.9015
11
129.326
21
-56.901
0
LINE
8
BLACK
6
CONTINUOUS
10
129.326
20
-56.901
11
129.326
21
-51.8
0
LINE
8
BLACK
6
CONTINUOUS
10
129.326
20
-51.8
11
129.326
21
-51.7996
0
LINE
8
BLACK
6
CONTINUOUS
10
129.326
20
-51.7996
11
129.326
21
-51.7991
0
LINE
8
BLACK
6
CONTINUOUS
10
129.326
20
-51.7991
11
129.326
21
-51.7987
0
LINE
8
BLACK
6
CONTINUOUS
10
129.326
20
-51.7987
11
129.326
21
-51.7983
0
LINE
8
BLACK
6
CONTINUOUS
10
129.326
20
-51.7983
11
129.326
21
-51.7979
0
LINE
8
BLACK
6
CONTINUOUS
10
129.326
20
-51.7979
11
129.326
21
-51.7975
0
LINE
8
BLACK
6
CONTINUOUS
10
129.326
20
-51.7975
11
129.327
21
-51.7972
0
LINE
8
BLACK
6
CONTINUOUS
10
129.327
20
-51.7972
11
129.327
21
-51.7968
0
LINE
8
BLACK
6
CONTINUOUS
10
129.327
20
-51.7968
11
129.327
21
-51.7965
0
LINE
8
BLACK
6
CONTINUOUS
10
129.327
20
-51.7965
11
129.327
21
-51.7962
0
LINE
8
BLACK
6
CONTINUOUS
10
129.327
20
-51.7962
11
129.328
21
-51.796
0
LINE
8
BLACK
6
CONTINUOUS
10
129.328
20
-51.796
11
129.328
21
-51.7957
0
LINE
8
BLACK
6
CONTINUOUS
10
129.328
20
-51.7957
11
129.329
21
-51.7955
0
LINE
8
BLACK
6
CONTINUOUS
10
129.329
20
-51.7955
11
129.329
21
-51.7953
0
LINE
8
BLACK
6
CONTINUOUS
10
129.329
20
-51.7953
11
129.329
21
-51.7952
0
LINE
8
BLACK
6
CONTINUOUS
10
129.329
20
-51.7952
11
129.33
21
-51.7951
0
LINE
8
BLACK
6
CONTINUOUS
10
129.33
20
-51.7951
11
129.33
21
-51.7951
0
LINE
8
BLACK
6
CONTINUOUS
10
129.33
20
-51.7951
11
129.331
21
-51.795
0
LINE
8
BLACK
6
CONTINUOUS
10
129.331
20
-51.795
11
130.63
21
-51.795
0
LINE
8
BLACK
6
CONTINUOUS
10
130.63
20
-51.795
11
130.706
21
-51.795
0
LINE
8
BLACK
6
CONTINUOUS
10
138.691
20
-46.6341
11
138.691
21
-46.6341
0
LINE
8
BLACK
6
CONTINUOUS
10
138.691
20
-46.6341
11
139.161
21
-46.6649
0
LINE
8
BLACK
6
CONTINUOUS
10
139.161
20
-46.6649
11
139.161
21
-46.665
0
LINE
8
BLACK
6
CONTINUOUS
10
139.161
20
-46.665
11
139.162
21
-46.6651
0
LINE
8
BLACK
6
CONTINUOUS
10
139.162
20
-46.6651
11
139.679
21
-46.8107
0
LINE
8
BLACK
6
CONTINUOUS
10
139.679
20
-46.8107
11
139.679
21
-46.811
0
LINE
8
BLACK
6
CONTINUOUS
10
139.679
20
-46.811
11
139.68
21
-46.8113
0
LINE
8
BLACK
6
CONTINUOUS
10
139.68
20
-46.8113
11
140.078
21
-47.0766
0
LINE
8
BLACK
6
CONTINUOUS
10
140.078
20
-47.0766
11
140.078
21
-47.0766
0
LINE
8
BLACK
6
CONTINUOUS
10
140.078
20
-47.0766
11
140.078
21
-47.0766
0
LINE
8
BLACK
6
CONTINUOUS
10
140.078
20
-47.0766
11
140.078
21
-47.0772
0
LINE
8
BLACK
6
CONTINUOUS
10
140.078
20
-47.0772
11
140.079
21
-47.0778
0
LINE
8
BLACK
6
CONTINUOUS
10
140.079
20
-47.0778
11
140.079
21
-47.0778
0
LINE
8
BLACK
6
CONTINUOUS
10
140.079
20
-47.0778
11
140.079
21
-47.0778
0
LINE
8
BLACK
6
CONTINUOUS
10
140.079
20
-47.0778
11
140.357
21
-47.4629
0
LINE
8
BLACK
6
CONTINUOUS
10
140.357
20
-47.4629
11
140.358
21
-47.4633
0
LINE
8
BLACK
6
CONTINUOUS
10
140.358
20
-47.4633
11
140.358
21
-47.4636
0
LINE
8
BLACK
6
CONTINUOUS
10
140.358
20
-47.4636
11
140.553
21
-47.8608
0
LINE
8
BLACK
6
CONTINUOUS
10
140.553
20
-47.8608
11
140.554
21
-47.8611
0
LINE
8
BLACK
6
CONTINUOUS
10
140.554
20
-47.8611
11
140.554
21
-47.8613
0
LINE
8
BLACK
6
CONTINUOUS
10
140.554
20
-47.8613
11
140.554
21
-47.8619
0
LINE
8
BLACK
6
CONTINUOUS
10
140.554
20
-47.8619
11
140.554
21
-47.8625
0
LINE
8
BLACK
6
CONTINUOUS
10
140.554
20
-47.8625
11
140.554
21
-47.8627
0
LINE
8
BLACK
6
CONTINUOUS
10
140.554
20
-47.8627
11
140.554
21
-47.863
0
LINE
8
BLACK
6
CONTINUOUS
10
140.554
20
-47.863
11
140.554
21
-55.737
0
LINE
8
BLACK
6
CONTINUOUS
10
140.554
20
-55.737
11
140.554
21
-55.7373
0
LINE
8
BLACK
6
CONTINUOUS
10
140.554
20
-55.7373
11
140.554
21
-55.7375
0
LINE
8
BLACK
6
CONTINUOUS
10
140.554
20
-55.7375
11
140.554
21
-55.7381
0
LINE
8
BLACK
6
CONTINUOUS
10
140.554
20
-55.7381
11
140.554
21
-55.7387
0
LINE
8
BLACK
6
CONTINUOUS
10
140.554
20
-55.7387
11
140.554
21
-55.7389
0
LINE
8
BLACK
6
CONTINUOUS
10
140.554
20
-55.7389
11
140.553
21
-55.7392
0
LINE
8
BLACK
6
CONTINUOUS
10
140.553
20
-55.7392
11
140.358
21
-56.1364
0
LINE
8
BLACK
6
CONTINUOUS
10
140.358
20
-56.1364
11
140.358
21
-56.1366
0
LINE
8
BLACK
6
CONTINUOUS
10
140.358
20
-56.1366
11
140.358
21
-56.1369
0
LINE
8
BLACK
6
CONTINUOUS
10
140.358
20
-56.1369
11
140.171
21
-56.4217
0
LINE
8
BLACK
6
CONTINUOUS
10
140.171
20
-56.4217
11
140.17
21
-56.4223
0
LINE
8
BLACK
6
CONTINUOUS
10
140.17
20
-56.4223
11
140.17
21
-56.4228
0
LINE
8
BLACK
6
CONTINUOUS
10
140.17
20
-56.4228
11
139.805
21
-56.7235
0
LINE
8
BLACK
6
CONTINUOUS
10
139.805
20
-56.7235
11
139.804
21
-56.7239
0
LINE
8
BLACK
6
CONTINUOUS
10
139.804
20
-56.7239
11
139.803
21
-56.7243
0
LINE
8
BLACK
6
CONTINUOUS
10
139.803
20
-56.7243
11
139.323
21
-56.9074
0
LINE
8
BLACK
6
CONTINUOUS
10
139.323
20
-56.9074
11
139.322
21
-56.9075
0
LINE
8
BLACK
6
CONTINUOUS
10
139.322
20
-56.9075
11
139.322
21
-56.9077
0
LINE
8
BLACK
6
CONTINUOUS
10
139.322
20
-56.9077
11
138.734
21
-56.9692
0
LINE
8
BLACK
6
CONTINUOUS
10
138.734
20
-56.9692
11
138.733
21
-56.9691
0
LINE
8
BLACK
6
CONTINUOUS
10
138.733
20
-56.9691
11
138.733
21
-56.9692
0
LINE
8
BLACK
6
CONTINUOUS
10
138.733
20
-56.9692
11
138.463
21
-56.96
0
LINE
8
BLACK
6
CONTINUOUS
10
138.463
20
-56.96
11
138.463
21
-56.96
0
LINE
8
BLACK
6
CONTINUOUS
10
138.463
20
-56.96
11
138.463
21
-56.96
0
LINE
8
BLACK
6
CONTINUOUS
10
138.463
20
-56.96
11
138.113
21
-56.9261
0
LINE
8
BLACK
6
CONTINUOUS
10
138.113
20
-56.9261
11
138.112
21
-56.926
0
LINE
8
BLACK
6
CONTINUOUS
10
138.112
20
-56.926
11
138.112
21
-56.926
0
LINE
8
BLACK
6
CONTINUOUS
10
138.112
20
-56.926
11
137.843
21
-56.8757
0
LINE
8
BLACK
6
CONTINUOUS
10
137.843
20
-56.8757
11
137.842
21
-56.8756
0
LINE
8
BLACK
6
CONTINUOUS
10
137.842
20
-56.8756
11
137.842
21
-56.8755
0
LINE
8
BLACK
6
CONTINUOUS
10
137.842
20
-56.8755
11
137.734
21
-56.8392
0
LINE
8
BLACK
6
CONTINUOUS
10
137.734
20
-56.8392
11
137.734
21
-56.839
0
LINE
8
BLACK
6
CONTINUOUS
10
137.734
20
-56.839
11
137.733
21
-56.8388
0
LINE
8
BLACK
6
CONTINUOUS
10
137.733
20
-56.8388
11
137.361
21
-56.616
0
LINE
8
BLACK
6
CONTINUOUS
10
137.361
20
-56.616
11
137.361
21
-56.6155
0
LINE
8
BLACK
6
CONTINUOUS
10
137.361
20
-56.6155
11
137.36
21
-56.6151
0
LINE
8
BLACK
6
CONTINUOUS
10
137.36
20
-56.6151
11
137.057
21
-56.2875
0
LINE
8
BLACK
6
CONTINUOUS
10
137.057
20
-56.2875
11
137.056
21
-56.2869
0
LINE
8
BLACK
6
CONTINUOUS
10
137.056
20
-56.2869
11
137.056
21
-56.2863
0
LINE
8
BLACK
6
CONTINUOUS
10
137.056
20
-56.2863
11
136.871
21
-55.9045
0
LINE
8
BLACK
6
CONTINUOUS
10
136.871
20
-55.9045
11
136.871
21
-55.9039
0
LINE
8
BLACK
6
CONTINUOUS
10
136.871
20
-55.9039
11
136.87
21
-55.9032
0
LINE
8
BLACK
6
CONTINUOUS
10
136.87
20
-55.9032
11
136.857
21
-55.8261
0
LINE
8
BLACK
6
CONTINUOUS
10
136.857
20
-55.8261
11
136.857
21
-55.8259
0
LINE
8
BLACK
6
CONTINUOUS
10
136.857
20
-55.8259
11
136.857
21
-55.8257
0
LINE
8
BLACK
6
CONTINUOUS
10
136.857
20
-55.8257
11
136.836
21
-55.5706
0
LINE
8
BLACK
6
CONTINUOUS
10
136.836
20
-55.5706
11
136.836
21
-55.5705
0
LINE
8
BLACK
6
CONTINUOUS
10
136.836
20
-55.5705
11
136.836
21
-55.5704
0
LINE
8
BLACK
6
CONTINUOUS
10
136.836
20
-55.5704
11
136.818
21
-55.1802
0
LINE
8
BLACK
6
CONTINUOUS
10
136.818
20
-55.1802
11
136.818
21
-55.1802
0
LINE
8
BLACK
6
CONTINUOUS
10
136.818
20
-55.1802
11
136.818
21
-55.1801
0
LINE
8
BLACK
6
CONTINUOUS
10
136.818
20
-55.1801
11
136.803
21
-54.6766
0
LINE
8
BLACK
6
CONTINUOUS
10
136.803
20
-54.6766
11
136.803
21
-54.6766
0
LINE
8
BLACK
6
CONTINUOUS
10
136.803
20
-54.6766
11
136.803
21
-54.6766
0
LINE
8
BLACK
6
CONTINUOUS
10
136.803
20
-54.6766
11
136.792
21
-54.0816
0
LINE
8
BLACK
6
CONTINUOUS
10
136.792
20
-54.0816
11
136.792
21
-54.0815
0
LINE
8
BLACK
6
CONTINUOUS
10
136.792
20
-54.0815
11
136.792
21
-54.0815
0
LINE
8
BLACK
6
CONTINUOUS
10
136.792
20
-54.0815
11
136.783
21
-53.4167
0
LINE
8
BLACK
6
CONTINUOUS
10
136.783
20
-53.4167
11
136.783
21
-53.4166
0
LINE
8
BLACK
6
CONTINUOUS
10
136.783
20
-53.4166
11
136.783
21
-53.4166
0
LINE
8
BLACK
6
CONTINUOUS
10
136.783
20
-53.4166
11
136.778
21
-52.7037
0
LINE
8
BLACK
6
CONTINUOUS
10
136.778
20
-52.7037
11
136.778
21
-52.7037
0
LINE
8
BLACK
6
CONTINUOUS
10
136.778
20
-52.7037
11
136.778
21
-52.7037
0
LINE
8
BLACK
6
CONTINUOUS
10
136.778
20
-52.7037
11
136.775
21
-51.9644
0
LINE
8
BLACK
6
CONTINUOUS
10
136.775
20
-51.9644
11
136.775
21
-51.9644
0
LINE
8
BLACK
6
CONTINUOUS
10
136.775
20
-51.9644
11
136.775
21
-51.9644
0
LINE
8
BLACK
6
CONTINUOUS
10
136.775
20
-51.9644
11
136.776
21
-51.2205
0
LINE
8
BLACK
6
CONTINUOUS
10
136.776
20
-51.2205
11
136.776
21
-51.2205
0
LINE
8
BLACK
6
CONTINUOUS
10
136.776
20
-51.2205
11
136.776
21
-51.2205
0
LINE
8
BLACK
6
CONTINUOUS
10
136.776
20
-51.2205
11
136.779
21
-50.4937
0
LINE
8
BLACK
6
CONTINUOUS
10
136.779
20
-50.4937
11
136.779
21
-50.4937
0
LINE
8
BLACK
6
CONTINUOUS
10
136.779
20
-50.4937
11
136.779
21
-50.4937
0
LINE
8
BLACK
6
CONTINUOUS
10
136.779
20
-50.4937
11
136.786
21
-49.8058
0
LINE
8
BLACK
6
CONTINUOUS
10
136.786
20
-49.8058
11
136.786
21
-49.8058
0
LINE
8
BLACK
6
CONTINUOUS
10
136.786
20
-49.8058
11
136.786
21
-49.8057
0
LINE
8
BLACK
6
CONTINUOUS
10
136.786
20
-49.8057
11
136.796
21
-49.1785
0
LINE
8
BLACK
6
CONTINUOUS
10
136.796
20
-49.1785
11
136.796
21
-49.1785
0
LINE
8
BLACK
6
CONTINUOUS
10
136.796
20
-49.1785
11
136.796
21
-49.1784
0
LINE
8
BLACK
6
CONTINUOUS
10
136.796
20
-49.1784
11
136.809
21
-48.6335
0
LINE
8
BLACK
6
CONTINUOUS
10
136.809
20
-48.6335
11
136.809
21
-48.6335
0
LINE
8
BLACK
6
CONTINUOUS
10
136.809
20
-48.6335
11
136.809
21
-48.6334
0
LINE
8
BLACK
6
CONTINUOUS
10
136.809
20
-48.6334
11
136.825
21
-48.1926
0
LINE
8
BLACK
6
CONTINUOUS
10
136.825
20
-48.1926
11
136.825
21
-48.1925
0
LINE
8
BLACK
6
CONTINUOUS
10
136.825
20
-48.1925
11
136.825
21
-48.1925
0
LINE
8
BLACK
6
CONTINUOUS
10
136.825
20
-48.1925
11
136.844
21
-47.8775
0
LINE
8
BLACK
6
CONTINUOUS
10
136.844
20
-47.8775
11
136.844
21
-47.8773
0
LINE
8
BLACK
6
CONTINUOUS
10
136.844
20
-47.8773
11
136.844
21
-47.8771
0
LINE
8
BLACK
6
CONTINUOUS
10
136.844
20
-47.8771
11
136.867
21
-47.7097
0
LINE
8
BLACK
6
CONTINUOUS
10
136.867
20
-47.7097
11
136.867
21
-47.7089
0
LINE
8
BLACK
6
CONTINUOUS
10
136.867
20
-47.7089
11
136.867
21
-47.7082
0
LINE
8
BLACK
6
CONTINUOUS
10
136.867
20
-47.7082
11
137.038
21
-47.3328
0
LINE
8
BLACK
6
CONTINUOUS
10
137.038
20
-47.3328
11
137.039
21
-47.3322
0
LINE
8
BLACK
6
CONTINUOUS
10
137.039
20
-47.3322
11
137.039
21
-47.3316
0
LINE
8
BLACK
6
CONTINUOUS
10
137.039
20
-47.3316
11
137.351
21
-46.9857
0
LINE
8
BLACK
6
CONTINUOUS
10
137.351
20
-46.9857
11
137.351
21
-46.9852
0
LINE
8
BLACK
6
CONTINUOUS
10
137.351
20
-46.9852
11
137.352
21
-46.9847
0
LINE
8
BLACK
6
CONTINUOUS
10
137.352
20
-46.9847
11
137.753
21
-46.7582
0
LINE
8
BLACK
6
CONTINUOUS
10
137.753
20
-46.7582
11
137.753
21
-46.7579
0
LINE
8
BLACK
6
CONTINUOUS
10
137.753
20
-46.7579
11
137.754
21
-46.7576
0
LINE
8
BLACK
6
CONTINUOUS
10
137.754
20
-46.7576
11
137.982
21
-46.7011
0
LINE
8
BLACK
6
CONTINUOUS
10
137.982
20
-46.7011
11
137.983
21
-46.7011
0
LINE
8
BLACK
6
CONTINUOUS
10
137.983
20
-46.7011
11
137.983
21
-46.701
0
LINE
8
BLACK
6
CONTINUOUS
10
137.983
20
-46.701
11
138.329
21
-46.6537
0
LINE
8
BLACK
6
CONTINUOUS
10
138.329
20
-46.6537
11
138.329
21
-46.6537
0
LINE
8
BLACK
6
CONTINUOUS
10
138.329
20
-46.6537
11
138.329
21
-46.6537
0
LINE
8
BLACK
6
CONTINUOUS
10
138.329
20
-46.6537
11
138.691
21
-46.6341
0
LINE
8
BLACK
6
CONTINUOUS
10
138.691
20
-46.6341
11
138.691
21
-46.6341
  0
ENDSEC
  0
EOF
