%TF.GenerationSoftware,KiCad,Pcbnew,7.0.7*%
%TF.CreationDate,2023-12-22T14:50:21+01:00*%
%TF.ProjectId,Astroplant_AL,41737472-6f70-46c6-916e-745f414c2e6b,rev?*%
%TF.SameCoordinates,Original*%
%TF.FileFunction,Soldermask,Top*%
%TF.FilePolarity,Negative*%
%FSLAX46Y46*%
G04 Gerber Fmt 4.6, Leading zero omitted, Abs format (unit mm)*
G04 Created by KiCad (PCBNEW 7.0.7) date 2023-12-22 14:50:21*
%MOMM*%
%LPD*%
G01*
G04 APERTURE LIST*
G04 Aperture macros list*
%AMRoundRect*
0 Rectangle with rounded corners*
0 $1 Rounding radius*
0 $2 $3 $4 $5 $6 $7 $8 $9 X,Y pos of 4 corners*
0 Add a 4 corners polygon primitive as box body*
4,1,4,$2,$3,$4,$5,$6,$7,$8,$9,$2,$3,0*
0 Add four circle primitives for the rounded corners*
1,1,$1+$1,$2,$3*
1,1,$1+$1,$4,$5*
1,1,$1+$1,$6,$7*
1,1,$1+$1,$8,$9*
0 Add four rect primitives between the rounded corners*
20,1,$1+$1,$2,$3,$4,$5,0*
20,1,$1+$1,$4,$5,$6,$7,0*
20,1,$1+$1,$6,$7,$8,$9,0*
20,1,$1+$1,$8,$9,$2,$3,0*%
G04 Aperture macros list end*
%ADD10RoundRect,0.225000X0.250000X-0.225000X0.250000X0.225000X-0.250000X0.225000X-0.250000X-0.225000X0*%
%ADD11RoundRect,0.200000X0.200000X0.275000X-0.200000X0.275000X-0.200000X-0.275000X0.200000X-0.275000X0*%
%ADD12RoundRect,0.200000X-0.275000X0.200000X-0.275000X-0.200000X0.275000X-0.200000X0.275000X0.200000X0*%
%ADD13R,0.350000X0.650000*%
%ADD14RoundRect,0.225000X-0.250000X0.225000X-0.250000X-0.225000X0.250000X-0.225000X0.250000X0.225000X0*%
%ADD15RoundRect,0.200000X0.275000X-0.200000X0.275000X0.200000X-0.275000X0.200000X-0.275000X-0.200000X0*%
%ADD16R,0.750000X0.850000*%
%ADD17RoundRect,0.200000X-0.200000X-0.275000X0.200000X-0.275000X0.200000X0.275000X-0.200000X0.275000X0*%
%ADD18R,0.600000X0.620000*%
%ADD19C,2.000000*%
%ADD20R,1.950000X1.700000*%
%ADD21O,1.950000X1.700000*%
%ADD22R,1.700000X2.000000*%
%ADD23O,1.700000X2.000000*%
%ADD24R,0.620000X0.600000*%
%ADD25RoundRect,0.250000X1.825000X0.700000X-1.825000X0.700000X-1.825000X-0.700000X1.825000X-0.700000X0*%
%ADD26RoundRect,0.150000X0.587500X0.150000X-0.587500X0.150000X-0.587500X-0.150000X0.587500X-0.150000X0*%
%ADD27RoundRect,0.150000X-0.150000X0.587500X-0.150000X-0.587500X0.150000X-0.587500X0.150000X0.587500X0*%
%ADD28RoundRect,0.062500X-0.062500X0.400000X-0.062500X-0.400000X0.062500X-0.400000X0.062500X0.400000X0*%
%ADD29RoundRect,0.062500X-0.400000X0.062500X-0.400000X-0.062500X0.400000X-0.062500X0.400000X0.062500X0*%
%ADD30R,6.400000X6.400000*%
%ADD31R,1.650000X1.650000*%
%ADD32C,1.650000*%
%ADD33R,0.650000X0.350000*%
%ADD34RoundRect,0.150000X-0.150000X0.512500X-0.150000X-0.512500X0.150000X-0.512500X0.150000X0.512500X0*%
%ADD35R,1.050000X1.000000*%
%ADD36R,2.200000X1.050000*%
%ADD37R,3.800000X2.150000*%
%ADD38R,0.800000X0.400000*%
%ADD39R,1.750000X2.500000*%
%ADD40R,1.800000X1.800000*%
%ADD41C,1.800000*%
%ADD42R,0.420000X0.700000*%
%ADD43R,0.400000X1.350000*%
%ADD44C,1.450000*%
%ADD45C,2.425000*%
%ADD46R,1.800000X1.900000*%
%ADD47RoundRect,0.225000X-0.225000X-0.250000X0.225000X-0.250000X0.225000X0.250000X-0.225000X0.250000X0*%
%ADD48R,0.750000X0.940000*%
%ADD49RoundRect,0.250000X1.000000X0.650000X-1.000000X0.650000X-1.000000X-0.650000X1.000000X-0.650000X0*%
%ADD50R,0.300000X0.500000*%
%ADD51R,0.500000X0.800000*%
%ADD52R,0.940000X0.750000*%
%ADD53RoundRect,0.218750X0.218750X0.256250X-0.218750X0.256250X-0.218750X-0.256250X0.218750X-0.256250X0*%
%ADD54RoundRect,0.218750X-0.256250X0.218750X-0.256250X-0.218750X0.256250X-0.218750X0.256250X0.218750X0*%
%ADD55R,1.700000X1.700000*%
%ADD56O,1.700000X1.700000*%
G04 APERTURE END LIST*
D10*
%TO.C,C12*%
X108975000Y-108055000D03*
X108975000Y-106505000D03*
%TD*%
D11*
%TO.C,R13*%
X73105000Y-119240000D03*
X71455000Y-119240000D03*
%TD*%
D12*
%TO.C,R11*%
X116200000Y-87335000D03*
X116200000Y-88985000D03*
%TD*%
D13*
%TO.C,L3*%
X80642407Y-115902000D03*
X79792407Y-115902000D03*
%TD*%
D14*
%TO.C,C9*%
X99690000Y-108625000D03*
X99690000Y-110175000D03*
%TD*%
D15*
%TO.C,R5*%
X146110786Y-115619691D03*
X146110786Y-113969691D03*
%TD*%
D16*
%TO.C,Y1*%
X88917000Y-119039000D03*
X88917000Y-117689000D03*
X87867000Y-117689000D03*
X87867000Y-119039000D03*
%TD*%
D17*
%TO.C,R20*%
X79060000Y-108950000D03*
X80710000Y-108950000D03*
%TD*%
D12*
%TO.C,R16*%
X97535000Y-101035000D03*
X97535000Y-102685000D03*
%TD*%
D18*
%TO.C,C6*%
X85200000Y-120754000D03*
X86120000Y-120754000D03*
%TD*%
D19*
%TO.C,SW2*%
X130104000Y-126290000D03*
X130104000Y-119790000D03*
X134604000Y-126290000D03*
X134604000Y-119790000D03*
%TD*%
D20*
%TO.C,J22*%
X150996450Y-83179746D03*
D21*
X150996450Y-85679746D03*
X150996450Y-88179746D03*
X150996450Y-90679746D03*
%TD*%
D20*
%TO.C,J1*%
X116315000Y-114820000D03*
D21*
X116315000Y-117320000D03*
X116315000Y-119820000D03*
X116315000Y-122320000D03*
X116315000Y-124820000D03*
X116315000Y-127320000D03*
%TD*%
D22*
%TO.C,J19*%
X124580500Y-71680500D03*
D23*
X122080500Y-71680500D03*
%TD*%
D20*
%TO.C,J7*%
X150989536Y-110000528D03*
D21*
X150989536Y-112500528D03*
X150989536Y-115000528D03*
%TD*%
D20*
%TO.C,J25*%
X155379724Y-69786663D03*
D21*
X155379724Y-72286663D03*
X155379724Y-74786663D03*
X155379724Y-77286663D03*
%TD*%
D24*
%TO.C,C20*%
X79777302Y-115092834D03*
X79777302Y-114172834D03*
%TD*%
D25*
%TO.C,C3*%
X99750000Y-79490000D03*
X92800000Y-79490000D03*
%TD*%
D17*
%TO.C,R21*%
X71730000Y-85640000D03*
X73380000Y-85640000D03*
%TD*%
D26*
%TO.C,Q5*%
X123535500Y-81045500D03*
X123535500Y-79145500D03*
X121660500Y-80095500D03*
%TD*%
D15*
%TO.C,R19*%
X102440000Y-113620000D03*
X102440000Y-111970000D03*
%TD*%
D12*
%TO.C,R4*%
X144050786Y-94759691D03*
X144050786Y-96409691D03*
%TD*%
%TO.C,R1*%
X146050786Y-94909691D03*
X146050786Y-96559691D03*
%TD*%
D22*
%TO.C,J11*%
X139574000Y-114260000D03*
D23*
X142074000Y-114260000D03*
%TD*%
D27*
%TO.C,Q1*%
X146150786Y-83657191D03*
X144250786Y-83657191D03*
X145200786Y-85532191D03*
%TD*%
D15*
%TO.C,R6*%
X88005000Y-100975000D03*
X88005000Y-99325000D03*
%TD*%
D17*
%TO.C,R22*%
X71470000Y-93950000D03*
X73120000Y-93950000D03*
%TD*%
D20*
%TO.C,J24*%
X157757080Y-83181814D03*
D21*
X157757080Y-85681814D03*
X157757080Y-88181814D03*
X157757080Y-90681814D03*
%TD*%
D10*
%TO.C,C18*%
X110880000Y-90985000D03*
X110880000Y-89435000D03*
%TD*%
D14*
%TO.C,C11*%
X99005000Y-114055000D03*
X99005000Y-115605000D03*
%TD*%
D28*
%TO.C,U2*%
X95485000Y-107642500D03*
X95085000Y-107642500D03*
X94685000Y-107642500D03*
X94285000Y-107642500D03*
X93885000Y-107642500D03*
X93485000Y-107642500D03*
X93085000Y-107642500D03*
X92685000Y-107642500D03*
X92285000Y-107642500D03*
X91885000Y-107642500D03*
X91485000Y-107642500D03*
X91085000Y-107642500D03*
X90685000Y-107642500D03*
X90285000Y-107642500D03*
X89885000Y-107642500D03*
X89485000Y-107642500D03*
X89085000Y-107642500D03*
D29*
X88397500Y-108330000D03*
X88397500Y-108730000D03*
X88397500Y-109130000D03*
X88397500Y-109530000D03*
X88397500Y-109930000D03*
X88397500Y-110330000D03*
X88397500Y-110730000D03*
X88397500Y-111130000D03*
X88397500Y-111530000D03*
X88397500Y-111930000D03*
X88397500Y-112330000D03*
X88397500Y-112730000D03*
X88397500Y-113130000D03*
X88397500Y-113530000D03*
X88397500Y-113930000D03*
X88397500Y-114330000D03*
X88397500Y-114730000D03*
D28*
X89085000Y-115417500D03*
X89485000Y-115417500D03*
X89885000Y-115417500D03*
X90285000Y-115417500D03*
X90685000Y-115417500D03*
X91085000Y-115417500D03*
X91485000Y-115417500D03*
X91885000Y-115417500D03*
X92285000Y-115417500D03*
X92685000Y-115417500D03*
X93085000Y-115417500D03*
X93485000Y-115417500D03*
X93885000Y-115417500D03*
X94285000Y-115417500D03*
X94685000Y-115417500D03*
X95085000Y-115417500D03*
X95485000Y-115417500D03*
D29*
X96172500Y-114730000D03*
X96172500Y-114330000D03*
X96172500Y-113930000D03*
X96172500Y-113530000D03*
X96172500Y-113130000D03*
X96172500Y-112730000D03*
X96172500Y-112330000D03*
X96172500Y-111930000D03*
X96172500Y-111530000D03*
X96172500Y-111130000D03*
X96172500Y-110730000D03*
X96172500Y-110330000D03*
X96172500Y-109930000D03*
X96172500Y-109530000D03*
X96172500Y-109130000D03*
X96172500Y-108730000D03*
X96172500Y-108330000D03*
D30*
X92285000Y-111530000D03*
%TD*%
D31*
%TO.C,J13*%
X129475000Y-92200000D03*
D32*
X129475000Y-94700000D03*
X129475000Y-97200000D03*
X129475000Y-99700000D03*
X129475000Y-102200000D03*
%TD*%
D11*
%TO.C,R24*%
X146621000Y-107188000D03*
X144971000Y-107188000D03*
%TD*%
D12*
%TO.C,R8*%
X142215500Y-79165500D03*
X142215500Y-80815500D03*
%TD*%
D20*
%TO.C,J26*%
X151001390Y-96585449D03*
D21*
X151001390Y-99085449D03*
X151001390Y-101585449D03*
X151001390Y-104085449D03*
%TD*%
D33*
%TO.C,L2*%
X83910000Y-113750000D03*
X83910000Y-114600000D03*
%TD*%
D34*
%TO.C,U1*%
X105400000Y-118600000D03*
X104450000Y-118600000D03*
X103500000Y-118600000D03*
X103500000Y-120875000D03*
X104450000Y-120875000D03*
X105400000Y-120875000D03*
%TD*%
D22*
%TO.C,J8*%
X131104000Y-114300000D03*
D23*
X133604000Y-114300000D03*
%TD*%
D20*
%TO.C,J4*%
X148631294Y-120897123D03*
D21*
X148631294Y-123397123D03*
X148631294Y-125897123D03*
%TD*%
D26*
%TO.C,Q3*%
X140298000Y-80855500D03*
X140298000Y-78955500D03*
X138423000Y-79905500D03*
%TD*%
D31*
%TO.C,J14*%
X93180000Y-88630000D03*
D32*
X93180000Y-86090000D03*
X95720000Y-88630000D03*
X95720000Y-86090000D03*
X98260000Y-88630000D03*
X98260000Y-86090000D03*
%TD*%
D22*
%TO.C,J18*%
X115940500Y-71620500D03*
D23*
X113440500Y-71620500D03*
%TD*%
D11*
%TO.C,R15*%
X73070000Y-113750000D03*
X71420000Y-113750000D03*
%TD*%
%TO.C,R27*%
X102835000Y-110550000D03*
X101185000Y-110550000D03*
%TD*%
D35*
%TO.C,J12*%
X78750000Y-115960000D03*
D36*
X77225000Y-117435000D03*
X77225000Y-114485000D03*
%TD*%
D37*
%TO.C,C4*%
X112400000Y-79690000D03*
X105600000Y-79690000D03*
%TD*%
D10*
%TO.C,C14*%
X86360000Y-116345000D03*
X86360000Y-114795000D03*
%TD*%
D19*
%TO.C,SW4*%
X118015000Y-107850000D03*
X111515000Y-107850000D03*
X118015000Y-103350000D03*
X111515000Y-103350000D03*
%TD*%
%TO.C,SW1*%
X121734000Y-126230000D03*
X121734000Y-119730000D03*
X126234000Y-126230000D03*
X126234000Y-119730000D03*
%TD*%
D20*
%TO.C,J9*%
X157742884Y-109997179D03*
D21*
X157742884Y-112497179D03*
X157742884Y-114997179D03*
%TD*%
D38*
%TO.C,PS1*%
X109385000Y-91232500D03*
X109385000Y-90282500D03*
X109385000Y-89332500D03*
X106385000Y-89332500D03*
X106385000Y-90282500D03*
X106385000Y-91232500D03*
D39*
X107885000Y-90282500D03*
%TD*%
D12*
%TO.C,R14*%
X71635000Y-120855000D03*
X71635000Y-122505000D03*
%TD*%
D40*
%TO.C,J21*%
X94822000Y-70358000D03*
D41*
X99822000Y-70358000D03*
%TD*%
D42*
%TO.C,D1*%
X109085000Y-103290000D03*
X109085000Y-104740000D03*
%TD*%
D43*
%TO.C,J15*%
X103050000Y-124725000D03*
X103700000Y-124725000D03*
X104350000Y-124725000D03*
X105000000Y-124725000D03*
X105650000Y-124725000D03*
D44*
X101925000Y-124400000D03*
X106775000Y-124400000D03*
D45*
X107862000Y-127400000D03*
X100838000Y-127400000D03*
D46*
X103200000Y-127400000D03*
X105500000Y-127400000D03*
%TD*%
D12*
%TO.C,R25*%
X80530000Y-118135000D03*
X80530000Y-119785000D03*
%TD*%
D40*
%TO.C,J20*%
X84114000Y-70275529D03*
D41*
X89114000Y-70275529D03*
%TD*%
D47*
%TO.C,C1*%
X71710000Y-73720000D03*
X73260000Y-73720000D03*
%TD*%
D48*
%TO.C,C16*%
X110620000Y-87070000D03*
X112020000Y-87070000D03*
%TD*%
D17*
%TO.C,R18*%
X79525000Y-99160000D03*
X81175000Y-99160000D03*
%TD*%
D49*
%TO.C,D3*%
X134140500Y-76470500D03*
X130140500Y-76470500D03*
%TD*%
D47*
%TO.C,C17*%
X110585000Y-85510000D03*
X112135000Y-85510000D03*
%TD*%
D20*
%TO.C,J3*%
X155381294Y-120907123D03*
D21*
X155381294Y-123407123D03*
X155381294Y-125907123D03*
%TD*%
D24*
%TO.C,C8*%
X85125000Y-113690000D03*
X85125000Y-114610000D03*
%TD*%
D10*
%TO.C,C10*%
X90315000Y-105575000D03*
X90315000Y-104025000D03*
%TD*%
D20*
%TO.C,J10*%
X137752705Y-92186646D03*
D21*
X137752705Y-94686646D03*
X137752705Y-97186646D03*
X137752705Y-99686646D03*
%TD*%
D50*
%TO.C,FL1*%
X83940000Y-118280000D03*
D51*
X84390000Y-117430000D03*
D50*
X83940000Y-116580000D03*
D51*
X83490000Y-117430000D03*
%TD*%
D22*
%TO.C,J17*%
X133080500Y-71700500D03*
D23*
X130580500Y-71700500D03*
%TD*%
D12*
%TO.C,R9*%
X134315500Y-79190500D03*
X134315500Y-80840500D03*
%TD*%
D52*
%TO.C,C15*%
X112530000Y-90910000D03*
X112530000Y-89510000D03*
%TD*%
D22*
%TO.C,J16*%
X141560500Y-71710500D03*
D23*
X139060500Y-71710500D03*
%TD*%
D19*
%TO.C,SW5*%
X142136000Y-108204000D03*
X135636000Y-108204000D03*
X142136000Y-103704000D03*
X135636000Y-103704000D03*
%TD*%
D53*
%TO.C,D6*%
X105767500Y-111360000D03*
X104192500Y-111360000D03*
%TD*%
D17*
%TO.C,R2*%
X144515786Y-89364691D03*
X146165786Y-89364691D03*
%TD*%
D19*
%TO.C,SW3*%
X138654000Y-126250000D03*
X138654000Y-119750000D03*
X143154000Y-126250000D03*
X143154000Y-119750000D03*
%TD*%
D15*
%TO.C,R26*%
X82030000Y-118625000D03*
X82030000Y-116975000D03*
%TD*%
D11*
%TO.C,R12*%
X108425000Y-122550000D03*
X106775000Y-122550000D03*
%TD*%
D20*
%TO.C,J27*%
X148627429Y-69783309D03*
D21*
X148627429Y-72283309D03*
X148627429Y-74783309D03*
X148627429Y-77283309D03*
%TD*%
D49*
%TO.C,D4*%
X125430500Y-76485500D03*
X121430500Y-76485500D03*
%TD*%
D26*
%TO.C,Q4*%
X132395500Y-81005500D03*
X132395500Y-79105500D03*
X130520500Y-80055500D03*
%TD*%
D33*
%TO.C,L1*%
X84010000Y-120230000D03*
X84010000Y-121080000D03*
%TD*%
D18*
%TO.C,C7*%
X83980000Y-115610000D03*
X84900000Y-115610000D03*
%TD*%
D12*
%TO.C,R7*%
X146120786Y-109984691D03*
X146120786Y-111634691D03*
%TD*%
D14*
%TO.C,C13*%
X86405160Y-117649333D03*
X86405160Y-119199333D03*
%TD*%
D27*
%TO.C,Q2*%
X146280786Y-91097191D03*
X144380786Y-91097191D03*
X145330786Y-92972191D03*
%TD*%
D18*
%TO.C,C19*%
X84035000Y-119400000D03*
X84955000Y-119400000D03*
%TD*%
D54*
%TO.C,D5*%
X116140000Y-84342500D03*
X116140000Y-85917500D03*
%TD*%
D31*
%TO.C,J2*%
X66480000Y-74320000D03*
D32*
X69020000Y-74320000D03*
X66480000Y-76860000D03*
X69020000Y-76860000D03*
X66480000Y-79400000D03*
X69020000Y-79400000D03*
X66480000Y-81940000D03*
X69020000Y-81940000D03*
X66480000Y-84480000D03*
X69020000Y-84480000D03*
X66480000Y-87020000D03*
X69020000Y-87020000D03*
X66480000Y-89560000D03*
X69020000Y-89560000D03*
X66480000Y-92100000D03*
X69020000Y-92100000D03*
X66480000Y-94640000D03*
X69020000Y-94640000D03*
X66480000Y-97180000D03*
X69020000Y-97180000D03*
X66480000Y-99720000D03*
X69020000Y-99720000D03*
X66480000Y-102260000D03*
X69020000Y-102260000D03*
X66480000Y-104800000D03*
X69020000Y-104800000D03*
X66480000Y-107340000D03*
X69020000Y-107340000D03*
X66480000Y-109880000D03*
X69020000Y-109880000D03*
X66480000Y-112420000D03*
X69020000Y-112420000D03*
X66480000Y-114960000D03*
X69020000Y-114960000D03*
X66480000Y-117500000D03*
X69020000Y-117500000D03*
X66480000Y-120040000D03*
X69020000Y-120040000D03*
X66480000Y-122580000D03*
X69020000Y-122580000D03*
%TD*%
D20*
%TO.C,J23*%
X157755786Y-96584691D03*
D21*
X157755786Y-99084691D03*
X157755786Y-101584691D03*
X157755786Y-104084691D03*
%TD*%
D14*
%TO.C,C2*%
X71575000Y-77175000D03*
X71575000Y-78725000D03*
%TD*%
%TO.C,C5*%
X93218000Y-116827000D03*
X93218000Y-118377000D03*
%TD*%
D24*
%TO.C,C21*%
X81430000Y-115840000D03*
X81430000Y-114920000D03*
%TD*%
D17*
%TO.C,R3*%
X144495786Y-81844691D03*
X146145786Y-81844691D03*
%TD*%
%TO.C,R23*%
X71480000Y-92220000D03*
X73130000Y-92220000D03*
%TD*%
D22*
%TO.C,J5*%
X122704000Y-114310000D03*
D23*
X125204000Y-114310000D03*
%TD*%
D12*
%TO.C,R10*%
X125505500Y-79280500D03*
X125505500Y-80930500D03*
%TD*%
D55*
%TO.C,JP5*%
X108015000Y-86200000D03*
D56*
X105475000Y-86200000D03*
X102935000Y-86200000D03*
%TD*%
D11*
%TO.C,R17*%
X97500000Y-121360000D03*
X95850000Y-121360000D03*
%TD*%
D49*
%TO.C,D2*%
X142538000Y-76350500D03*
X138538000Y-76350500D03*
%TD*%
M02*
