%TF.GenerationSoftware,KiCad,Pcbnew,7.0.7*%
%TF.CreationDate,2024-05-12T12:23:43+02:00*%
%TF.ProjectId,Astroplant_AL,41737472-6f70-46c6-916e-745f414c2e6b,rev?*%
%TF.SameCoordinates,Original*%
%TF.FileFunction,Soldermask,Bot*%
%TF.FilePolarity,Negative*%
%FSLAX46Y46*%
G04 Gerber Fmt 4.6, Leading zero omitted, Abs format (unit mm)*
G04 Created by KiCad (PCBNEW 7.0.7) date 2024-05-12 12:23:43*
%MOMM*%
%LPD*%
G01*
G04 APERTURE LIST*
%ADD10R,1.650000X5.600000*%
%ADD11C,2.000000*%
%ADD12R,1.950000X1.700000*%
%ADD13O,1.950000X1.700000*%
%ADD14R,1.700000X2.000000*%
%ADD15O,1.700000X2.000000*%
%ADD16R,1.650000X1.650000*%
%ADD17C,1.650000*%
%ADD18R,1.800000X1.800000*%
%ADD19C,1.800000*%
%ADD20C,1.450000*%
%ADD21C,2.425000*%
%ADD22R,1.700000X1.700000*%
%ADD23O,1.700000X1.700000*%
G04 APERTURE END LIST*
D10*
%TO.C,J6*%
X75532000Y-127662000D03*
X83782000Y-127662000D03*
%TD*%
D11*
%TO.C,SW2*%
X130104000Y-126290000D03*
X130104000Y-119790000D03*
X134604000Y-126290000D03*
X134604000Y-119790000D03*
%TD*%
D12*
%TO.C,J22*%
X150996450Y-83179746D03*
D13*
X150996450Y-85679746D03*
X150996450Y-88179746D03*
X150996450Y-90679746D03*
%TD*%
D12*
%TO.C,J1*%
X116315000Y-114820000D03*
D13*
X116315000Y-117320000D03*
X116315000Y-119820000D03*
X116315000Y-122320000D03*
X116315000Y-124820000D03*
X116315000Y-127320000D03*
%TD*%
D14*
%TO.C,J19*%
X124580500Y-71680500D03*
D15*
X122080500Y-71680500D03*
%TD*%
D12*
%TO.C,J7*%
X150989536Y-110000528D03*
D13*
X150989536Y-112500528D03*
X150989536Y-115000528D03*
%TD*%
D12*
%TO.C,J25*%
X155379724Y-69786663D03*
D13*
X155379724Y-72286663D03*
X155379724Y-74786663D03*
X155379724Y-77286663D03*
%TD*%
D14*
%TO.C,J11*%
X139574000Y-114260000D03*
D15*
X142074000Y-114260000D03*
%TD*%
D12*
%TO.C,J24*%
X157757080Y-83181814D03*
D13*
X157757080Y-85681814D03*
X157757080Y-88181814D03*
X157757080Y-90681814D03*
%TD*%
D16*
%TO.C,J13*%
X129475000Y-92200000D03*
D17*
X129475000Y-94700000D03*
X129475000Y-97200000D03*
X129475000Y-99700000D03*
X129475000Y-102200000D03*
%TD*%
D12*
%TO.C,J26*%
X151001390Y-96585449D03*
D13*
X151001390Y-99085449D03*
X151001390Y-101585449D03*
X151001390Y-104085449D03*
%TD*%
D14*
%TO.C,J8*%
X131104000Y-114300000D03*
D15*
X133604000Y-114300000D03*
%TD*%
D12*
%TO.C,J4*%
X148631294Y-120897123D03*
D13*
X148631294Y-123397123D03*
X148631294Y-125897123D03*
%TD*%
D16*
%TO.C,J14*%
X93180000Y-88630000D03*
D17*
X93180000Y-86090000D03*
X95720000Y-88630000D03*
X95720000Y-86090000D03*
X98260000Y-88630000D03*
X98260000Y-86090000D03*
%TD*%
D14*
%TO.C,J18*%
X115940500Y-71620500D03*
D15*
X113440500Y-71620500D03*
%TD*%
D11*
%TO.C,SW4*%
X118015000Y-107850000D03*
X111515000Y-107850000D03*
X118015000Y-103350000D03*
X111515000Y-103350000D03*
%TD*%
%TO.C,SW1*%
X121734000Y-126230000D03*
X121734000Y-119730000D03*
X126234000Y-126230000D03*
X126234000Y-119730000D03*
%TD*%
D12*
%TO.C,J9*%
X157742884Y-109997179D03*
D13*
X157742884Y-112497179D03*
X157742884Y-114997179D03*
%TD*%
D18*
%TO.C,J21*%
X94822000Y-70358000D03*
D19*
X99822000Y-70358000D03*
%TD*%
D20*
%TO.C,J15*%
X101925000Y-124400000D03*
X106775000Y-124400000D03*
D21*
X107862000Y-127400000D03*
X100838000Y-127400000D03*
%TD*%
D18*
%TO.C,J20*%
X84114000Y-70275529D03*
D19*
X89114000Y-70275529D03*
%TD*%
D12*
%TO.C,J3*%
X155381294Y-120907123D03*
D13*
X155381294Y-123407123D03*
X155381294Y-125907123D03*
%TD*%
D12*
%TO.C,J10*%
X137752705Y-92186646D03*
D13*
X137752705Y-94686646D03*
X137752705Y-97186646D03*
X137752705Y-99686646D03*
%TD*%
D14*
%TO.C,J17*%
X133080500Y-71700500D03*
D15*
X130580500Y-71700500D03*
%TD*%
D14*
%TO.C,J16*%
X141560500Y-71710500D03*
D15*
X139060500Y-71710500D03*
%TD*%
D11*
%TO.C,SW5*%
X142136000Y-108204000D03*
X135636000Y-108204000D03*
X142136000Y-103704000D03*
X135636000Y-103704000D03*
%TD*%
%TO.C,SW3*%
X138654000Y-126250000D03*
X138654000Y-119750000D03*
X143154000Y-126250000D03*
X143154000Y-119750000D03*
%TD*%
D12*
%TO.C,J27*%
X148627429Y-69783309D03*
D13*
X148627429Y-72283309D03*
X148627429Y-74783309D03*
X148627429Y-77283309D03*
%TD*%
D16*
%TO.C,J2*%
X66480000Y-74320000D03*
D17*
X69020000Y-74320000D03*
X66480000Y-76860000D03*
X69020000Y-76860000D03*
X66480000Y-79400000D03*
X69020000Y-79400000D03*
X66480000Y-81940000D03*
X69020000Y-81940000D03*
X66480000Y-84480000D03*
X69020000Y-84480000D03*
X66480000Y-87020000D03*
X69020000Y-87020000D03*
X66480000Y-89560000D03*
X69020000Y-89560000D03*
X66480000Y-92100000D03*
X69020000Y-92100000D03*
X66480000Y-94640000D03*
X69020000Y-94640000D03*
X66480000Y-97180000D03*
X69020000Y-97180000D03*
X66480000Y-99720000D03*
X69020000Y-99720000D03*
X66480000Y-102260000D03*
X69020000Y-102260000D03*
X66480000Y-104800000D03*
X69020000Y-104800000D03*
X66480000Y-107340000D03*
X69020000Y-107340000D03*
X66480000Y-109880000D03*
X69020000Y-109880000D03*
X66480000Y-112420000D03*
X69020000Y-112420000D03*
X66480000Y-114960000D03*
X69020000Y-114960000D03*
X66480000Y-117500000D03*
X69020000Y-117500000D03*
X66480000Y-120040000D03*
X69020000Y-120040000D03*
X66480000Y-122580000D03*
X69020000Y-122580000D03*
%TD*%
D12*
%TO.C,J23*%
X157755786Y-96584691D03*
D13*
X157755786Y-99084691D03*
X157755786Y-101584691D03*
X157755786Y-104084691D03*
%TD*%
D14*
%TO.C,J5*%
X122704000Y-114310000D03*
D15*
X125204000Y-114310000D03*
%TD*%
D22*
%TO.C,JP5*%
X108015000Y-86200000D03*
D23*
X105475000Y-86200000D03*
X102935000Y-86200000D03*
%TD*%
M02*
