M48
; DRILL file {KiCad 7.0.7} date Sun May 12 12:23:48 2024
; FORMAT={-:-/ absolute / inch / decimal}
; #@! TF.CreationDate,2024-05-12T12:23:48+02:00
; #@! TF.GenerationSoftware,Kicad,Pcbnew,7.0.7
; #@! TF.FileFunction,Plated,1,2,PTH
FMAT,2
INCH
; #@! TA.AperFunction,Plated,PTH,ViaDrill
T1C0.0098
; #@! TA.AperFunction,Plated,PTH,ViaDrill
T2C0.0157
; #@! TA.AperFunction,Plated,PTH,ComponentDrill
T3C0.0374
; #@! TA.AperFunction,Plated,PTH,ComponentDrill
T4C0.0394
; #@! TA.AperFunction,Plated,PTH,ComponentDrill
T5C0.0421
; #@! TA.AperFunction,Plated,PTH,ComponentDrill
T6C0.0433
; #@! TA.AperFunction,Plated,PTH,ComponentDrill
T7C0.0472
; #@! TA.AperFunction,Plated,PTH,ComponentDrill
T8C0.0673
; #@! TA.AperFunction,Plated,PTH,ViaDrill
T9C0.1083
; #@! TA.AperFunction,Plated,PTH,ViaDrill
T10C0.1280
%
G90
G05
T1
X2.5808Y-4.9141
X2.5843Y-5.0031
X2.6561Y-5.1006
X2.7108Y-4.9997
X2.79Y-4.1
X2.79Y-4.43
X2.7913Y-2.9591
X2.7981Y-4.9313
X2.7981Y-5.0955
X2.807Y-4.1664
X2.8161Y-3.1598
X2.8177Y-3.5492
X2.8299Y-3.4976
X2.8476Y-4.6525
X2.849Y-2.9728
X2.8556Y-4.3463
X2.8559Y-3.8205
X2.8563Y-3.8705
X2.8571Y-4.2231
X2.8634Y-4.5293
X2.8768Y-4.44
X2.8797Y-4.1827
X2.89Y-4.1
X2.9068Y-4.75
X2.9069Y-4.2197
X2.9148Y-4.6559
X2.9196Y-5.0193
X2.9201Y-5.1126
X2.921Y-4.9242
X2.937Y-4.2459
X2.939Y-3.1323
X2.9437Y-3.5476
X2.9472Y-3.6657
X2.9622Y-2.9362
X2.9706Y-4.1138
X2.9719Y-4.563
X2.9732Y-4.893
X2.9753Y-4.303
X2.9827Y-3.926
X2.9846Y-4.8183
X3.0136Y-4.7345
X3.0201Y-4.5275
X3.0203Y-2.9394
X3.0245Y-5.1126
X3.0265Y-5.0182
X3.0269Y-4.9245
X3.0279Y-4.6169
X3.032Y-4.4579
X3.0323Y-4.0014
X3.0633Y-4.5172
X3.0667Y-4.3425
X3.0689Y-4.2577
X3.0849Y-4.4226
X3.0998Y-4.9219
X3.0998Y-5.1122
X3.1Y-5.019
X3.1083Y-4.3526
X3.1083Y-4.8417
X3.1086Y-4.6866
X3.1095Y-4.7682
X3.11Y-3.2524
X3.11Y-3.942
X3.11Y-4.2512
X3.1176Y-4.6251
X3.1407Y-4.5625
X3.1487Y-4.4478
X3.15Y-4.25
X3.1623Y-4.0831
X3.1631Y-4.692
X3.1631Y-4.7682
X3.1631Y-4.842
X3.1701Y-4.6408
X3.172Y-5.0184
X3.1726Y-5.1117
X3.1726Y-4.9224
X3.1858Y-4.5034
X3.1878Y-3.2728
X3.1882Y-3.6724
X3.1894Y-3.5476
X3.1899Y-4.5913
X3.1913Y-2.8012
X3.197Y-4.137
X3.2038Y-4.3545
X3.21Y-4.25
X3.2138Y-3.9866
X3.2146Y-4.4085
X3.2224Y-4.5482
X3.2422Y-4.9249
X3.2427Y-5.0204
X3.2444Y-5.112
X3.2537Y-4.4523
X3.2543Y-4.2657
X3.2577Y-3.878
X3.2628Y-4.7758
X3.2634Y-4.704
X3.2644Y-4.6298
X3.2724Y-4.5127
X3.2896Y-4.2896
X3.2927Y-2.9636
X3.2982Y-4.8912
X3.3135Y-4.3162
X3.3199Y-2.6992
X3.3225Y-4.0339
X3.328Y-4.21
X3.3293Y-3.1882
X3.3353Y-4.5867
X3.338Y-4.5356
X3.3407Y-3.7408
X3.3444Y-4.4412
X3.345Y-4.4044
X3.3472Y-4.8235
X3.348Y-4.4976
X3.3528Y-3.8291
X3.3528Y-4.9249
X3.3542Y-3.9093
X3.3546Y-5.1137
X3.3551Y-5.0249
X3.358Y-4.012
X3.36Y-4.07
X3.36Y-4.24
X3.3646Y-4.6417
X3.3661Y-4.7109
X3.3907Y-3.2287
X3.4065Y-4.4967
X3.4218Y-4.8564
X3.428Y-3.5583
X3.4291Y-3.6756
X3.43Y-3.91
X3.43Y-4.22
X3.4303Y-4.011
X3.4481Y-4.0887
X3.4514Y-3.3283
X3.4589Y-3.4276
X3.4657Y-3.1181
X3.47Y-4.2319
X3.477Y-4.6567
X3.4935Y-3.3744
X3.4967Y-3.91
X3.503Y-4.94
X3.504Y-5.0494
X3.5183Y-4.8149
X3.5185Y-3.6303
X3.5548Y-4.0557
X3.5735Y-3.83
X3.5758Y-3.711
X3.5867Y-4.8765
X3.6147Y-4.1234
X3.6187Y-4.1834
X3.6415Y-5.0014
X3.644Y-4.1107
X3.653Y-4.1821
X3.6564Y-4.7489
X3.6669Y-4.0767
X3.6877Y-4.9193
X3.6914Y-4.0359
X3.6923Y-4.7365
X3.6929Y-4.1821
X3.6962Y-5.0784
X3.7224Y-4.1821
X3.7253Y-4.0584
X3.7431Y-3.8815
X3.746Y-4.0084
X3.7584Y-4.1821
X3.7646Y-3.2299
X3.7698Y-5.0082
X3.7749Y-4.9022
X3.779Y-4.2055
X3.7851Y-4.5761
X3.7911Y-3.7406
X3.8311Y-4.4382
X3.8333Y-3.0543
X3.8463Y-4.5264
X3.8484Y-3.6571
X3.856Y-4.3322
X3.8636Y-4.4213
X3.8672Y-4.8345
X3.8689Y-4.7289
X3.8793Y-4.2753
X3.8858Y-5.0295
X3.8864Y-4.04
X3.8972Y-4.8089
X3.899Y-3.6331
X3.9026Y-4.4457
X3.9062Y-4.7296
X3.9066Y-4.1555
X3.9172Y-4.2432
X3.92Y-4.6173
X3.9671Y-3.7654
X3.98Y-4.47
X3.98Y-4.56
X3.9841Y-4.6507
X3.997Y-3.0516
X4.0039Y-4.0587
X4.0087Y-4.2591
X4.0095Y-4.6961
X4.0096Y-4.1582
X4.0177Y-3.6488
X4.0315Y-3.237
X4.1065Y-5.0921
X4.1096Y-4.6225
X4.1198Y-4.436
X4.123Y-3.96
X4.123Y-4.3287
X4.1811Y-4.4697
X4.2268Y-4.2929
X4.2339Y-4.0531
X4.2343Y-3.8748
X4.2438Y-4.7234
X4.2516Y-4.3752
X4.2969Y-4.4681
X4.2982Y-4.0309
X4.2982Y-4.41
X4.3106Y-4.6161
X4.3291Y-3.7969
X4.3419Y-5.0311
X4.352Y-2.9047
X4.4646Y-4.6209
X4.4862Y-3.0406
X4.4984Y-3.374
X4.5016Y-3.5165
X4.5117Y-3.9569
X4.514Y-4.2579
X4.67Y-4.16
X4.68Y-4.61
X4.71Y-3.94
X4.71Y-4.37
X4.75Y-4.16
X4.7551Y-5.0398
X4.76Y-4.59
X4.8407Y-3.6972
X4.86Y-3.06
X4.9193Y-3.326
X4.9193Y-3.5016
X5.0343Y-2.9083
X5.0356Y-4.6063
X5.0407Y-4.37
X5.0467Y-4.2083
X5.18Y-3.41
X5.1969Y-3.5063
X5.21Y-3.06
X5.2285Y-3.9807
X5.2333Y-4.2
X5.348Y-3.285
X5.348Y-3.3724
X5.35Y-3.4705
X5.3573Y-4.6114
X5.4Y-4.37
X5.46Y-4.24
X5.48Y-4.14
X5.54Y-3.06
X5.6091Y-3.7469
X5.6102Y-3.9248
X5.6516Y-3.6809
X5.67Y-4.5205
X5.68Y-4.36
X5.7096Y-3.0193
X5.7289Y-4.9453
X5.7344Y-3.4735
X5.7628Y-4.6073
X5.8055Y-3.334
X5.8386Y-4.1748
X5.9805Y-3.048
X5.9904Y-4.9626
X6.0748Y-3.5703
X6.0748Y-4.1124
X6.1982Y-4.6252
X6.21Y-3.17
X6.28Y-3.1457
X6.29Y-3.38
T2
X3.24Y-2.82
X3.4637Y-4.5602
X3.5366Y-4.2984
X3.5374Y-4.4902
X3.55Y-2.89
X3.5876Y-4.7861
X3.5945Y-2.758
X3.6333Y-4.3909
X3.6508Y-3.0429
X3.7236Y-4.2988
X3.7236Y-4.4724
X3.7252Y-2.8831
X3.8189Y-3.1283
X3.8303Y-4.6553
X4.01Y-3.87
X4.073Y-4.2041
X4.0811Y-3.5197
X4.1315Y-3.5516
X4.1425Y-3.0429
X4.1626Y-3.615
X4.1638Y-3.228
X4.2457Y-3.6528
X4.3728Y-3.6232
X4.5748Y-3.5516
X4.6717Y-3.3173
X4.6917Y-3.1823
X5.0575Y-3.1909
X5.3803Y-3.0972
T3
X4.5793Y-4.5205
X4.5793Y-4.6189
X4.5793Y-4.7173
X4.5793Y-4.8157
X4.5793Y-4.9142
X4.5793Y-5.0126
X5.4233Y-3.6294
X5.4233Y-3.7278
X5.4233Y-3.8262
X5.4233Y-3.9247
X5.8515Y-2.7474
X5.8515Y-2.8458
X5.8515Y-2.9442
X5.8515Y-3.0426
X5.8516Y-4.7597
X5.8516Y-4.8582
X5.8516Y-4.9566
X5.9445Y-4.3307
X5.9445Y-4.4292
X5.9445Y-4.5276
X5.9447Y-3.2748
X5.9447Y-3.3732
X5.9447Y-3.4716
X5.9447Y-3.5701
X5.9449Y-3.8026
X5.9449Y-3.901
X5.9449Y-3.9994
X5.9449Y-4.0979
X6.1173Y-2.7475
X6.1173Y-2.8459
X6.1173Y-2.9444
X6.1173Y-3.0428
X6.1174Y-4.7601
X6.1174Y-4.8585
X6.1174Y-4.957
X6.2103Y-4.3306
X6.2103Y-4.429
X6.2103Y-4.5274
X6.2109Y-3.8025
X6.2109Y-3.901
X6.2109Y-3.9994
X6.2109Y-4.0978
X6.2109Y-3.2749
X6.2109Y-3.3733
X6.2109Y-3.4717
X6.2109Y-3.5702
T4
X4.0526Y-3.3937
X4.1526Y-3.3937
X4.2526Y-3.3937
X4.4662Y-2.8197
X4.5646Y-2.8197
X4.8063Y-2.8221
X4.8309Y-4.5004
X4.9047Y-2.8221
X4.9293Y-4.5004
X5.141Y-2.8229
X5.1616Y-4.5
X5.2394Y-2.8229
X5.26Y-4.5
X5.4748Y-2.8232
X5.495Y-4.4984
X5.5732Y-2.8232
X5.5935Y-4.4984
T5
X4.0128Y-4.8976
X4.2037Y-4.8976
T6
X2.6173Y-2.926
X2.6173Y-3.026
X2.6173Y-3.126
X2.6173Y-3.226
X2.6173Y-3.326
X2.6173Y-3.426
X2.6173Y-3.526
X2.6173Y-3.626
X2.6173Y-3.726
X2.6173Y-3.826
X2.6173Y-3.926
X2.6173Y-4.026
X2.6173Y-4.126
X2.6173Y-4.226
X2.6173Y-4.326
X2.6173Y-4.426
X2.6173Y-4.526
X2.6173Y-4.626
X2.6173Y-4.726
X2.6173Y-4.826
X2.7173Y-2.926
X2.7173Y-3.026
X2.7173Y-3.126
X2.7173Y-3.226
X2.7173Y-3.326
X2.7173Y-3.426
X2.7173Y-3.526
X2.7173Y-3.626
X2.7173Y-3.726
X2.7173Y-3.826
X2.7173Y-3.926
X2.7173Y-4.026
X2.7173Y-4.126
X2.7173Y-4.226
X2.7173Y-4.326
X2.7173Y-4.426
X2.7173Y-4.526
X2.7173Y-4.626
X2.7173Y-4.726
X2.7173Y-4.826
X3.6685Y-3.3894
X3.6685Y-3.4894
X3.7685Y-3.3894
X3.7685Y-3.4894
X3.8685Y-3.3894
X3.8685Y-3.4894
X4.3904Y-4.0689
X4.3904Y-4.2461
X4.6463Y-4.0689
X4.6463Y-4.2461
X4.7927Y-4.7138
X4.7927Y-4.9697
X4.9698Y-4.7138
X4.9698Y-4.9697
X5.0974Y-3.6299
X5.0974Y-3.7283
X5.0974Y-3.8268
X5.0974Y-3.9252
X5.0974Y-4.0236
X5.1222Y-4.7161
X5.1222Y-4.972
X5.2994Y-4.7161
X5.2994Y-4.972
X5.34Y-4.0828
X5.34Y-4.26
X5.4588Y-4.7146
X5.4588Y-4.9705
X5.5959Y-4.0828
X5.5959Y-4.26
X5.636Y-4.7146
X5.636Y-4.9705
T7
X3.3116Y-2.7668
X3.5084Y-2.7668
X3.7331Y-2.77
X3.93Y-2.77
T8
X3.97Y-5.0157
X4.2465Y-5.0157
T9
X2.6697Y-2.7256
T10
X3.0626Y-2.7236
X6.3303Y-2.7236
X6.3303Y-5.0071
T0
M30
