%TF.GenerationSoftware,KiCad,Pcbnew,7.0.7*%
%TF.CreationDate,2023-11-29T14:03:30+01:00*%
%TF.ProjectId,Astroplant_AL,41737472-6f70-46c6-916e-745f414c2e6b,rev?*%
%TF.SameCoordinates,Original*%
%TF.FileFunction,Paste,Top*%
%TF.FilePolarity,Positive*%
%FSLAX46Y46*%
G04 Gerber Fmt 4.6, Leading zero omitted, Abs format (unit mm)*
G04 Created by KiCad (PCBNEW 7.0.7) date 2023-11-29 14:03:30*
%MOMM*%
%LPD*%
G01*
G04 APERTURE LIST*
G04 Aperture macros list*
%AMRoundRect*
0 Rectangle with rounded corners*
0 $1 Rounding radius*
0 $2 $3 $4 $5 $6 $7 $8 $9 X,Y pos of 4 corners*
0 Add a 4 corners polygon primitive as box body*
4,1,4,$2,$3,$4,$5,$6,$7,$8,$9,$2,$3,0*
0 Add four circle primitives for the rounded corners*
1,1,$1+$1,$2,$3*
1,1,$1+$1,$4,$5*
1,1,$1+$1,$6,$7*
1,1,$1+$1,$8,$9*
0 Add four rect primitives between the rounded corners*
20,1,$1+$1,$2,$3,$4,$5,0*
20,1,$1+$1,$4,$5,$6,$7,0*
20,1,$1+$1,$6,$7,$8,$9,0*
20,1,$1+$1,$8,$9,$2,$3,0*%
G04 Aperture macros list end*
%ADD10RoundRect,0.225000X0.250000X-0.225000X0.250000X0.225000X-0.250000X0.225000X-0.250000X-0.225000X0*%
%ADD11RoundRect,0.200000X0.200000X0.275000X-0.200000X0.275000X-0.200000X-0.275000X0.200000X-0.275000X0*%
%ADD12RoundRect,0.200000X-0.275000X0.200000X-0.275000X-0.200000X0.275000X-0.200000X0.275000X0.200000X0*%
%ADD13R,0.350000X0.650000*%
%ADD14RoundRect,0.225000X-0.250000X0.225000X-0.250000X-0.225000X0.250000X-0.225000X0.250000X0.225000X0*%
%ADD15RoundRect,0.200000X0.275000X-0.200000X0.275000X0.200000X-0.275000X0.200000X-0.275000X-0.200000X0*%
%ADD16RoundRect,0.200000X-0.200000X-0.275000X0.200000X-0.275000X0.200000X0.275000X-0.200000X0.275000X0*%
%ADD17R,0.600000X0.620000*%
%ADD18R,0.620000X0.600000*%
%ADD19RoundRect,0.250000X1.825000X0.700000X-1.825000X0.700000X-1.825000X-0.700000X1.825000X-0.700000X0*%
%ADD20RoundRect,0.150000X0.587500X0.150000X-0.587500X0.150000X-0.587500X-0.150000X0.587500X-0.150000X0*%
%ADD21RoundRect,0.150000X-0.150000X0.587500X-0.150000X-0.587500X0.150000X-0.587500X0.150000X0.587500X0*%
%ADD22RoundRect,0.249999X-0.395001X0.395001X-0.395001X-0.395001X0.395001X-0.395001X0.395001X0.395001X0*%
%ADD23RoundRect,0.062500X-0.062500X0.400000X-0.062500X-0.400000X0.062500X-0.400000X0.062500X0.400000X0*%
%ADD24RoundRect,0.062500X-0.400000X0.062500X-0.400000X-0.062500X0.400000X-0.062500X0.400000X0.062500X0*%
%ADD25R,0.650000X0.350000*%
%ADD26RoundRect,0.150000X-0.150000X0.512500X-0.150000X-0.512500X0.150000X-0.512500X0.150000X0.512500X0*%
%ADD27R,1.050000X1.000000*%
%ADD28R,2.200000X1.050000*%
%ADD29R,3.800000X2.150000*%
%ADD30RoundRect,0.225000X0.225000X0.250000X-0.225000X0.250000X-0.225000X-0.250000X0.225000X-0.250000X0*%
%ADD31R,0.800000X0.400000*%
%ADD32R,1.750000X2.500000*%
%ADD33R,0.420000X0.700000*%
%ADD34RoundRect,0.225000X-0.225000X-0.250000X0.225000X-0.250000X0.225000X0.250000X-0.225000X0.250000X0*%
%ADD35R,0.750000X0.940000*%
%ADD36RoundRect,0.250000X1.000000X0.650000X-1.000000X0.650000X-1.000000X-0.650000X1.000000X-0.650000X0*%
%ADD37R,0.940000X0.750000*%
%ADD38R,0.550000X0.280000*%
%ADD39R,0.600000X0.400000*%
%ADD40R,0.400000X1.350000*%
%ADD41R,1.900000X1.900000*%
%ADD42RoundRect,0.218750X-0.256250X0.218750X-0.256250X-0.218750X0.256250X-0.218750X0.256250X0.218750X0*%
G04 APERTURE END LIST*
D10*
%TO.C,C12*%
X108975000Y-108055000D03*
X108975000Y-106505000D03*
%TD*%
D11*
%TO.C,R13*%
X73105000Y-119240000D03*
X71455000Y-119240000D03*
%TD*%
D12*
%TO.C,R11*%
X116200000Y-87335000D03*
X116200000Y-88985000D03*
%TD*%
D13*
%TO.C,L3*%
X80642407Y-115902000D03*
X79792407Y-115902000D03*
%TD*%
D14*
%TO.C,C9*%
X99690000Y-108625000D03*
X99690000Y-110175000D03*
%TD*%
D15*
%TO.C,R5*%
X146110786Y-115619691D03*
X146110786Y-113969691D03*
%TD*%
D16*
%TO.C,R20*%
X79060000Y-108950000D03*
X80710000Y-108950000D03*
%TD*%
D12*
%TO.C,R16*%
X97535000Y-101035000D03*
X97535000Y-102685000D03*
%TD*%
D17*
%TO.C,C6*%
X85200000Y-120754000D03*
X86120000Y-120754000D03*
%TD*%
D18*
%TO.C,C20*%
X79777302Y-115092834D03*
X79777302Y-114172834D03*
%TD*%
D19*
%TO.C,C3*%
X99750000Y-79490000D03*
X92800000Y-79490000D03*
%TD*%
D16*
%TO.C,R21*%
X71730000Y-85640000D03*
X73380000Y-85640000D03*
%TD*%
D20*
%TO.C,Q5*%
X123535500Y-81045500D03*
X123535500Y-79145500D03*
X121660500Y-80095500D03*
%TD*%
D15*
%TO.C,R19*%
X101300000Y-113320000D03*
X101300000Y-111670000D03*
%TD*%
D12*
%TO.C,R4*%
X144050786Y-94759691D03*
X144050786Y-96409691D03*
%TD*%
%TO.C,R1*%
X146050786Y-94909691D03*
X146050786Y-96559691D03*
%TD*%
D21*
%TO.C,Q1*%
X146150786Y-83657191D03*
X144250786Y-83657191D03*
X145200786Y-85532191D03*
%TD*%
D15*
%TO.C,R6*%
X88005000Y-100975000D03*
X88005000Y-99325000D03*
%TD*%
D16*
%TO.C,R22*%
X71470000Y-93950000D03*
X73120000Y-93950000D03*
%TD*%
D10*
%TO.C,C18*%
X110880000Y-90985000D03*
X110880000Y-89435000D03*
%TD*%
D14*
%TO.C,C11*%
X99005000Y-114055000D03*
X99005000Y-115605000D03*
%TD*%
D22*
%TO.C,U2*%
X94685000Y-109130000D03*
X93085000Y-109130000D03*
X91485000Y-109130000D03*
X89885000Y-109130000D03*
X94685000Y-110730000D03*
X93085000Y-110730000D03*
X91485000Y-110730000D03*
X89885000Y-110730000D03*
X94685000Y-112330000D03*
X93085000Y-112330000D03*
X91485000Y-112330000D03*
X89885000Y-112330000D03*
X94685000Y-113930000D03*
X93085000Y-113930000D03*
X91485000Y-113930000D03*
X89885000Y-113930000D03*
D23*
X95485000Y-107642500D03*
X95085000Y-107642500D03*
X94685000Y-107642500D03*
X94285000Y-107642500D03*
X93885000Y-107642500D03*
X93485000Y-107642500D03*
X93085000Y-107642500D03*
X92685000Y-107642500D03*
X92285000Y-107642500D03*
X91885000Y-107642500D03*
X91485000Y-107642500D03*
X91085000Y-107642500D03*
X90685000Y-107642500D03*
X90285000Y-107642500D03*
X89885000Y-107642500D03*
X89485000Y-107642500D03*
X89085000Y-107642500D03*
D24*
X88397500Y-108330000D03*
X88397500Y-108730000D03*
X88397500Y-109130000D03*
X88397500Y-109530000D03*
X88397500Y-109930000D03*
X88397500Y-110330000D03*
X88397500Y-110730000D03*
X88397500Y-111130000D03*
X88397500Y-111530000D03*
X88397500Y-111930000D03*
X88397500Y-112330000D03*
X88397500Y-112730000D03*
X88397500Y-113130000D03*
X88397500Y-113530000D03*
X88397500Y-113930000D03*
X88397500Y-114330000D03*
X88397500Y-114730000D03*
D23*
X89085000Y-115417500D03*
X89485000Y-115417500D03*
X89885000Y-115417500D03*
X90285000Y-115417500D03*
X90685000Y-115417500D03*
X91085000Y-115417500D03*
X91485000Y-115417500D03*
X91885000Y-115417500D03*
X92285000Y-115417500D03*
X92685000Y-115417500D03*
X93085000Y-115417500D03*
X93485000Y-115417500D03*
X93885000Y-115417500D03*
X94285000Y-115417500D03*
X94685000Y-115417500D03*
X95085000Y-115417500D03*
X95485000Y-115417500D03*
D24*
X96172500Y-114730000D03*
X96172500Y-114330000D03*
X96172500Y-113930000D03*
X96172500Y-113530000D03*
X96172500Y-113130000D03*
X96172500Y-112730000D03*
X96172500Y-112330000D03*
X96172500Y-111930000D03*
X96172500Y-111530000D03*
X96172500Y-111130000D03*
X96172500Y-110730000D03*
X96172500Y-110330000D03*
X96172500Y-109930000D03*
X96172500Y-109530000D03*
X96172500Y-109130000D03*
X96172500Y-108730000D03*
X96172500Y-108330000D03*
%TD*%
D11*
%TO.C,R24*%
X137725000Y-103490000D03*
X136075000Y-103490000D03*
%TD*%
D12*
%TO.C,R8*%
X142215500Y-79165500D03*
X142215500Y-80815500D03*
%TD*%
D25*
%TO.C,L2*%
X83910000Y-113750000D03*
X83910000Y-114600000D03*
%TD*%
D26*
%TO.C,U1*%
X105300000Y-120568865D03*
X104350000Y-120568865D03*
X103400000Y-120568865D03*
X103400000Y-122843865D03*
X104350000Y-122843865D03*
X105300000Y-122843865D03*
%TD*%
D20*
%TO.C,Q3*%
X140298000Y-80855500D03*
X140298000Y-78955500D03*
X138423000Y-79905500D03*
%TD*%
D11*
%TO.C,R15*%
X73070000Y-113750000D03*
X71420000Y-113750000D03*
%TD*%
D27*
%TO.C,J12*%
X78750000Y-115960000D03*
D28*
X77225000Y-117435000D03*
X77225000Y-114485000D03*
%TD*%
D29*
%TO.C,C4*%
X112400000Y-79690000D03*
X105600000Y-79690000D03*
%TD*%
D30*
%TO.C,C14*%
X88360000Y-116880000D03*
X86810000Y-116880000D03*
%TD*%
D31*
%TO.C,PS1*%
X109385000Y-91232500D03*
X109385000Y-90282500D03*
X109385000Y-89332500D03*
X106385000Y-89332500D03*
X106385000Y-90282500D03*
X106385000Y-91232500D03*
D32*
X107885000Y-90282500D03*
%TD*%
D12*
%TO.C,R14*%
X71635000Y-120855000D03*
X71635000Y-122505000D03*
%TD*%
D33*
%TO.C,D1*%
X109085000Y-103290000D03*
X109085000Y-104740000D03*
%TD*%
D12*
%TO.C,R25*%
X82590000Y-117980000D03*
X82590000Y-119630000D03*
%TD*%
D34*
%TO.C,C1*%
X71710000Y-73720000D03*
X73260000Y-73720000D03*
%TD*%
D35*
%TO.C,C16*%
X110620000Y-87070000D03*
X112020000Y-87070000D03*
%TD*%
D16*
%TO.C,R18*%
X79525000Y-99160000D03*
X81175000Y-99160000D03*
%TD*%
D36*
%TO.C,D3*%
X134140500Y-76470500D03*
X130140500Y-76470500D03*
%TD*%
D34*
%TO.C,C17*%
X110585000Y-85510000D03*
X112135000Y-85510000D03*
%TD*%
D18*
%TO.C,C8*%
X85125000Y-113690000D03*
X85125000Y-114610000D03*
%TD*%
D10*
%TO.C,C10*%
X90315000Y-105575000D03*
X90315000Y-104025000D03*
%TD*%
D12*
%TO.C,R9*%
X134315500Y-79190500D03*
X134315500Y-80840500D03*
%TD*%
D37*
%TO.C,C15*%
X112530000Y-90910000D03*
X112530000Y-89510000D03*
%TD*%
D16*
%TO.C,R2*%
X144515786Y-89364691D03*
X146165786Y-89364691D03*
%TD*%
D15*
%TO.C,R26*%
X82600000Y-116735000D03*
X82600000Y-115085000D03*
%TD*%
D38*
%TO.C,FL1*%
X83935000Y-117908000D03*
D39*
X83935000Y-117348000D03*
D38*
X83935000Y-116788000D03*
%TD*%
D15*
%TO.C,R12*%
X110395000Y-125705000D03*
X110395000Y-124055000D03*
%TD*%
D36*
%TO.C,D4*%
X125430500Y-76485500D03*
X121430500Y-76485500D03*
%TD*%
D40*
%TO.C,J6*%
X102835000Y-125651365D03*
X103485000Y-125651365D03*
X104135000Y-125651365D03*
X104785000Y-125651365D03*
X105435000Y-125651365D03*
D41*
X100085000Y-128326365D03*
X102935000Y-128326365D03*
X105335000Y-128326365D03*
X108185000Y-128326365D03*
%TD*%
D20*
%TO.C,Q4*%
X132395500Y-81005500D03*
X132395500Y-79105500D03*
X130520500Y-80055500D03*
%TD*%
D25*
%TO.C,L1*%
X84010000Y-120230000D03*
X84010000Y-121080000D03*
%TD*%
D17*
%TO.C,C7*%
X83915000Y-115910000D03*
X84835000Y-115910000D03*
%TD*%
D12*
%TO.C,R7*%
X146120786Y-109984691D03*
X146120786Y-111634691D03*
%TD*%
D30*
%TO.C,C13*%
X88330000Y-118350000D03*
X86780000Y-118350000D03*
%TD*%
D21*
%TO.C,Q2*%
X146280786Y-91097191D03*
X144380786Y-91097191D03*
X145330786Y-92972191D03*
%TD*%
D17*
%TO.C,C19*%
X84035000Y-119400000D03*
X84955000Y-119400000D03*
%TD*%
D42*
%TO.C,D5*%
X116140000Y-84342500D03*
X116140000Y-85917500D03*
%TD*%
D14*
%TO.C,C2*%
X71575000Y-77175000D03*
X71575000Y-78725000D03*
%TD*%
%TO.C,C5*%
X93085000Y-117015000D03*
X93085000Y-118565000D03*
%TD*%
D18*
%TO.C,C21*%
X81390000Y-116060000D03*
X81390000Y-115140000D03*
%TD*%
D16*
%TO.C,R3*%
X144495786Y-81844691D03*
X146145786Y-81844691D03*
%TD*%
%TO.C,R23*%
X71480000Y-92220000D03*
X73130000Y-92220000D03*
%TD*%
D12*
%TO.C,R10*%
X125505500Y-79280500D03*
X125505500Y-80930500D03*
%TD*%
D11*
%TO.C,R17*%
X97500000Y-121360000D03*
X95850000Y-121360000D03*
%TD*%
D36*
%TO.C,D2*%
X142538000Y-76350500D03*
X138538000Y-76350500D03*
%TD*%
M02*
