M48
; DRILL file {KiCad 7.0.7} date Thu Oct 12 15:35:45 2023
; FORMAT={-:-/ absolute / inch / decimal}
; #@! TF.CreationDate,2023-10-12T15:35:45+02:00
; #@! TF.GenerationSoftware,Kicad,Pcbnew,7.0.7
; #@! TF.FileFunction,Plated,1,2,PTH
FMAT,2
INCH
; #@! TA.AperFunction,Plated,PTH,ViaDrill
T1C0.0157
; #@! TA.AperFunction,Plated,PTH,ViaDrill
T2C0.0236
; #@! TA.AperFunction,Plated,PTH,ComponentDrill
T3C0.0374
; #@! TA.AperFunction,Plated,PTH,ComponentDrill
T4C0.0394
; #@! TA.AperFunction,Plated,PTH,ComponentDrill
T5C0.0433
; #@! TA.AperFunction,Plated,PTH,ComponentDrill
T6C0.0598
; #@! TA.AperFunction,Plated,PTH,ViaDrill
T7C0.1083
; #@! TA.AperFunction,Plated,PTH,ViaDrill
T8C0.1280
%
G90
G05
T1
X4.2913Y-2.5079
X4.2913Y-2.8622
X4.3717Y-3.3435
X5.252Y-3.4449
X5.3819Y-2.9026
X5.4331Y-2.878
X5.4371Y-2.8415
T2
X4.2283Y-1.626
X4.5866Y-2.4882
X5.0617Y-2.9428
X5.5079Y-2.7008
X5.6417Y-2.0591
X5.9606Y-2.0591
X5.9606Y-2.4606
X6.2598Y-2.3504
X6.4016Y-2.4606
X6.4016Y-2.0591
X6.4646Y-2.6122
X6.4646Y-2.8228
X6.4646Y-3.0984
X6.5669Y-2.5906
X6.5669Y-2.9705
X6.7165Y-2.3543
X6.8622Y-2.0591
X6.8622Y-2.4606
X6.9685Y-2.7402
T3
X4.5669Y-3.1417
X4.6654Y-3.1417
X4.7638Y-3.1417
X4.8622Y-3.1417
X4.9606Y-3.1417
X5.0591Y-3.1417
X5.3976Y-3.7362
X5.4094Y-3.4016
X5.4961Y-3.7362
X5.5079Y-3.4016
X5.5945Y-3.7362
X5.6063Y-3.4016
X5.6929Y-3.7362
X5.7047Y-3.4016
X7.2244Y-1.5591
X7.2244Y-1.6575
X7.2244Y-1.7559
X7.2244Y-1.8543
X7.2244Y-2.0906
X7.2244Y-2.189
X7.2244Y-2.2874
X7.2244Y-2.3858
X7.2244Y-2.622
X7.2244Y-2.7205
X7.2244Y-2.8189
X7.2244Y-2.9173
X7.2244Y-3.1535
X7.2244Y-3.252
X7.2244Y-3.3504
X7.2244Y-3.5866
X7.2244Y-3.685
X7.2244Y-3.7835
X7.4961Y-1.5591
X7.4961Y-1.6575
X7.4961Y-1.7559
X7.4961Y-1.8543
X7.4961Y-2.0906
X7.4961Y-2.189
X7.4961Y-2.2874
X7.4961Y-2.3858
X7.4961Y-2.622
X7.4961Y-2.7205
X7.4961Y-2.8189
X7.4961Y-2.9173
X7.4961Y-3.1535
X7.4961Y-3.252
X7.4961Y-3.3504
X7.4961Y-3.5866
X7.4961Y-3.685
X7.4961Y-3.7835
T4
X4.0248Y-1.7075
X4.0248Y-1.8075
X4.0248Y-1.9075
X4.0248Y-2.0075
X4.0248Y-2.1075
X4.0248Y-2.2075
X4.0248Y-2.3075
X4.0248Y-2.4075
X4.0248Y-2.5075
X4.0248Y-2.6075
X4.0248Y-2.7075
X4.0248Y-2.8075
X4.0248Y-2.9075
X4.0248Y-3.0075
X4.0248Y-3.1075
X4.0248Y-3.2075
X4.0248Y-3.3075
X4.0248Y-3.4075
X4.0248Y-3.5075
X4.0248Y-3.6075
X4.1248Y-1.7075
X4.1248Y-1.8075
X4.1248Y-1.9075
X4.1248Y-2.0075
X4.1248Y-2.1075
X4.1248Y-2.2075
X4.1248Y-2.3075
X4.1248Y-2.4075
X4.1248Y-2.5075
X4.1248Y-2.6075
X4.1248Y-2.7075
X4.1248Y-2.8075
X4.1248Y-2.9075
X4.1248Y-3.0075
X4.1248Y-3.1075
X4.1248Y-3.2075
X4.1248Y-3.3075
X4.1248Y-3.4075
X4.1248Y-3.5075
X4.1248Y-3.6075
X4.7528Y-2.5866
X4.7984Y-3.3661
X4.7984Y-3.4661
X4.8528Y-2.3898
X4.8528Y-2.5866
X4.8984Y-3.3661
X4.8984Y-3.4661
X4.9528Y-2.3898
X4.9528Y-2.5866
X4.9984Y-3.3661
X4.9984Y-3.4661
X5.0984Y-3.3661
X5.0984Y-3.4661
X5.7047Y-1.6772
X5.8031Y-1.6772
X6.0236Y-3.3307
X6.0394Y-1.6772
X6.122Y-3.3307
X6.1378Y-1.6772
X6.3543Y-3.3307
X6.3701Y-1.6772
X6.4528Y-3.3307
X6.4685Y-1.6772
X6.685Y-3.3307
X6.7047Y-1.6772
X6.7835Y-3.3307
X6.8031Y-1.6772
T5
X5.9724Y-3.5394
X5.9724Y-3.7953
X6.1496Y-3.5394
X6.1496Y-3.7953
X6.311Y-3.5406
X6.311Y-3.7965
X6.4882Y-3.5406
X6.4882Y-3.7965
X6.65Y-3.537
X6.65Y-3.7929
X6.8272Y-3.537
X6.8272Y-3.7929
T6
X4.7409Y-1.6299
X4.9409Y-1.6299
X5.2016Y-1.6299
X5.4016Y-1.6299
T7
X4.0748Y-1.5157
X4.0748Y-3.7992
T8
X4.4685Y-1.5157
X4.4685Y-3.7992
X7.7362Y-1.5157
X7.7362Y-3.7992
T0
M30
