G04 #@! TF.GenerationSoftware,KiCad,Pcbnew,(6.0.0-rc1-dev-450-gc170e8930)*
G04 #@! TF.CreationDate,2018-10-08T16:18:35+02:00*
G04 #@! TF.ProjectId,Astroplant_VFR,417374726F706C616E745F5646522E6B,0.5*
G04 #@! TF.SameCoordinates,Original*
G04 #@! TF.FileFunction,Other,ECO2*
%FSLAX46Y46*%
G04 Gerber Fmt 4.6, Leading zero omitted, Abs format (unit mm)*
G04 Created by KiCad (PCBNEW (6.0.0-rc1-dev-450-gc170e8930)) date Mon Oct  8 16:18:35 2018*
%MOMM*%
%LPD*%
G01*
G04 APERTURE LIST*
%ADD10C,0.250000*%
%ADD11C,0.300000*%
G04 APERTURE END LIST*
D10*
X151047619Y-120880952D02*
X150952380Y-120833333D01*
X150904761Y-120785714D01*
X150857142Y-120690476D01*
X150857142Y-120642857D01*
X150904761Y-120547619D01*
X150952380Y-120500000D01*
X151047619Y-120452380D01*
X151238095Y-120452380D01*
X151333333Y-120500000D01*
X151380952Y-120547619D01*
X151428571Y-120642857D01*
X151428571Y-120690476D01*
X151380952Y-120785714D01*
X151333333Y-120833333D01*
X151238095Y-120880952D01*
X151047619Y-120880952D01*
X150952380Y-120928571D01*
X150904761Y-120976190D01*
X150857142Y-121071428D01*
X150857142Y-121261904D01*
X150904761Y-121357142D01*
X150952380Y-121404761D01*
X151047619Y-121452380D01*
X151238095Y-121452380D01*
X151333333Y-121404761D01*
X151380952Y-121357142D01*
X151428571Y-121261904D01*
X151428571Y-121071428D01*
X151380952Y-120976190D01*
X151333333Y-120928571D01*
X151238095Y-120880952D01*
X151761904Y-120452380D02*
X152380952Y-120452380D01*
X152047619Y-120833333D01*
X152190476Y-120833333D01*
X152285714Y-120880952D01*
X152333333Y-120928571D01*
X152380952Y-121023809D01*
X152380952Y-121261904D01*
X152333333Y-121357142D01*
X152285714Y-121404761D01*
X152190476Y-121452380D01*
X151904761Y-121452380D01*
X151809523Y-121404761D01*
X151761904Y-121357142D01*
X152809523Y-121357142D02*
X152857142Y-121404761D01*
X152809523Y-121452380D01*
X152761904Y-121404761D01*
X152809523Y-121357142D01*
X152809523Y-121452380D01*
X153476190Y-120452380D02*
X153571428Y-120452380D01*
X153666666Y-120500000D01*
X153714285Y-120547619D01*
X153761904Y-120642857D01*
X153809523Y-120833333D01*
X153809523Y-121071428D01*
X153761904Y-121261904D01*
X153714285Y-121357142D01*
X153666666Y-121404761D01*
X153571428Y-121452380D01*
X153476190Y-121452380D01*
X153380952Y-121404761D01*
X153333333Y-121357142D01*
X153285714Y-121261904D01*
X153238095Y-121071428D01*
X153238095Y-120833333D01*
X153285714Y-120642857D01*
X153333333Y-120547619D01*
X153380952Y-120500000D01*
X153476190Y-120452380D01*
X154428571Y-120452380D02*
X154523809Y-120452380D01*
X154619047Y-120500000D01*
X154666666Y-120547619D01*
X154714285Y-120642857D01*
X154761904Y-120833333D01*
X154761904Y-121071428D01*
X154714285Y-121261904D01*
X154666666Y-121357142D01*
X154619047Y-121404761D01*
X154523809Y-121452380D01*
X154428571Y-121452380D01*
X154333333Y-121404761D01*
X154285714Y-121357142D01*
X154238095Y-121261904D01*
X154190476Y-121071428D01*
X154190476Y-120833333D01*
X154238095Y-120642857D01*
X154285714Y-120547619D01*
X154333333Y-120500000D01*
X154428571Y-120452380D01*
X155380952Y-120452380D02*
X155476190Y-120452380D01*
X155571428Y-120500000D01*
X155619047Y-120547619D01*
X155666666Y-120642857D01*
X155714285Y-120833333D01*
X155714285Y-121071428D01*
X155666666Y-121261904D01*
X155619047Y-121357142D01*
X155571428Y-121404761D01*
X155476190Y-121452380D01*
X155380952Y-121452380D01*
X155285714Y-121404761D01*
X155238095Y-121357142D01*
X155190476Y-121261904D01*
X155142857Y-121071428D01*
X155142857Y-120833333D01*
X155190476Y-120642857D01*
X155238095Y-120547619D01*
X155285714Y-120500000D01*
X155380952Y-120452380D01*
X156904761Y-121452380D02*
X156904761Y-120785714D01*
X156904761Y-120880952D02*
X156952380Y-120833333D01*
X157047619Y-120785714D01*
X157190476Y-120785714D01*
X157285714Y-120833333D01*
X157333333Y-120928571D01*
X157333333Y-121452380D01*
X157333333Y-120928571D02*
X157380952Y-120833333D01*
X157476190Y-120785714D01*
X157619047Y-120785714D01*
X157714285Y-120833333D01*
X157761904Y-120928571D01*
X157761904Y-121452380D01*
X158238095Y-121452380D02*
X158238095Y-120785714D01*
X158238095Y-120880952D02*
X158285714Y-120833333D01*
X158380952Y-120785714D01*
X158523809Y-120785714D01*
X158619047Y-120833333D01*
X158666666Y-120928571D01*
X158666666Y-121452380D01*
X158666666Y-120928571D02*
X158714285Y-120833333D01*
X158809523Y-120785714D01*
X158952380Y-120785714D01*
X159047619Y-120833333D01*
X159095238Y-120928571D01*
X159095238Y-121452380D01*
X196500000Y-119500000D02*
X113500000Y-119500000D01*
X196500000Y-96500000D02*
X196500000Y-120086421D01*
X113500000Y-96500000D02*
X113500000Y-120086421D01*
X113500000Y-119500000D02*
X114626504Y-118913579D01*
X113500000Y-119500000D02*
X114626504Y-120086421D01*
X196500000Y-119500000D02*
X195373496Y-118913579D01*
X196500000Y-119500000D02*
X195373496Y-120086421D01*
D11*
X96178571Y-24328571D02*
X97107142Y-24328571D01*
X96607142Y-24900000D01*
X96821428Y-24900000D01*
X96964285Y-24971428D01*
X97035714Y-25042857D01*
X97107142Y-25185714D01*
X97107142Y-25542857D01*
X97035714Y-25685714D01*
X96964285Y-25757142D01*
X96821428Y-25828571D01*
X96392857Y-25828571D01*
X96250000Y-25757142D01*
X96178571Y-25685714D01*
X97750000Y-25685714D02*
X97821428Y-25757142D01*
X97750000Y-25828571D01*
X97678571Y-25757142D01*
X97750000Y-25685714D01*
X97750000Y-25828571D01*
X99178571Y-24328571D02*
X98464285Y-24328571D01*
X98392857Y-25042857D01*
X98464285Y-24971428D01*
X98607142Y-24900000D01*
X98964285Y-24900000D01*
X99107142Y-24971428D01*
X99178571Y-25042857D01*
X99250000Y-25185714D01*
X99250000Y-25542857D01*
X99178571Y-25685714D01*
X99107142Y-25757142D01*
X98964285Y-25828571D01*
X98607142Y-25828571D01*
X98464285Y-25757142D01*
X98392857Y-25685714D01*
X100178571Y-24328571D02*
X100321428Y-24328571D01*
X100464285Y-24400000D01*
X100535714Y-24471428D01*
X100607142Y-24614285D01*
X100678571Y-24900000D01*
X100678571Y-25257142D01*
X100607142Y-25542857D01*
X100535714Y-25685714D01*
X100464285Y-25757142D01*
X100321428Y-25828571D01*
X100178571Y-25828571D01*
X100035714Y-25757142D01*
X99964285Y-25685714D01*
X99892857Y-25542857D01*
X99821428Y-25257142D01*
X99821428Y-24900000D01*
X99892857Y-24614285D01*
X99964285Y-24471428D01*
X100035714Y-24400000D01*
X100178571Y-24328571D01*
X101607142Y-24328571D02*
X101750000Y-24328571D01*
X101892857Y-24400000D01*
X101964285Y-24471428D01*
X102035714Y-24614285D01*
X102107142Y-24900000D01*
X102107142Y-25257142D01*
X102035714Y-25542857D01*
X101964285Y-25685714D01*
X101892857Y-25757142D01*
X101750000Y-25828571D01*
X101607142Y-25828571D01*
X101464285Y-25757142D01*
X101392857Y-25685714D01*
X101321428Y-25542857D01*
X101250000Y-25257142D01*
X101250000Y-24900000D01*
X101321428Y-24614285D01*
X101392857Y-24471428D01*
X101464285Y-24400000D01*
X101607142Y-24328571D01*
X103892857Y-25828571D02*
X103892857Y-24828571D01*
X103892857Y-24971428D02*
X103964285Y-24900000D01*
X104107142Y-24828571D01*
X104321428Y-24828571D01*
X104464285Y-24900000D01*
X104535714Y-25042857D01*
X104535714Y-25828571D01*
X104535714Y-25042857D02*
X104607142Y-24900000D01*
X104750000Y-24828571D01*
X104964285Y-24828571D01*
X105107142Y-24900000D01*
X105178571Y-25042857D01*
X105178571Y-25828571D01*
X105892857Y-25828571D02*
X105892857Y-24828571D01*
X105892857Y-24971428D02*
X105964285Y-24900000D01*
X106107142Y-24828571D01*
X106321428Y-24828571D01*
X106464285Y-24900000D01*
X106535714Y-25042857D01*
X106535714Y-25828571D01*
X106535714Y-25042857D02*
X106607142Y-24900000D01*
X106750000Y-24828571D01*
X106964285Y-24828571D01*
X107107142Y-24900000D01*
X107178571Y-25042857D01*
X107178571Y-25828571D01*
X103500000Y-26500000D02*
X100000000Y-26500000D01*
X103500000Y-38500000D02*
X103500000Y-23800000D01*
X100000000Y-38500000D02*
X100000000Y-23800000D01*
X100000000Y-26500000D02*
X101126504Y-25913579D01*
X100000000Y-26500000D02*
X101126504Y-27086421D01*
X103500000Y-26500000D02*
X102373496Y-25913579D01*
X103500000Y-26500000D02*
X102373496Y-27086421D01*
X93828571Y-42321428D02*
X93828571Y-41392857D01*
X94400000Y-41892857D01*
X94400000Y-41678571D01*
X94471428Y-41535714D01*
X94542857Y-41464285D01*
X94685714Y-41392857D01*
X95042857Y-41392857D01*
X95185714Y-41464285D01*
X95257142Y-41535714D01*
X95328571Y-41678571D01*
X95328571Y-42107142D01*
X95257142Y-42250000D01*
X95185714Y-42321428D01*
X95185714Y-40750000D02*
X95257142Y-40678571D01*
X95328571Y-40750000D01*
X95257142Y-40821428D01*
X95185714Y-40750000D01*
X95328571Y-40750000D01*
X93828571Y-39321428D02*
X93828571Y-40035714D01*
X94542857Y-40107142D01*
X94471428Y-40035714D01*
X94400000Y-39892857D01*
X94400000Y-39535714D01*
X94471428Y-39392857D01*
X94542857Y-39321428D01*
X94685714Y-39250000D01*
X95042857Y-39250000D01*
X95185714Y-39321428D01*
X95257142Y-39392857D01*
X95328571Y-39535714D01*
X95328571Y-39892857D01*
X95257142Y-40035714D01*
X95185714Y-40107142D01*
X93828571Y-38321428D02*
X93828571Y-38178571D01*
X93900000Y-38035714D01*
X93971428Y-37964285D01*
X94114285Y-37892857D01*
X94400000Y-37821428D01*
X94757142Y-37821428D01*
X95042857Y-37892857D01*
X95185714Y-37964285D01*
X95257142Y-38035714D01*
X95328571Y-38178571D01*
X95328571Y-38321428D01*
X95257142Y-38464285D01*
X95185714Y-38535714D01*
X95042857Y-38607142D01*
X94757142Y-38678571D01*
X94400000Y-38678571D01*
X94114285Y-38607142D01*
X93971428Y-38535714D01*
X93900000Y-38464285D01*
X93828571Y-38321428D01*
X93828571Y-36892857D02*
X93828571Y-36750000D01*
X93900000Y-36607142D01*
X93971428Y-36535714D01*
X94114285Y-36464285D01*
X94400000Y-36392857D01*
X94757142Y-36392857D01*
X95042857Y-36464285D01*
X95185714Y-36535714D01*
X95257142Y-36607142D01*
X95328571Y-36750000D01*
X95328571Y-36892857D01*
X95257142Y-37035714D01*
X95185714Y-37107142D01*
X95042857Y-37178571D01*
X94757142Y-37250000D01*
X94400000Y-37250000D01*
X94114285Y-37178571D01*
X93971428Y-37107142D01*
X93900000Y-37035714D01*
X93828571Y-36892857D01*
X95328571Y-34607142D02*
X94328571Y-34607142D01*
X94471428Y-34607142D02*
X94400000Y-34535714D01*
X94328571Y-34392857D01*
X94328571Y-34178571D01*
X94400000Y-34035714D01*
X94542857Y-33964285D01*
X95328571Y-33964285D01*
X94542857Y-33964285D02*
X94400000Y-33892857D01*
X94328571Y-33750000D01*
X94328571Y-33535714D01*
X94400000Y-33392857D01*
X94542857Y-33321428D01*
X95328571Y-33321428D01*
X95328571Y-32607142D02*
X94328571Y-32607142D01*
X94471428Y-32607142D02*
X94400000Y-32535714D01*
X94328571Y-32392857D01*
X94328571Y-32178571D01*
X94400000Y-32035714D01*
X94542857Y-31964285D01*
X95328571Y-31964285D01*
X94542857Y-31964285D02*
X94400000Y-31892857D01*
X94328571Y-31750000D01*
X94328571Y-31535714D01*
X94400000Y-31392857D01*
X94542857Y-31321428D01*
X95328571Y-31321428D01*
X96000000Y-38500000D02*
X96000000Y-35000000D01*
X103500000Y-38500000D02*
X93300000Y-38500000D01*
X103500000Y-35000000D02*
X93300000Y-35000000D01*
X96000000Y-35000000D02*
X96586421Y-36126504D01*
X96000000Y-35000000D02*
X95413579Y-36126504D01*
X96000000Y-38500000D02*
X96586421Y-37373496D01*
X96000000Y-38500000D02*
X95413579Y-37373496D01*
X143928571Y-29328571D02*
X143071428Y-29328571D01*
X143500000Y-29328571D02*
X143500000Y-27828571D01*
X143357142Y-28042857D01*
X143214285Y-28185714D01*
X143071428Y-28257142D01*
X144857142Y-27828571D02*
X145000000Y-27828571D01*
X145142857Y-27900000D01*
X145214285Y-27971428D01*
X145285714Y-28114285D01*
X145357142Y-28400000D01*
X145357142Y-28757142D01*
X145285714Y-29042857D01*
X145214285Y-29185714D01*
X145142857Y-29257142D01*
X145000000Y-29328571D01*
X144857142Y-29328571D01*
X144714285Y-29257142D01*
X144642857Y-29185714D01*
X144571428Y-29042857D01*
X144500000Y-28757142D01*
X144500000Y-28400000D01*
X144571428Y-28114285D01*
X144642857Y-27971428D01*
X144714285Y-27900000D01*
X144857142Y-27828571D01*
X146285714Y-27828571D02*
X146428571Y-27828571D01*
X146571428Y-27900000D01*
X146642857Y-27971428D01*
X146714285Y-28114285D01*
X146785714Y-28400000D01*
X146785714Y-28757142D01*
X146714285Y-29042857D01*
X146642857Y-29185714D01*
X146571428Y-29257142D01*
X146428571Y-29328571D01*
X146285714Y-29328571D01*
X146142857Y-29257142D01*
X146071428Y-29185714D01*
X146000000Y-29042857D01*
X145928571Y-28757142D01*
X145928571Y-28400000D01*
X146000000Y-28114285D01*
X146071428Y-27971428D01*
X146142857Y-27900000D01*
X146285714Y-27828571D01*
X147428571Y-29185714D02*
X147500000Y-29257142D01*
X147428571Y-29328571D01*
X147357142Y-29257142D01*
X147428571Y-29185714D01*
X147428571Y-29328571D01*
X148428571Y-27828571D02*
X148571428Y-27828571D01*
X148714285Y-27900000D01*
X148785714Y-27971428D01*
X148857142Y-28114285D01*
X148928571Y-28400000D01*
X148928571Y-28757142D01*
X148857142Y-29042857D01*
X148785714Y-29185714D01*
X148714285Y-29257142D01*
X148571428Y-29328571D01*
X148428571Y-29328571D01*
X148285714Y-29257142D01*
X148214285Y-29185714D01*
X148142857Y-29042857D01*
X148071428Y-28757142D01*
X148071428Y-28400000D01*
X148142857Y-28114285D01*
X148214285Y-27971428D01*
X148285714Y-27900000D01*
X148428571Y-27828571D01*
X149857142Y-27828571D02*
X150000000Y-27828571D01*
X150142857Y-27900000D01*
X150214285Y-27971428D01*
X150285714Y-28114285D01*
X150357142Y-28400000D01*
X150357142Y-28757142D01*
X150285714Y-29042857D01*
X150214285Y-29185714D01*
X150142857Y-29257142D01*
X150000000Y-29328571D01*
X149857142Y-29328571D01*
X149714285Y-29257142D01*
X149642857Y-29185714D01*
X149571428Y-29042857D01*
X149500000Y-28757142D01*
X149500000Y-28400000D01*
X149571428Y-28114285D01*
X149642857Y-27971428D01*
X149714285Y-27900000D01*
X149857142Y-27828571D01*
X151285714Y-27828571D02*
X151428571Y-27828571D01*
X151571428Y-27900000D01*
X151642857Y-27971428D01*
X151714285Y-28114285D01*
X151785714Y-28400000D01*
X151785714Y-28757142D01*
X151714285Y-29042857D01*
X151642857Y-29185714D01*
X151571428Y-29257142D01*
X151428571Y-29328571D01*
X151285714Y-29328571D01*
X151142857Y-29257142D01*
X151071428Y-29185714D01*
X151000000Y-29042857D01*
X150928571Y-28757142D01*
X150928571Y-28400000D01*
X151000000Y-28114285D01*
X151071428Y-27971428D01*
X151142857Y-27900000D01*
X151285714Y-27828571D01*
X153571428Y-29328571D02*
X153571428Y-28328571D01*
X153571428Y-28471428D02*
X153642857Y-28400000D01*
X153785714Y-28328571D01*
X154000000Y-28328571D01*
X154142857Y-28400000D01*
X154214285Y-28542857D01*
X154214285Y-29328571D01*
X154214285Y-28542857D02*
X154285714Y-28400000D01*
X154428571Y-28328571D01*
X154642857Y-28328571D01*
X154785714Y-28400000D01*
X154857142Y-28542857D01*
X154857142Y-29328571D01*
X155571428Y-29328571D02*
X155571428Y-28328571D01*
X155571428Y-28471428D02*
X155642857Y-28400000D01*
X155785714Y-28328571D01*
X156000000Y-28328571D01*
X156142857Y-28400000D01*
X156214285Y-28542857D01*
X156214285Y-29328571D01*
X156214285Y-28542857D02*
X156285714Y-28400000D01*
X156428571Y-28328571D01*
X156642857Y-28328571D01*
X156785714Y-28400000D01*
X156857142Y-28542857D01*
X156857142Y-29328571D01*
X100000000Y-30000000D02*
X200000000Y-30000000D01*
X100000000Y-38000000D02*
X100000000Y-27300000D01*
X200000000Y-38000000D02*
X200000000Y-27300000D01*
X200000000Y-30000000D02*
X198873496Y-30586421D01*
X200000000Y-30000000D02*
X198873496Y-29413579D01*
X100000000Y-30000000D02*
X101126504Y-30586421D01*
X100000000Y-30000000D02*
X101126504Y-29413579D01*
X87828571Y-73000000D02*
X87828571Y-73285714D01*
X87900000Y-73428571D01*
X87971428Y-73500000D01*
X88185714Y-73642857D01*
X88471428Y-73714285D01*
X89042857Y-73714285D01*
X89185714Y-73642857D01*
X89257142Y-73571428D01*
X89328571Y-73428571D01*
X89328571Y-73142857D01*
X89257142Y-73000000D01*
X89185714Y-72928571D01*
X89042857Y-72857142D01*
X88685714Y-72857142D01*
X88542857Y-72928571D01*
X88471428Y-73000000D01*
X88400000Y-73142857D01*
X88400000Y-73428571D01*
X88471428Y-73571428D01*
X88542857Y-73642857D01*
X88685714Y-73714285D01*
X87828571Y-71500000D02*
X87828571Y-72214285D01*
X88542857Y-72285714D01*
X88471428Y-72214285D01*
X88400000Y-72071428D01*
X88400000Y-71714285D01*
X88471428Y-71571428D01*
X88542857Y-71500000D01*
X88685714Y-71428571D01*
X89042857Y-71428571D01*
X89185714Y-71500000D01*
X89257142Y-71571428D01*
X89328571Y-71714285D01*
X89328571Y-72071428D01*
X89257142Y-72214285D01*
X89185714Y-72285714D01*
X89185714Y-70785714D02*
X89257142Y-70714285D01*
X89328571Y-70785714D01*
X89257142Y-70857142D01*
X89185714Y-70785714D01*
X89328571Y-70785714D01*
X87828571Y-69785714D02*
X87828571Y-69642857D01*
X87900000Y-69500000D01*
X87971428Y-69428571D01*
X88114285Y-69357142D01*
X88400000Y-69285714D01*
X88757142Y-69285714D01*
X89042857Y-69357142D01*
X89185714Y-69428571D01*
X89257142Y-69500000D01*
X89328571Y-69642857D01*
X89328571Y-69785714D01*
X89257142Y-69928571D01*
X89185714Y-70000000D01*
X89042857Y-70071428D01*
X88757142Y-70142857D01*
X88400000Y-70142857D01*
X88114285Y-70071428D01*
X87971428Y-70000000D01*
X87900000Y-69928571D01*
X87828571Y-69785714D01*
X87828571Y-68357142D02*
X87828571Y-68214285D01*
X87900000Y-68071428D01*
X87971428Y-68000000D01*
X88114285Y-67928571D01*
X88400000Y-67857142D01*
X88757142Y-67857142D01*
X89042857Y-67928571D01*
X89185714Y-68000000D01*
X89257142Y-68071428D01*
X89328571Y-68214285D01*
X89328571Y-68357142D01*
X89257142Y-68500000D01*
X89185714Y-68571428D01*
X89042857Y-68642857D01*
X88757142Y-68714285D01*
X88400000Y-68714285D01*
X88114285Y-68642857D01*
X87971428Y-68571428D01*
X87900000Y-68500000D01*
X87828571Y-68357142D01*
X87828571Y-66928571D02*
X87828571Y-66785714D01*
X87900000Y-66642857D01*
X87971428Y-66571428D01*
X88114285Y-66500000D01*
X88400000Y-66428571D01*
X88757142Y-66428571D01*
X89042857Y-66500000D01*
X89185714Y-66571428D01*
X89257142Y-66642857D01*
X89328571Y-66785714D01*
X89328571Y-66928571D01*
X89257142Y-67071428D01*
X89185714Y-67142857D01*
X89042857Y-67214285D01*
X88757142Y-67285714D01*
X88400000Y-67285714D01*
X88114285Y-67214285D01*
X87971428Y-67142857D01*
X87900000Y-67071428D01*
X87828571Y-66928571D01*
X89328571Y-64642857D02*
X88328571Y-64642857D01*
X88471428Y-64642857D02*
X88400000Y-64571428D01*
X88328571Y-64428571D01*
X88328571Y-64214285D01*
X88400000Y-64071428D01*
X88542857Y-64000000D01*
X89328571Y-64000000D01*
X88542857Y-64000000D02*
X88400000Y-63928571D01*
X88328571Y-63785714D01*
X88328571Y-63571428D01*
X88400000Y-63428571D01*
X88542857Y-63357142D01*
X89328571Y-63357142D01*
X89328571Y-62642857D02*
X88328571Y-62642857D01*
X88471428Y-62642857D02*
X88400000Y-62571428D01*
X88328571Y-62428571D01*
X88328571Y-62214285D01*
X88400000Y-62071428D01*
X88542857Y-62000000D01*
X89328571Y-62000000D01*
X88542857Y-62000000D02*
X88400000Y-61928571D01*
X88328571Y-61785714D01*
X88328571Y-61571428D01*
X88400000Y-61428571D01*
X88542857Y-61357142D01*
X89328571Y-61357142D01*
X90000000Y-100000000D02*
X90000000Y-35000000D01*
X103000000Y-100000000D02*
X87300000Y-100000000D01*
X103000000Y-35000000D02*
X87300000Y-35000000D01*
X90000000Y-35000000D02*
X90586421Y-36126504D01*
X90000000Y-35000000D02*
X89413579Y-36126504D01*
X90000000Y-100000000D02*
X90586421Y-98873496D01*
X90000000Y-100000000D02*
X89413579Y-98873496D01*
M02*
