G04 #@! TF.GenerationSoftware,KiCad,Pcbnew,(6.0.0-rc1-dev-450-gc170e8930)*
G04 #@! TF.CreationDate,2018-10-08T16:18:35+02:00*
G04 #@! TF.ProjectId,Astroplant_VFR,417374726F706C616E745F5646522E6B,0.5*
G04 #@! TF.SameCoordinates,Original*
G04 #@! TF.FileFunction,Legend,Bot*
G04 #@! TF.FilePolarity,Positive*
%FSLAX46Y46*%
G04 Gerber Fmt 4.6, Leading zero omitted, Abs format (unit mm)*
G04 Created by KiCad (PCBNEW (6.0.0-rc1-dev-450-gc170e8930)) date Mon Oct  8 16:18:35 2018*
%MOMM*%
%LPD*%
G01*
G04 APERTURE LIST*
%ADD10C,0.010000*%
G04 APERTURE END LIST*
D10*
G04 #@! TO.C,G\002A\002A\002A*
G36*
X145565500Y-56862095D02*
X146162238Y-56836279D01*
X146618465Y-56795722D01*
X146962861Y-56732604D01*
X147224108Y-56639101D01*
X147430885Y-56507393D01*
X147611874Y-56329659D01*
X147640532Y-56296216D01*
X147791674Y-56085796D01*
X147900981Y-55847940D01*
X147974497Y-55552134D01*
X148018267Y-55167863D01*
X148038334Y-54664614D01*
X148041527Y-54271659D01*
X148031613Y-53635133D01*
X147997384Y-53139875D01*
X147933013Y-52758829D01*
X147832671Y-52464940D01*
X147690530Y-52231154D01*
X147573511Y-52099155D01*
X147362112Y-51925553D01*
X147107142Y-51798172D01*
X146781376Y-51711082D01*
X146357588Y-51658356D01*
X145808554Y-51634064D01*
X145422174Y-51630666D01*
X144316666Y-51630666D01*
X144316666Y-56900955D01*
X145565500Y-56862095D01*
X145565500Y-56862095D01*
G37*
X145565500Y-56862095D02*
X146162238Y-56836279D01*
X146618465Y-56795722D01*
X146962861Y-56732604D01*
X147224108Y-56639101D01*
X147430885Y-56507393D01*
X147611874Y-56329659D01*
X147640532Y-56296216D01*
X147791674Y-56085796D01*
X147900981Y-55847940D01*
X147974497Y-55552134D01*
X148018267Y-55167863D01*
X148038334Y-54664614D01*
X148041527Y-54271659D01*
X148031613Y-53635133D01*
X147997384Y-53139875D01*
X147933013Y-52758829D01*
X147832671Y-52464940D01*
X147690530Y-52231154D01*
X147573511Y-52099155D01*
X147362112Y-51925553D01*
X147107142Y-51798172D01*
X146781376Y-51711082D01*
X146357588Y-51658356D01*
X145808554Y-51634064D01*
X145422174Y-51630666D01*
X144316666Y-51630666D01*
X144316666Y-56900955D01*
X145565500Y-56862095D01*
G36*
X130583579Y-56865362D02*
X131086331Y-56848504D01*
X131455146Y-56827534D01*
X131725416Y-56797297D01*
X131932534Y-56752636D01*
X132111894Y-56688397D01*
X132253947Y-56622051D01*
X132550831Y-56441548D01*
X132756057Y-56217123D01*
X132884868Y-55993260D01*
X132967726Y-55819277D01*
X133025878Y-55655660D01*
X133063668Y-55467919D01*
X133085437Y-55221565D01*
X133095527Y-54882105D01*
X133098280Y-54415051D01*
X133098333Y-54297666D01*
X133096598Y-53799869D01*
X133088499Y-53437057D01*
X133069691Y-53174897D01*
X133035834Y-52979053D01*
X132982582Y-52815190D01*
X132905595Y-52648973D01*
X132884589Y-52607801D01*
X132662829Y-52271737D01*
X132378137Y-52040181D01*
X132299772Y-51996228D01*
X132143866Y-51920424D01*
X131988108Y-51867033D01*
X131799488Y-51832175D01*
X131544997Y-51811974D01*
X131191625Y-51802550D01*
X130706363Y-51800024D01*
X130629683Y-51800000D01*
X129330666Y-51800000D01*
X129330666Y-56900955D01*
X130583579Y-56865362D01*
X130583579Y-56865362D01*
G37*
X130583579Y-56865362D02*
X131086331Y-56848504D01*
X131455146Y-56827534D01*
X131725416Y-56797297D01*
X131932534Y-56752636D01*
X132111894Y-56688397D01*
X132253947Y-56622051D01*
X132550831Y-56441548D01*
X132756057Y-56217123D01*
X132884868Y-55993260D01*
X132967726Y-55819277D01*
X133025878Y-55655660D01*
X133063668Y-55467919D01*
X133085437Y-55221565D01*
X133095527Y-54882105D01*
X133098280Y-54415051D01*
X133098333Y-54297666D01*
X133096598Y-53799869D01*
X133088499Y-53437057D01*
X133069691Y-53174897D01*
X133035834Y-52979053D01*
X132982582Y-52815190D01*
X132905595Y-52648973D01*
X132884589Y-52607801D01*
X132662829Y-52271737D01*
X132378137Y-52040181D01*
X132299772Y-51996228D01*
X132143866Y-51920424D01*
X131988108Y-51867033D01*
X131799488Y-51832175D01*
X131544997Y-51811974D01*
X131191625Y-51802550D01*
X130706363Y-51800024D01*
X130629683Y-51800000D01*
X129330666Y-51800000D01*
X129330666Y-56900955D01*
X130583579Y-56865362D01*
G36*
X139321003Y-56902695D02*
X139801373Y-56719677D01*
X140166808Y-56418986D01*
X140353377Y-56134146D01*
X140549000Y-55737000D01*
X140549000Y-47863000D01*
X140353377Y-47465854D01*
X140074809Y-47080743D01*
X139677296Y-46815498D01*
X139160361Y-46669881D01*
X138690876Y-46639049D01*
X138329713Y-46658647D01*
X137983538Y-46706003D01*
X137755000Y-46762503D01*
X137354388Y-46989063D01*
X137042639Y-47334905D01*
X136871697Y-47710320D01*
X136849277Y-47877769D01*
X136830006Y-48192783D01*
X136813876Y-48633624D01*
X136800876Y-49178552D01*
X136790998Y-49805829D01*
X136784233Y-50493717D01*
X136780570Y-51220476D01*
X136780002Y-51964368D01*
X136782517Y-52703655D01*
X136788108Y-53416597D01*
X136796765Y-54081456D01*
X136808478Y-54676494D01*
X136823239Y-55179970D01*
X136841038Y-55570148D01*
X136861865Y-55825287D01*
X136875199Y-55902360D01*
X137060231Y-56284094D01*
X137363967Y-56611675D01*
X137735813Y-56834511D01*
X137843639Y-56870801D01*
X138112995Y-56921076D01*
X138463562Y-56955011D01*
X138733209Y-56964194D01*
X139321003Y-56902695D01*
X139321003Y-56902695D01*
G37*
X139321003Y-56902695D02*
X139801373Y-56719677D01*
X140166808Y-56418986D01*
X140353377Y-56134146D01*
X140549000Y-55737000D01*
X140549000Y-47863000D01*
X140353377Y-47465854D01*
X140074809Y-47080743D01*
X139677296Y-46815498D01*
X139160361Y-46669881D01*
X138690876Y-46639049D01*
X138329713Y-46658647D01*
X137983538Y-46706003D01*
X137755000Y-46762503D01*
X137354388Y-46989063D01*
X137042639Y-47334905D01*
X136871697Y-47710320D01*
X136849277Y-47877769D01*
X136830006Y-48192783D01*
X136813876Y-48633624D01*
X136800876Y-49178552D01*
X136790998Y-49805829D01*
X136784233Y-50493717D01*
X136780570Y-51220476D01*
X136780002Y-51964368D01*
X136782517Y-52703655D01*
X136788108Y-53416597D01*
X136796765Y-54081456D01*
X136808478Y-54676494D01*
X136823239Y-55179970D01*
X136841038Y-55570148D01*
X136861865Y-55825287D01*
X136875199Y-55902360D01*
X137060231Y-56284094D01*
X137363967Y-56611675D01*
X137735813Y-56834511D01*
X137843639Y-56870801D01*
X138112995Y-56921076D01*
X138463562Y-56955011D01*
X138733209Y-56964194D01*
X139321003Y-56902695D01*
G36*
X161795211Y-57636031D02*
X163463383Y-57635207D01*
X165071037Y-57633867D01*
X166610546Y-57632033D01*
X168074279Y-57629729D01*
X169454607Y-57626979D01*
X170743900Y-57623805D01*
X171934531Y-57620233D01*
X173018869Y-57616284D01*
X173989286Y-57611983D01*
X174838151Y-57607353D01*
X175557836Y-57602418D01*
X176140711Y-57597200D01*
X176579148Y-57591724D01*
X176865517Y-57586013D01*
X176992189Y-57580090D01*
X176998025Y-57578500D01*
X176916829Y-57562529D01*
X176687085Y-57548030D01*
X176329571Y-57535528D01*
X175865071Y-57525547D01*
X175314364Y-57518609D01*
X174698233Y-57515240D01*
X174479191Y-57515000D01*
X171960333Y-57515000D01*
X171960333Y-56922333D01*
X173039207Y-56898642D01*
X174118081Y-56874950D01*
X174139874Y-51479975D01*
X174161666Y-46085000D01*
X174754333Y-46085000D01*
X174776126Y-51482500D01*
X174797920Y-56880000D01*
X176998000Y-56880000D01*
X176998000Y-45958000D01*
X158307833Y-45963966D01*
X156192667Y-45964741D01*
X154240651Y-45965690D01*
X152445601Y-45966857D01*
X150801335Y-45968285D01*
X149301668Y-45970016D01*
X147940416Y-45972093D01*
X146711398Y-45974559D01*
X145608428Y-45977457D01*
X144625324Y-45980830D01*
X143755902Y-45984720D01*
X142993979Y-45989171D01*
X142333371Y-45994225D01*
X141767895Y-45999925D01*
X141291368Y-46006314D01*
X140897605Y-46013435D01*
X140580424Y-46021330D01*
X140333640Y-46030043D01*
X140151072Y-46039617D01*
X140026534Y-46050094D01*
X139953844Y-46061517D01*
X139926818Y-46073928D01*
X139939273Y-46087372D01*
X139948651Y-46091202D01*
X140461775Y-46358691D01*
X140856745Y-46745809D01*
X141088395Y-47134277D01*
X141311000Y-47609000D01*
X141311000Y-49156860D01*
X143569541Y-49156860D01*
X143570220Y-48383274D01*
X143572084Y-47701279D01*
X143575086Y-47125127D01*
X143579181Y-46669068D01*
X143584323Y-46347352D01*
X143590465Y-46174229D01*
X143593580Y-46148500D01*
X143701849Y-46069418D01*
X143894909Y-46045797D01*
X144097379Y-46078150D01*
X144215066Y-46144266D01*
X144247789Y-46229989D01*
X144273520Y-46422525D01*
X144292765Y-46734090D01*
X144306029Y-47176899D01*
X144313818Y-47763169D01*
X144316638Y-48505115D01*
X144316666Y-48599600D01*
X144316666Y-49156598D01*
X150850947Y-49156598D01*
X150851678Y-48382862D01*
X150853607Y-47700693D01*
X150856684Y-47124349D01*
X150860862Y-46668084D01*
X150866095Y-46346153D01*
X150872334Y-46172812D01*
X150875493Y-46146990D01*
X150925786Y-46112183D01*
X151057438Y-46086376D01*
X151286920Y-46068902D01*
X151630704Y-46059097D01*
X152105260Y-46056295D01*
X152727059Y-46059831D01*
X152971755Y-46062323D01*
X155027000Y-46085000D01*
X155027000Y-46168398D01*
X156709104Y-46168398D01*
X156822067Y-46077115D01*
X157017247Y-46045114D01*
X157217343Y-46074865D01*
X157331992Y-46148500D01*
X157365257Y-46248424D01*
X157431968Y-46498618D01*
X157528553Y-46884113D01*
X157651440Y-47389941D01*
X157797058Y-48001134D01*
X157961834Y-48702723D01*
X158142199Y-49479741D01*
X158334580Y-50317218D01*
X158498665Y-51038000D01*
X158697525Y-51912175D01*
X158886405Y-52736901D01*
X159061835Y-53497391D01*
X159220342Y-54178861D01*
X159358456Y-54766526D01*
X159472705Y-55245599D01*
X159559618Y-55601296D01*
X159615723Y-55818832D01*
X159636398Y-55883859D01*
X159664204Y-55815181D01*
X159725573Y-55595519D01*
X159817064Y-55239130D01*
X159935240Y-54760272D01*
X160076661Y-54173203D01*
X160237888Y-53492179D01*
X160415482Y-52731458D01*
X160606005Y-51905298D01*
X160780027Y-51142525D01*
X160980289Y-50263370D01*
X161171160Y-49431151D01*
X161349090Y-48660972D01*
X161510528Y-47967936D01*
X161651923Y-47367147D01*
X161769723Y-46873708D01*
X161860378Y-46502723D01*
X161920336Y-46269294D01*
X161944247Y-46190833D01*
X162072138Y-46086647D01*
X162275435Y-46041986D01*
X162482228Y-46059369D01*
X162620609Y-46141317D01*
X162634129Y-46166656D01*
X162623087Y-46267500D01*
X162576190Y-46516441D01*
X162497288Y-46896964D01*
X162390234Y-47392554D01*
X162258880Y-47986695D01*
X162107077Y-48662873D01*
X161995132Y-49155924D01*
X164651800Y-49155924D01*
X164652667Y-48381798D01*
X164654762Y-47699180D01*
X164658031Y-47122338D01*
X164662426Y-46665541D01*
X164667893Y-46343058D01*
X164674383Y-46169155D01*
X164677655Y-46143092D01*
X164791477Y-46066603D01*
X164995917Y-46058425D01*
X165271666Y-46085000D01*
X165314000Y-50876393D01*
X165356333Y-55667787D01*
X167294486Y-50961060D01*
X167643773Y-50114459D01*
X167975678Y-49313131D01*
X168284335Y-48571033D01*
X168563876Y-47902123D01*
X168808434Y-47320358D01*
X169012144Y-46839695D01*
X169169137Y-46474091D01*
X169273548Y-46237503D01*
X169319239Y-46144219D01*
X169463684Y-46073082D01*
X169700834Y-46058871D01*
X169709419Y-46059552D01*
X170013000Y-46085000D01*
X170013000Y-57515000D01*
X169751788Y-57540490D01*
X169528595Y-57522451D01*
X169392684Y-57448027D01*
X169369170Y-57365520D01*
X169348600Y-57173081D01*
X169330774Y-56862771D01*
X169315490Y-56426652D01*
X169302548Y-55856783D01*
X169291747Y-55145225D01*
X169282886Y-54284039D01*
X169275763Y-53265286D01*
X169272895Y-52716555D01*
X169251000Y-48103037D01*
X167349025Y-52750207D01*
X167003776Y-53591024D01*
X166675277Y-54385756D01*
X166369453Y-55120419D01*
X166092229Y-55781030D01*
X165849528Y-56353605D01*
X165647277Y-56824161D01*
X165491398Y-57178715D01*
X165387818Y-57403282D01*
X165343723Y-57483132D01*
X165192687Y-57535096D01*
X164969504Y-57542827D01*
X164959697Y-57541943D01*
X164679000Y-57515000D01*
X164657070Y-51884666D01*
X164653950Y-50921626D01*
X164652211Y-50007289D01*
X164651800Y-49155924D01*
X161995132Y-49155924D01*
X161938676Y-49404573D01*
X161757530Y-50195280D01*
X161567490Y-51018478D01*
X161372407Y-51857653D01*
X161176135Y-52696289D01*
X160982523Y-53517872D01*
X160795424Y-54305886D01*
X160618689Y-55043817D01*
X160456170Y-55715149D01*
X160311720Y-56303367D01*
X160189188Y-56791957D01*
X160092428Y-57164402D01*
X160025291Y-57404189D01*
X159992283Y-57494250D01*
X159865944Y-57536075D01*
X159647360Y-57545445D01*
X159590441Y-57541943D01*
X159263235Y-57515000D01*
X157962046Y-51904564D01*
X157743005Y-50955314D01*
X157536936Y-50052943D01*
X157346848Y-49211229D01*
X157175752Y-48443948D01*
X157026655Y-47764878D01*
X156902569Y-47187796D01*
X156806500Y-46726478D01*
X156741460Y-46394703D01*
X156710458Y-46206246D01*
X156709104Y-46168398D01*
X155027000Y-46168398D01*
X155027000Y-46677666D01*
X151598000Y-46723506D01*
X151596703Y-52034586D01*
X151595369Y-52969545D01*
X151591963Y-53855572D01*
X151586683Y-54677948D01*
X151579724Y-55421957D01*
X151571283Y-56072881D01*
X151561556Y-56616003D01*
X151550741Y-57036605D01*
X151539032Y-57319971D01*
X151526627Y-57451383D01*
X151524324Y-57457781D01*
X151387484Y-57533045D01*
X151165788Y-57542447D01*
X150878333Y-57515000D01*
X150856404Y-51884666D01*
X150853262Y-50921756D01*
X150851459Y-50007648D01*
X150850947Y-49156598D01*
X144316666Y-49156598D01*
X144316666Y-50953333D01*
X145613632Y-50953333D01*
X146278038Y-50962099D01*
X146801979Y-50993017D01*
X147213639Y-51053015D01*
X147541200Y-51149022D01*
X147812846Y-51287967D01*
X148056759Y-51476779D01*
X148165936Y-51580814D01*
X148352245Y-51778925D01*
X148495319Y-51970790D01*
X148600797Y-52182124D01*
X148674318Y-52438643D01*
X148721519Y-52766062D01*
X148748041Y-53190097D01*
X148759521Y-53736464D01*
X148761666Y-54297666D01*
X148761132Y-54873623D01*
X148757495Y-55307922D01*
X148747700Y-55628237D01*
X148728694Y-55862245D01*
X148697424Y-56037619D01*
X148650837Y-56182036D01*
X148585878Y-56323170D01*
X148525339Y-56439580D01*
X148195667Y-56888551D01*
X147744413Y-57227686D01*
X147187976Y-57445311D01*
X147076890Y-57470890D01*
X146841705Y-57500312D01*
X146473969Y-57522683D01*
X146010366Y-57536742D01*
X145487579Y-57541229D01*
X145118962Y-57538198D01*
X143597000Y-57515000D01*
X143575070Y-51884666D01*
X143571920Y-50921806D01*
X143570092Y-50007787D01*
X143569541Y-49156860D01*
X141311000Y-49156860D01*
X141311000Y-55991000D01*
X141088395Y-56465723D01*
X140777539Y-56952327D01*
X140356901Y-57311639D01*
X139948651Y-57508798D01*
X139926553Y-57522528D01*
X139942258Y-57535216D01*
X140001950Y-57546903D01*
X140111813Y-57557632D01*
X140278029Y-57567446D01*
X140506782Y-57576388D01*
X140804256Y-57584501D01*
X141176634Y-57591828D01*
X141630100Y-57598412D01*
X142170836Y-57604294D01*
X142805027Y-57609519D01*
X143538856Y-57614129D01*
X144378507Y-57618167D01*
X145330162Y-57621676D01*
X146400006Y-57624699D01*
X147594221Y-57627278D01*
X148918992Y-57629456D01*
X150380501Y-57631277D01*
X151984932Y-57632782D01*
X153738469Y-57634016D01*
X155647295Y-57635021D01*
X157717594Y-57635839D01*
X158307833Y-57636034D01*
X160074151Y-57636315D01*
X161795211Y-57636031D01*
X161795211Y-57636031D01*
G37*
X161795211Y-57636031D02*
X163463383Y-57635207D01*
X165071037Y-57633867D01*
X166610546Y-57632033D01*
X168074279Y-57629729D01*
X169454607Y-57626979D01*
X170743900Y-57623805D01*
X171934531Y-57620233D01*
X173018869Y-57616284D01*
X173989286Y-57611983D01*
X174838151Y-57607353D01*
X175557836Y-57602418D01*
X176140711Y-57597200D01*
X176579148Y-57591724D01*
X176865517Y-57586013D01*
X176992189Y-57580090D01*
X176998025Y-57578500D01*
X176916829Y-57562529D01*
X176687085Y-57548030D01*
X176329571Y-57535528D01*
X175865071Y-57525547D01*
X175314364Y-57518609D01*
X174698233Y-57515240D01*
X174479191Y-57515000D01*
X171960333Y-57515000D01*
X171960333Y-56922333D01*
X173039207Y-56898642D01*
X174118081Y-56874950D01*
X174139874Y-51479975D01*
X174161666Y-46085000D01*
X174754333Y-46085000D01*
X174776126Y-51482500D01*
X174797920Y-56880000D01*
X176998000Y-56880000D01*
X176998000Y-45958000D01*
X158307833Y-45963966D01*
X156192667Y-45964741D01*
X154240651Y-45965690D01*
X152445601Y-45966857D01*
X150801335Y-45968285D01*
X149301668Y-45970016D01*
X147940416Y-45972093D01*
X146711398Y-45974559D01*
X145608428Y-45977457D01*
X144625324Y-45980830D01*
X143755902Y-45984720D01*
X142993979Y-45989171D01*
X142333371Y-45994225D01*
X141767895Y-45999925D01*
X141291368Y-46006314D01*
X140897605Y-46013435D01*
X140580424Y-46021330D01*
X140333640Y-46030043D01*
X140151072Y-46039617D01*
X140026534Y-46050094D01*
X139953844Y-46061517D01*
X139926818Y-46073928D01*
X139939273Y-46087372D01*
X139948651Y-46091202D01*
X140461775Y-46358691D01*
X140856745Y-46745809D01*
X141088395Y-47134277D01*
X141311000Y-47609000D01*
X141311000Y-49156860D01*
X143569541Y-49156860D01*
X143570220Y-48383274D01*
X143572084Y-47701279D01*
X143575086Y-47125127D01*
X143579181Y-46669068D01*
X143584323Y-46347352D01*
X143590465Y-46174229D01*
X143593580Y-46148500D01*
X143701849Y-46069418D01*
X143894909Y-46045797D01*
X144097379Y-46078150D01*
X144215066Y-46144266D01*
X144247789Y-46229989D01*
X144273520Y-46422525D01*
X144292765Y-46734090D01*
X144306029Y-47176899D01*
X144313818Y-47763169D01*
X144316638Y-48505115D01*
X144316666Y-48599600D01*
X144316666Y-49156598D01*
X150850947Y-49156598D01*
X150851678Y-48382862D01*
X150853607Y-47700693D01*
X150856684Y-47124349D01*
X150860862Y-46668084D01*
X150866095Y-46346153D01*
X150872334Y-46172812D01*
X150875493Y-46146990D01*
X150925786Y-46112183D01*
X151057438Y-46086376D01*
X151286920Y-46068902D01*
X151630704Y-46059097D01*
X152105260Y-46056295D01*
X152727059Y-46059831D01*
X152971755Y-46062323D01*
X155027000Y-46085000D01*
X155027000Y-46168398D01*
X156709104Y-46168398D01*
X156822067Y-46077115D01*
X157017247Y-46045114D01*
X157217343Y-46074865D01*
X157331992Y-46148500D01*
X157365257Y-46248424D01*
X157431968Y-46498618D01*
X157528553Y-46884113D01*
X157651440Y-47389941D01*
X157797058Y-48001134D01*
X157961834Y-48702723D01*
X158142199Y-49479741D01*
X158334580Y-50317218D01*
X158498665Y-51038000D01*
X158697525Y-51912175D01*
X158886405Y-52736901D01*
X159061835Y-53497391D01*
X159220342Y-54178861D01*
X159358456Y-54766526D01*
X159472705Y-55245599D01*
X159559618Y-55601296D01*
X159615723Y-55818832D01*
X159636398Y-55883859D01*
X159664204Y-55815181D01*
X159725573Y-55595519D01*
X159817064Y-55239130D01*
X159935240Y-54760272D01*
X160076661Y-54173203D01*
X160237888Y-53492179D01*
X160415482Y-52731458D01*
X160606005Y-51905298D01*
X160780027Y-51142525D01*
X160980289Y-50263370D01*
X161171160Y-49431151D01*
X161349090Y-48660972D01*
X161510528Y-47967936D01*
X161651923Y-47367147D01*
X161769723Y-46873708D01*
X161860378Y-46502723D01*
X161920336Y-46269294D01*
X161944247Y-46190833D01*
X162072138Y-46086647D01*
X162275435Y-46041986D01*
X162482228Y-46059369D01*
X162620609Y-46141317D01*
X162634129Y-46166656D01*
X162623087Y-46267500D01*
X162576190Y-46516441D01*
X162497288Y-46896964D01*
X162390234Y-47392554D01*
X162258880Y-47986695D01*
X162107077Y-48662873D01*
X161995132Y-49155924D01*
X164651800Y-49155924D01*
X164652667Y-48381798D01*
X164654762Y-47699180D01*
X164658031Y-47122338D01*
X164662426Y-46665541D01*
X164667893Y-46343058D01*
X164674383Y-46169155D01*
X164677655Y-46143092D01*
X164791477Y-46066603D01*
X164995917Y-46058425D01*
X165271666Y-46085000D01*
X165314000Y-50876393D01*
X165356333Y-55667787D01*
X167294486Y-50961060D01*
X167643773Y-50114459D01*
X167975678Y-49313131D01*
X168284335Y-48571033D01*
X168563876Y-47902123D01*
X168808434Y-47320358D01*
X169012144Y-46839695D01*
X169169137Y-46474091D01*
X169273548Y-46237503D01*
X169319239Y-46144219D01*
X169463684Y-46073082D01*
X169700834Y-46058871D01*
X169709419Y-46059552D01*
X170013000Y-46085000D01*
X170013000Y-57515000D01*
X169751788Y-57540490D01*
X169528595Y-57522451D01*
X169392684Y-57448027D01*
X169369170Y-57365520D01*
X169348600Y-57173081D01*
X169330774Y-56862771D01*
X169315490Y-56426652D01*
X169302548Y-55856783D01*
X169291747Y-55145225D01*
X169282886Y-54284039D01*
X169275763Y-53265286D01*
X169272895Y-52716555D01*
X169251000Y-48103037D01*
X167349025Y-52750207D01*
X167003776Y-53591024D01*
X166675277Y-54385756D01*
X166369453Y-55120419D01*
X166092229Y-55781030D01*
X165849528Y-56353605D01*
X165647277Y-56824161D01*
X165491398Y-57178715D01*
X165387818Y-57403282D01*
X165343723Y-57483132D01*
X165192687Y-57535096D01*
X164969504Y-57542827D01*
X164959697Y-57541943D01*
X164679000Y-57515000D01*
X164657070Y-51884666D01*
X164653950Y-50921626D01*
X164652211Y-50007289D01*
X164651800Y-49155924D01*
X161995132Y-49155924D01*
X161938676Y-49404573D01*
X161757530Y-50195280D01*
X161567490Y-51018478D01*
X161372407Y-51857653D01*
X161176135Y-52696289D01*
X160982523Y-53517872D01*
X160795424Y-54305886D01*
X160618689Y-55043817D01*
X160456170Y-55715149D01*
X160311720Y-56303367D01*
X160189188Y-56791957D01*
X160092428Y-57164402D01*
X160025291Y-57404189D01*
X159992283Y-57494250D01*
X159865944Y-57536075D01*
X159647360Y-57545445D01*
X159590441Y-57541943D01*
X159263235Y-57515000D01*
X157962046Y-51904564D01*
X157743005Y-50955314D01*
X157536936Y-50052943D01*
X157346848Y-49211229D01*
X157175752Y-48443948D01*
X157026655Y-47764878D01*
X156902569Y-47187796D01*
X156806500Y-46726478D01*
X156741460Y-46394703D01*
X156710458Y-46206246D01*
X156709104Y-46168398D01*
X155027000Y-46168398D01*
X155027000Y-46677666D01*
X151598000Y-46723506D01*
X151596703Y-52034586D01*
X151595369Y-52969545D01*
X151591963Y-53855572D01*
X151586683Y-54677948D01*
X151579724Y-55421957D01*
X151571283Y-56072881D01*
X151561556Y-56616003D01*
X151550741Y-57036605D01*
X151539032Y-57319971D01*
X151526627Y-57451383D01*
X151524324Y-57457781D01*
X151387484Y-57533045D01*
X151165788Y-57542447D01*
X150878333Y-57515000D01*
X150856404Y-51884666D01*
X150853262Y-50921756D01*
X150851459Y-50007648D01*
X150850947Y-49156598D01*
X144316666Y-49156598D01*
X144316666Y-50953333D01*
X145613632Y-50953333D01*
X146278038Y-50962099D01*
X146801979Y-50993017D01*
X147213639Y-51053015D01*
X147541200Y-51149022D01*
X147812846Y-51287967D01*
X148056759Y-51476779D01*
X148165936Y-51580814D01*
X148352245Y-51778925D01*
X148495319Y-51970790D01*
X148600797Y-52182124D01*
X148674318Y-52438643D01*
X148721519Y-52766062D01*
X148748041Y-53190097D01*
X148759521Y-53736464D01*
X148761666Y-54297666D01*
X148761132Y-54873623D01*
X148757495Y-55307922D01*
X148747700Y-55628237D01*
X148728694Y-55862245D01*
X148697424Y-56037619D01*
X148650837Y-56182036D01*
X148585878Y-56323170D01*
X148525339Y-56439580D01*
X148195667Y-56888551D01*
X147744413Y-57227686D01*
X147187976Y-57445311D01*
X147076890Y-57470890D01*
X146841705Y-57500312D01*
X146473969Y-57522683D01*
X146010366Y-57536742D01*
X145487579Y-57541229D01*
X145118962Y-57538198D01*
X143597000Y-57515000D01*
X143575070Y-51884666D01*
X143571920Y-50921806D01*
X143570092Y-50007787D01*
X143569541Y-49156860D01*
X141311000Y-49156860D01*
X141311000Y-55991000D01*
X141088395Y-56465723D01*
X140777539Y-56952327D01*
X140356901Y-57311639D01*
X139948651Y-57508798D01*
X139926553Y-57522528D01*
X139942258Y-57535216D01*
X140001950Y-57546903D01*
X140111813Y-57557632D01*
X140278029Y-57567446D01*
X140506782Y-57576388D01*
X140804256Y-57584501D01*
X141176634Y-57591828D01*
X141630100Y-57598412D01*
X142170836Y-57604294D01*
X142805027Y-57609519D01*
X143538856Y-57614129D01*
X144378507Y-57618167D01*
X145330162Y-57621676D01*
X146400006Y-57624699D01*
X147594221Y-57627278D01*
X148918992Y-57629456D01*
X150380501Y-57631277D01*
X151984932Y-57632782D01*
X153738469Y-57634016D01*
X155647295Y-57635021D01*
X157717594Y-57635839D01*
X158307833Y-57636034D01*
X160074151Y-57636315D01*
X161795211Y-57636031D01*
G36*
X129321832Y-57626896D02*
X130531575Y-57625294D01*
X131679609Y-57622711D01*
X132755649Y-57619215D01*
X133749407Y-57614878D01*
X134650599Y-57609768D01*
X135448937Y-57603957D01*
X136134135Y-57597514D01*
X136695908Y-57590508D01*
X137123970Y-57583011D01*
X137408033Y-57575092D01*
X137537812Y-57566822D01*
X137542785Y-57562892D01*
X137000279Y-57316766D01*
X136566697Y-56948270D01*
X136256768Y-56471938D01*
X136149967Y-56188493D01*
X136114936Y-55981417D01*
X136084722Y-55626854D01*
X136059325Y-55146580D01*
X136038744Y-54562374D01*
X136022981Y-53896011D01*
X136012034Y-53169270D01*
X136005904Y-52403927D01*
X136004591Y-51621760D01*
X136008095Y-50844545D01*
X136016416Y-50094061D01*
X136029554Y-49392084D01*
X136047508Y-48760392D01*
X136070280Y-48220762D01*
X136097868Y-47794970D01*
X136130274Y-47504795D01*
X136149967Y-47411507D01*
X136390269Y-46885177D01*
X136761832Y-46459175D01*
X137249925Y-46148038D01*
X137542785Y-46037107D01*
X137487993Y-46028649D01*
X137274175Y-46020453D01*
X136911638Y-46012595D01*
X136410691Y-46005147D01*
X135781640Y-45998186D01*
X135034792Y-45991784D01*
X134180456Y-45986018D01*
X133228937Y-45980960D01*
X132190545Y-45976685D01*
X131075586Y-45973268D01*
X129894367Y-45970783D01*
X128657196Y-45969304D01*
X128103000Y-45968993D01*
X126599075Y-45968677D01*
X125256315Y-45968965D01*
X124066554Y-45969951D01*
X123021624Y-45971732D01*
X122113358Y-45974404D01*
X121333588Y-45978062D01*
X120674148Y-45982802D01*
X120126870Y-45988720D01*
X119683587Y-45995911D01*
X119336131Y-46004473D01*
X119076337Y-46014499D01*
X118896036Y-46026086D01*
X118787061Y-46039331D01*
X118741245Y-46054327D01*
X118750422Y-46071173D01*
X118767731Y-46078475D01*
X119294601Y-46343533D01*
X119691569Y-46714361D01*
X119954395Y-47186597D01*
X120008546Y-47355000D01*
X120041774Y-47561179D01*
X120069777Y-47895903D01*
X120090192Y-48318407D01*
X120100654Y-48787925D01*
X120101527Y-48958102D01*
X120094848Y-49537899D01*
X120063627Y-50009255D01*
X119991811Y-50395279D01*
X119863345Y-50719080D01*
X119662174Y-51003767D01*
X119372244Y-51272449D01*
X118977501Y-51548236D01*
X118461890Y-51854236D01*
X117858333Y-52186997D01*
X117292998Y-52495389D01*
X116857852Y-52738022D01*
X116533272Y-52928076D01*
X116299637Y-53078728D01*
X116137327Y-53203158D01*
X116026720Y-53314545D01*
X115948195Y-53426066D01*
X115909722Y-53495804D01*
X115839663Y-53732593D01*
X115795478Y-54090267D01*
X115776550Y-54522462D01*
X115782262Y-54982813D01*
X115811998Y-55424957D01*
X115865142Y-55802529D01*
X115941077Y-56069166D01*
X115944023Y-56075666D01*
X116195140Y-56475845D01*
X116530412Y-56750616D01*
X116968306Y-56910127D01*
X117527288Y-56964523D01*
X117562000Y-56964666D01*
X118143082Y-56911197D01*
X118597022Y-56749898D01*
X118818877Y-56593105D01*
X118998708Y-56409857D01*
X119129370Y-56212214D01*
X119220048Y-55967883D01*
X119279928Y-55644569D01*
X119318194Y-55209981D01*
X119339310Y-54763333D01*
X119382333Y-53620333D01*
X120059666Y-53620333D01*
X120083530Y-54668887D01*
X120086396Y-55239834D01*
X120063740Y-55678869D01*
X120012980Y-56021853D01*
X119975441Y-56171344D01*
X119737421Y-56703408D01*
X119368763Y-57132972D01*
X118882676Y-57446877D01*
X118704095Y-57515000D01*
X121668333Y-57515000D01*
X121668333Y-56922333D01*
X123827333Y-56874941D01*
X123827333Y-51515248D01*
X123828201Y-50577873D01*
X123830707Y-49690875D01*
X123834699Y-48868703D01*
X123840027Y-48125803D01*
X123846540Y-47476624D01*
X123854087Y-46935612D01*
X123862519Y-46517216D01*
X123871684Y-46235882D01*
X123881432Y-46106058D01*
X123883777Y-46099111D01*
X124029276Y-46047694D01*
X124242551Y-46052614D01*
X124434212Y-46107185D01*
X124487733Y-46144266D01*
X124509690Y-46208291D01*
X124528557Y-46359479D01*
X124544510Y-46607178D01*
X124557723Y-46960741D01*
X124568373Y-47429517D01*
X124576633Y-48022855D01*
X124582681Y-48750106D01*
X124586691Y-49620621D01*
X124588838Y-50643749D01*
X124589333Y-51562933D01*
X124589333Y-51806566D01*
X128568666Y-51806566D01*
X128569345Y-50644578D01*
X128571506Y-49641917D01*
X128575335Y-48788581D01*
X128581017Y-48074569D01*
X128588740Y-47489878D01*
X128598689Y-47024507D01*
X128611051Y-46668455D01*
X128626010Y-46411720D01*
X128643754Y-46244299D01*
X128664469Y-46156192D01*
X128674083Y-46140450D01*
X128829361Y-46072009D01*
X129033916Y-46060016D01*
X129288333Y-46085000D01*
X129310782Y-48564020D01*
X129333232Y-51043040D01*
X131463080Y-50995666D01*
X133437000Y-46085000D01*
X133774507Y-46085000D01*
X134017374Y-46108710D01*
X134127156Y-46187520D01*
X134138444Y-46222243D01*
X134114672Y-46333100D01*
X134034597Y-46580019D01*
X133905834Y-46942255D01*
X133735994Y-47399062D01*
X133532691Y-47929695D01*
X133303537Y-48513408D01*
X133229437Y-48699400D01*
X132993590Y-49291520D01*
X132779566Y-49833025D01*
X132595140Y-50303904D01*
X132448089Y-50684147D01*
X132346191Y-50953746D01*
X132297221Y-51092690D01*
X132294000Y-51106315D01*
X132365417Y-51175642D01*
X132541989Y-51262092D01*
X132590362Y-51280482D01*
X133044858Y-51530839D01*
X133423984Y-51912606D01*
X133588879Y-52170483D01*
X133651462Y-52296927D01*
X133698288Y-52427224D01*
X133731626Y-52587245D01*
X133753750Y-52802860D01*
X133766930Y-53099939D01*
X133773438Y-53504352D01*
X133775546Y-54041969D01*
X133775666Y-54297666D01*
X133774614Y-54896076D01*
X133769980Y-55350905D01*
X133759546Y-55687898D01*
X133741097Y-55932803D01*
X133712415Y-56111366D01*
X133671282Y-56249333D01*
X133615483Y-56372451D01*
X133593406Y-56414333D01*
X133347485Y-56786478D01*
X133041409Y-57067105D01*
X132622409Y-57303761D01*
X132589278Y-57319089D01*
X132429817Y-57386387D01*
X132267515Y-57436942D01*
X132074166Y-57473760D01*
X131821565Y-57499845D01*
X131481506Y-57518204D01*
X131025784Y-57531841D01*
X130491624Y-57542594D01*
X129858018Y-57550662D01*
X129377824Y-57548695D01*
X129035381Y-57536060D01*
X128815029Y-57512126D01*
X128701107Y-57476262D01*
X128692457Y-57470003D01*
X128667435Y-57430598D01*
X128645941Y-57349177D01*
X128627717Y-57214025D01*
X128612510Y-57013429D01*
X128600061Y-56735676D01*
X128590116Y-56369052D01*
X128582417Y-55901844D01*
X128576710Y-55322338D01*
X128572738Y-54618820D01*
X128570245Y-53779578D01*
X128568975Y-52792897D01*
X128568666Y-51806566D01*
X124589333Y-51806566D01*
X124589333Y-56880000D01*
X126702773Y-56880000D01*
X126756174Y-57092766D01*
X126783960Y-57221642D01*
X126784635Y-57324281D01*
X126741789Y-57403467D01*
X126639008Y-57461982D01*
X126459884Y-57502608D01*
X126188003Y-57528127D01*
X125806956Y-57541322D01*
X125300330Y-57544975D01*
X124651715Y-57541869D01*
X124133420Y-57537427D01*
X121668333Y-57515000D01*
X118704095Y-57515000D01*
X118578548Y-57562892D01*
X118633404Y-57571302D01*
X118847308Y-57579393D01*
X119209973Y-57587094D01*
X119711112Y-57594336D01*
X120340440Y-57601048D01*
X121087669Y-57607160D01*
X121942515Y-57612604D01*
X122894691Y-57617307D01*
X123933911Y-57621201D01*
X125049889Y-57624216D01*
X126232337Y-57626281D01*
X127470972Y-57627326D01*
X128060666Y-57627445D01*
X129321832Y-57626896D01*
X129321832Y-57626896D01*
G37*
X129321832Y-57626896D02*
X130531575Y-57625294D01*
X131679609Y-57622711D01*
X132755649Y-57619215D01*
X133749407Y-57614878D01*
X134650599Y-57609768D01*
X135448937Y-57603957D01*
X136134135Y-57597514D01*
X136695908Y-57590508D01*
X137123970Y-57583011D01*
X137408033Y-57575092D01*
X137537812Y-57566822D01*
X137542785Y-57562892D01*
X137000279Y-57316766D01*
X136566697Y-56948270D01*
X136256768Y-56471938D01*
X136149967Y-56188493D01*
X136114936Y-55981417D01*
X136084722Y-55626854D01*
X136059325Y-55146580D01*
X136038744Y-54562374D01*
X136022981Y-53896011D01*
X136012034Y-53169270D01*
X136005904Y-52403927D01*
X136004591Y-51621760D01*
X136008095Y-50844545D01*
X136016416Y-50094061D01*
X136029554Y-49392084D01*
X136047508Y-48760392D01*
X136070280Y-48220762D01*
X136097868Y-47794970D01*
X136130274Y-47504795D01*
X136149967Y-47411507D01*
X136390269Y-46885177D01*
X136761832Y-46459175D01*
X137249925Y-46148038D01*
X137542785Y-46037107D01*
X137487993Y-46028649D01*
X137274175Y-46020453D01*
X136911638Y-46012595D01*
X136410691Y-46005147D01*
X135781640Y-45998186D01*
X135034792Y-45991784D01*
X134180456Y-45986018D01*
X133228937Y-45980960D01*
X132190545Y-45976685D01*
X131075586Y-45973268D01*
X129894367Y-45970783D01*
X128657196Y-45969304D01*
X128103000Y-45968993D01*
X126599075Y-45968677D01*
X125256315Y-45968965D01*
X124066554Y-45969951D01*
X123021624Y-45971732D01*
X122113358Y-45974404D01*
X121333588Y-45978062D01*
X120674148Y-45982802D01*
X120126870Y-45988720D01*
X119683587Y-45995911D01*
X119336131Y-46004473D01*
X119076337Y-46014499D01*
X118896036Y-46026086D01*
X118787061Y-46039331D01*
X118741245Y-46054327D01*
X118750422Y-46071173D01*
X118767731Y-46078475D01*
X119294601Y-46343533D01*
X119691569Y-46714361D01*
X119954395Y-47186597D01*
X120008546Y-47355000D01*
X120041774Y-47561179D01*
X120069777Y-47895903D01*
X120090192Y-48318407D01*
X120100654Y-48787925D01*
X120101527Y-48958102D01*
X120094848Y-49537899D01*
X120063627Y-50009255D01*
X119991811Y-50395279D01*
X119863345Y-50719080D01*
X119662174Y-51003767D01*
X119372244Y-51272449D01*
X118977501Y-51548236D01*
X118461890Y-51854236D01*
X117858333Y-52186997D01*
X117292998Y-52495389D01*
X116857852Y-52738022D01*
X116533272Y-52928076D01*
X116299637Y-53078728D01*
X116137327Y-53203158D01*
X116026720Y-53314545D01*
X115948195Y-53426066D01*
X115909722Y-53495804D01*
X115839663Y-53732593D01*
X115795478Y-54090267D01*
X115776550Y-54522462D01*
X115782262Y-54982813D01*
X115811998Y-55424957D01*
X115865142Y-55802529D01*
X115941077Y-56069166D01*
X115944023Y-56075666D01*
X116195140Y-56475845D01*
X116530412Y-56750616D01*
X116968306Y-56910127D01*
X117527288Y-56964523D01*
X117562000Y-56964666D01*
X118143082Y-56911197D01*
X118597022Y-56749898D01*
X118818877Y-56593105D01*
X118998708Y-56409857D01*
X119129370Y-56212214D01*
X119220048Y-55967883D01*
X119279928Y-55644569D01*
X119318194Y-55209981D01*
X119339310Y-54763333D01*
X119382333Y-53620333D01*
X120059666Y-53620333D01*
X120083530Y-54668887D01*
X120086396Y-55239834D01*
X120063740Y-55678869D01*
X120012980Y-56021853D01*
X119975441Y-56171344D01*
X119737421Y-56703408D01*
X119368763Y-57132972D01*
X118882676Y-57446877D01*
X118704095Y-57515000D01*
X121668333Y-57515000D01*
X121668333Y-56922333D01*
X123827333Y-56874941D01*
X123827333Y-51515248D01*
X123828201Y-50577873D01*
X123830707Y-49690875D01*
X123834699Y-48868703D01*
X123840027Y-48125803D01*
X123846540Y-47476624D01*
X123854087Y-46935612D01*
X123862519Y-46517216D01*
X123871684Y-46235882D01*
X123881432Y-46106058D01*
X123883777Y-46099111D01*
X124029276Y-46047694D01*
X124242551Y-46052614D01*
X124434212Y-46107185D01*
X124487733Y-46144266D01*
X124509690Y-46208291D01*
X124528557Y-46359479D01*
X124544510Y-46607178D01*
X124557723Y-46960741D01*
X124568373Y-47429517D01*
X124576633Y-48022855D01*
X124582681Y-48750106D01*
X124586691Y-49620621D01*
X124588838Y-50643749D01*
X124589333Y-51562933D01*
X124589333Y-51806566D01*
X128568666Y-51806566D01*
X128569345Y-50644578D01*
X128571506Y-49641917D01*
X128575335Y-48788581D01*
X128581017Y-48074569D01*
X128588740Y-47489878D01*
X128598689Y-47024507D01*
X128611051Y-46668455D01*
X128626010Y-46411720D01*
X128643754Y-46244299D01*
X128664469Y-46156192D01*
X128674083Y-46140450D01*
X128829361Y-46072009D01*
X129033916Y-46060016D01*
X129288333Y-46085000D01*
X129310782Y-48564020D01*
X129333232Y-51043040D01*
X131463080Y-50995666D01*
X133437000Y-46085000D01*
X133774507Y-46085000D01*
X134017374Y-46108710D01*
X134127156Y-46187520D01*
X134138444Y-46222243D01*
X134114672Y-46333100D01*
X134034597Y-46580019D01*
X133905834Y-46942255D01*
X133735994Y-47399062D01*
X133532691Y-47929695D01*
X133303537Y-48513408D01*
X133229437Y-48699400D01*
X132993590Y-49291520D01*
X132779566Y-49833025D01*
X132595140Y-50303904D01*
X132448089Y-50684147D01*
X132346191Y-50953746D01*
X132297221Y-51092690D01*
X132294000Y-51106315D01*
X132365417Y-51175642D01*
X132541989Y-51262092D01*
X132590362Y-51280482D01*
X133044858Y-51530839D01*
X133423984Y-51912606D01*
X133588879Y-52170483D01*
X133651462Y-52296927D01*
X133698288Y-52427224D01*
X133731626Y-52587245D01*
X133753750Y-52802860D01*
X133766930Y-53099939D01*
X133773438Y-53504352D01*
X133775546Y-54041969D01*
X133775666Y-54297666D01*
X133774614Y-54896076D01*
X133769980Y-55350905D01*
X133759546Y-55687898D01*
X133741097Y-55932803D01*
X133712415Y-56111366D01*
X133671282Y-56249333D01*
X133615483Y-56372451D01*
X133593406Y-56414333D01*
X133347485Y-56786478D01*
X133041409Y-57067105D01*
X132622409Y-57303761D01*
X132589278Y-57319089D01*
X132429817Y-57386387D01*
X132267515Y-57436942D01*
X132074166Y-57473760D01*
X131821565Y-57499845D01*
X131481506Y-57518204D01*
X131025784Y-57531841D01*
X130491624Y-57542594D01*
X129858018Y-57550662D01*
X129377824Y-57548695D01*
X129035381Y-57536060D01*
X128815029Y-57512126D01*
X128701107Y-57476262D01*
X128692457Y-57470003D01*
X128667435Y-57430598D01*
X128645941Y-57349177D01*
X128627717Y-57214025D01*
X128612510Y-57013429D01*
X128600061Y-56735676D01*
X128590116Y-56369052D01*
X128582417Y-55901844D01*
X128576710Y-55322338D01*
X128572738Y-54618820D01*
X128570245Y-53779578D01*
X128568975Y-52792897D01*
X128568666Y-51806566D01*
X124589333Y-51806566D01*
X124589333Y-56880000D01*
X126702773Y-56880000D01*
X126756174Y-57092766D01*
X126783960Y-57221642D01*
X126784635Y-57324281D01*
X126741789Y-57403467D01*
X126639008Y-57461982D01*
X126459884Y-57502608D01*
X126188003Y-57528127D01*
X125806956Y-57541322D01*
X125300330Y-57544975D01*
X124651715Y-57541869D01*
X124133420Y-57537427D01*
X121668333Y-57515000D01*
X118704095Y-57515000D01*
X118578548Y-57562892D01*
X118633404Y-57571302D01*
X118847308Y-57579393D01*
X119209973Y-57587094D01*
X119711112Y-57594336D01*
X120340440Y-57601048D01*
X121087669Y-57607160D01*
X121942515Y-57612604D01*
X122894691Y-57617307D01*
X123933911Y-57621201D01*
X125049889Y-57624216D01*
X126232337Y-57626281D01*
X127470972Y-57627326D01*
X128060666Y-57627445D01*
X129321832Y-57626896D01*
G36*
X112079833Y-57634723D02*
X112944250Y-57632250D01*
X113749466Y-57627752D01*
X114481143Y-57621461D01*
X115124938Y-57613606D01*
X115666511Y-57604418D01*
X116091523Y-57594128D01*
X116385632Y-57582966D01*
X116534497Y-57571164D01*
X116545451Y-57562892D01*
X116002946Y-57316766D01*
X115569364Y-56948270D01*
X115259435Y-56471938D01*
X115152634Y-56188493D01*
X115080908Y-55833842D01*
X115038406Y-55343986D01*
X115023849Y-54703557D01*
X115023859Y-54642133D01*
X115029527Y-54136429D01*
X115055142Y-53724784D01*
X115116446Y-53386355D01*
X115229178Y-53100301D01*
X115409078Y-52845779D01*
X115671887Y-52601949D01*
X116033344Y-52347967D01*
X116509191Y-52062992D01*
X117115167Y-51726182D01*
X117303711Y-51623337D01*
X117939866Y-51269130D01*
X118438441Y-50965352D01*
X118814970Y-50690113D01*
X119084984Y-50421522D01*
X119264018Y-50137689D01*
X119367605Y-49816723D01*
X119411277Y-49436734D01*
X119410567Y-48975829D01*
X119396556Y-48673891D01*
X119329221Y-48025231D01*
X119198644Y-47522482D01*
X118991574Y-47149770D01*
X118694759Y-46891222D01*
X118294948Y-46730963D01*
X117778890Y-46653119D01*
X117705722Y-46648403D01*
X117105364Y-46674664D01*
X116609447Y-46824418D01*
X116225211Y-47093443D01*
X115959894Y-47477519D01*
X115872392Y-47717462D01*
X115836610Y-47930723D01*
X115807561Y-48263827D01*
X115788670Y-48667319D01*
X115783175Y-49006000D01*
X115776551Y-49403271D01*
X115759911Y-49743190D01*
X115735855Y-49987012D01*
X115710324Y-50091781D01*
X115573484Y-50167045D01*
X115351788Y-50176447D01*
X115064333Y-50149000D01*
X115040516Y-49053351D01*
X115038545Y-48591719D01*
X115050830Y-48147086D01*
X115075113Y-47770355D01*
X115108733Y-47514375D01*
X115301373Y-46968311D01*
X115626109Y-46525362D01*
X116073139Y-46196239D01*
X116460785Y-46037107D01*
X116419041Y-46024948D01*
X116222361Y-46013277D01*
X115885144Y-46002330D01*
X115421787Y-45992340D01*
X114846688Y-45983540D01*
X114174243Y-45976165D01*
X113418852Y-45970449D01*
X112594912Y-45966625D01*
X112037500Y-45965277D01*
X111169218Y-45965113D01*
X110353884Y-45967279D01*
X109606817Y-45971578D01*
X108943337Y-45977809D01*
X108378762Y-45985772D01*
X107928412Y-45995268D01*
X107607605Y-46006098D01*
X107431660Y-46018061D01*
X107402000Y-46025665D01*
X107475421Y-46062218D01*
X107655455Y-46063295D01*
X107688333Y-46059903D01*
X107893982Y-46056872D01*
X108015146Y-46093940D01*
X108020347Y-46100390D01*
X108046914Y-46194138D01*
X108107513Y-46438429D01*
X108198731Y-46818665D01*
X108317156Y-47320248D01*
X108459374Y-47928579D01*
X108621972Y-48629061D01*
X108801535Y-49407096D01*
X108994652Y-50248085D01*
X109189726Y-51101551D01*
X109391810Y-51985869D01*
X109582901Y-52818609D01*
X109759679Y-53585539D01*
X109918826Y-54272429D01*
X110057025Y-54865049D01*
X110170956Y-55349168D01*
X110257302Y-55710556D01*
X110312744Y-55934982D01*
X110333896Y-56008326D01*
X110355938Y-55924393D01*
X110412218Y-55689879D01*
X110499372Y-55319306D01*
X110614033Y-54827198D01*
X110752837Y-54228078D01*
X110912416Y-53536470D01*
X111089406Y-52766897D01*
X111280440Y-51933882D01*
X111459092Y-51152900D01*
X111660849Y-50271443D01*
X111852495Y-49437177D01*
X112030536Y-48665098D01*
X112191483Y-47970204D01*
X112331845Y-47367489D01*
X112448131Y-46871951D01*
X112536850Y-46498585D01*
X112594510Y-46262387D01*
X112616632Y-46180307D01*
X112733804Y-46078709D01*
X112933868Y-46039678D01*
X113142575Y-46063348D01*
X113285671Y-46149852D01*
X113301659Y-46179076D01*
X113291242Y-46281504D01*
X113244998Y-46531971D01*
X113166782Y-46913896D01*
X113060445Y-47410698D01*
X112929842Y-48005799D01*
X112778825Y-48682617D01*
X112611249Y-49424571D01*
X112430967Y-50215083D01*
X112241832Y-51037572D01*
X112047697Y-51875457D01*
X111852417Y-52712158D01*
X111659844Y-53531095D01*
X111473831Y-54315687D01*
X111298233Y-55049356D01*
X111136903Y-55715519D01*
X110993693Y-56297598D01*
X110872458Y-56779011D01*
X110777051Y-57143179D01*
X110711324Y-57373521D01*
X110681839Y-57451500D01*
X110545849Y-57524107D01*
X110328243Y-57557143D01*
X110310817Y-57557333D01*
X110082502Y-57523193D01*
X109956438Y-57401393D01*
X109939762Y-57366833D01*
X109906400Y-57252709D01*
X109838407Y-56988119D01*
X109739266Y-56587588D01*
X109612459Y-56065637D01*
X109461470Y-55436791D01*
X109289783Y-54715571D01*
X109100879Y-53916501D01*
X108898243Y-53054105D01*
X108685358Y-52142904D01*
X108635089Y-51927000D01*
X107413691Y-46677666D01*
X107407845Y-52159833D01*
X107402000Y-57642000D01*
X112079833Y-57634723D01*
X112079833Y-57634723D01*
G37*
X112079833Y-57634723D02*
X112944250Y-57632250D01*
X113749466Y-57627752D01*
X114481143Y-57621461D01*
X115124938Y-57613606D01*
X115666511Y-57604418D01*
X116091523Y-57594128D01*
X116385632Y-57582966D01*
X116534497Y-57571164D01*
X116545451Y-57562892D01*
X116002946Y-57316766D01*
X115569364Y-56948270D01*
X115259435Y-56471938D01*
X115152634Y-56188493D01*
X115080908Y-55833842D01*
X115038406Y-55343986D01*
X115023849Y-54703557D01*
X115023859Y-54642133D01*
X115029527Y-54136429D01*
X115055142Y-53724784D01*
X115116446Y-53386355D01*
X115229178Y-53100301D01*
X115409078Y-52845779D01*
X115671887Y-52601949D01*
X116033344Y-52347967D01*
X116509191Y-52062992D01*
X117115167Y-51726182D01*
X117303711Y-51623337D01*
X117939866Y-51269130D01*
X118438441Y-50965352D01*
X118814970Y-50690113D01*
X119084984Y-50421522D01*
X119264018Y-50137689D01*
X119367605Y-49816723D01*
X119411277Y-49436734D01*
X119410567Y-48975829D01*
X119396556Y-48673891D01*
X119329221Y-48025231D01*
X119198644Y-47522482D01*
X118991574Y-47149770D01*
X118694759Y-46891222D01*
X118294948Y-46730963D01*
X117778890Y-46653119D01*
X117705722Y-46648403D01*
X117105364Y-46674664D01*
X116609447Y-46824418D01*
X116225211Y-47093443D01*
X115959894Y-47477519D01*
X115872392Y-47717462D01*
X115836610Y-47930723D01*
X115807561Y-48263827D01*
X115788670Y-48667319D01*
X115783175Y-49006000D01*
X115776551Y-49403271D01*
X115759911Y-49743190D01*
X115735855Y-49987012D01*
X115710324Y-50091781D01*
X115573484Y-50167045D01*
X115351788Y-50176447D01*
X115064333Y-50149000D01*
X115040516Y-49053351D01*
X115038545Y-48591719D01*
X115050830Y-48147086D01*
X115075113Y-47770355D01*
X115108733Y-47514375D01*
X115301373Y-46968311D01*
X115626109Y-46525362D01*
X116073139Y-46196239D01*
X116460785Y-46037107D01*
X116419041Y-46024948D01*
X116222361Y-46013277D01*
X115885144Y-46002330D01*
X115421787Y-45992340D01*
X114846688Y-45983540D01*
X114174243Y-45976165D01*
X113418852Y-45970449D01*
X112594912Y-45966625D01*
X112037500Y-45965277D01*
X111169218Y-45965113D01*
X110353884Y-45967279D01*
X109606817Y-45971578D01*
X108943337Y-45977809D01*
X108378762Y-45985772D01*
X107928412Y-45995268D01*
X107607605Y-46006098D01*
X107431660Y-46018061D01*
X107402000Y-46025665D01*
X107475421Y-46062218D01*
X107655455Y-46063295D01*
X107688333Y-46059903D01*
X107893982Y-46056872D01*
X108015146Y-46093940D01*
X108020347Y-46100390D01*
X108046914Y-46194138D01*
X108107513Y-46438429D01*
X108198731Y-46818665D01*
X108317156Y-47320248D01*
X108459374Y-47928579D01*
X108621972Y-48629061D01*
X108801535Y-49407096D01*
X108994652Y-50248085D01*
X109189726Y-51101551D01*
X109391810Y-51985869D01*
X109582901Y-52818609D01*
X109759679Y-53585539D01*
X109918826Y-54272429D01*
X110057025Y-54865049D01*
X110170956Y-55349168D01*
X110257302Y-55710556D01*
X110312744Y-55934982D01*
X110333896Y-56008326D01*
X110355938Y-55924393D01*
X110412218Y-55689879D01*
X110499372Y-55319306D01*
X110614033Y-54827198D01*
X110752837Y-54228078D01*
X110912416Y-53536470D01*
X111089406Y-52766897D01*
X111280440Y-51933882D01*
X111459092Y-51152900D01*
X111660849Y-50271443D01*
X111852495Y-49437177D01*
X112030536Y-48665098D01*
X112191483Y-47970204D01*
X112331845Y-47367489D01*
X112448131Y-46871951D01*
X112536850Y-46498585D01*
X112594510Y-46262387D01*
X112616632Y-46180307D01*
X112733804Y-46078709D01*
X112933868Y-46039678D01*
X113142575Y-46063348D01*
X113285671Y-46149852D01*
X113301659Y-46179076D01*
X113291242Y-46281504D01*
X113244998Y-46531971D01*
X113166782Y-46913896D01*
X113060445Y-47410698D01*
X112929842Y-48005799D01*
X112778825Y-48682617D01*
X112611249Y-49424571D01*
X112430967Y-50215083D01*
X112241832Y-51037572D01*
X112047697Y-51875457D01*
X111852417Y-52712158D01*
X111659844Y-53531095D01*
X111473831Y-54315687D01*
X111298233Y-55049356D01*
X111136903Y-55715519D01*
X110993693Y-56297598D01*
X110872458Y-56779011D01*
X110777051Y-57143179D01*
X110711324Y-57373521D01*
X110681839Y-57451500D01*
X110545849Y-57524107D01*
X110328243Y-57557143D01*
X110310817Y-57557333D01*
X110082502Y-57523193D01*
X109956438Y-57401393D01*
X109939762Y-57366833D01*
X109906400Y-57252709D01*
X109838407Y-56988119D01*
X109739266Y-56587588D01*
X109612459Y-56065637D01*
X109461470Y-55436791D01*
X109289783Y-54715571D01*
X109100879Y-53916501D01*
X108898243Y-53054105D01*
X108685358Y-52142904D01*
X108635089Y-51927000D01*
X107413691Y-46677666D01*
X107407845Y-52159833D01*
X107402000Y-57642000D01*
X112079833Y-57634723D01*
G04 #@! TD*
M02*
