%TF.GenerationSoftware,KiCad,Pcbnew,7.0.7*%
%TF.CreationDate,2023-11-29T11:07:57+01:00*%
%TF.ProjectId,Astroplant_AL,41737472-6f70-46c6-916e-745f414c2e6b,rev?*%
%TF.SameCoordinates,Original*%
%TF.FileFunction,Drillmap*%
%TF.FilePolarity,Positive*%
%FSLAX45Y45*%
G04 Gerber Fmt 4.5, Leading zero omitted, Abs format (unit mm)*
G04 Created by KiCad (PCBNEW 7.0.7) date 2023-11-29 11:07:57*
%MOMM*%
%LPD*%
G01*
G04 APERTURE LIST*
%ADD10C,0.150000*%
%ADD11C,0.200000*%
%ADD12C,0.040000*%
%ADD13C,0.095000*%
%ADD14C,0.100000*%
%ADD15C,0.110000*%
%ADD16C,0.120000*%
%ADD17C,0.275000*%
%ADD18C,0.325000*%
G04 APERTURE END LIST*
D10*
X6429000Y-12768000D02*
G75*
G03*
X6729000Y-13068000I300000J0D01*
G01*
X6729000Y-6568000D02*
G75*
G03*
X6429000Y-6868000I0J-300000D01*
G01*
X7939000Y-6918000D02*
G75*
G03*
X7939000Y-6918000I-160000J0D01*
G01*
X16129000Y-6568000D02*
X6729000Y-6568000D01*
X6729000Y-13068000D02*
X16129000Y-13068000D01*
X16239000Y-12718000D02*
G75*
G03*
X16239000Y-12718000I-160000J0D01*
G01*
X6919000Y-6918000D02*
G75*
G03*
X6919000Y-6918000I-140000J0D01*
G01*
X16429000Y-12768000D02*
X16429000Y-6868000D01*
X16239000Y-6918000D02*
G75*
G03*
X16239000Y-6918000I-160000J0D01*
G01*
X16429000Y-6868000D02*
G75*
G03*
X16129000Y-6568000I-300000J0D01*
G01*
X6429000Y-6868000D02*
X6429000Y-12768000D01*
X16129000Y-13068000D02*
G75*
G03*
X16429000Y-12768000I0J300000D01*
G01*
D11*
D12*
X6501500Y-9570000D02*
X6541500Y-9610000D01*
X6541500Y-9570000D02*
X6501500Y-9610000D01*
X7070000Y-7496000D02*
X7110000Y-7536000D01*
X7110000Y-7496000D02*
X7070000Y-7536000D01*
X7103500Y-11201000D02*
X7143500Y-11241000D01*
X7143500Y-11201000D02*
X7103500Y-11241000D01*
X7133000Y-8006000D02*
X7173000Y-8046000D01*
X7173000Y-8006000D02*
X7133000Y-8046000D01*
X7137000Y-8995000D02*
X7177000Y-9035000D01*
X7177000Y-8995000D02*
X7137000Y-9035000D01*
X7140500Y-10548000D02*
X7180500Y-10588000D01*
X7180500Y-10548000D02*
X7140500Y-10588000D01*
X7178500Y-8875000D02*
X7218500Y-8915000D01*
X7218500Y-8875000D02*
X7178500Y-8915000D01*
X7216500Y-7531000D02*
X7256500Y-7571000D01*
X7256500Y-7531000D02*
X7216500Y-7571000D01*
X7223500Y-11768000D02*
X7263500Y-11808000D01*
X7263500Y-11768000D02*
X7223500Y-11808000D01*
X7235000Y-9811000D02*
X7275000Y-9851000D01*
X7275000Y-9811000D02*
X7235000Y-9851000D01*
X7294500Y-10604000D02*
X7334500Y-10644000D01*
X7334500Y-10604000D02*
X7294500Y-10644000D01*
X7294500Y-11232000D02*
X7334500Y-11272000D01*
X7334500Y-11232000D02*
X7294500Y-11272000D01*
X7363500Y-10698000D02*
X7403500Y-10738000D01*
X7403500Y-10698000D02*
X7363500Y-10738000D01*
X7394500Y-11820000D02*
X7434500Y-11860000D01*
X7434500Y-11820000D02*
X7394500Y-11860000D01*
X7439995Y-10764546D02*
X7479995Y-10804546D01*
X7479995Y-10764546D02*
X7439995Y-10804546D01*
X7445000Y-7936000D02*
X7485000Y-7976000D01*
X7485000Y-7936000D02*
X7445000Y-7976000D01*
X7457000Y-8991000D02*
X7497000Y-9031000D01*
X7497000Y-8991000D02*
X7457000Y-9031000D01*
X7466000Y-9291000D02*
X7506000Y-9331000D01*
X7506000Y-9291000D02*
X7466000Y-9331000D01*
X7504000Y-7438000D02*
X7544000Y-7478000D01*
X7544000Y-7438000D02*
X7504000Y-7478000D01*
X7549200Y-11206800D02*
X7589200Y-11246800D01*
X7589200Y-11206800D02*
X7549200Y-11246800D01*
X7549200Y-11587800D02*
X7589200Y-11627800D01*
X7589200Y-11587800D02*
X7549200Y-11627800D01*
X7589500Y-9952000D02*
X7629500Y-9992000D01*
X7629500Y-9952000D02*
X7589500Y-9992000D01*
X7605184Y-11961866D02*
X7645184Y-12001866D01*
X7645184Y-11961866D02*
X7605184Y-12001866D01*
X7651500Y-7446000D02*
X7691500Y-7486000D01*
X7691500Y-7446000D02*
X7651500Y-7486000D01*
X7702500Y-11576000D02*
X7742500Y-11616000D01*
X7742500Y-11576000D02*
X7702500Y-11616000D01*
X7717500Y-10838000D02*
X7757500Y-10878000D01*
X7757500Y-10838000D02*
X7717500Y-10878000D01*
X7811500Y-11136000D02*
X7851500Y-11176000D01*
X7851500Y-11136000D02*
X7811500Y-11176000D01*
X7879500Y-8241000D02*
X7919500Y-8281000D01*
X7919500Y-8241000D02*
X7879500Y-8281000D01*
X7879500Y-10018000D02*
X7919500Y-10058000D01*
X7919500Y-10018000D02*
X7879500Y-10058000D01*
X7879500Y-10971000D02*
X7919500Y-11011000D01*
X7919500Y-10971000D02*
X7879500Y-11011000D01*
X7911000Y-11338000D02*
X7951000Y-11378000D01*
X7951000Y-11338000D02*
X7911000Y-11378000D01*
X7925000Y-11083000D02*
X7965000Y-11123000D01*
X7965000Y-11083000D02*
X7925000Y-11123000D01*
X7983000Y-11912000D02*
X8023000Y-11952000D01*
X8023000Y-11912000D02*
X7983000Y-11952000D01*
X8044500Y-11107000D02*
X8084500Y-11147000D01*
X8084500Y-11107000D02*
X8044500Y-11147000D01*
X8078000Y-9308000D02*
X8118000Y-9348000D01*
X8118000Y-9308000D02*
X8078000Y-9348000D01*
X8081000Y-8991000D02*
X8121000Y-9031000D01*
X8121000Y-8991000D02*
X8081000Y-9031000D01*
X8086000Y-7095000D02*
X8126000Y-7135000D01*
X8126000Y-7095000D02*
X8086000Y-7135000D01*
X8128500Y-10460000D02*
X8168500Y-10500000D01*
X8168500Y-10460000D02*
X8128500Y-10500000D01*
X8161500Y-11277550D02*
X8201500Y-11317550D01*
X8201500Y-11277550D02*
X8161500Y-11317550D01*
X8192000Y-11377000D02*
X8232000Y-11417000D01*
X8232000Y-11377000D02*
X8192000Y-11417000D01*
X8197500Y-10113000D02*
X8237500Y-10153000D01*
X8237500Y-10113000D02*
X8197500Y-10153000D01*
X8197500Y-10892000D02*
X8237500Y-10932000D01*
X8237500Y-10892000D02*
X8197500Y-10932000D01*
X8254500Y-9830000D02*
X8294500Y-9870000D01*
X8294500Y-9830000D02*
X8254500Y-9870000D01*
X8258500Y-11022000D02*
X8298500Y-11062000D01*
X8298500Y-11022000D02*
X8258500Y-11062000D01*
X8343500Y-7507450D02*
X8383500Y-7547450D01*
X8383500Y-7507450D02*
X8343500Y-7547450D01*
X8378500Y-11061000D02*
X8418500Y-11101000D01*
X8418500Y-11061000D02*
X8378500Y-11101000D01*
X8402500Y-10891000D02*
X8442500Y-10931000D01*
X8442500Y-10891000D02*
X8402500Y-10931000D01*
X8412500Y-6836000D02*
X8452500Y-6876000D01*
X8452500Y-6836000D02*
X8412500Y-6876000D01*
X8430000Y-10722000D02*
X8470000Y-10762000D01*
X8470000Y-10722000D02*
X8430000Y-10762000D01*
X8436500Y-8078000D02*
X8476500Y-8118000D01*
X8476500Y-8078000D02*
X8436500Y-8118000D01*
X8460500Y-10217000D02*
X8500500Y-10257000D01*
X8500500Y-10217000D02*
X8460500Y-10257000D01*
X8465500Y-9481550D02*
X8505500Y-9521550D01*
X8505500Y-9481550D02*
X8465500Y-9521550D01*
X8472000Y-10082000D02*
X8512000Y-10122000D01*
X8512000Y-10082000D02*
X8472000Y-10122000D01*
X8496000Y-9706000D02*
X8536000Y-9746000D01*
X8536000Y-9706000D02*
X8496000Y-9746000D01*
X8537500Y-10335000D02*
X8577500Y-10375000D01*
X8577500Y-10335000D02*
X8537500Y-10375000D01*
X8592500Y-8181000D02*
X8632500Y-8221000D01*
X8632500Y-8181000D02*
X8592500Y-8221000D01*
X8627000Y-11456000D02*
X8667000Y-11496000D01*
X8667000Y-11456000D02*
X8627000Y-11496000D01*
X8637500Y-7303000D02*
X8677500Y-7343000D01*
X8677500Y-7303000D02*
X8637500Y-7343000D01*
X8656000Y-11275450D02*
X8696000Y-11315450D01*
X8696000Y-11275450D02*
X8656000Y-11315450D01*
X8667500Y-10790550D02*
X8707500Y-10830550D01*
X8707500Y-10790550D02*
X8667500Y-10830550D01*
X8670500Y-10078000D02*
X8710500Y-10118000D01*
X8710500Y-10078000D02*
X8670500Y-10118000D01*
X8687000Y-9018000D02*
X8727000Y-9058000D01*
X8727000Y-9018000D02*
X8687000Y-9058000D01*
X8690000Y-9316000D02*
X8730000Y-9356000D01*
X8730000Y-9316000D02*
X8690000Y-9356000D01*
X8723760Y-11070550D02*
X8763760Y-11110550D01*
X8763760Y-11070550D02*
X8723760Y-11110550D01*
X8746500Y-8434000D02*
X8786500Y-8474000D01*
X8786500Y-8434000D02*
X8746500Y-8474000D01*
X8765000Y-10729000D02*
X8805000Y-10769000D01*
X8805000Y-10729000D02*
X8765000Y-10769000D01*
X8765500Y-8686000D02*
X8805500Y-8726000D01*
X8805500Y-8686000D02*
X8765500Y-8726000D01*
X8777500Y-11542000D02*
X8817500Y-11582000D01*
X8817500Y-11542000D02*
X8777500Y-11582000D01*
X8783000Y-7900000D02*
X8823000Y-7940000D01*
X8823000Y-7900000D02*
X8783000Y-7940000D01*
X8803000Y-10256000D02*
X8843000Y-10296000D01*
X8843000Y-10256000D02*
X8803000Y-10296000D01*
X8853500Y-8551000D02*
X8893500Y-8591000D01*
X8893500Y-8551000D02*
X8853500Y-8591000D01*
X8919500Y-9912500D02*
X8959500Y-9952500D01*
X8959500Y-9912500D02*
X8919500Y-9952500D01*
X8955000Y-9242000D02*
X8995000Y-9282000D01*
X8995000Y-9242000D02*
X8955000Y-9282000D01*
X8956000Y-11380000D02*
X8996000Y-11420000D01*
X8996000Y-11380000D02*
X8956000Y-11420000D01*
X8977500Y-10935000D02*
X9017500Y-10975000D01*
X9017500Y-10935000D02*
X8977500Y-10975000D01*
X9001000Y-11926000D02*
X9041000Y-11966000D01*
X9041000Y-11926000D02*
X9001000Y-11966000D01*
X9008500Y-10617000D02*
X9048500Y-10657000D01*
X9048500Y-10617000D02*
X9008500Y-10657000D01*
X9028000Y-9706000D02*
X9068000Y-9746000D01*
X9068000Y-9706000D02*
X9028000Y-9746000D01*
X9083000Y-11855000D02*
X9123000Y-11895000D01*
X9123000Y-11855000D02*
X9083000Y-11895000D01*
X9125000Y-9406000D02*
X9165000Y-9446000D01*
X9165000Y-9406000D02*
X9125000Y-9446000D01*
X9146000Y-11655000D02*
X9186000Y-11695000D01*
X9186000Y-11655000D02*
X9146000Y-11695000D01*
X9171000Y-11767000D02*
X9211000Y-11807000D01*
X9211000Y-11767000D02*
X9171000Y-11807000D01*
X9179500Y-10537000D02*
X9219500Y-10577000D01*
X9219500Y-10537000D02*
X9179500Y-10577000D01*
X9208500Y-11133000D02*
X9248500Y-11173000D01*
X9248500Y-11133000D02*
X9208500Y-11173000D01*
X9208500Y-11133000D02*
X9248500Y-11173000D01*
X9248500Y-11133000D02*
X9208500Y-11173000D01*
X9240500Y-10174000D02*
X9280500Y-10214000D01*
X9280500Y-10174000D02*
X9240500Y-10214000D01*
X9261500Y-10604000D02*
X9301500Y-10644000D01*
X9301500Y-10604000D02*
X9261500Y-10644000D01*
X9298500Y-7702000D02*
X9338500Y-7742000D01*
X9338500Y-7702000D02*
X9298500Y-7742000D01*
X9405500Y-11661000D02*
X9445500Y-11701000D01*
X9445500Y-11661000D02*
X9405500Y-11701000D01*
X9430500Y-10916000D02*
X9470500Y-10956000D01*
X9470500Y-10916000D02*
X9430500Y-10956000D01*
X9441500Y-11375000D02*
X9481500Y-11415000D01*
X9481500Y-11375000D02*
X9441500Y-11415000D01*
X9443500Y-12098000D02*
X9483500Y-12138000D01*
X9483500Y-12098000D02*
X9443500Y-12138000D01*
X9452500Y-7322000D02*
X9492500Y-7362000D01*
X9492500Y-7322000D02*
X9452500Y-7362000D01*
X9470950Y-10403000D02*
X9510950Y-10443000D01*
X9510950Y-10403000D02*
X9470950Y-10443000D01*
X9470950Y-10547000D02*
X9510950Y-10587000D01*
X9510950Y-10547000D02*
X9470950Y-10587000D01*
X9487500Y-9839000D02*
X9527500Y-9879000D01*
X9527500Y-9839000D02*
X9487500Y-9879000D01*
X9490500Y-11853000D02*
X9530500Y-11893000D01*
X9530500Y-11853000D02*
X9490500Y-11893000D01*
X9508500Y-11701000D02*
X9548500Y-11741000D01*
X9548500Y-11701000D02*
X9508500Y-11741000D01*
X9525106Y-10631650D02*
X9565106Y-10671650D01*
X9565106Y-10631650D02*
X9525106Y-10671650D01*
X9542000Y-8184000D02*
X9582000Y-8224000D01*
X9582000Y-8184000D02*
X9542000Y-8224000D01*
X9598500Y-11664000D02*
X9638500Y-11704000D01*
X9638500Y-11664000D02*
X9598500Y-11704000D01*
X9609500Y-9481000D02*
X9649500Y-9521000D01*
X9649500Y-9481000D02*
X9609500Y-9521000D01*
X9680000Y-7926000D02*
X9720000Y-7966000D01*
X9720000Y-7926000D02*
X9680000Y-7966000D01*
X9693035Y-11266065D02*
X9733035Y-11306065D01*
X9733035Y-11266065D02*
X9693035Y-11306065D01*
X9711500Y-12364000D02*
X9751500Y-12404000D01*
X9751500Y-12364000D02*
X9711500Y-12404000D01*
X9716500Y-7738000D02*
X9756500Y-7778000D01*
X9756500Y-7738000D02*
X9716500Y-7778000D01*
X9718500Y-11510000D02*
X9758500Y-11550000D01*
X9758500Y-11510000D02*
X9718500Y-11550000D01*
X9750500Y-12742000D02*
X9790500Y-12782000D01*
X9790500Y-12742000D02*
X9750500Y-12782000D01*
X9755050Y-9269000D02*
X9795050Y-9309000D01*
X9795050Y-9269000D02*
X9755050Y-9309000D01*
X9784400Y-10978200D02*
X9824400Y-11018200D01*
X9824400Y-10978200D02*
X9784400Y-11018200D01*
X9793500Y-11210000D02*
X9833500Y-11250000D01*
X9833500Y-11210000D02*
X9793500Y-11250000D01*
X9812500Y-10853000D02*
X9852500Y-10893000D01*
X9852500Y-10853000D02*
X9812500Y-10893000D01*
X9824050Y-10112000D02*
X9864050Y-10152000D01*
X9864050Y-10112000D02*
X9824050Y-10152000D01*
X9883500Y-9208000D02*
X9923500Y-9248000D01*
X9923500Y-9208000D02*
X9883500Y-9248000D01*
X9892500Y-11272000D02*
X9932500Y-11312000D01*
X9932500Y-11272000D02*
X9892500Y-11312000D01*
X9894500Y-10670000D02*
X9934500Y-10710000D01*
X9934500Y-10670000D02*
X9894500Y-10710000D01*
X9942500Y-7342000D02*
X9982500Y-7382000D01*
X9982500Y-7342000D02*
X9942500Y-7382000D01*
X9979000Y-11655000D02*
X10019000Y-11695000D01*
X10019000Y-11655000D02*
X9979000Y-11695000D01*
X10014250Y-12110750D02*
X10054250Y-12150750D01*
X10054250Y-12110750D02*
X10014250Y-12150750D01*
X10044500Y-11848000D02*
X10084500Y-11888000D01*
X10084500Y-11848000D02*
X10044500Y-11888000D01*
X10056500Y-9544000D02*
X10096500Y-9584000D01*
X10096500Y-9544000D02*
X10056500Y-9584000D01*
X10081500Y-11406000D02*
X10121500Y-11446000D01*
X10121500Y-11406000D02*
X10081500Y-11446000D01*
X10119500Y-12035500D02*
X10159500Y-12075500D01*
X10159500Y-12035500D02*
X10119500Y-12075500D01*
X10132500Y-7731000D02*
X10172500Y-7771000D01*
X10172500Y-7731000D02*
X10132500Y-7771000D01*
X10147000Y-11013000D02*
X10187000Y-11053000D01*
X10187000Y-11013000D02*
X10147000Y-11053000D01*
X10185000Y-9248000D02*
X10225000Y-9288000D01*
X10225000Y-9248000D02*
X10185000Y-9288000D01*
X10190800Y-10114600D02*
X10230800Y-10154600D01*
X10230800Y-10114600D02*
X10190800Y-10154600D01*
X10190800Y-11918000D02*
X10230800Y-11958000D01*
X10230800Y-11918000D02*
X10190800Y-11958000D01*
X10220000Y-8202000D02*
X10260000Y-8242000D01*
X10260000Y-8202000D02*
X10220000Y-8242000D01*
X10311500Y-10619000D02*
X10351500Y-10659000D01*
X10351500Y-10619000D02*
X10311500Y-10659000D01*
X10360500Y-11681000D02*
X10400500Y-11721000D01*
X10400500Y-11681000D02*
X10360500Y-11721000D01*
X10434000Y-8858000D02*
X10474000Y-8898000D01*
X10474000Y-8858000D02*
X10434000Y-8898000D01*
X10444000Y-9016000D02*
X10484000Y-9056000D01*
X10484000Y-9016000D02*
X10444000Y-9056000D01*
X10451500Y-9984000D02*
X10491500Y-10024000D01*
X10491500Y-9984000D02*
X10451500Y-10024000D01*
X10452500Y-10975000D02*
X10492500Y-11015000D01*
X10492500Y-10975000D02*
X10452500Y-11015000D01*
X10553000Y-9162000D02*
X10593000Y-9202000D01*
X10593000Y-9162000D02*
X10553000Y-9202000D01*
X10600000Y-11333000D02*
X10640000Y-11373000D01*
X10640000Y-11333000D02*
X10600000Y-11373000D01*
X10716000Y-10884000D02*
X10756000Y-10924000D01*
X10756000Y-10884000D02*
X10716000Y-10924000D01*
X10735000Y-9822000D02*
X10775000Y-9862000D01*
X10775000Y-9822000D02*
X10735000Y-9862000D01*
X10797000Y-9249000D02*
X10837000Y-9289000D01*
X10837000Y-9249000D02*
X10797000Y-9289000D01*
X10894000Y-11329000D02*
X10934000Y-11369000D01*
X10934000Y-11329000D02*
X10894000Y-11369000D01*
X10897500Y-10071550D02*
X10937500Y-10111550D01*
X10937500Y-10071550D02*
X10897500Y-10111550D01*
X10897500Y-11181400D02*
X10937500Y-11221400D01*
X10937500Y-11181400D02*
X10897500Y-11221400D01*
X10929000Y-11705000D02*
X10969000Y-11745000D01*
X10969000Y-11705000D02*
X10929000Y-11745000D01*
X10976000Y-9624000D02*
X11016000Y-9664000D01*
X11016000Y-9624000D02*
X10976000Y-9664000D01*
X11008500Y-12759000D02*
X11048500Y-12799000D01*
X11048500Y-12759000D02*
X11008500Y-12799000D01*
X11034000Y-7358000D02*
X11074000Y-7398000D01*
X11074000Y-7358000D02*
X11034000Y-7398000D01*
X11087000Y-9183000D02*
X11127000Y-9223000D01*
X11127000Y-9183000D02*
X11087000Y-9223000D01*
X11320000Y-11717000D02*
X11360000Y-11757000D01*
X11360000Y-11717000D02*
X11320000Y-11757000D01*
X11406000Y-8550000D02*
X11446000Y-8590000D01*
X11446000Y-8550000D02*
X11406000Y-8590000D01*
X11414000Y-8912000D02*
X11454000Y-8952000D01*
X11454000Y-8912000D02*
X11414000Y-8952000D01*
X11443000Y-10013000D02*
X11483000Y-10053000D01*
X11483000Y-10013000D02*
X11443000Y-10053000D01*
X11445500Y-10795000D02*
X11485500Y-10835000D01*
X11485500Y-10795000D02*
X11445500Y-10835000D01*
X11600000Y-9001000D02*
X11640000Y-9041000D01*
X11640000Y-9001000D02*
X11600000Y-9041000D01*
X11824050Y-8014550D02*
X11864050Y-8054550D01*
X11864050Y-8014550D02*
X11824050Y-8054550D01*
X11904500Y-11697000D02*
X11944500Y-11737000D01*
X11944500Y-11697000D02*
X11904500Y-11737000D01*
X12058000Y-12781000D02*
X12098000Y-12821000D01*
X12098000Y-12781000D02*
X12058000Y-12821000D01*
X12275500Y-9371000D02*
X12315500Y-9411000D01*
X12315500Y-9371000D02*
X12275500Y-9411000D01*
X12324400Y-7752400D02*
X12364400Y-7792400D01*
X12364400Y-7752400D02*
X12324400Y-7792400D01*
X12530000Y-8389000D02*
X12570000Y-8429000D01*
X12570000Y-8389000D02*
X12530000Y-8429000D01*
X12767000Y-7367000D02*
X12807000Y-7407000D01*
X12807000Y-7367000D02*
X12767000Y-7407000D01*
X12770500Y-11680000D02*
X12810500Y-11720000D01*
X12810500Y-11680000D02*
X12770500Y-11720000D01*
X12783500Y-11079800D02*
X12823500Y-11119800D01*
X12823500Y-11079800D02*
X12783500Y-11119800D01*
X12796550Y-7876550D02*
X12836550Y-7916550D01*
X12836550Y-7876550D02*
X12796550Y-7916550D01*
X12798500Y-10669000D02*
X12838500Y-10709000D01*
X12838500Y-10669000D02*
X12798500Y-10709000D01*
X13137200Y-8641400D02*
X13177200Y-8681400D01*
X13177200Y-8641400D02*
X13137200Y-8681400D01*
X13180000Y-8886000D02*
X13220000Y-8926000D01*
X13220000Y-8886000D02*
X13180000Y-8926000D01*
X13213400Y-7752400D02*
X13253400Y-7792400D01*
X13253400Y-7752400D02*
X13213400Y-7792400D01*
X13260500Y-10091000D02*
X13300500Y-10131000D01*
X13300500Y-10091000D02*
X13260500Y-10131000D01*
X13272500Y-10648000D02*
X13312500Y-10688000D01*
X13312500Y-10648000D02*
X13272500Y-10688000D01*
X13564000Y-8324000D02*
X13604000Y-8364000D01*
X13604000Y-8324000D02*
X13564000Y-8364000D01*
X13564000Y-8546000D02*
X13604000Y-8586000D01*
X13604000Y-8546000D02*
X13564000Y-8586000D01*
X13569000Y-8795000D02*
X13609000Y-8835000D01*
X13609000Y-8795000D02*
X13569000Y-8835000D01*
X13587500Y-11693000D02*
X13627500Y-11733000D01*
X13627500Y-11693000D02*
X13587500Y-11733000D01*
X13646550Y-7866550D02*
X13686550Y-7906550D01*
X13686550Y-7866550D02*
X13646550Y-7906550D01*
X13696000Y-11079800D02*
X13736000Y-11119800D01*
X13736000Y-11079800D02*
X13696000Y-11119800D01*
X13746800Y-10902000D02*
X13786800Y-10942000D01*
X13786800Y-10902000D02*
X13746800Y-10942000D01*
X13770000Y-10592000D02*
X13810000Y-10632000D01*
X13810000Y-10592000D02*
X13770000Y-10632000D01*
X14051600Y-7752400D02*
X14091600Y-7792400D01*
X14091600Y-7752400D02*
X14051600Y-7792400D01*
X14227000Y-9497000D02*
X14267000Y-9537000D01*
X14267000Y-9497000D02*
X14227000Y-9537000D01*
X14331000Y-10063800D02*
X14371000Y-10103800D01*
X14371000Y-10063800D02*
X14331000Y-10103800D01*
X14335079Y-9329469D02*
X14375079Y-9369469D01*
X14375079Y-9329469D02*
X14335079Y-9369469D01*
X14381800Y-11462000D02*
X14421800Y-11502000D01*
X14421800Y-11462000D02*
X14381800Y-11502000D01*
X14407200Y-11054400D02*
X14447200Y-11094400D01*
X14447200Y-11054400D02*
X14407200Y-11094400D01*
X14482500Y-7649000D02*
X14522500Y-7689000D01*
X14522500Y-7649000D02*
X14482500Y-7689000D01*
X14531500Y-12541000D02*
X14571500Y-12581000D01*
X14571500Y-12541000D02*
X14531500Y-12581000D01*
X14545329Y-8802719D02*
X14585329Y-8842719D01*
X14585329Y-8802719D02*
X14545329Y-8842719D01*
X14617500Y-11682500D02*
X14657500Y-11722500D01*
X14657500Y-11682500D02*
X14617500Y-11722500D01*
X14726079Y-8448469D02*
X14766079Y-8488469D01*
X14766079Y-8448469D02*
X14726079Y-8488469D01*
X14810000Y-10584000D02*
X14850000Y-10624000D01*
X14850000Y-10584000D02*
X14810000Y-10624000D01*
X15170500Y-7722000D02*
X15210500Y-7762000D01*
X15210500Y-7722000D02*
X15170500Y-7762000D01*
X15195500Y-12585000D02*
X15235500Y-12625000D01*
X15235500Y-12585000D02*
X15195500Y-12625000D01*
X15410079Y-9048469D02*
X15450079Y-9088469D01*
X15450079Y-9048469D02*
X15410079Y-9088469D01*
X15410079Y-10425469D02*
X15450079Y-10465469D01*
X15450079Y-10425469D02*
X15410079Y-10465469D01*
X15723500Y-11728000D02*
X15763500Y-11768000D01*
X15763500Y-11728000D02*
X15723500Y-11768000D01*
X15753400Y-8031800D02*
X15793400Y-8071800D01*
X15793400Y-8031800D02*
X15753400Y-8071800D01*
X15931200Y-8031800D02*
X15971200Y-8071800D01*
X15971200Y-8031800D02*
X15931200Y-8071800D01*
X15956600Y-8565200D02*
X15996600Y-8605200D01*
X15996600Y-8565200D02*
X15956600Y-8605200D01*
D13*
X11679000Y-11482000D02*
G75*
G03*
X11679000Y-11482000I-47500J0D01*
G01*
X11679000Y-11732000D02*
G75*
G03*
X11679000Y-11732000I-47500J0D01*
G01*
X11679000Y-11982000D02*
G75*
G03*
X11679000Y-11982000I-47500J0D01*
G01*
X11679000Y-12232000D02*
G75*
G03*
X11679000Y-12232000I-47500J0D01*
G01*
X11679000Y-12482000D02*
G75*
G03*
X11679000Y-12482000I-47500J0D01*
G01*
X11679000Y-12732000D02*
G75*
G03*
X11679000Y-12732000I-47500J0D01*
G01*
X13822770Y-9218665D02*
G75*
G03*
X13822770Y-9218665I-47500J0D01*
G01*
X13822770Y-9468665D02*
G75*
G03*
X13822770Y-9468665I-47500J0D01*
G01*
X13822770Y-9718665D02*
G75*
G03*
X13822770Y-9718665I-47500J0D01*
G01*
X13822770Y-9968665D02*
G75*
G03*
X13822770Y-9968665I-47500J0D01*
G01*
X14910243Y-6978331D02*
G75*
G03*
X14910243Y-6978331I-47500J0D01*
G01*
X14910243Y-7228331D02*
G75*
G03*
X14910243Y-7228331I-47500J0D01*
G01*
X14910243Y-7478331D02*
G75*
G03*
X14910243Y-7478331I-47500J0D01*
G01*
X14910243Y-7728331D02*
G75*
G03*
X14910243Y-7728331I-47500J0D01*
G01*
X14910629Y-12089712D02*
G75*
G03*
X14910629Y-12089712I-47500J0D01*
G01*
X14910629Y-12339712D02*
G75*
G03*
X14910629Y-12339712I-47500J0D01*
G01*
X14910629Y-12589712D02*
G75*
G03*
X14910629Y-12589712I-47500J0D01*
G01*
X15146454Y-11000053D02*
G75*
G03*
X15146454Y-11000053I-47500J0D01*
G01*
X15146454Y-11250053D02*
G75*
G03*
X15146454Y-11250053I-47500J0D01*
G01*
X15146454Y-11500053D02*
G75*
G03*
X15146454Y-11500053I-47500J0D01*
G01*
X15147145Y-8317975D02*
G75*
G03*
X15147145Y-8317975I-47500J0D01*
G01*
X15147145Y-8567975D02*
G75*
G03*
X15147145Y-8567975I-47500J0D01*
G01*
X15147145Y-8817975D02*
G75*
G03*
X15147145Y-8817975I-47500J0D01*
G01*
X15147145Y-9067975D02*
G75*
G03*
X15147145Y-9067975I-47500J0D01*
G01*
X15147639Y-9658545D02*
G75*
G03*
X15147639Y-9658545I-47500J0D01*
G01*
X15147639Y-9908545D02*
G75*
G03*
X15147639Y-9908545I-47500J0D01*
G01*
X15147639Y-10158545D02*
G75*
G03*
X15147639Y-10158545I-47500J0D01*
G01*
X15147639Y-10408545D02*
G75*
G03*
X15147639Y-10408545I-47500J0D01*
G01*
X15585472Y-6978666D02*
G75*
G03*
X15585472Y-6978666I-47500J0D01*
G01*
X15585472Y-7228666D02*
G75*
G03*
X15585472Y-7228666I-47500J0D01*
G01*
X15585472Y-7478666D02*
G75*
G03*
X15585472Y-7478666I-47500J0D01*
G01*
X15585472Y-7728666D02*
G75*
G03*
X15585472Y-7728666I-47500J0D01*
G01*
X15585629Y-12090712D02*
G75*
G03*
X15585629Y-12090712I-47500J0D01*
G01*
X15585629Y-12340712D02*
G75*
G03*
X15585629Y-12340712I-47500J0D01*
G01*
X15585629Y-12590712D02*
G75*
G03*
X15585629Y-12590712I-47500J0D01*
G01*
X15821788Y-10999718D02*
G75*
G03*
X15821788Y-10999718I-47500J0D01*
G01*
X15821788Y-11249718D02*
G75*
G03*
X15821788Y-11249718I-47500J0D01*
G01*
X15821788Y-11499718D02*
G75*
G03*
X15821788Y-11499718I-47500J0D01*
G01*
X15823079Y-9658469D02*
G75*
G03*
X15823079Y-9658469I-47500J0D01*
G01*
X15823079Y-9908469D02*
G75*
G03*
X15823079Y-9908469I-47500J0D01*
G01*
X15823079Y-10158469D02*
G75*
G03*
X15823079Y-10158469I-47500J0D01*
G01*
X15823079Y-10408469D02*
G75*
G03*
X15823079Y-10408469I-47500J0D01*
G01*
X15823208Y-8318181D02*
G75*
G03*
X15823208Y-8318181I-47500J0D01*
G01*
X15823208Y-8568181D02*
G75*
G03*
X15823208Y-8568181I-47500J0D01*
G01*
X15823208Y-8818181D02*
G75*
G03*
X15823208Y-8818181I-47500J0D01*
G01*
X15823208Y-9068181D02*
G75*
G03*
X15823208Y-9068181I-47500J0D01*
G01*
D14*
X10293500Y-8570000D02*
X10293500Y-8670000D01*
X10243500Y-8620000D02*
X10343500Y-8620000D01*
X10547500Y-8570000D02*
X10547500Y-8670000D01*
X10497500Y-8620000D02*
X10597500Y-8620000D01*
X10801500Y-8570000D02*
X10801500Y-8670000D01*
X10751500Y-8620000D02*
X10851500Y-8620000D01*
X11344050Y-7112050D02*
X11344050Y-7212050D01*
X11294050Y-7162050D02*
X11394050Y-7162050D01*
X11594050Y-7112050D02*
X11594050Y-7212050D01*
X11544050Y-7162050D02*
X11644050Y-7162050D01*
X12208050Y-7118050D02*
X12208050Y-7218050D01*
X12158050Y-7168050D02*
X12258050Y-7168050D01*
X12270400Y-11381000D02*
X12270400Y-11481000D01*
X12220400Y-11431000D02*
X12320400Y-11431000D01*
X12458050Y-7118050D02*
X12458050Y-7218050D01*
X12408050Y-7168050D02*
X12508050Y-7168050D01*
X12520400Y-11381000D02*
X12520400Y-11481000D01*
X12470400Y-11431000D02*
X12570400Y-11431000D01*
X13058050Y-7120050D02*
X13058050Y-7220050D01*
X13008050Y-7170050D02*
X13108050Y-7170050D01*
X13110400Y-11380000D02*
X13110400Y-11480000D01*
X13060400Y-11430000D02*
X13160400Y-11430000D01*
X13308050Y-7120050D02*
X13308050Y-7220050D01*
X13258050Y-7170050D02*
X13358050Y-7170050D01*
X13360400Y-11380000D02*
X13360400Y-11480000D01*
X13310400Y-11430000D02*
X13410400Y-11430000D01*
X13906050Y-7121050D02*
X13906050Y-7221050D01*
X13856050Y-7171050D02*
X13956050Y-7171050D01*
X13957400Y-11376000D02*
X13957400Y-11476000D01*
X13907400Y-11426000D02*
X14007400Y-11426000D01*
X14156050Y-7121050D02*
X14156050Y-7221050D01*
X14106050Y-7171050D02*
X14206050Y-7171050D01*
X14207400Y-11376000D02*
X14207400Y-11476000D01*
X14157400Y-11426000D02*
X14257400Y-11426000D01*
D15*
X6686891Y-7470891D02*
X6686891Y-7393109D01*
X6609109Y-7393109D01*
X6609109Y-7470891D01*
X6686891Y-7470891D01*
X6686891Y-7724891D02*
X6686891Y-7647109D01*
X6609109Y-7647109D01*
X6609109Y-7724891D01*
X6686891Y-7724891D01*
X6686891Y-7978891D02*
X6686891Y-7901109D01*
X6609109Y-7901109D01*
X6609109Y-7978891D01*
X6686891Y-7978891D01*
X6686891Y-8232891D02*
X6686891Y-8155109D01*
X6609109Y-8155109D01*
X6609109Y-8232891D01*
X6686891Y-8232891D01*
X6686891Y-8486891D02*
X6686891Y-8409109D01*
X6609109Y-8409109D01*
X6609109Y-8486891D01*
X6686891Y-8486891D01*
X6686891Y-8740891D02*
X6686891Y-8663109D01*
X6609109Y-8663109D01*
X6609109Y-8740891D01*
X6686891Y-8740891D01*
X6686891Y-8994891D02*
X6686891Y-8917109D01*
X6609109Y-8917109D01*
X6609109Y-8994891D01*
X6686891Y-8994891D01*
X6686891Y-9248891D02*
X6686891Y-9171109D01*
X6609109Y-9171109D01*
X6609109Y-9248891D01*
X6686891Y-9248891D01*
X6686891Y-9502891D02*
X6686891Y-9425109D01*
X6609109Y-9425109D01*
X6609109Y-9502891D01*
X6686891Y-9502891D01*
X6686891Y-9756891D02*
X6686891Y-9679109D01*
X6609109Y-9679109D01*
X6609109Y-9756891D01*
X6686891Y-9756891D01*
X6686891Y-10010891D02*
X6686891Y-9933109D01*
X6609109Y-9933109D01*
X6609109Y-10010891D01*
X6686891Y-10010891D01*
X6686891Y-10264891D02*
X6686891Y-10187109D01*
X6609109Y-10187109D01*
X6609109Y-10264891D01*
X6686891Y-10264891D01*
X6686891Y-10518891D02*
X6686891Y-10441109D01*
X6609109Y-10441109D01*
X6609109Y-10518891D01*
X6686891Y-10518891D01*
X6686891Y-10772891D02*
X6686891Y-10695109D01*
X6609109Y-10695109D01*
X6609109Y-10772891D01*
X6686891Y-10772891D01*
X6686891Y-11026891D02*
X6686891Y-10949109D01*
X6609109Y-10949109D01*
X6609109Y-11026891D01*
X6686891Y-11026891D01*
X6686891Y-11280891D02*
X6686891Y-11203109D01*
X6609109Y-11203109D01*
X6609109Y-11280891D01*
X6686891Y-11280891D01*
X6686891Y-11534891D02*
X6686891Y-11457109D01*
X6609109Y-11457109D01*
X6609109Y-11534891D01*
X6686891Y-11534891D01*
X6686891Y-11788891D02*
X6686891Y-11711109D01*
X6609109Y-11711109D01*
X6609109Y-11788891D01*
X6686891Y-11788891D01*
X6686891Y-12042891D02*
X6686891Y-11965109D01*
X6609109Y-11965109D01*
X6609109Y-12042891D01*
X6686891Y-12042891D01*
X6686891Y-12296891D02*
X6686891Y-12219109D01*
X6609109Y-12219109D01*
X6609109Y-12296891D01*
X6686891Y-12296891D01*
X6940891Y-7470891D02*
X6940891Y-7393109D01*
X6863109Y-7393109D01*
X6863109Y-7470891D01*
X6940891Y-7470891D01*
X6940891Y-7724891D02*
X6940891Y-7647109D01*
X6863109Y-7647109D01*
X6863109Y-7724891D01*
X6940891Y-7724891D01*
X6940891Y-7978891D02*
X6940891Y-7901109D01*
X6863109Y-7901109D01*
X6863109Y-7978891D01*
X6940891Y-7978891D01*
X6940891Y-8232891D02*
X6940891Y-8155109D01*
X6863109Y-8155109D01*
X6863109Y-8232891D01*
X6940891Y-8232891D01*
X6940891Y-8486891D02*
X6940891Y-8409109D01*
X6863109Y-8409109D01*
X6863109Y-8486891D01*
X6940891Y-8486891D01*
X6940891Y-8740891D02*
X6940891Y-8663109D01*
X6863109Y-8663109D01*
X6863109Y-8740891D01*
X6940891Y-8740891D01*
X6940891Y-8994891D02*
X6940891Y-8917109D01*
X6863109Y-8917109D01*
X6863109Y-8994891D01*
X6940891Y-8994891D01*
X6940891Y-9248891D02*
X6940891Y-9171109D01*
X6863109Y-9171109D01*
X6863109Y-9248891D01*
X6940891Y-9248891D01*
X6940891Y-9502891D02*
X6940891Y-9425109D01*
X6863109Y-9425109D01*
X6863109Y-9502891D01*
X6940891Y-9502891D01*
X6940891Y-9756891D02*
X6940891Y-9679109D01*
X6863109Y-9679109D01*
X6863109Y-9756891D01*
X6940891Y-9756891D01*
X6940891Y-10010891D02*
X6940891Y-9933109D01*
X6863109Y-9933109D01*
X6863109Y-10010891D01*
X6940891Y-10010891D01*
X6940891Y-10264891D02*
X6940891Y-10187109D01*
X6863109Y-10187109D01*
X6863109Y-10264891D01*
X6940891Y-10264891D01*
X6940891Y-10518891D02*
X6940891Y-10441109D01*
X6863109Y-10441109D01*
X6863109Y-10518891D01*
X6940891Y-10518891D01*
X6940891Y-10772891D02*
X6940891Y-10695109D01*
X6863109Y-10695109D01*
X6863109Y-10772891D01*
X6940891Y-10772891D01*
X6940891Y-11026891D02*
X6940891Y-10949109D01*
X6863109Y-10949109D01*
X6863109Y-11026891D01*
X6940891Y-11026891D01*
X6940891Y-11280891D02*
X6940891Y-11203109D01*
X6863109Y-11203109D01*
X6863109Y-11280891D01*
X6940891Y-11280891D01*
X6940891Y-11534891D02*
X6940891Y-11457109D01*
X6863109Y-11457109D01*
X6863109Y-11534891D01*
X6940891Y-11534891D01*
X6940891Y-11788891D02*
X6940891Y-11711109D01*
X6863109Y-11711109D01*
X6863109Y-11788891D01*
X6940891Y-11788891D01*
X6940891Y-12042891D02*
X6940891Y-11965109D01*
X6863109Y-11965109D01*
X6863109Y-12042891D01*
X6940891Y-12042891D01*
X6940891Y-12296891D02*
X6940891Y-12219109D01*
X6863109Y-12219109D01*
X6863109Y-12296891D01*
X6940891Y-12296891D01*
X9356891Y-8647891D02*
X9356891Y-8570109D01*
X9279109Y-8570109D01*
X9279109Y-8647891D01*
X9356891Y-8647891D01*
X9356891Y-8901891D02*
X9356891Y-8824109D01*
X9279109Y-8824109D01*
X9279109Y-8901891D01*
X9356891Y-8901891D01*
X9610891Y-8647891D02*
X9610891Y-8570109D01*
X9533109Y-8570109D01*
X9533109Y-8647891D01*
X9610891Y-8647891D01*
X9610891Y-8901891D02*
X9610891Y-8824109D01*
X9533109Y-8824109D01*
X9533109Y-8901891D01*
X9610891Y-8901891D01*
X9864891Y-8647891D02*
X9864891Y-8570109D01*
X9787109Y-8570109D01*
X9787109Y-8647891D01*
X9864891Y-8647891D01*
X9864891Y-8901891D02*
X9864891Y-8824109D01*
X9787109Y-8824109D01*
X9787109Y-8901891D01*
X9864891Y-8901891D01*
X11190391Y-10373891D02*
X11190391Y-10296109D01*
X11112609Y-10296109D01*
X11112609Y-10373891D01*
X11190391Y-10373891D01*
X11190391Y-10823891D02*
X11190391Y-10746109D01*
X11112609Y-10746109D01*
X11112609Y-10823891D01*
X11190391Y-10823891D01*
X11840391Y-10373891D02*
X11840391Y-10296109D01*
X11762609Y-10296109D01*
X11762609Y-10373891D01*
X11840391Y-10373891D01*
X11840391Y-10823891D02*
X11840391Y-10746109D01*
X11762609Y-10746109D01*
X11762609Y-10823891D01*
X11840391Y-10823891D01*
X12212291Y-12011891D02*
X12212291Y-11934109D01*
X12134509Y-11934109D01*
X12134509Y-12011891D01*
X12212291Y-12011891D01*
X12212291Y-12661891D02*
X12212291Y-12584109D01*
X12134509Y-12584109D01*
X12134509Y-12661891D01*
X12212291Y-12661891D01*
X12662291Y-12011891D02*
X12662291Y-11934109D01*
X12584509Y-11934109D01*
X12584509Y-12011891D01*
X12662291Y-12011891D01*
X12662291Y-12661891D02*
X12662291Y-12584109D01*
X12584509Y-12584109D01*
X12584509Y-12661891D01*
X12662291Y-12661891D01*
X12986391Y-9258891D02*
X12986391Y-9181109D01*
X12908609Y-9181109D01*
X12908609Y-9258891D01*
X12986391Y-9258891D01*
X12986391Y-9508891D02*
X12986391Y-9431109D01*
X12908609Y-9431109D01*
X12908609Y-9508891D01*
X12986391Y-9508891D01*
X12986391Y-9758891D02*
X12986391Y-9681109D01*
X12908609Y-9681109D01*
X12908609Y-9758891D01*
X12986391Y-9758891D01*
X12986391Y-10008891D02*
X12986391Y-9931109D01*
X12908609Y-9931109D01*
X12908609Y-10008891D01*
X12986391Y-10008891D01*
X12986391Y-10258891D02*
X12986391Y-10181109D01*
X12908609Y-10181109D01*
X12908609Y-10258891D01*
X12986391Y-10258891D01*
X13049291Y-12017891D02*
X13049291Y-11940109D01*
X12971509Y-11940109D01*
X12971509Y-12017891D01*
X13049291Y-12017891D01*
X13049291Y-12667891D02*
X13049291Y-12590109D01*
X12971509Y-12590109D01*
X12971509Y-12667891D01*
X13049291Y-12667891D01*
X13499291Y-12017891D02*
X13499291Y-11940109D01*
X13421509Y-11940109D01*
X13421509Y-12017891D01*
X13499291Y-12017891D01*
X13499291Y-12667891D02*
X13499291Y-12590109D01*
X13421509Y-12590109D01*
X13421509Y-12667891D01*
X13499291Y-12667891D01*
X13904291Y-12013891D02*
X13904291Y-11936109D01*
X13826509Y-11936109D01*
X13826509Y-12013891D01*
X13904291Y-12013891D01*
X13904291Y-12663891D02*
X13904291Y-12586109D01*
X13826509Y-12586109D01*
X13826509Y-12663891D01*
X13904291Y-12663891D01*
X14354291Y-12013891D02*
X14354291Y-11936109D01*
X14276509Y-11936109D01*
X14276509Y-12013891D01*
X14354291Y-12013891D01*
X14354291Y-12663891D02*
X14354291Y-12586109D01*
X14276509Y-12586109D01*
X14276509Y-12663891D01*
X14354291Y-12663891D01*
D16*
X8428089Y-7177553D02*
X8488089Y-7117553D01*
X8428089Y-7057553D01*
X8368089Y-7117553D01*
X8428089Y-7177553D01*
X8928089Y-7177553D02*
X8988089Y-7117553D01*
X8928089Y-7057553D01*
X8868089Y-7117553D01*
X8928089Y-7177553D01*
X9483000Y-7176000D02*
X9543000Y-7116000D01*
X9483000Y-7056000D01*
X9423000Y-7116000D01*
X9483000Y-7176000D01*
X9983000Y-7176000D02*
X10043000Y-7116000D01*
X9983000Y-7056000D01*
X9923000Y-7116000D01*
X9983000Y-7176000D01*
D17*
X6643500Y-6785500D02*
X6918500Y-7060500D01*
X6918500Y-6785500D02*
X6643500Y-7060500D01*
X6918500Y-6923000D02*
G75*
G03*
X6918500Y-6923000I-137500J0D01*
G01*
D18*
X7616500Y-6755500D02*
X7941500Y-7080500D01*
X7941500Y-6755500D02*
X7616500Y-7080500D01*
X7779000Y-6755500D02*
X7779000Y-7080500D01*
X7616500Y-6918000D02*
X7941500Y-6918000D01*
X15916500Y-6755500D02*
X16241500Y-7080500D01*
X16241500Y-6755500D02*
X15916500Y-7080500D01*
X16079000Y-6755500D02*
X16079000Y-7080500D01*
X15916500Y-6918000D02*
X16241500Y-6918000D01*
X15916500Y-12555500D02*
X16241500Y-12880500D01*
X16241500Y-12555500D02*
X15916500Y-12880500D01*
X16079000Y-12555500D02*
X16079000Y-12880500D01*
X15916500Y-12718000D02*
X16241500Y-12718000D01*
D11*
X6682277Y-13386984D02*
X6682277Y-13186984D01*
X6682277Y-13186984D02*
X6729896Y-13186984D01*
X6729896Y-13186984D02*
X6758467Y-13196508D01*
X6758467Y-13196508D02*
X6777515Y-13215555D01*
X6777515Y-13215555D02*
X6787039Y-13234603D01*
X6787039Y-13234603D02*
X6796562Y-13272698D01*
X6796562Y-13272698D02*
X6796562Y-13301269D01*
X6796562Y-13301269D02*
X6787039Y-13339365D01*
X6787039Y-13339365D02*
X6777515Y-13358412D01*
X6777515Y-13358412D02*
X6758467Y-13377460D01*
X6758467Y-13377460D02*
X6729896Y-13386984D01*
X6729896Y-13386984D02*
X6682277Y-13386984D01*
X6882277Y-13386984D02*
X6882277Y-13253650D01*
X6882277Y-13291746D02*
X6891801Y-13272698D01*
X6891801Y-13272698D02*
X6901324Y-13263174D01*
X6901324Y-13263174D02*
X6920372Y-13253650D01*
X6920372Y-13253650D02*
X6939420Y-13253650D01*
X7006086Y-13386984D02*
X7006086Y-13253650D01*
X7006086Y-13186984D02*
X6996562Y-13196508D01*
X6996562Y-13196508D02*
X7006086Y-13206031D01*
X7006086Y-13206031D02*
X7015610Y-13196508D01*
X7015610Y-13196508D02*
X7006086Y-13186984D01*
X7006086Y-13186984D02*
X7006086Y-13206031D01*
X7129896Y-13386984D02*
X7110848Y-13377460D01*
X7110848Y-13377460D02*
X7101324Y-13358412D01*
X7101324Y-13358412D02*
X7101324Y-13186984D01*
X7234658Y-13386984D02*
X7215610Y-13377460D01*
X7215610Y-13377460D02*
X7206086Y-13358412D01*
X7206086Y-13358412D02*
X7206086Y-13186984D01*
X7463229Y-13386984D02*
X7463229Y-13186984D01*
X7463229Y-13186984D02*
X7529896Y-13329841D01*
X7529896Y-13329841D02*
X7596562Y-13186984D01*
X7596562Y-13186984D02*
X7596562Y-13386984D01*
X7777515Y-13386984D02*
X7777515Y-13282222D01*
X7777515Y-13282222D02*
X7767991Y-13263174D01*
X7767991Y-13263174D02*
X7748943Y-13253650D01*
X7748943Y-13253650D02*
X7710848Y-13253650D01*
X7710848Y-13253650D02*
X7691801Y-13263174D01*
X7777515Y-13377460D02*
X7758467Y-13386984D01*
X7758467Y-13386984D02*
X7710848Y-13386984D01*
X7710848Y-13386984D02*
X7691801Y-13377460D01*
X7691801Y-13377460D02*
X7682277Y-13358412D01*
X7682277Y-13358412D02*
X7682277Y-13339365D01*
X7682277Y-13339365D02*
X7691801Y-13320317D01*
X7691801Y-13320317D02*
X7710848Y-13310793D01*
X7710848Y-13310793D02*
X7758467Y-13310793D01*
X7758467Y-13310793D02*
X7777515Y-13301269D01*
X7872753Y-13253650D02*
X7872753Y-13453650D01*
X7872753Y-13263174D02*
X7891801Y-13253650D01*
X7891801Y-13253650D02*
X7929896Y-13253650D01*
X7929896Y-13253650D02*
X7948943Y-13263174D01*
X7948943Y-13263174D02*
X7958467Y-13272698D01*
X7958467Y-13272698D02*
X7967991Y-13291746D01*
X7967991Y-13291746D02*
X7967991Y-13348888D01*
X7967991Y-13348888D02*
X7958467Y-13367936D01*
X7958467Y-13367936D02*
X7948943Y-13377460D01*
X7948943Y-13377460D02*
X7929896Y-13386984D01*
X7929896Y-13386984D02*
X7891801Y-13386984D01*
X7891801Y-13386984D02*
X7872753Y-13377460D01*
X8053705Y-13367936D02*
X8063229Y-13377460D01*
X8063229Y-13377460D02*
X8053705Y-13386984D01*
X8053705Y-13386984D02*
X8044182Y-13377460D01*
X8044182Y-13377460D02*
X8053705Y-13367936D01*
X8053705Y-13367936D02*
X8053705Y-13386984D01*
X8053705Y-13263174D02*
X8063229Y-13272698D01*
X8063229Y-13272698D02*
X8053705Y-13282222D01*
X8053705Y-13282222D02*
X8044182Y-13272698D01*
X8044182Y-13272698D02*
X8053705Y-13263174D01*
X8053705Y-13263174D02*
X8053705Y-13282222D01*
D12*
X6381500Y-13695500D02*
X6421500Y-13735500D01*
X6421500Y-13695500D02*
X6381500Y-13735500D01*
D11*
X6720372Y-13606984D02*
X6739420Y-13606984D01*
X6739420Y-13606984D02*
X6758467Y-13616508D01*
X6758467Y-13616508D02*
X6767991Y-13626031D01*
X6767991Y-13626031D02*
X6777515Y-13645079D01*
X6777515Y-13645079D02*
X6787039Y-13683174D01*
X6787039Y-13683174D02*
X6787039Y-13730793D01*
X6787039Y-13730793D02*
X6777515Y-13768888D01*
X6777515Y-13768888D02*
X6767991Y-13787936D01*
X6767991Y-13787936D02*
X6758467Y-13797460D01*
X6758467Y-13797460D02*
X6739420Y-13806984D01*
X6739420Y-13806984D02*
X6720372Y-13806984D01*
X6720372Y-13806984D02*
X6701324Y-13797460D01*
X6701324Y-13797460D02*
X6691801Y-13787936D01*
X6691801Y-13787936D02*
X6682277Y-13768888D01*
X6682277Y-13768888D02*
X6672753Y-13730793D01*
X6672753Y-13730793D02*
X6672753Y-13683174D01*
X6672753Y-13683174D02*
X6682277Y-13645079D01*
X6682277Y-13645079D02*
X6691801Y-13626031D01*
X6691801Y-13626031D02*
X6701324Y-13616508D01*
X6701324Y-13616508D02*
X6720372Y-13606984D01*
X6872753Y-13787936D02*
X6882277Y-13797460D01*
X6882277Y-13797460D02*
X6872753Y-13806984D01*
X6872753Y-13806984D02*
X6863229Y-13797460D01*
X6863229Y-13797460D02*
X6872753Y-13787936D01*
X6872753Y-13787936D02*
X6872753Y-13806984D01*
X7053705Y-13673650D02*
X7053705Y-13806984D01*
X7006086Y-13597460D02*
X6958467Y-13740317D01*
X6958467Y-13740317D02*
X7082277Y-13740317D01*
X7196562Y-13606984D02*
X7215610Y-13606984D01*
X7215610Y-13606984D02*
X7234658Y-13616508D01*
X7234658Y-13616508D02*
X7244182Y-13626031D01*
X7244182Y-13626031D02*
X7253705Y-13645079D01*
X7253705Y-13645079D02*
X7263229Y-13683174D01*
X7263229Y-13683174D02*
X7263229Y-13730793D01*
X7263229Y-13730793D02*
X7253705Y-13768888D01*
X7253705Y-13768888D02*
X7244182Y-13787936D01*
X7244182Y-13787936D02*
X7234658Y-13797460D01*
X7234658Y-13797460D02*
X7215610Y-13806984D01*
X7215610Y-13806984D02*
X7196562Y-13806984D01*
X7196562Y-13806984D02*
X7177515Y-13797460D01*
X7177515Y-13797460D02*
X7167991Y-13787936D01*
X7167991Y-13787936D02*
X7158467Y-13768888D01*
X7158467Y-13768888D02*
X7148943Y-13730793D01*
X7148943Y-13730793D02*
X7148943Y-13683174D01*
X7148943Y-13683174D02*
X7158467Y-13645079D01*
X7158467Y-13645079D02*
X7167991Y-13626031D01*
X7167991Y-13626031D02*
X7177515Y-13616508D01*
X7177515Y-13616508D02*
X7196562Y-13606984D01*
X7387039Y-13606984D02*
X7406086Y-13606984D01*
X7406086Y-13606984D02*
X7425134Y-13616508D01*
X7425134Y-13616508D02*
X7434658Y-13626031D01*
X7434658Y-13626031D02*
X7444182Y-13645079D01*
X7444182Y-13645079D02*
X7453705Y-13683174D01*
X7453705Y-13683174D02*
X7453705Y-13730793D01*
X7453705Y-13730793D02*
X7444182Y-13768888D01*
X7444182Y-13768888D02*
X7434658Y-13787936D01*
X7434658Y-13787936D02*
X7425134Y-13797460D01*
X7425134Y-13797460D02*
X7406086Y-13806984D01*
X7406086Y-13806984D02*
X7387039Y-13806984D01*
X7387039Y-13806984D02*
X7367991Y-13797460D01*
X7367991Y-13797460D02*
X7358467Y-13787936D01*
X7358467Y-13787936D02*
X7348943Y-13768888D01*
X7348943Y-13768888D02*
X7339420Y-13730793D01*
X7339420Y-13730793D02*
X7339420Y-13683174D01*
X7339420Y-13683174D02*
X7348943Y-13645079D01*
X7348943Y-13645079D02*
X7358467Y-13626031D01*
X7358467Y-13626031D02*
X7367991Y-13616508D01*
X7367991Y-13616508D02*
X7387039Y-13606984D01*
X7539420Y-13806984D02*
X7539420Y-13673650D01*
X7539420Y-13692698D02*
X7548943Y-13683174D01*
X7548943Y-13683174D02*
X7567991Y-13673650D01*
X7567991Y-13673650D02*
X7596563Y-13673650D01*
X7596563Y-13673650D02*
X7615610Y-13683174D01*
X7615610Y-13683174D02*
X7625134Y-13702222D01*
X7625134Y-13702222D02*
X7625134Y-13806984D01*
X7625134Y-13702222D02*
X7634658Y-13683174D01*
X7634658Y-13683174D02*
X7653705Y-13673650D01*
X7653705Y-13673650D02*
X7682277Y-13673650D01*
X7682277Y-13673650D02*
X7701324Y-13683174D01*
X7701324Y-13683174D02*
X7710848Y-13702222D01*
X7710848Y-13702222D02*
X7710848Y-13806984D01*
X7806086Y-13806984D02*
X7806086Y-13673650D01*
X7806086Y-13692698D02*
X7815610Y-13683174D01*
X7815610Y-13683174D02*
X7834658Y-13673650D01*
X7834658Y-13673650D02*
X7863229Y-13673650D01*
X7863229Y-13673650D02*
X7882277Y-13683174D01*
X7882277Y-13683174D02*
X7891801Y-13702222D01*
X7891801Y-13702222D02*
X7891801Y-13806984D01*
X7891801Y-13702222D02*
X7901324Y-13683174D01*
X7901324Y-13683174D02*
X7920372Y-13673650D01*
X7920372Y-13673650D02*
X7948943Y-13673650D01*
X7948943Y-13673650D02*
X7967991Y-13683174D01*
X7967991Y-13683174D02*
X7977515Y-13702222D01*
X7977515Y-13702222D02*
X7977515Y-13806984D01*
X8367991Y-13597460D02*
X8196563Y-13854603D01*
X8625134Y-13606984D02*
X8644182Y-13606984D01*
X8644182Y-13606984D02*
X8663229Y-13616508D01*
X8663229Y-13616508D02*
X8672753Y-13626031D01*
X8672753Y-13626031D02*
X8682277Y-13645079D01*
X8682277Y-13645079D02*
X8691801Y-13683174D01*
X8691801Y-13683174D02*
X8691801Y-13730793D01*
X8691801Y-13730793D02*
X8682277Y-13768888D01*
X8682277Y-13768888D02*
X8672753Y-13787936D01*
X8672753Y-13787936D02*
X8663229Y-13797460D01*
X8663229Y-13797460D02*
X8644182Y-13806984D01*
X8644182Y-13806984D02*
X8625134Y-13806984D01*
X8625134Y-13806984D02*
X8606087Y-13797460D01*
X8606087Y-13797460D02*
X8596563Y-13787936D01*
X8596563Y-13787936D02*
X8587039Y-13768888D01*
X8587039Y-13768888D02*
X8577515Y-13730793D01*
X8577515Y-13730793D02*
X8577515Y-13683174D01*
X8577515Y-13683174D02*
X8587039Y-13645079D01*
X8587039Y-13645079D02*
X8596563Y-13626031D01*
X8596563Y-13626031D02*
X8606087Y-13616508D01*
X8606087Y-13616508D02*
X8625134Y-13606984D01*
X8777515Y-13787936D02*
X8787039Y-13797460D01*
X8787039Y-13797460D02*
X8777515Y-13806984D01*
X8777515Y-13806984D02*
X8767991Y-13797460D01*
X8767991Y-13797460D02*
X8777515Y-13787936D01*
X8777515Y-13787936D02*
X8777515Y-13806984D01*
X8910848Y-13606984D02*
X8929896Y-13606984D01*
X8929896Y-13606984D02*
X8948944Y-13616508D01*
X8948944Y-13616508D02*
X8958468Y-13626031D01*
X8958468Y-13626031D02*
X8967991Y-13645079D01*
X8967991Y-13645079D02*
X8977515Y-13683174D01*
X8977515Y-13683174D02*
X8977515Y-13730793D01*
X8977515Y-13730793D02*
X8967991Y-13768888D01*
X8967991Y-13768888D02*
X8958468Y-13787936D01*
X8958468Y-13787936D02*
X8948944Y-13797460D01*
X8948944Y-13797460D02*
X8929896Y-13806984D01*
X8929896Y-13806984D02*
X8910848Y-13806984D01*
X8910848Y-13806984D02*
X8891801Y-13797460D01*
X8891801Y-13797460D02*
X8882277Y-13787936D01*
X8882277Y-13787936D02*
X8872753Y-13768888D01*
X8872753Y-13768888D02*
X8863229Y-13730793D01*
X8863229Y-13730793D02*
X8863229Y-13683174D01*
X8863229Y-13683174D02*
X8872753Y-13645079D01*
X8872753Y-13645079D02*
X8882277Y-13626031D01*
X8882277Y-13626031D02*
X8891801Y-13616508D01*
X8891801Y-13616508D02*
X8910848Y-13606984D01*
X9167991Y-13806984D02*
X9053706Y-13806984D01*
X9110848Y-13806984D02*
X9110848Y-13606984D01*
X9110848Y-13606984D02*
X9091801Y-13635555D01*
X9091801Y-13635555D02*
X9072753Y-13654603D01*
X9072753Y-13654603D02*
X9053706Y-13664127D01*
X9348944Y-13606984D02*
X9253706Y-13606984D01*
X9253706Y-13606984D02*
X9244182Y-13702222D01*
X9244182Y-13702222D02*
X9253706Y-13692698D01*
X9253706Y-13692698D02*
X9272753Y-13683174D01*
X9272753Y-13683174D02*
X9320372Y-13683174D01*
X9320372Y-13683174D02*
X9339420Y-13692698D01*
X9339420Y-13692698D02*
X9348944Y-13702222D01*
X9348944Y-13702222D02*
X9358468Y-13721269D01*
X9358468Y-13721269D02*
X9358468Y-13768888D01*
X9358468Y-13768888D02*
X9348944Y-13787936D01*
X9348944Y-13787936D02*
X9339420Y-13797460D01*
X9339420Y-13797460D02*
X9320372Y-13806984D01*
X9320372Y-13806984D02*
X9272753Y-13806984D01*
X9272753Y-13806984D02*
X9253706Y-13797460D01*
X9253706Y-13797460D02*
X9244182Y-13787936D01*
X9425134Y-13606984D02*
X9558468Y-13606984D01*
X9558468Y-13606984D02*
X9472753Y-13806984D01*
X9625134Y-13606984D02*
X9625134Y-13645079D01*
X9701325Y-13606984D02*
X9701325Y-13645079D01*
X9996563Y-13883174D02*
X9987039Y-13873650D01*
X9987039Y-13873650D02*
X9967991Y-13845079D01*
X9967991Y-13845079D02*
X9958468Y-13826031D01*
X9958468Y-13826031D02*
X9948944Y-13797460D01*
X9948944Y-13797460D02*
X9939420Y-13749841D01*
X9939420Y-13749841D02*
X9939420Y-13711746D01*
X9939420Y-13711746D02*
X9948944Y-13664127D01*
X9948944Y-13664127D02*
X9958468Y-13635555D01*
X9958468Y-13635555D02*
X9967991Y-13616508D01*
X9967991Y-13616508D02*
X9987039Y-13587936D01*
X9987039Y-13587936D02*
X9996563Y-13578412D01*
X10177515Y-13806984D02*
X10063230Y-13806984D01*
X10120372Y-13806984D02*
X10120372Y-13606984D01*
X10120372Y-13606984D02*
X10101325Y-13635555D01*
X10101325Y-13635555D02*
X10082277Y-13654603D01*
X10082277Y-13654603D02*
X10063230Y-13664127D01*
X10272753Y-13806984D02*
X10310849Y-13806984D01*
X10310849Y-13806984D02*
X10329896Y-13797460D01*
X10329896Y-13797460D02*
X10339420Y-13787936D01*
X10339420Y-13787936D02*
X10358468Y-13759365D01*
X10358468Y-13759365D02*
X10367991Y-13721269D01*
X10367991Y-13721269D02*
X10367991Y-13645079D01*
X10367991Y-13645079D02*
X10358468Y-13626031D01*
X10358468Y-13626031D02*
X10348944Y-13616508D01*
X10348944Y-13616508D02*
X10329896Y-13606984D01*
X10329896Y-13606984D02*
X10291801Y-13606984D01*
X10291801Y-13606984D02*
X10272753Y-13616508D01*
X10272753Y-13616508D02*
X10263230Y-13626031D01*
X10263230Y-13626031D02*
X10253706Y-13645079D01*
X10253706Y-13645079D02*
X10253706Y-13692698D01*
X10253706Y-13692698D02*
X10263230Y-13711746D01*
X10263230Y-13711746D02*
X10272753Y-13721269D01*
X10272753Y-13721269D02*
X10291801Y-13730793D01*
X10291801Y-13730793D02*
X10329896Y-13730793D01*
X10329896Y-13730793D02*
X10348944Y-13721269D01*
X10348944Y-13721269D02*
X10358468Y-13711746D01*
X10358468Y-13711746D02*
X10367991Y-13692698D01*
X10482277Y-13692698D02*
X10463230Y-13683174D01*
X10463230Y-13683174D02*
X10453706Y-13673650D01*
X10453706Y-13673650D02*
X10444182Y-13654603D01*
X10444182Y-13654603D02*
X10444182Y-13645079D01*
X10444182Y-13645079D02*
X10453706Y-13626031D01*
X10453706Y-13626031D02*
X10463230Y-13616508D01*
X10463230Y-13616508D02*
X10482277Y-13606984D01*
X10482277Y-13606984D02*
X10520372Y-13606984D01*
X10520372Y-13606984D02*
X10539420Y-13616508D01*
X10539420Y-13616508D02*
X10548944Y-13626031D01*
X10548944Y-13626031D02*
X10558468Y-13645079D01*
X10558468Y-13645079D02*
X10558468Y-13654603D01*
X10558468Y-13654603D02*
X10548944Y-13673650D01*
X10548944Y-13673650D02*
X10539420Y-13683174D01*
X10539420Y-13683174D02*
X10520372Y-13692698D01*
X10520372Y-13692698D02*
X10482277Y-13692698D01*
X10482277Y-13692698D02*
X10463230Y-13702222D01*
X10463230Y-13702222D02*
X10453706Y-13711746D01*
X10453706Y-13711746D02*
X10444182Y-13730793D01*
X10444182Y-13730793D02*
X10444182Y-13768888D01*
X10444182Y-13768888D02*
X10453706Y-13787936D01*
X10453706Y-13787936D02*
X10463230Y-13797460D01*
X10463230Y-13797460D02*
X10482277Y-13806984D01*
X10482277Y-13806984D02*
X10520372Y-13806984D01*
X10520372Y-13806984D02*
X10539420Y-13797460D01*
X10539420Y-13797460D02*
X10548944Y-13787936D01*
X10548944Y-13787936D02*
X10558468Y-13768888D01*
X10558468Y-13768888D02*
X10558468Y-13730793D01*
X10558468Y-13730793D02*
X10548944Y-13711746D01*
X10548944Y-13711746D02*
X10539420Y-13702222D01*
X10539420Y-13702222D02*
X10520372Y-13692698D01*
X10796563Y-13806984D02*
X10796563Y-13606984D01*
X10882277Y-13806984D02*
X10882277Y-13702222D01*
X10882277Y-13702222D02*
X10872753Y-13683174D01*
X10872753Y-13683174D02*
X10853706Y-13673650D01*
X10853706Y-13673650D02*
X10825134Y-13673650D01*
X10825134Y-13673650D02*
X10806087Y-13683174D01*
X10806087Y-13683174D02*
X10796563Y-13692698D01*
X11006087Y-13806984D02*
X10987039Y-13797460D01*
X10987039Y-13797460D02*
X10977515Y-13787936D01*
X10977515Y-13787936D02*
X10967992Y-13768888D01*
X10967992Y-13768888D02*
X10967992Y-13711746D01*
X10967992Y-13711746D02*
X10977515Y-13692698D01*
X10977515Y-13692698D02*
X10987039Y-13683174D01*
X10987039Y-13683174D02*
X11006087Y-13673650D01*
X11006087Y-13673650D02*
X11034658Y-13673650D01*
X11034658Y-13673650D02*
X11053706Y-13683174D01*
X11053706Y-13683174D02*
X11063230Y-13692698D01*
X11063230Y-13692698D02*
X11072753Y-13711746D01*
X11072753Y-13711746D02*
X11072753Y-13768888D01*
X11072753Y-13768888D02*
X11063230Y-13787936D01*
X11063230Y-13787936D02*
X11053706Y-13797460D01*
X11053706Y-13797460D02*
X11034658Y-13806984D01*
X11034658Y-13806984D02*
X11006087Y-13806984D01*
X11187039Y-13806984D02*
X11167992Y-13797460D01*
X11167992Y-13797460D02*
X11158468Y-13778412D01*
X11158468Y-13778412D02*
X11158468Y-13606984D01*
X11339420Y-13797460D02*
X11320372Y-13806984D01*
X11320372Y-13806984D02*
X11282277Y-13806984D01*
X11282277Y-13806984D02*
X11263230Y-13797460D01*
X11263230Y-13797460D02*
X11253706Y-13778412D01*
X11253706Y-13778412D02*
X11253706Y-13702222D01*
X11253706Y-13702222D02*
X11263230Y-13683174D01*
X11263230Y-13683174D02*
X11282277Y-13673650D01*
X11282277Y-13673650D02*
X11320372Y-13673650D01*
X11320372Y-13673650D02*
X11339420Y-13683174D01*
X11339420Y-13683174D02*
X11348944Y-13702222D01*
X11348944Y-13702222D02*
X11348944Y-13721269D01*
X11348944Y-13721269D02*
X11253706Y-13740317D01*
X11425134Y-13797460D02*
X11444182Y-13806984D01*
X11444182Y-13806984D02*
X11482277Y-13806984D01*
X11482277Y-13806984D02*
X11501325Y-13797460D01*
X11501325Y-13797460D02*
X11510849Y-13778412D01*
X11510849Y-13778412D02*
X11510849Y-13768888D01*
X11510849Y-13768888D02*
X11501325Y-13749841D01*
X11501325Y-13749841D02*
X11482277Y-13740317D01*
X11482277Y-13740317D02*
X11453706Y-13740317D01*
X11453706Y-13740317D02*
X11434658Y-13730793D01*
X11434658Y-13730793D02*
X11425134Y-13711746D01*
X11425134Y-13711746D02*
X11425134Y-13702222D01*
X11425134Y-13702222D02*
X11434658Y-13683174D01*
X11434658Y-13683174D02*
X11453706Y-13673650D01*
X11453706Y-13673650D02*
X11482277Y-13673650D01*
X11482277Y-13673650D02*
X11501325Y-13683174D01*
X11577515Y-13883174D02*
X11587039Y-13873650D01*
X11587039Y-13873650D02*
X11606087Y-13845079D01*
X11606087Y-13845079D02*
X11615611Y-13826031D01*
X11615611Y-13826031D02*
X11625134Y-13797460D01*
X11625134Y-13797460D02*
X11634658Y-13749841D01*
X11634658Y-13749841D02*
X11634658Y-13711746D01*
X11634658Y-13711746D02*
X11625134Y-13664127D01*
X11625134Y-13664127D02*
X11615611Y-13635555D01*
X11615611Y-13635555D02*
X11606087Y-13616508D01*
X11606087Y-13616508D02*
X11587039Y-13587936D01*
X11587039Y-13587936D02*
X11577515Y-13578412D01*
D13*
X6421500Y-13979500D02*
G75*
G03*
X6421500Y-13979500I-47500J0D01*
G01*
D11*
X6720372Y-13870984D02*
X6739420Y-13870984D01*
X6739420Y-13870984D02*
X6758467Y-13880508D01*
X6758467Y-13880508D02*
X6767991Y-13890031D01*
X6767991Y-13890031D02*
X6777515Y-13909079D01*
X6777515Y-13909079D02*
X6787039Y-13947174D01*
X6787039Y-13947174D02*
X6787039Y-13994793D01*
X6787039Y-13994793D02*
X6777515Y-14032888D01*
X6777515Y-14032888D02*
X6767991Y-14051936D01*
X6767991Y-14051936D02*
X6758467Y-14061460D01*
X6758467Y-14061460D02*
X6739420Y-14070984D01*
X6739420Y-14070984D02*
X6720372Y-14070984D01*
X6720372Y-14070984D02*
X6701324Y-14061460D01*
X6701324Y-14061460D02*
X6691801Y-14051936D01*
X6691801Y-14051936D02*
X6682277Y-14032888D01*
X6682277Y-14032888D02*
X6672753Y-13994793D01*
X6672753Y-13994793D02*
X6672753Y-13947174D01*
X6672753Y-13947174D02*
X6682277Y-13909079D01*
X6682277Y-13909079D02*
X6691801Y-13890031D01*
X6691801Y-13890031D02*
X6701324Y-13880508D01*
X6701324Y-13880508D02*
X6720372Y-13870984D01*
X6872753Y-14051936D02*
X6882277Y-14061460D01*
X6882277Y-14061460D02*
X6872753Y-14070984D01*
X6872753Y-14070984D02*
X6863229Y-14061460D01*
X6863229Y-14061460D02*
X6872753Y-14051936D01*
X6872753Y-14051936D02*
X6872753Y-14070984D01*
X6977515Y-14070984D02*
X7015610Y-14070984D01*
X7015610Y-14070984D02*
X7034658Y-14061460D01*
X7034658Y-14061460D02*
X7044182Y-14051936D01*
X7044182Y-14051936D02*
X7063229Y-14023365D01*
X7063229Y-14023365D02*
X7072753Y-13985269D01*
X7072753Y-13985269D02*
X7072753Y-13909079D01*
X7072753Y-13909079D02*
X7063229Y-13890031D01*
X7063229Y-13890031D02*
X7053705Y-13880508D01*
X7053705Y-13880508D02*
X7034658Y-13870984D01*
X7034658Y-13870984D02*
X6996562Y-13870984D01*
X6996562Y-13870984D02*
X6977515Y-13880508D01*
X6977515Y-13880508D02*
X6967991Y-13890031D01*
X6967991Y-13890031D02*
X6958467Y-13909079D01*
X6958467Y-13909079D02*
X6958467Y-13956698D01*
X6958467Y-13956698D02*
X6967991Y-13975746D01*
X6967991Y-13975746D02*
X6977515Y-13985269D01*
X6977515Y-13985269D02*
X6996562Y-13994793D01*
X6996562Y-13994793D02*
X7034658Y-13994793D01*
X7034658Y-13994793D02*
X7053705Y-13985269D01*
X7053705Y-13985269D02*
X7063229Y-13975746D01*
X7063229Y-13975746D02*
X7072753Y-13956698D01*
X7253705Y-13870984D02*
X7158467Y-13870984D01*
X7158467Y-13870984D02*
X7148943Y-13966222D01*
X7148943Y-13966222D02*
X7158467Y-13956698D01*
X7158467Y-13956698D02*
X7177515Y-13947174D01*
X7177515Y-13947174D02*
X7225134Y-13947174D01*
X7225134Y-13947174D02*
X7244182Y-13956698D01*
X7244182Y-13956698D02*
X7253705Y-13966222D01*
X7253705Y-13966222D02*
X7263229Y-13985269D01*
X7263229Y-13985269D02*
X7263229Y-14032888D01*
X7263229Y-14032888D02*
X7253705Y-14051936D01*
X7253705Y-14051936D02*
X7244182Y-14061460D01*
X7244182Y-14061460D02*
X7225134Y-14070984D01*
X7225134Y-14070984D02*
X7177515Y-14070984D01*
X7177515Y-14070984D02*
X7158467Y-14061460D01*
X7158467Y-14061460D02*
X7148943Y-14051936D01*
X7387039Y-13870984D02*
X7406086Y-13870984D01*
X7406086Y-13870984D02*
X7425134Y-13880508D01*
X7425134Y-13880508D02*
X7434658Y-13890031D01*
X7434658Y-13890031D02*
X7444182Y-13909079D01*
X7444182Y-13909079D02*
X7453705Y-13947174D01*
X7453705Y-13947174D02*
X7453705Y-13994793D01*
X7453705Y-13994793D02*
X7444182Y-14032888D01*
X7444182Y-14032888D02*
X7434658Y-14051936D01*
X7434658Y-14051936D02*
X7425134Y-14061460D01*
X7425134Y-14061460D02*
X7406086Y-14070984D01*
X7406086Y-14070984D02*
X7387039Y-14070984D01*
X7387039Y-14070984D02*
X7367991Y-14061460D01*
X7367991Y-14061460D02*
X7358467Y-14051936D01*
X7358467Y-14051936D02*
X7348943Y-14032888D01*
X7348943Y-14032888D02*
X7339420Y-13994793D01*
X7339420Y-13994793D02*
X7339420Y-13947174D01*
X7339420Y-13947174D02*
X7348943Y-13909079D01*
X7348943Y-13909079D02*
X7358467Y-13890031D01*
X7358467Y-13890031D02*
X7367991Y-13880508D01*
X7367991Y-13880508D02*
X7387039Y-13870984D01*
X7539420Y-14070984D02*
X7539420Y-13937650D01*
X7539420Y-13956698D02*
X7548943Y-13947174D01*
X7548943Y-13947174D02*
X7567991Y-13937650D01*
X7567991Y-13937650D02*
X7596563Y-13937650D01*
X7596563Y-13937650D02*
X7615610Y-13947174D01*
X7615610Y-13947174D02*
X7625134Y-13966222D01*
X7625134Y-13966222D02*
X7625134Y-14070984D01*
X7625134Y-13966222D02*
X7634658Y-13947174D01*
X7634658Y-13947174D02*
X7653705Y-13937650D01*
X7653705Y-13937650D02*
X7682277Y-13937650D01*
X7682277Y-13937650D02*
X7701324Y-13947174D01*
X7701324Y-13947174D02*
X7710848Y-13966222D01*
X7710848Y-13966222D02*
X7710848Y-14070984D01*
X7806086Y-14070984D02*
X7806086Y-13937650D01*
X7806086Y-13956698D02*
X7815610Y-13947174D01*
X7815610Y-13947174D02*
X7834658Y-13937650D01*
X7834658Y-13937650D02*
X7863229Y-13937650D01*
X7863229Y-13937650D02*
X7882277Y-13947174D01*
X7882277Y-13947174D02*
X7891801Y-13966222D01*
X7891801Y-13966222D02*
X7891801Y-14070984D01*
X7891801Y-13966222D02*
X7901324Y-13947174D01*
X7901324Y-13947174D02*
X7920372Y-13937650D01*
X7920372Y-13937650D02*
X7948943Y-13937650D01*
X7948943Y-13937650D02*
X7967991Y-13947174D01*
X7967991Y-13947174D02*
X7977515Y-13966222D01*
X7977515Y-13966222D02*
X7977515Y-14070984D01*
X8367991Y-13861460D02*
X8196563Y-14118603D01*
X8625134Y-13870984D02*
X8644182Y-13870984D01*
X8644182Y-13870984D02*
X8663229Y-13880508D01*
X8663229Y-13880508D02*
X8672753Y-13890031D01*
X8672753Y-13890031D02*
X8682277Y-13909079D01*
X8682277Y-13909079D02*
X8691801Y-13947174D01*
X8691801Y-13947174D02*
X8691801Y-13994793D01*
X8691801Y-13994793D02*
X8682277Y-14032888D01*
X8682277Y-14032888D02*
X8672753Y-14051936D01*
X8672753Y-14051936D02*
X8663229Y-14061460D01*
X8663229Y-14061460D02*
X8644182Y-14070984D01*
X8644182Y-14070984D02*
X8625134Y-14070984D01*
X8625134Y-14070984D02*
X8606087Y-14061460D01*
X8606087Y-14061460D02*
X8596563Y-14051936D01*
X8596563Y-14051936D02*
X8587039Y-14032888D01*
X8587039Y-14032888D02*
X8577515Y-13994793D01*
X8577515Y-13994793D02*
X8577515Y-13947174D01*
X8577515Y-13947174D02*
X8587039Y-13909079D01*
X8587039Y-13909079D02*
X8596563Y-13890031D01*
X8596563Y-13890031D02*
X8606087Y-13880508D01*
X8606087Y-13880508D02*
X8625134Y-13870984D01*
X8777515Y-14051936D02*
X8787039Y-14061460D01*
X8787039Y-14061460D02*
X8777515Y-14070984D01*
X8777515Y-14070984D02*
X8767991Y-14061460D01*
X8767991Y-14061460D02*
X8777515Y-14051936D01*
X8777515Y-14051936D02*
X8777515Y-14070984D01*
X8910848Y-13870984D02*
X8929896Y-13870984D01*
X8929896Y-13870984D02*
X8948944Y-13880508D01*
X8948944Y-13880508D02*
X8958468Y-13890031D01*
X8958468Y-13890031D02*
X8967991Y-13909079D01*
X8967991Y-13909079D02*
X8977515Y-13947174D01*
X8977515Y-13947174D02*
X8977515Y-13994793D01*
X8977515Y-13994793D02*
X8967991Y-14032888D01*
X8967991Y-14032888D02*
X8958468Y-14051936D01*
X8958468Y-14051936D02*
X8948944Y-14061460D01*
X8948944Y-14061460D02*
X8929896Y-14070984D01*
X8929896Y-14070984D02*
X8910848Y-14070984D01*
X8910848Y-14070984D02*
X8891801Y-14061460D01*
X8891801Y-14061460D02*
X8882277Y-14051936D01*
X8882277Y-14051936D02*
X8872753Y-14032888D01*
X8872753Y-14032888D02*
X8863229Y-13994793D01*
X8863229Y-13994793D02*
X8863229Y-13947174D01*
X8863229Y-13947174D02*
X8872753Y-13909079D01*
X8872753Y-13909079D02*
X8882277Y-13890031D01*
X8882277Y-13890031D02*
X8891801Y-13880508D01*
X8891801Y-13880508D02*
X8910848Y-13870984D01*
X9044182Y-13870984D02*
X9167991Y-13870984D01*
X9167991Y-13870984D02*
X9101325Y-13947174D01*
X9101325Y-13947174D02*
X9129896Y-13947174D01*
X9129896Y-13947174D02*
X9148944Y-13956698D01*
X9148944Y-13956698D02*
X9158468Y-13966222D01*
X9158468Y-13966222D02*
X9167991Y-13985269D01*
X9167991Y-13985269D02*
X9167991Y-14032888D01*
X9167991Y-14032888D02*
X9158468Y-14051936D01*
X9158468Y-14051936D02*
X9148944Y-14061460D01*
X9148944Y-14061460D02*
X9129896Y-14070984D01*
X9129896Y-14070984D02*
X9072753Y-14070984D01*
X9072753Y-14070984D02*
X9053706Y-14061460D01*
X9053706Y-14061460D02*
X9044182Y-14051936D01*
X9234658Y-13870984D02*
X9367991Y-13870984D01*
X9367991Y-13870984D02*
X9282277Y-14070984D01*
X9529896Y-13937650D02*
X9529896Y-14070984D01*
X9482277Y-13861460D02*
X9434658Y-14004317D01*
X9434658Y-14004317D02*
X9558468Y-14004317D01*
X9625134Y-13870984D02*
X9625134Y-13909079D01*
X9701325Y-13870984D02*
X9701325Y-13909079D01*
X9996563Y-14147174D02*
X9987039Y-14137650D01*
X9987039Y-14137650D02*
X9967991Y-14109079D01*
X9967991Y-14109079D02*
X9958468Y-14090031D01*
X9958468Y-14090031D02*
X9948944Y-14061460D01*
X9948944Y-14061460D02*
X9939420Y-14013841D01*
X9939420Y-14013841D02*
X9939420Y-13975746D01*
X9939420Y-13975746D02*
X9948944Y-13928127D01*
X9948944Y-13928127D02*
X9958468Y-13899555D01*
X9958468Y-13899555D02*
X9967991Y-13880508D01*
X9967991Y-13880508D02*
X9987039Y-13851936D01*
X9987039Y-13851936D02*
X9996563Y-13842412D01*
X10158468Y-13937650D02*
X10158468Y-14070984D01*
X10110849Y-13861460D02*
X10063230Y-14004317D01*
X10063230Y-14004317D02*
X10187039Y-14004317D01*
X10348944Y-13870984D02*
X10310849Y-13870984D01*
X10310849Y-13870984D02*
X10291801Y-13880508D01*
X10291801Y-13880508D02*
X10282277Y-13890031D01*
X10282277Y-13890031D02*
X10263230Y-13918603D01*
X10263230Y-13918603D02*
X10253706Y-13956698D01*
X10253706Y-13956698D02*
X10253706Y-14032888D01*
X10253706Y-14032888D02*
X10263230Y-14051936D01*
X10263230Y-14051936D02*
X10272753Y-14061460D01*
X10272753Y-14061460D02*
X10291801Y-14070984D01*
X10291801Y-14070984D02*
X10329896Y-14070984D01*
X10329896Y-14070984D02*
X10348944Y-14061460D01*
X10348944Y-14061460D02*
X10358468Y-14051936D01*
X10358468Y-14051936D02*
X10367991Y-14032888D01*
X10367991Y-14032888D02*
X10367991Y-13985269D01*
X10367991Y-13985269D02*
X10358468Y-13966222D01*
X10358468Y-13966222D02*
X10348944Y-13956698D01*
X10348944Y-13956698D02*
X10329896Y-13947174D01*
X10329896Y-13947174D02*
X10291801Y-13947174D01*
X10291801Y-13947174D02*
X10272753Y-13956698D01*
X10272753Y-13956698D02*
X10263230Y-13966222D01*
X10263230Y-13966222D02*
X10253706Y-13985269D01*
X10606087Y-14070984D02*
X10606087Y-13870984D01*
X10691801Y-14070984D02*
X10691801Y-13966222D01*
X10691801Y-13966222D02*
X10682277Y-13947174D01*
X10682277Y-13947174D02*
X10663230Y-13937650D01*
X10663230Y-13937650D02*
X10634658Y-13937650D01*
X10634658Y-13937650D02*
X10615611Y-13947174D01*
X10615611Y-13947174D02*
X10606087Y-13956698D01*
X10815611Y-14070984D02*
X10796563Y-14061460D01*
X10796563Y-14061460D02*
X10787039Y-14051936D01*
X10787039Y-14051936D02*
X10777515Y-14032888D01*
X10777515Y-14032888D02*
X10777515Y-13975746D01*
X10777515Y-13975746D02*
X10787039Y-13956698D01*
X10787039Y-13956698D02*
X10796563Y-13947174D01*
X10796563Y-13947174D02*
X10815611Y-13937650D01*
X10815611Y-13937650D02*
X10844182Y-13937650D01*
X10844182Y-13937650D02*
X10863230Y-13947174D01*
X10863230Y-13947174D02*
X10872753Y-13956698D01*
X10872753Y-13956698D02*
X10882277Y-13975746D01*
X10882277Y-13975746D02*
X10882277Y-14032888D01*
X10882277Y-14032888D02*
X10872753Y-14051936D01*
X10872753Y-14051936D02*
X10863230Y-14061460D01*
X10863230Y-14061460D02*
X10844182Y-14070984D01*
X10844182Y-14070984D02*
X10815611Y-14070984D01*
X10996563Y-14070984D02*
X10977515Y-14061460D01*
X10977515Y-14061460D02*
X10967992Y-14042412D01*
X10967992Y-14042412D02*
X10967992Y-13870984D01*
X11148944Y-14061460D02*
X11129896Y-14070984D01*
X11129896Y-14070984D02*
X11091801Y-14070984D01*
X11091801Y-14070984D02*
X11072753Y-14061460D01*
X11072753Y-14061460D02*
X11063230Y-14042412D01*
X11063230Y-14042412D02*
X11063230Y-13966222D01*
X11063230Y-13966222D02*
X11072753Y-13947174D01*
X11072753Y-13947174D02*
X11091801Y-13937650D01*
X11091801Y-13937650D02*
X11129896Y-13937650D01*
X11129896Y-13937650D02*
X11148944Y-13947174D01*
X11148944Y-13947174D02*
X11158468Y-13966222D01*
X11158468Y-13966222D02*
X11158468Y-13985269D01*
X11158468Y-13985269D02*
X11063230Y-14004317D01*
X11234658Y-14061460D02*
X11253706Y-14070984D01*
X11253706Y-14070984D02*
X11291801Y-14070984D01*
X11291801Y-14070984D02*
X11310849Y-14061460D01*
X11310849Y-14061460D02*
X11320372Y-14042412D01*
X11320372Y-14042412D02*
X11320372Y-14032888D01*
X11320372Y-14032888D02*
X11310849Y-14013841D01*
X11310849Y-14013841D02*
X11291801Y-14004317D01*
X11291801Y-14004317D02*
X11263230Y-14004317D01*
X11263230Y-14004317D02*
X11244182Y-13994793D01*
X11244182Y-13994793D02*
X11234658Y-13975746D01*
X11234658Y-13975746D02*
X11234658Y-13966222D01*
X11234658Y-13966222D02*
X11244182Y-13947174D01*
X11244182Y-13947174D02*
X11263230Y-13937650D01*
X11263230Y-13937650D02*
X11291801Y-13937650D01*
X11291801Y-13937650D02*
X11310849Y-13947174D01*
X11387039Y-14147174D02*
X11396563Y-14137650D01*
X11396563Y-14137650D02*
X11415611Y-14109079D01*
X11415611Y-14109079D02*
X11425134Y-14090031D01*
X11425134Y-14090031D02*
X11434658Y-14061460D01*
X11434658Y-14061460D02*
X11444182Y-14013841D01*
X11444182Y-14013841D02*
X11444182Y-13975746D01*
X11444182Y-13975746D02*
X11434658Y-13928127D01*
X11434658Y-13928127D02*
X11425134Y-13899555D01*
X11425134Y-13899555D02*
X11415611Y-13880508D01*
X11415611Y-13880508D02*
X11396563Y-13851936D01*
X11396563Y-13851936D02*
X11387039Y-13842412D01*
D14*
X6371500Y-14193500D02*
X6371500Y-14293500D01*
X6321500Y-14243500D02*
X6421500Y-14243500D01*
D11*
X6787039Y-14334984D02*
X6672753Y-14334984D01*
X6729896Y-14334984D02*
X6729896Y-14134984D01*
X6729896Y-14134984D02*
X6710848Y-14163555D01*
X6710848Y-14163555D02*
X6691801Y-14182603D01*
X6691801Y-14182603D02*
X6672753Y-14192127D01*
X6872753Y-14315936D02*
X6882277Y-14325460D01*
X6882277Y-14325460D02*
X6872753Y-14334984D01*
X6872753Y-14334984D02*
X6863229Y-14325460D01*
X6863229Y-14325460D02*
X6872753Y-14315936D01*
X6872753Y-14315936D02*
X6872753Y-14334984D01*
X7006086Y-14134984D02*
X7025134Y-14134984D01*
X7025134Y-14134984D02*
X7044182Y-14144508D01*
X7044182Y-14144508D02*
X7053705Y-14154031D01*
X7053705Y-14154031D02*
X7063229Y-14173079D01*
X7063229Y-14173079D02*
X7072753Y-14211174D01*
X7072753Y-14211174D02*
X7072753Y-14258793D01*
X7072753Y-14258793D02*
X7063229Y-14296888D01*
X7063229Y-14296888D02*
X7053705Y-14315936D01*
X7053705Y-14315936D02*
X7044182Y-14325460D01*
X7044182Y-14325460D02*
X7025134Y-14334984D01*
X7025134Y-14334984D02*
X7006086Y-14334984D01*
X7006086Y-14334984D02*
X6987039Y-14325460D01*
X6987039Y-14325460D02*
X6977515Y-14315936D01*
X6977515Y-14315936D02*
X6967991Y-14296888D01*
X6967991Y-14296888D02*
X6958467Y-14258793D01*
X6958467Y-14258793D02*
X6958467Y-14211174D01*
X6958467Y-14211174D02*
X6967991Y-14173079D01*
X6967991Y-14173079D02*
X6977515Y-14154031D01*
X6977515Y-14154031D02*
X6987039Y-14144508D01*
X6987039Y-14144508D02*
X7006086Y-14134984D01*
X7196562Y-14134984D02*
X7215610Y-14134984D01*
X7215610Y-14134984D02*
X7234658Y-14144508D01*
X7234658Y-14144508D02*
X7244182Y-14154031D01*
X7244182Y-14154031D02*
X7253705Y-14173079D01*
X7253705Y-14173079D02*
X7263229Y-14211174D01*
X7263229Y-14211174D02*
X7263229Y-14258793D01*
X7263229Y-14258793D02*
X7253705Y-14296888D01*
X7253705Y-14296888D02*
X7244182Y-14315936D01*
X7244182Y-14315936D02*
X7234658Y-14325460D01*
X7234658Y-14325460D02*
X7215610Y-14334984D01*
X7215610Y-14334984D02*
X7196562Y-14334984D01*
X7196562Y-14334984D02*
X7177515Y-14325460D01*
X7177515Y-14325460D02*
X7167991Y-14315936D01*
X7167991Y-14315936D02*
X7158467Y-14296888D01*
X7158467Y-14296888D02*
X7148943Y-14258793D01*
X7148943Y-14258793D02*
X7148943Y-14211174D01*
X7148943Y-14211174D02*
X7158467Y-14173079D01*
X7158467Y-14173079D02*
X7167991Y-14154031D01*
X7167991Y-14154031D02*
X7177515Y-14144508D01*
X7177515Y-14144508D02*
X7196562Y-14134984D01*
X7387039Y-14134984D02*
X7406086Y-14134984D01*
X7406086Y-14134984D02*
X7425134Y-14144508D01*
X7425134Y-14144508D02*
X7434658Y-14154031D01*
X7434658Y-14154031D02*
X7444182Y-14173079D01*
X7444182Y-14173079D02*
X7453705Y-14211174D01*
X7453705Y-14211174D02*
X7453705Y-14258793D01*
X7453705Y-14258793D02*
X7444182Y-14296888D01*
X7444182Y-14296888D02*
X7434658Y-14315936D01*
X7434658Y-14315936D02*
X7425134Y-14325460D01*
X7425134Y-14325460D02*
X7406086Y-14334984D01*
X7406086Y-14334984D02*
X7387039Y-14334984D01*
X7387039Y-14334984D02*
X7367991Y-14325460D01*
X7367991Y-14325460D02*
X7358467Y-14315936D01*
X7358467Y-14315936D02*
X7348943Y-14296888D01*
X7348943Y-14296888D02*
X7339420Y-14258793D01*
X7339420Y-14258793D02*
X7339420Y-14211174D01*
X7339420Y-14211174D02*
X7348943Y-14173079D01*
X7348943Y-14173079D02*
X7358467Y-14154031D01*
X7358467Y-14154031D02*
X7367991Y-14144508D01*
X7367991Y-14144508D02*
X7387039Y-14134984D01*
X7539420Y-14334984D02*
X7539420Y-14201650D01*
X7539420Y-14220698D02*
X7548943Y-14211174D01*
X7548943Y-14211174D02*
X7567991Y-14201650D01*
X7567991Y-14201650D02*
X7596563Y-14201650D01*
X7596563Y-14201650D02*
X7615610Y-14211174D01*
X7615610Y-14211174D02*
X7625134Y-14230222D01*
X7625134Y-14230222D02*
X7625134Y-14334984D01*
X7625134Y-14230222D02*
X7634658Y-14211174D01*
X7634658Y-14211174D02*
X7653705Y-14201650D01*
X7653705Y-14201650D02*
X7682277Y-14201650D01*
X7682277Y-14201650D02*
X7701324Y-14211174D01*
X7701324Y-14211174D02*
X7710848Y-14230222D01*
X7710848Y-14230222D02*
X7710848Y-14334984D01*
X7806086Y-14334984D02*
X7806086Y-14201650D01*
X7806086Y-14220698D02*
X7815610Y-14211174D01*
X7815610Y-14211174D02*
X7834658Y-14201650D01*
X7834658Y-14201650D02*
X7863229Y-14201650D01*
X7863229Y-14201650D02*
X7882277Y-14211174D01*
X7882277Y-14211174D02*
X7891801Y-14230222D01*
X7891801Y-14230222D02*
X7891801Y-14334984D01*
X7891801Y-14230222D02*
X7901324Y-14211174D01*
X7901324Y-14211174D02*
X7920372Y-14201650D01*
X7920372Y-14201650D02*
X7948943Y-14201650D01*
X7948943Y-14201650D02*
X7967991Y-14211174D01*
X7967991Y-14211174D02*
X7977515Y-14230222D01*
X7977515Y-14230222D02*
X7977515Y-14334984D01*
X8367991Y-14125460D02*
X8196563Y-14382603D01*
X8625134Y-14134984D02*
X8644182Y-14134984D01*
X8644182Y-14134984D02*
X8663229Y-14144508D01*
X8663229Y-14144508D02*
X8672753Y-14154031D01*
X8672753Y-14154031D02*
X8682277Y-14173079D01*
X8682277Y-14173079D02*
X8691801Y-14211174D01*
X8691801Y-14211174D02*
X8691801Y-14258793D01*
X8691801Y-14258793D02*
X8682277Y-14296888D01*
X8682277Y-14296888D02*
X8672753Y-14315936D01*
X8672753Y-14315936D02*
X8663229Y-14325460D01*
X8663229Y-14325460D02*
X8644182Y-14334984D01*
X8644182Y-14334984D02*
X8625134Y-14334984D01*
X8625134Y-14334984D02*
X8606087Y-14325460D01*
X8606087Y-14325460D02*
X8596563Y-14315936D01*
X8596563Y-14315936D02*
X8587039Y-14296888D01*
X8587039Y-14296888D02*
X8577515Y-14258793D01*
X8577515Y-14258793D02*
X8577515Y-14211174D01*
X8577515Y-14211174D02*
X8587039Y-14173079D01*
X8587039Y-14173079D02*
X8596563Y-14154031D01*
X8596563Y-14154031D02*
X8606087Y-14144508D01*
X8606087Y-14144508D02*
X8625134Y-14134984D01*
X8777515Y-14315936D02*
X8787039Y-14325460D01*
X8787039Y-14325460D02*
X8777515Y-14334984D01*
X8777515Y-14334984D02*
X8767991Y-14325460D01*
X8767991Y-14325460D02*
X8777515Y-14315936D01*
X8777515Y-14315936D02*
X8777515Y-14334984D01*
X8910848Y-14134984D02*
X8929896Y-14134984D01*
X8929896Y-14134984D02*
X8948944Y-14144508D01*
X8948944Y-14144508D02*
X8958468Y-14154031D01*
X8958468Y-14154031D02*
X8967991Y-14173079D01*
X8967991Y-14173079D02*
X8977515Y-14211174D01*
X8977515Y-14211174D02*
X8977515Y-14258793D01*
X8977515Y-14258793D02*
X8967991Y-14296888D01*
X8967991Y-14296888D02*
X8958468Y-14315936D01*
X8958468Y-14315936D02*
X8948944Y-14325460D01*
X8948944Y-14325460D02*
X8929896Y-14334984D01*
X8929896Y-14334984D02*
X8910848Y-14334984D01*
X8910848Y-14334984D02*
X8891801Y-14325460D01*
X8891801Y-14325460D02*
X8882277Y-14315936D01*
X8882277Y-14315936D02*
X8872753Y-14296888D01*
X8872753Y-14296888D02*
X8863229Y-14258793D01*
X8863229Y-14258793D02*
X8863229Y-14211174D01*
X8863229Y-14211174D02*
X8872753Y-14173079D01*
X8872753Y-14173079D02*
X8882277Y-14154031D01*
X8882277Y-14154031D02*
X8891801Y-14144508D01*
X8891801Y-14144508D02*
X8910848Y-14134984D01*
X9044182Y-14134984D02*
X9167991Y-14134984D01*
X9167991Y-14134984D02*
X9101325Y-14211174D01*
X9101325Y-14211174D02*
X9129896Y-14211174D01*
X9129896Y-14211174D02*
X9148944Y-14220698D01*
X9148944Y-14220698D02*
X9158468Y-14230222D01*
X9158468Y-14230222D02*
X9167991Y-14249269D01*
X9167991Y-14249269D02*
X9167991Y-14296888D01*
X9167991Y-14296888D02*
X9158468Y-14315936D01*
X9158468Y-14315936D02*
X9148944Y-14325460D01*
X9148944Y-14325460D02*
X9129896Y-14334984D01*
X9129896Y-14334984D02*
X9072753Y-14334984D01*
X9072753Y-14334984D02*
X9053706Y-14325460D01*
X9053706Y-14325460D02*
X9044182Y-14315936D01*
X9263229Y-14334984D02*
X9301325Y-14334984D01*
X9301325Y-14334984D02*
X9320372Y-14325460D01*
X9320372Y-14325460D02*
X9329896Y-14315936D01*
X9329896Y-14315936D02*
X9348944Y-14287365D01*
X9348944Y-14287365D02*
X9358468Y-14249269D01*
X9358468Y-14249269D02*
X9358468Y-14173079D01*
X9358468Y-14173079D02*
X9348944Y-14154031D01*
X9348944Y-14154031D02*
X9339420Y-14144508D01*
X9339420Y-14144508D02*
X9320372Y-14134984D01*
X9320372Y-14134984D02*
X9282277Y-14134984D01*
X9282277Y-14134984D02*
X9263229Y-14144508D01*
X9263229Y-14144508D02*
X9253706Y-14154031D01*
X9253706Y-14154031D02*
X9244182Y-14173079D01*
X9244182Y-14173079D02*
X9244182Y-14220698D01*
X9244182Y-14220698D02*
X9253706Y-14239746D01*
X9253706Y-14239746D02*
X9263229Y-14249269D01*
X9263229Y-14249269D02*
X9282277Y-14258793D01*
X9282277Y-14258793D02*
X9320372Y-14258793D01*
X9320372Y-14258793D02*
X9339420Y-14249269D01*
X9339420Y-14249269D02*
X9348944Y-14239746D01*
X9348944Y-14239746D02*
X9358468Y-14220698D01*
X9529896Y-14201650D02*
X9529896Y-14334984D01*
X9482277Y-14125460D02*
X9434658Y-14268317D01*
X9434658Y-14268317D02*
X9558468Y-14268317D01*
X9625134Y-14134984D02*
X9625134Y-14173079D01*
X9701325Y-14134984D02*
X9701325Y-14173079D01*
X9996563Y-14411174D02*
X9987039Y-14401650D01*
X9987039Y-14401650D02*
X9967991Y-14373079D01*
X9967991Y-14373079D02*
X9958468Y-14354031D01*
X9958468Y-14354031D02*
X9948944Y-14325460D01*
X9948944Y-14325460D02*
X9939420Y-14277841D01*
X9939420Y-14277841D02*
X9939420Y-14239746D01*
X9939420Y-14239746D02*
X9948944Y-14192127D01*
X9948944Y-14192127D02*
X9958468Y-14163555D01*
X9958468Y-14163555D02*
X9967991Y-14144508D01*
X9967991Y-14144508D02*
X9987039Y-14115936D01*
X9987039Y-14115936D02*
X9996563Y-14106412D01*
X10177515Y-14334984D02*
X10063230Y-14334984D01*
X10120372Y-14334984D02*
X10120372Y-14134984D01*
X10120372Y-14134984D02*
X10101325Y-14163555D01*
X10101325Y-14163555D02*
X10082277Y-14182603D01*
X10082277Y-14182603D02*
X10063230Y-14192127D01*
X10244182Y-14134984D02*
X10377515Y-14134984D01*
X10377515Y-14134984D02*
X10291801Y-14334984D01*
X10606087Y-14334984D02*
X10606087Y-14134984D01*
X10691801Y-14334984D02*
X10691801Y-14230222D01*
X10691801Y-14230222D02*
X10682277Y-14211174D01*
X10682277Y-14211174D02*
X10663230Y-14201650D01*
X10663230Y-14201650D02*
X10634658Y-14201650D01*
X10634658Y-14201650D02*
X10615611Y-14211174D01*
X10615611Y-14211174D02*
X10606087Y-14220698D01*
X10815611Y-14334984D02*
X10796563Y-14325460D01*
X10796563Y-14325460D02*
X10787039Y-14315936D01*
X10787039Y-14315936D02*
X10777515Y-14296888D01*
X10777515Y-14296888D02*
X10777515Y-14239746D01*
X10777515Y-14239746D02*
X10787039Y-14220698D01*
X10787039Y-14220698D02*
X10796563Y-14211174D01*
X10796563Y-14211174D02*
X10815611Y-14201650D01*
X10815611Y-14201650D02*
X10844182Y-14201650D01*
X10844182Y-14201650D02*
X10863230Y-14211174D01*
X10863230Y-14211174D02*
X10872753Y-14220698D01*
X10872753Y-14220698D02*
X10882277Y-14239746D01*
X10882277Y-14239746D02*
X10882277Y-14296888D01*
X10882277Y-14296888D02*
X10872753Y-14315936D01*
X10872753Y-14315936D02*
X10863230Y-14325460D01*
X10863230Y-14325460D02*
X10844182Y-14334984D01*
X10844182Y-14334984D02*
X10815611Y-14334984D01*
X10996563Y-14334984D02*
X10977515Y-14325460D01*
X10977515Y-14325460D02*
X10967992Y-14306412D01*
X10967992Y-14306412D02*
X10967992Y-14134984D01*
X11148944Y-14325460D02*
X11129896Y-14334984D01*
X11129896Y-14334984D02*
X11091801Y-14334984D01*
X11091801Y-14334984D02*
X11072753Y-14325460D01*
X11072753Y-14325460D02*
X11063230Y-14306412D01*
X11063230Y-14306412D02*
X11063230Y-14230222D01*
X11063230Y-14230222D02*
X11072753Y-14211174D01*
X11072753Y-14211174D02*
X11091801Y-14201650D01*
X11091801Y-14201650D02*
X11129896Y-14201650D01*
X11129896Y-14201650D02*
X11148944Y-14211174D01*
X11148944Y-14211174D02*
X11158468Y-14230222D01*
X11158468Y-14230222D02*
X11158468Y-14249269D01*
X11158468Y-14249269D02*
X11063230Y-14268317D01*
X11234658Y-14325460D02*
X11253706Y-14334984D01*
X11253706Y-14334984D02*
X11291801Y-14334984D01*
X11291801Y-14334984D02*
X11310849Y-14325460D01*
X11310849Y-14325460D02*
X11320372Y-14306412D01*
X11320372Y-14306412D02*
X11320372Y-14296888D01*
X11320372Y-14296888D02*
X11310849Y-14277841D01*
X11310849Y-14277841D02*
X11291801Y-14268317D01*
X11291801Y-14268317D02*
X11263230Y-14268317D01*
X11263230Y-14268317D02*
X11244182Y-14258793D01*
X11244182Y-14258793D02*
X11234658Y-14239746D01*
X11234658Y-14239746D02*
X11234658Y-14230222D01*
X11234658Y-14230222D02*
X11244182Y-14211174D01*
X11244182Y-14211174D02*
X11263230Y-14201650D01*
X11263230Y-14201650D02*
X11291801Y-14201650D01*
X11291801Y-14201650D02*
X11310849Y-14211174D01*
X11387039Y-14411174D02*
X11396563Y-14401650D01*
X11396563Y-14401650D02*
X11415611Y-14373079D01*
X11415611Y-14373079D02*
X11425134Y-14354031D01*
X11425134Y-14354031D02*
X11434658Y-14325460D01*
X11434658Y-14325460D02*
X11444182Y-14277841D01*
X11444182Y-14277841D02*
X11444182Y-14239746D01*
X11444182Y-14239746D02*
X11434658Y-14192127D01*
X11434658Y-14192127D02*
X11425134Y-14163555D01*
X11425134Y-14163555D02*
X11415611Y-14144508D01*
X11415611Y-14144508D02*
X11396563Y-14115936D01*
X11396563Y-14115936D02*
X11387039Y-14106412D01*
D15*
X6405391Y-14546391D02*
X6405391Y-14468609D01*
X6327609Y-14468609D01*
X6327609Y-14546391D01*
X6405391Y-14546391D01*
D11*
X6787039Y-14598984D02*
X6672753Y-14598984D01*
X6729896Y-14598984D02*
X6729896Y-14398984D01*
X6729896Y-14398984D02*
X6710848Y-14427555D01*
X6710848Y-14427555D02*
X6691801Y-14446603D01*
X6691801Y-14446603D02*
X6672753Y-14456127D01*
X6872753Y-14579936D02*
X6882277Y-14589460D01*
X6882277Y-14589460D02*
X6872753Y-14598984D01*
X6872753Y-14598984D02*
X6863229Y-14589460D01*
X6863229Y-14589460D02*
X6872753Y-14579936D01*
X6872753Y-14579936D02*
X6872753Y-14598984D01*
X7072753Y-14598984D02*
X6958467Y-14598984D01*
X7015610Y-14598984D02*
X7015610Y-14398984D01*
X7015610Y-14398984D02*
X6996562Y-14427555D01*
X6996562Y-14427555D02*
X6977515Y-14446603D01*
X6977515Y-14446603D02*
X6958467Y-14456127D01*
X7196562Y-14398984D02*
X7215610Y-14398984D01*
X7215610Y-14398984D02*
X7234658Y-14408508D01*
X7234658Y-14408508D02*
X7244182Y-14418031D01*
X7244182Y-14418031D02*
X7253705Y-14437079D01*
X7253705Y-14437079D02*
X7263229Y-14475174D01*
X7263229Y-14475174D02*
X7263229Y-14522793D01*
X7263229Y-14522793D02*
X7253705Y-14560888D01*
X7253705Y-14560888D02*
X7244182Y-14579936D01*
X7244182Y-14579936D02*
X7234658Y-14589460D01*
X7234658Y-14589460D02*
X7215610Y-14598984D01*
X7215610Y-14598984D02*
X7196562Y-14598984D01*
X7196562Y-14598984D02*
X7177515Y-14589460D01*
X7177515Y-14589460D02*
X7167991Y-14579936D01*
X7167991Y-14579936D02*
X7158467Y-14560888D01*
X7158467Y-14560888D02*
X7148943Y-14522793D01*
X7148943Y-14522793D02*
X7148943Y-14475174D01*
X7148943Y-14475174D02*
X7158467Y-14437079D01*
X7158467Y-14437079D02*
X7167991Y-14418031D01*
X7167991Y-14418031D02*
X7177515Y-14408508D01*
X7177515Y-14408508D02*
X7196562Y-14398984D01*
X7387039Y-14398984D02*
X7406086Y-14398984D01*
X7406086Y-14398984D02*
X7425134Y-14408508D01*
X7425134Y-14408508D02*
X7434658Y-14418031D01*
X7434658Y-14418031D02*
X7444182Y-14437079D01*
X7444182Y-14437079D02*
X7453705Y-14475174D01*
X7453705Y-14475174D02*
X7453705Y-14522793D01*
X7453705Y-14522793D02*
X7444182Y-14560888D01*
X7444182Y-14560888D02*
X7434658Y-14579936D01*
X7434658Y-14579936D02*
X7425134Y-14589460D01*
X7425134Y-14589460D02*
X7406086Y-14598984D01*
X7406086Y-14598984D02*
X7387039Y-14598984D01*
X7387039Y-14598984D02*
X7367991Y-14589460D01*
X7367991Y-14589460D02*
X7358467Y-14579936D01*
X7358467Y-14579936D02*
X7348943Y-14560888D01*
X7348943Y-14560888D02*
X7339420Y-14522793D01*
X7339420Y-14522793D02*
X7339420Y-14475174D01*
X7339420Y-14475174D02*
X7348943Y-14437079D01*
X7348943Y-14437079D02*
X7358467Y-14418031D01*
X7358467Y-14418031D02*
X7367991Y-14408508D01*
X7367991Y-14408508D02*
X7387039Y-14398984D01*
X7539420Y-14598984D02*
X7539420Y-14465650D01*
X7539420Y-14484698D02*
X7548943Y-14475174D01*
X7548943Y-14475174D02*
X7567991Y-14465650D01*
X7567991Y-14465650D02*
X7596563Y-14465650D01*
X7596563Y-14465650D02*
X7615610Y-14475174D01*
X7615610Y-14475174D02*
X7625134Y-14494222D01*
X7625134Y-14494222D02*
X7625134Y-14598984D01*
X7625134Y-14494222D02*
X7634658Y-14475174D01*
X7634658Y-14475174D02*
X7653705Y-14465650D01*
X7653705Y-14465650D02*
X7682277Y-14465650D01*
X7682277Y-14465650D02*
X7701324Y-14475174D01*
X7701324Y-14475174D02*
X7710848Y-14494222D01*
X7710848Y-14494222D02*
X7710848Y-14598984D01*
X7806086Y-14598984D02*
X7806086Y-14465650D01*
X7806086Y-14484698D02*
X7815610Y-14475174D01*
X7815610Y-14475174D02*
X7834658Y-14465650D01*
X7834658Y-14465650D02*
X7863229Y-14465650D01*
X7863229Y-14465650D02*
X7882277Y-14475174D01*
X7882277Y-14475174D02*
X7891801Y-14494222D01*
X7891801Y-14494222D02*
X7891801Y-14598984D01*
X7891801Y-14494222D02*
X7901324Y-14475174D01*
X7901324Y-14475174D02*
X7920372Y-14465650D01*
X7920372Y-14465650D02*
X7948943Y-14465650D01*
X7948943Y-14465650D02*
X7967991Y-14475174D01*
X7967991Y-14475174D02*
X7977515Y-14494222D01*
X7977515Y-14494222D02*
X7977515Y-14598984D01*
X8367991Y-14389460D02*
X8196563Y-14646603D01*
X8625134Y-14398984D02*
X8644182Y-14398984D01*
X8644182Y-14398984D02*
X8663229Y-14408508D01*
X8663229Y-14408508D02*
X8672753Y-14418031D01*
X8672753Y-14418031D02*
X8682277Y-14437079D01*
X8682277Y-14437079D02*
X8691801Y-14475174D01*
X8691801Y-14475174D02*
X8691801Y-14522793D01*
X8691801Y-14522793D02*
X8682277Y-14560888D01*
X8682277Y-14560888D02*
X8672753Y-14579936D01*
X8672753Y-14579936D02*
X8663229Y-14589460D01*
X8663229Y-14589460D02*
X8644182Y-14598984D01*
X8644182Y-14598984D02*
X8625134Y-14598984D01*
X8625134Y-14598984D02*
X8606087Y-14589460D01*
X8606087Y-14589460D02*
X8596563Y-14579936D01*
X8596563Y-14579936D02*
X8587039Y-14560888D01*
X8587039Y-14560888D02*
X8577515Y-14522793D01*
X8577515Y-14522793D02*
X8577515Y-14475174D01*
X8577515Y-14475174D02*
X8587039Y-14437079D01*
X8587039Y-14437079D02*
X8596563Y-14418031D01*
X8596563Y-14418031D02*
X8606087Y-14408508D01*
X8606087Y-14408508D02*
X8625134Y-14398984D01*
X8777515Y-14579936D02*
X8787039Y-14589460D01*
X8787039Y-14589460D02*
X8777515Y-14598984D01*
X8777515Y-14598984D02*
X8767991Y-14589460D01*
X8767991Y-14589460D02*
X8777515Y-14579936D01*
X8777515Y-14579936D02*
X8777515Y-14598984D01*
X8910848Y-14398984D02*
X8929896Y-14398984D01*
X8929896Y-14398984D02*
X8948944Y-14408508D01*
X8948944Y-14408508D02*
X8958468Y-14418031D01*
X8958468Y-14418031D02*
X8967991Y-14437079D01*
X8967991Y-14437079D02*
X8977515Y-14475174D01*
X8977515Y-14475174D02*
X8977515Y-14522793D01*
X8977515Y-14522793D02*
X8967991Y-14560888D01*
X8967991Y-14560888D02*
X8958468Y-14579936D01*
X8958468Y-14579936D02*
X8948944Y-14589460D01*
X8948944Y-14589460D02*
X8929896Y-14598984D01*
X8929896Y-14598984D02*
X8910848Y-14598984D01*
X8910848Y-14598984D02*
X8891801Y-14589460D01*
X8891801Y-14589460D02*
X8882277Y-14579936D01*
X8882277Y-14579936D02*
X8872753Y-14560888D01*
X8872753Y-14560888D02*
X8863229Y-14522793D01*
X8863229Y-14522793D02*
X8863229Y-14475174D01*
X8863229Y-14475174D02*
X8872753Y-14437079D01*
X8872753Y-14437079D02*
X8882277Y-14418031D01*
X8882277Y-14418031D02*
X8891801Y-14408508D01*
X8891801Y-14408508D02*
X8910848Y-14398984D01*
X9148944Y-14465650D02*
X9148944Y-14598984D01*
X9101325Y-14389460D02*
X9053706Y-14532317D01*
X9053706Y-14532317D02*
X9177515Y-14532317D01*
X9234658Y-14398984D02*
X9358468Y-14398984D01*
X9358468Y-14398984D02*
X9291801Y-14475174D01*
X9291801Y-14475174D02*
X9320372Y-14475174D01*
X9320372Y-14475174D02*
X9339420Y-14484698D01*
X9339420Y-14484698D02*
X9348944Y-14494222D01*
X9348944Y-14494222D02*
X9358468Y-14513269D01*
X9358468Y-14513269D02*
X9358468Y-14560888D01*
X9358468Y-14560888D02*
X9348944Y-14579936D01*
X9348944Y-14579936D02*
X9339420Y-14589460D01*
X9339420Y-14589460D02*
X9320372Y-14598984D01*
X9320372Y-14598984D02*
X9263229Y-14598984D01*
X9263229Y-14598984D02*
X9244182Y-14589460D01*
X9244182Y-14589460D02*
X9234658Y-14579936D01*
X9425134Y-14398984D02*
X9548944Y-14398984D01*
X9548944Y-14398984D02*
X9482277Y-14475174D01*
X9482277Y-14475174D02*
X9510849Y-14475174D01*
X9510849Y-14475174D02*
X9529896Y-14484698D01*
X9529896Y-14484698D02*
X9539420Y-14494222D01*
X9539420Y-14494222D02*
X9548944Y-14513269D01*
X9548944Y-14513269D02*
X9548944Y-14560888D01*
X9548944Y-14560888D02*
X9539420Y-14579936D01*
X9539420Y-14579936D02*
X9529896Y-14589460D01*
X9529896Y-14589460D02*
X9510849Y-14598984D01*
X9510849Y-14598984D02*
X9453706Y-14598984D01*
X9453706Y-14598984D02*
X9434658Y-14589460D01*
X9434658Y-14589460D02*
X9425134Y-14579936D01*
X9625134Y-14398984D02*
X9625134Y-14437079D01*
X9701325Y-14398984D02*
X9701325Y-14437079D01*
X9996563Y-14675174D02*
X9987039Y-14665650D01*
X9987039Y-14665650D02*
X9967991Y-14637079D01*
X9967991Y-14637079D02*
X9958468Y-14618031D01*
X9958468Y-14618031D02*
X9948944Y-14589460D01*
X9948944Y-14589460D02*
X9939420Y-14541841D01*
X9939420Y-14541841D02*
X9939420Y-14503746D01*
X9939420Y-14503746D02*
X9948944Y-14456127D01*
X9948944Y-14456127D02*
X9958468Y-14427555D01*
X9958468Y-14427555D02*
X9967991Y-14408508D01*
X9967991Y-14408508D02*
X9987039Y-14379936D01*
X9987039Y-14379936D02*
X9996563Y-14370412D01*
X10158468Y-14398984D02*
X10120372Y-14398984D01*
X10120372Y-14398984D02*
X10101325Y-14408508D01*
X10101325Y-14408508D02*
X10091801Y-14418031D01*
X10091801Y-14418031D02*
X10072753Y-14446603D01*
X10072753Y-14446603D02*
X10063230Y-14484698D01*
X10063230Y-14484698D02*
X10063230Y-14560888D01*
X10063230Y-14560888D02*
X10072753Y-14579936D01*
X10072753Y-14579936D02*
X10082277Y-14589460D01*
X10082277Y-14589460D02*
X10101325Y-14598984D01*
X10101325Y-14598984D02*
X10139420Y-14598984D01*
X10139420Y-14598984D02*
X10158468Y-14589460D01*
X10158468Y-14589460D02*
X10167991Y-14579936D01*
X10167991Y-14579936D02*
X10177515Y-14560888D01*
X10177515Y-14560888D02*
X10177515Y-14513269D01*
X10177515Y-14513269D02*
X10167991Y-14494222D01*
X10167991Y-14494222D02*
X10158468Y-14484698D01*
X10158468Y-14484698D02*
X10139420Y-14475174D01*
X10139420Y-14475174D02*
X10101325Y-14475174D01*
X10101325Y-14475174D02*
X10082277Y-14484698D01*
X10082277Y-14484698D02*
X10072753Y-14494222D01*
X10072753Y-14494222D02*
X10063230Y-14513269D01*
X10244182Y-14398984D02*
X10377515Y-14398984D01*
X10377515Y-14398984D02*
X10291801Y-14598984D01*
X10606087Y-14598984D02*
X10606087Y-14398984D01*
X10691801Y-14598984D02*
X10691801Y-14494222D01*
X10691801Y-14494222D02*
X10682277Y-14475174D01*
X10682277Y-14475174D02*
X10663230Y-14465650D01*
X10663230Y-14465650D02*
X10634658Y-14465650D01*
X10634658Y-14465650D02*
X10615611Y-14475174D01*
X10615611Y-14475174D02*
X10606087Y-14484698D01*
X10815611Y-14598984D02*
X10796563Y-14589460D01*
X10796563Y-14589460D02*
X10787039Y-14579936D01*
X10787039Y-14579936D02*
X10777515Y-14560888D01*
X10777515Y-14560888D02*
X10777515Y-14503746D01*
X10777515Y-14503746D02*
X10787039Y-14484698D01*
X10787039Y-14484698D02*
X10796563Y-14475174D01*
X10796563Y-14475174D02*
X10815611Y-14465650D01*
X10815611Y-14465650D02*
X10844182Y-14465650D01*
X10844182Y-14465650D02*
X10863230Y-14475174D01*
X10863230Y-14475174D02*
X10872753Y-14484698D01*
X10872753Y-14484698D02*
X10882277Y-14503746D01*
X10882277Y-14503746D02*
X10882277Y-14560888D01*
X10882277Y-14560888D02*
X10872753Y-14579936D01*
X10872753Y-14579936D02*
X10863230Y-14589460D01*
X10863230Y-14589460D02*
X10844182Y-14598984D01*
X10844182Y-14598984D02*
X10815611Y-14598984D01*
X10996563Y-14598984D02*
X10977515Y-14589460D01*
X10977515Y-14589460D02*
X10967992Y-14570412D01*
X10967992Y-14570412D02*
X10967992Y-14398984D01*
X11148944Y-14589460D02*
X11129896Y-14598984D01*
X11129896Y-14598984D02*
X11091801Y-14598984D01*
X11091801Y-14598984D02*
X11072753Y-14589460D01*
X11072753Y-14589460D02*
X11063230Y-14570412D01*
X11063230Y-14570412D02*
X11063230Y-14494222D01*
X11063230Y-14494222D02*
X11072753Y-14475174D01*
X11072753Y-14475174D02*
X11091801Y-14465650D01*
X11091801Y-14465650D02*
X11129896Y-14465650D01*
X11129896Y-14465650D02*
X11148944Y-14475174D01*
X11148944Y-14475174D02*
X11158468Y-14494222D01*
X11158468Y-14494222D02*
X11158468Y-14513269D01*
X11158468Y-14513269D02*
X11063230Y-14532317D01*
X11234658Y-14589460D02*
X11253706Y-14598984D01*
X11253706Y-14598984D02*
X11291801Y-14598984D01*
X11291801Y-14598984D02*
X11310849Y-14589460D01*
X11310849Y-14589460D02*
X11320372Y-14570412D01*
X11320372Y-14570412D02*
X11320372Y-14560888D01*
X11320372Y-14560888D02*
X11310849Y-14541841D01*
X11310849Y-14541841D02*
X11291801Y-14532317D01*
X11291801Y-14532317D02*
X11263230Y-14532317D01*
X11263230Y-14532317D02*
X11244182Y-14522793D01*
X11244182Y-14522793D02*
X11234658Y-14503746D01*
X11234658Y-14503746D02*
X11234658Y-14494222D01*
X11234658Y-14494222D02*
X11244182Y-14475174D01*
X11244182Y-14475174D02*
X11263230Y-14465650D01*
X11263230Y-14465650D02*
X11291801Y-14465650D01*
X11291801Y-14465650D02*
X11310849Y-14475174D01*
X11387039Y-14675174D02*
X11396563Y-14665650D01*
X11396563Y-14665650D02*
X11415611Y-14637079D01*
X11415611Y-14637079D02*
X11425134Y-14618031D01*
X11425134Y-14618031D02*
X11434658Y-14589460D01*
X11434658Y-14589460D02*
X11444182Y-14541841D01*
X11444182Y-14541841D02*
X11444182Y-14503746D01*
X11444182Y-14503746D02*
X11434658Y-14456127D01*
X11434658Y-14456127D02*
X11425134Y-14427555D01*
X11425134Y-14427555D02*
X11415611Y-14408508D01*
X11415611Y-14408508D02*
X11396563Y-14379936D01*
X11396563Y-14379936D02*
X11387039Y-14370412D01*
D16*
X6361500Y-14831500D02*
X6421500Y-14771500D01*
X6361500Y-14711500D01*
X6301500Y-14771500D01*
X6361500Y-14831500D01*
D11*
X6787039Y-14862984D02*
X6672753Y-14862984D01*
X6729896Y-14862984D02*
X6729896Y-14662984D01*
X6729896Y-14662984D02*
X6710848Y-14691555D01*
X6710848Y-14691555D02*
X6691801Y-14710603D01*
X6691801Y-14710603D02*
X6672753Y-14720127D01*
X6872753Y-14843936D02*
X6882277Y-14853460D01*
X6882277Y-14853460D02*
X6872753Y-14862984D01*
X6872753Y-14862984D02*
X6863229Y-14853460D01*
X6863229Y-14853460D02*
X6872753Y-14843936D01*
X6872753Y-14843936D02*
X6872753Y-14862984D01*
X6958467Y-14682031D02*
X6967991Y-14672508D01*
X6967991Y-14672508D02*
X6987039Y-14662984D01*
X6987039Y-14662984D02*
X7034658Y-14662984D01*
X7034658Y-14662984D02*
X7053705Y-14672508D01*
X7053705Y-14672508D02*
X7063229Y-14682031D01*
X7063229Y-14682031D02*
X7072753Y-14701079D01*
X7072753Y-14701079D02*
X7072753Y-14720127D01*
X7072753Y-14720127D02*
X7063229Y-14748698D01*
X7063229Y-14748698D02*
X6948943Y-14862984D01*
X6948943Y-14862984D02*
X7072753Y-14862984D01*
X7196562Y-14662984D02*
X7215610Y-14662984D01*
X7215610Y-14662984D02*
X7234658Y-14672508D01*
X7234658Y-14672508D02*
X7244182Y-14682031D01*
X7244182Y-14682031D02*
X7253705Y-14701079D01*
X7253705Y-14701079D02*
X7263229Y-14739174D01*
X7263229Y-14739174D02*
X7263229Y-14786793D01*
X7263229Y-14786793D02*
X7253705Y-14824888D01*
X7253705Y-14824888D02*
X7244182Y-14843936D01*
X7244182Y-14843936D02*
X7234658Y-14853460D01*
X7234658Y-14853460D02*
X7215610Y-14862984D01*
X7215610Y-14862984D02*
X7196562Y-14862984D01*
X7196562Y-14862984D02*
X7177515Y-14853460D01*
X7177515Y-14853460D02*
X7167991Y-14843936D01*
X7167991Y-14843936D02*
X7158467Y-14824888D01*
X7158467Y-14824888D02*
X7148943Y-14786793D01*
X7148943Y-14786793D02*
X7148943Y-14739174D01*
X7148943Y-14739174D02*
X7158467Y-14701079D01*
X7158467Y-14701079D02*
X7167991Y-14682031D01*
X7167991Y-14682031D02*
X7177515Y-14672508D01*
X7177515Y-14672508D02*
X7196562Y-14662984D01*
X7387039Y-14662984D02*
X7406086Y-14662984D01*
X7406086Y-14662984D02*
X7425134Y-14672508D01*
X7425134Y-14672508D02*
X7434658Y-14682031D01*
X7434658Y-14682031D02*
X7444182Y-14701079D01*
X7444182Y-14701079D02*
X7453705Y-14739174D01*
X7453705Y-14739174D02*
X7453705Y-14786793D01*
X7453705Y-14786793D02*
X7444182Y-14824888D01*
X7444182Y-14824888D02*
X7434658Y-14843936D01*
X7434658Y-14843936D02*
X7425134Y-14853460D01*
X7425134Y-14853460D02*
X7406086Y-14862984D01*
X7406086Y-14862984D02*
X7387039Y-14862984D01*
X7387039Y-14862984D02*
X7367991Y-14853460D01*
X7367991Y-14853460D02*
X7358467Y-14843936D01*
X7358467Y-14843936D02*
X7348943Y-14824888D01*
X7348943Y-14824888D02*
X7339420Y-14786793D01*
X7339420Y-14786793D02*
X7339420Y-14739174D01*
X7339420Y-14739174D02*
X7348943Y-14701079D01*
X7348943Y-14701079D02*
X7358467Y-14682031D01*
X7358467Y-14682031D02*
X7367991Y-14672508D01*
X7367991Y-14672508D02*
X7387039Y-14662984D01*
X7539420Y-14862984D02*
X7539420Y-14729650D01*
X7539420Y-14748698D02*
X7548943Y-14739174D01*
X7548943Y-14739174D02*
X7567991Y-14729650D01*
X7567991Y-14729650D02*
X7596563Y-14729650D01*
X7596563Y-14729650D02*
X7615610Y-14739174D01*
X7615610Y-14739174D02*
X7625134Y-14758222D01*
X7625134Y-14758222D02*
X7625134Y-14862984D01*
X7625134Y-14758222D02*
X7634658Y-14739174D01*
X7634658Y-14739174D02*
X7653705Y-14729650D01*
X7653705Y-14729650D02*
X7682277Y-14729650D01*
X7682277Y-14729650D02*
X7701324Y-14739174D01*
X7701324Y-14739174D02*
X7710848Y-14758222D01*
X7710848Y-14758222D02*
X7710848Y-14862984D01*
X7806086Y-14862984D02*
X7806086Y-14729650D01*
X7806086Y-14748698D02*
X7815610Y-14739174D01*
X7815610Y-14739174D02*
X7834658Y-14729650D01*
X7834658Y-14729650D02*
X7863229Y-14729650D01*
X7863229Y-14729650D02*
X7882277Y-14739174D01*
X7882277Y-14739174D02*
X7891801Y-14758222D01*
X7891801Y-14758222D02*
X7891801Y-14862984D01*
X7891801Y-14758222D02*
X7901324Y-14739174D01*
X7901324Y-14739174D02*
X7920372Y-14729650D01*
X7920372Y-14729650D02*
X7948943Y-14729650D01*
X7948943Y-14729650D02*
X7967991Y-14739174D01*
X7967991Y-14739174D02*
X7977515Y-14758222D01*
X7977515Y-14758222D02*
X7977515Y-14862984D01*
X8367991Y-14653460D02*
X8196563Y-14910603D01*
X8625134Y-14662984D02*
X8644182Y-14662984D01*
X8644182Y-14662984D02*
X8663229Y-14672508D01*
X8663229Y-14672508D02*
X8672753Y-14682031D01*
X8672753Y-14682031D02*
X8682277Y-14701079D01*
X8682277Y-14701079D02*
X8691801Y-14739174D01*
X8691801Y-14739174D02*
X8691801Y-14786793D01*
X8691801Y-14786793D02*
X8682277Y-14824888D01*
X8682277Y-14824888D02*
X8672753Y-14843936D01*
X8672753Y-14843936D02*
X8663229Y-14853460D01*
X8663229Y-14853460D02*
X8644182Y-14862984D01*
X8644182Y-14862984D02*
X8625134Y-14862984D01*
X8625134Y-14862984D02*
X8606087Y-14853460D01*
X8606087Y-14853460D02*
X8596563Y-14843936D01*
X8596563Y-14843936D02*
X8587039Y-14824888D01*
X8587039Y-14824888D02*
X8577515Y-14786793D01*
X8577515Y-14786793D02*
X8577515Y-14739174D01*
X8577515Y-14739174D02*
X8587039Y-14701079D01*
X8587039Y-14701079D02*
X8596563Y-14682031D01*
X8596563Y-14682031D02*
X8606087Y-14672508D01*
X8606087Y-14672508D02*
X8625134Y-14662984D01*
X8777515Y-14843936D02*
X8787039Y-14853460D01*
X8787039Y-14853460D02*
X8777515Y-14862984D01*
X8777515Y-14862984D02*
X8767991Y-14853460D01*
X8767991Y-14853460D02*
X8777515Y-14843936D01*
X8777515Y-14843936D02*
X8777515Y-14862984D01*
X8910848Y-14662984D02*
X8929896Y-14662984D01*
X8929896Y-14662984D02*
X8948944Y-14672508D01*
X8948944Y-14672508D02*
X8958468Y-14682031D01*
X8958468Y-14682031D02*
X8967991Y-14701079D01*
X8967991Y-14701079D02*
X8977515Y-14739174D01*
X8977515Y-14739174D02*
X8977515Y-14786793D01*
X8977515Y-14786793D02*
X8967991Y-14824888D01*
X8967991Y-14824888D02*
X8958468Y-14843936D01*
X8958468Y-14843936D02*
X8948944Y-14853460D01*
X8948944Y-14853460D02*
X8929896Y-14862984D01*
X8929896Y-14862984D02*
X8910848Y-14862984D01*
X8910848Y-14862984D02*
X8891801Y-14853460D01*
X8891801Y-14853460D02*
X8882277Y-14843936D01*
X8882277Y-14843936D02*
X8872753Y-14824888D01*
X8872753Y-14824888D02*
X8863229Y-14786793D01*
X8863229Y-14786793D02*
X8863229Y-14739174D01*
X8863229Y-14739174D02*
X8872753Y-14701079D01*
X8872753Y-14701079D02*
X8882277Y-14682031D01*
X8882277Y-14682031D02*
X8891801Y-14672508D01*
X8891801Y-14672508D02*
X8910848Y-14662984D01*
X9148944Y-14729650D02*
X9148944Y-14862984D01*
X9101325Y-14653460D02*
X9053706Y-14796317D01*
X9053706Y-14796317D02*
X9177515Y-14796317D01*
X9234658Y-14662984D02*
X9367991Y-14662984D01*
X9367991Y-14662984D02*
X9282277Y-14862984D01*
X9434658Y-14682031D02*
X9444182Y-14672508D01*
X9444182Y-14672508D02*
X9463229Y-14662984D01*
X9463229Y-14662984D02*
X9510849Y-14662984D01*
X9510849Y-14662984D02*
X9529896Y-14672508D01*
X9529896Y-14672508D02*
X9539420Y-14682031D01*
X9539420Y-14682031D02*
X9548944Y-14701079D01*
X9548944Y-14701079D02*
X9548944Y-14720127D01*
X9548944Y-14720127D02*
X9539420Y-14748698D01*
X9539420Y-14748698D02*
X9425134Y-14862984D01*
X9425134Y-14862984D02*
X9548944Y-14862984D01*
X9625134Y-14662984D02*
X9625134Y-14701079D01*
X9701325Y-14662984D02*
X9701325Y-14701079D01*
X9996563Y-14939174D02*
X9987039Y-14929650D01*
X9987039Y-14929650D02*
X9967991Y-14901079D01*
X9967991Y-14901079D02*
X9958468Y-14882031D01*
X9958468Y-14882031D02*
X9948944Y-14853460D01*
X9948944Y-14853460D02*
X9939420Y-14805841D01*
X9939420Y-14805841D02*
X9939420Y-14767746D01*
X9939420Y-14767746D02*
X9948944Y-14720127D01*
X9948944Y-14720127D02*
X9958468Y-14691555D01*
X9958468Y-14691555D02*
X9967991Y-14672508D01*
X9967991Y-14672508D02*
X9987039Y-14643936D01*
X9987039Y-14643936D02*
X9996563Y-14634412D01*
X10158468Y-14729650D02*
X10158468Y-14862984D01*
X10110849Y-14653460D02*
X10063230Y-14796317D01*
X10063230Y-14796317D02*
X10187039Y-14796317D01*
X10415611Y-14862984D02*
X10415611Y-14662984D01*
X10501325Y-14862984D02*
X10501325Y-14758222D01*
X10501325Y-14758222D02*
X10491801Y-14739174D01*
X10491801Y-14739174D02*
X10472753Y-14729650D01*
X10472753Y-14729650D02*
X10444182Y-14729650D01*
X10444182Y-14729650D02*
X10425134Y-14739174D01*
X10425134Y-14739174D02*
X10415611Y-14748698D01*
X10625134Y-14862984D02*
X10606087Y-14853460D01*
X10606087Y-14853460D02*
X10596563Y-14843936D01*
X10596563Y-14843936D02*
X10587039Y-14824888D01*
X10587039Y-14824888D02*
X10587039Y-14767746D01*
X10587039Y-14767746D02*
X10596563Y-14748698D01*
X10596563Y-14748698D02*
X10606087Y-14739174D01*
X10606087Y-14739174D02*
X10625134Y-14729650D01*
X10625134Y-14729650D02*
X10653706Y-14729650D01*
X10653706Y-14729650D02*
X10672753Y-14739174D01*
X10672753Y-14739174D02*
X10682277Y-14748698D01*
X10682277Y-14748698D02*
X10691801Y-14767746D01*
X10691801Y-14767746D02*
X10691801Y-14824888D01*
X10691801Y-14824888D02*
X10682277Y-14843936D01*
X10682277Y-14843936D02*
X10672753Y-14853460D01*
X10672753Y-14853460D02*
X10653706Y-14862984D01*
X10653706Y-14862984D02*
X10625134Y-14862984D01*
X10806087Y-14862984D02*
X10787039Y-14853460D01*
X10787039Y-14853460D02*
X10777515Y-14834412D01*
X10777515Y-14834412D02*
X10777515Y-14662984D01*
X10958468Y-14853460D02*
X10939420Y-14862984D01*
X10939420Y-14862984D02*
X10901325Y-14862984D01*
X10901325Y-14862984D02*
X10882277Y-14853460D01*
X10882277Y-14853460D02*
X10872753Y-14834412D01*
X10872753Y-14834412D02*
X10872753Y-14758222D01*
X10872753Y-14758222D02*
X10882277Y-14739174D01*
X10882277Y-14739174D02*
X10901325Y-14729650D01*
X10901325Y-14729650D02*
X10939420Y-14729650D01*
X10939420Y-14729650D02*
X10958468Y-14739174D01*
X10958468Y-14739174D02*
X10967992Y-14758222D01*
X10967992Y-14758222D02*
X10967992Y-14777269D01*
X10967992Y-14777269D02*
X10872753Y-14796317D01*
X11044182Y-14853460D02*
X11063230Y-14862984D01*
X11063230Y-14862984D02*
X11101325Y-14862984D01*
X11101325Y-14862984D02*
X11120373Y-14853460D01*
X11120373Y-14853460D02*
X11129896Y-14834412D01*
X11129896Y-14834412D02*
X11129896Y-14824888D01*
X11129896Y-14824888D02*
X11120373Y-14805841D01*
X11120373Y-14805841D02*
X11101325Y-14796317D01*
X11101325Y-14796317D02*
X11072753Y-14796317D01*
X11072753Y-14796317D02*
X11053706Y-14786793D01*
X11053706Y-14786793D02*
X11044182Y-14767746D01*
X11044182Y-14767746D02*
X11044182Y-14758222D01*
X11044182Y-14758222D02*
X11053706Y-14739174D01*
X11053706Y-14739174D02*
X11072753Y-14729650D01*
X11072753Y-14729650D02*
X11101325Y-14729650D01*
X11101325Y-14729650D02*
X11120373Y-14739174D01*
X11196563Y-14939174D02*
X11206087Y-14929650D01*
X11206087Y-14929650D02*
X11225134Y-14901079D01*
X11225134Y-14901079D02*
X11234658Y-14882031D01*
X11234658Y-14882031D02*
X11244182Y-14853460D01*
X11244182Y-14853460D02*
X11253706Y-14805841D01*
X11253706Y-14805841D02*
X11253706Y-14767746D01*
X11253706Y-14767746D02*
X11244182Y-14720127D01*
X11244182Y-14720127D02*
X11234658Y-14691555D01*
X11234658Y-14691555D02*
X11225134Y-14672508D01*
X11225134Y-14672508D02*
X11206087Y-14643936D01*
X11206087Y-14643936D02*
X11196563Y-14634412D01*
X6221500Y-14935500D02*
X6421500Y-15135500D01*
X6421500Y-14935500D02*
X6221500Y-15135500D01*
X6421500Y-15035500D02*
G75*
G03*
X6421500Y-15035500I-100000J0D01*
G01*
X6672753Y-14946031D02*
X6682277Y-14936508D01*
X6682277Y-14936508D02*
X6701324Y-14926984D01*
X6701324Y-14926984D02*
X6748943Y-14926984D01*
X6748943Y-14926984D02*
X6767991Y-14936508D01*
X6767991Y-14936508D02*
X6777515Y-14946031D01*
X6777515Y-14946031D02*
X6787039Y-14965079D01*
X6787039Y-14965079D02*
X6787039Y-14984127D01*
X6787039Y-14984127D02*
X6777515Y-15012698D01*
X6777515Y-15012698D02*
X6663229Y-15126984D01*
X6663229Y-15126984D02*
X6787039Y-15126984D01*
X6872753Y-15107936D02*
X6882277Y-15117460D01*
X6882277Y-15117460D02*
X6872753Y-15126984D01*
X6872753Y-15126984D02*
X6863229Y-15117460D01*
X6863229Y-15117460D02*
X6872753Y-15107936D01*
X6872753Y-15107936D02*
X6872753Y-15126984D01*
X6948943Y-14926984D02*
X7082277Y-14926984D01*
X7082277Y-14926984D02*
X6996562Y-15126984D01*
X7253705Y-14926984D02*
X7158467Y-14926984D01*
X7158467Y-14926984D02*
X7148943Y-15022222D01*
X7148943Y-15022222D02*
X7158467Y-15012698D01*
X7158467Y-15012698D02*
X7177515Y-15003174D01*
X7177515Y-15003174D02*
X7225134Y-15003174D01*
X7225134Y-15003174D02*
X7244182Y-15012698D01*
X7244182Y-15012698D02*
X7253705Y-15022222D01*
X7253705Y-15022222D02*
X7263229Y-15041269D01*
X7263229Y-15041269D02*
X7263229Y-15088888D01*
X7263229Y-15088888D02*
X7253705Y-15107936D01*
X7253705Y-15107936D02*
X7244182Y-15117460D01*
X7244182Y-15117460D02*
X7225134Y-15126984D01*
X7225134Y-15126984D02*
X7177515Y-15126984D01*
X7177515Y-15126984D02*
X7158467Y-15117460D01*
X7158467Y-15117460D02*
X7148943Y-15107936D01*
X7387039Y-14926984D02*
X7406086Y-14926984D01*
X7406086Y-14926984D02*
X7425134Y-14936508D01*
X7425134Y-14936508D02*
X7434658Y-14946031D01*
X7434658Y-14946031D02*
X7444182Y-14965079D01*
X7444182Y-14965079D02*
X7453705Y-15003174D01*
X7453705Y-15003174D02*
X7453705Y-15050793D01*
X7453705Y-15050793D02*
X7444182Y-15088888D01*
X7444182Y-15088888D02*
X7434658Y-15107936D01*
X7434658Y-15107936D02*
X7425134Y-15117460D01*
X7425134Y-15117460D02*
X7406086Y-15126984D01*
X7406086Y-15126984D02*
X7387039Y-15126984D01*
X7387039Y-15126984D02*
X7367991Y-15117460D01*
X7367991Y-15117460D02*
X7358467Y-15107936D01*
X7358467Y-15107936D02*
X7348943Y-15088888D01*
X7348943Y-15088888D02*
X7339420Y-15050793D01*
X7339420Y-15050793D02*
X7339420Y-15003174D01*
X7339420Y-15003174D02*
X7348943Y-14965079D01*
X7348943Y-14965079D02*
X7358467Y-14946031D01*
X7358467Y-14946031D02*
X7367991Y-14936508D01*
X7367991Y-14936508D02*
X7387039Y-14926984D01*
X7539420Y-15126984D02*
X7539420Y-14993650D01*
X7539420Y-15012698D02*
X7548943Y-15003174D01*
X7548943Y-15003174D02*
X7567991Y-14993650D01*
X7567991Y-14993650D02*
X7596563Y-14993650D01*
X7596563Y-14993650D02*
X7615610Y-15003174D01*
X7615610Y-15003174D02*
X7625134Y-15022222D01*
X7625134Y-15022222D02*
X7625134Y-15126984D01*
X7625134Y-15022222D02*
X7634658Y-15003174D01*
X7634658Y-15003174D02*
X7653705Y-14993650D01*
X7653705Y-14993650D02*
X7682277Y-14993650D01*
X7682277Y-14993650D02*
X7701324Y-15003174D01*
X7701324Y-15003174D02*
X7710848Y-15022222D01*
X7710848Y-15022222D02*
X7710848Y-15126984D01*
X7806086Y-15126984D02*
X7806086Y-14993650D01*
X7806086Y-15012698D02*
X7815610Y-15003174D01*
X7815610Y-15003174D02*
X7834658Y-14993650D01*
X7834658Y-14993650D02*
X7863229Y-14993650D01*
X7863229Y-14993650D02*
X7882277Y-15003174D01*
X7882277Y-15003174D02*
X7891801Y-15022222D01*
X7891801Y-15022222D02*
X7891801Y-15126984D01*
X7891801Y-15022222D02*
X7901324Y-15003174D01*
X7901324Y-15003174D02*
X7920372Y-14993650D01*
X7920372Y-14993650D02*
X7948943Y-14993650D01*
X7948943Y-14993650D02*
X7967991Y-15003174D01*
X7967991Y-15003174D02*
X7977515Y-15022222D01*
X7977515Y-15022222D02*
X7977515Y-15126984D01*
X8367991Y-14917460D02*
X8196563Y-15174603D01*
X8625134Y-14926984D02*
X8644182Y-14926984D01*
X8644182Y-14926984D02*
X8663229Y-14936508D01*
X8663229Y-14936508D02*
X8672753Y-14946031D01*
X8672753Y-14946031D02*
X8682277Y-14965079D01*
X8682277Y-14965079D02*
X8691801Y-15003174D01*
X8691801Y-15003174D02*
X8691801Y-15050793D01*
X8691801Y-15050793D02*
X8682277Y-15088888D01*
X8682277Y-15088888D02*
X8672753Y-15107936D01*
X8672753Y-15107936D02*
X8663229Y-15117460D01*
X8663229Y-15117460D02*
X8644182Y-15126984D01*
X8644182Y-15126984D02*
X8625134Y-15126984D01*
X8625134Y-15126984D02*
X8606087Y-15117460D01*
X8606087Y-15117460D02*
X8596563Y-15107936D01*
X8596563Y-15107936D02*
X8587039Y-15088888D01*
X8587039Y-15088888D02*
X8577515Y-15050793D01*
X8577515Y-15050793D02*
X8577515Y-15003174D01*
X8577515Y-15003174D02*
X8587039Y-14965079D01*
X8587039Y-14965079D02*
X8596563Y-14946031D01*
X8596563Y-14946031D02*
X8606087Y-14936508D01*
X8606087Y-14936508D02*
X8625134Y-14926984D01*
X8777515Y-15107936D02*
X8787039Y-15117460D01*
X8787039Y-15117460D02*
X8777515Y-15126984D01*
X8777515Y-15126984D02*
X8767991Y-15117460D01*
X8767991Y-15117460D02*
X8777515Y-15107936D01*
X8777515Y-15107936D02*
X8777515Y-15126984D01*
X8977515Y-15126984D02*
X8863229Y-15126984D01*
X8920372Y-15126984D02*
X8920372Y-14926984D01*
X8920372Y-14926984D02*
X8901325Y-14955555D01*
X8901325Y-14955555D02*
X8882277Y-14974603D01*
X8882277Y-14974603D02*
X8863229Y-14984127D01*
X9101325Y-14926984D02*
X9120372Y-14926984D01*
X9120372Y-14926984D02*
X9139420Y-14936508D01*
X9139420Y-14936508D02*
X9148944Y-14946031D01*
X9148944Y-14946031D02*
X9158468Y-14965079D01*
X9158468Y-14965079D02*
X9167991Y-15003174D01*
X9167991Y-15003174D02*
X9167991Y-15050793D01*
X9167991Y-15050793D02*
X9158468Y-15088888D01*
X9158468Y-15088888D02*
X9148944Y-15107936D01*
X9148944Y-15107936D02*
X9139420Y-15117460D01*
X9139420Y-15117460D02*
X9120372Y-15126984D01*
X9120372Y-15126984D02*
X9101325Y-15126984D01*
X9101325Y-15126984D02*
X9082277Y-15117460D01*
X9082277Y-15117460D02*
X9072753Y-15107936D01*
X9072753Y-15107936D02*
X9063229Y-15088888D01*
X9063229Y-15088888D02*
X9053706Y-15050793D01*
X9053706Y-15050793D02*
X9053706Y-15003174D01*
X9053706Y-15003174D02*
X9063229Y-14965079D01*
X9063229Y-14965079D02*
X9072753Y-14946031D01*
X9072753Y-14946031D02*
X9082277Y-14936508D01*
X9082277Y-14936508D02*
X9101325Y-14926984D01*
X9282277Y-15012698D02*
X9263229Y-15003174D01*
X9263229Y-15003174D02*
X9253706Y-14993650D01*
X9253706Y-14993650D02*
X9244182Y-14974603D01*
X9244182Y-14974603D02*
X9244182Y-14965079D01*
X9244182Y-14965079D02*
X9253706Y-14946031D01*
X9253706Y-14946031D02*
X9263229Y-14936508D01*
X9263229Y-14936508D02*
X9282277Y-14926984D01*
X9282277Y-14926984D02*
X9320372Y-14926984D01*
X9320372Y-14926984D02*
X9339420Y-14936508D01*
X9339420Y-14936508D02*
X9348944Y-14946031D01*
X9348944Y-14946031D02*
X9358468Y-14965079D01*
X9358468Y-14965079D02*
X9358468Y-14974603D01*
X9358468Y-14974603D02*
X9348944Y-14993650D01*
X9348944Y-14993650D02*
X9339420Y-15003174D01*
X9339420Y-15003174D02*
X9320372Y-15012698D01*
X9320372Y-15012698D02*
X9282277Y-15012698D01*
X9282277Y-15012698D02*
X9263229Y-15022222D01*
X9263229Y-15022222D02*
X9253706Y-15031746D01*
X9253706Y-15031746D02*
X9244182Y-15050793D01*
X9244182Y-15050793D02*
X9244182Y-15088888D01*
X9244182Y-15088888D02*
X9253706Y-15107936D01*
X9253706Y-15107936D02*
X9263229Y-15117460D01*
X9263229Y-15117460D02*
X9282277Y-15126984D01*
X9282277Y-15126984D02*
X9320372Y-15126984D01*
X9320372Y-15126984D02*
X9339420Y-15117460D01*
X9339420Y-15117460D02*
X9348944Y-15107936D01*
X9348944Y-15107936D02*
X9358468Y-15088888D01*
X9358468Y-15088888D02*
X9358468Y-15050793D01*
X9358468Y-15050793D02*
X9348944Y-15031746D01*
X9348944Y-15031746D02*
X9339420Y-15022222D01*
X9339420Y-15022222D02*
X9320372Y-15012698D01*
X9425134Y-14926984D02*
X9548944Y-14926984D01*
X9548944Y-14926984D02*
X9482277Y-15003174D01*
X9482277Y-15003174D02*
X9510849Y-15003174D01*
X9510849Y-15003174D02*
X9529896Y-15012698D01*
X9529896Y-15012698D02*
X9539420Y-15022222D01*
X9539420Y-15022222D02*
X9548944Y-15041269D01*
X9548944Y-15041269D02*
X9548944Y-15088888D01*
X9548944Y-15088888D02*
X9539420Y-15107936D01*
X9539420Y-15107936D02*
X9529896Y-15117460D01*
X9529896Y-15117460D02*
X9510849Y-15126984D01*
X9510849Y-15126984D02*
X9453706Y-15126984D01*
X9453706Y-15126984D02*
X9434658Y-15117460D01*
X9434658Y-15117460D02*
X9425134Y-15107936D01*
X9625134Y-14926984D02*
X9625134Y-14965079D01*
X9701325Y-14926984D02*
X9701325Y-14965079D01*
X9996563Y-15203174D02*
X9987039Y-15193650D01*
X9987039Y-15193650D02*
X9967991Y-15165079D01*
X9967991Y-15165079D02*
X9958468Y-15146031D01*
X9958468Y-15146031D02*
X9948944Y-15117460D01*
X9948944Y-15117460D02*
X9939420Y-15069841D01*
X9939420Y-15069841D02*
X9939420Y-15031746D01*
X9939420Y-15031746D02*
X9948944Y-14984127D01*
X9948944Y-14984127D02*
X9958468Y-14955555D01*
X9958468Y-14955555D02*
X9967991Y-14936508D01*
X9967991Y-14936508D02*
X9987039Y-14907936D01*
X9987039Y-14907936D02*
X9996563Y-14898412D01*
X10177515Y-15126984D02*
X10063230Y-15126984D01*
X10120372Y-15126984D02*
X10120372Y-14926984D01*
X10120372Y-14926984D02*
X10101325Y-14955555D01*
X10101325Y-14955555D02*
X10082277Y-14974603D01*
X10082277Y-14974603D02*
X10063230Y-14984127D01*
X10415611Y-15126984D02*
X10415611Y-14926984D01*
X10501325Y-15126984D02*
X10501325Y-15022222D01*
X10501325Y-15022222D02*
X10491801Y-15003174D01*
X10491801Y-15003174D02*
X10472753Y-14993650D01*
X10472753Y-14993650D02*
X10444182Y-14993650D01*
X10444182Y-14993650D02*
X10425134Y-15003174D01*
X10425134Y-15003174D02*
X10415611Y-15012698D01*
X10625134Y-15126984D02*
X10606087Y-15117460D01*
X10606087Y-15117460D02*
X10596563Y-15107936D01*
X10596563Y-15107936D02*
X10587039Y-15088888D01*
X10587039Y-15088888D02*
X10587039Y-15031746D01*
X10587039Y-15031746D02*
X10596563Y-15012698D01*
X10596563Y-15012698D02*
X10606087Y-15003174D01*
X10606087Y-15003174D02*
X10625134Y-14993650D01*
X10625134Y-14993650D02*
X10653706Y-14993650D01*
X10653706Y-14993650D02*
X10672753Y-15003174D01*
X10672753Y-15003174D02*
X10682277Y-15012698D01*
X10682277Y-15012698D02*
X10691801Y-15031746D01*
X10691801Y-15031746D02*
X10691801Y-15088888D01*
X10691801Y-15088888D02*
X10682277Y-15107936D01*
X10682277Y-15107936D02*
X10672753Y-15117460D01*
X10672753Y-15117460D02*
X10653706Y-15126984D01*
X10653706Y-15126984D02*
X10625134Y-15126984D01*
X10806087Y-15126984D02*
X10787039Y-15117460D01*
X10787039Y-15117460D02*
X10777515Y-15098412D01*
X10777515Y-15098412D02*
X10777515Y-14926984D01*
X10958468Y-15117460D02*
X10939420Y-15126984D01*
X10939420Y-15126984D02*
X10901325Y-15126984D01*
X10901325Y-15126984D02*
X10882277Y-15117460D01*
X10882277Y-15117460D02*
X10872753Y-15098412D01*
X10872753Y-15098412D02*
X10872753Y-15022222D01*
X10872753Y-15022222D02*
X10882277Y-15003174D01*
X10882277Y-15003174D02*
X10901325Y-14993650D01*
X10901325Y-14993650D02*
X10939420Y-14993650D01*
X10939420Y-14993650D02*
X10958468Y-15003174D01*
X10958468Y-15003174D02*
X10967992Y-15022222D01*
X10967992Y-15022222D02*
X10967992Y-15041269D01*
X10967992Y-15041269D02*
X10872753Y-15060317D01*
X11034658Y-15203174D02*
X11044182Y-15193650D01*
X11044182Y-15193650D02*
X11063230Y-15165079D01*
X11063230Y-15165079D02*
X11072753Y-15146031D01*
X11072753Y-15146031D02*
X11082277Y-15117460D01*
X11082277Y-15117460D02*
X11091801Y-15069841D01*
X11091801Y-15069841D02*
X11091801Y-15031746D01*
X11091801Y-15031746D02*
X11082277Y-14984127D01*
X11082277Y-14984127D02*
X11072753Y-14955555D01*
X11072753Y-14955555D02*
X11063230Y-14936508D01*
X11063230Y-14936508D02*
X11044182Y-14907936D01*
X11044182Y-14907936D02*
X11034658Y-14898412D01*
X6221500Y-15255500D02*
X6421500Y-15455500D01*
X6421500Y-15255500D02*
X6221500Y-15455500D01*
X6321500Y-15255500D02*
X6321500Y-15455500D01*
X6221500Y-15355500D02*
X6421500Y-15355500D01*
X6663229Y-15246984D02*
X6787039Y-15246984D01*
X6787039Y-15246984D02*
X6720372Y-15323174D01*
X6720372Y-15323174D02*
X6748943Y-15323174D01*
X6748943Y-15323174D02*
X6767991Y-15332698D01*
X6767991Y-15332698D02*
X6777515Y-15342222D01*
X6777515Y-15342222D02*
X6787039Y-15361269D01*
X6787039Y-15361269D02*
X6787039Y-15408888D01*
X6787039Y-15408888D02*
X6777515Y-15427936D01*
X6777515Y-15427936D02*
X6767991Y-15437460D01*
X6767991Y-15437460D02*
X6748943Y-15446984D01*
X6748943Y-15446984D02*
X6691801Y-15446984D01*
X6691801Y-15446984D02*
X6672753Y-15437460D01*
X6672753Y-15437460D02*
X6663229Y-15427936D01*
X6872753Y-15427936D02*
X6882277Y-15437460D01*
X6882277Y-15437460D02*
X6872753Y-15446984D01*
X6872753Y-15446984D02*
X6863229Y-15437460D01*
X6863229Y-15437460D02*
X6872753Y-15427936D01*
X6872753Y-15427936D02*
X6872753Y-15446984D01*
X6958467Y-15266031D02*
X6967991Y-15256508D01*
X6967991Y-15256508D02*
X6987039Y-15246984D01*
X6987039Y-15246984D02*
X7034658Y-15246984D01*
X7034658Y-15246984D02*
X7053705Y-15256508D01*
X7053705Y-15256508D02*
X7063229Y-15266031D01*
X7063229Y-15266031D02*
X7072753Y-15285079D01*
X7072753Y-15285079D02*
X7072753Y-15304127D01*
X7072753Y-15304127D02*
X7063229Y-15332698D01*
X7063229Y-15332698D02*
X6948943Y-15446984D01*
X6948943Y-15446984D02*
X7072753Y-15446984D01*
X7253705Y-15246984D02*
X7158467Y-15246984D01*
X7158467Y-15246984D02*
X7148943Y-15342222D01*
X7148943Y-15342222D02*
X7158467Y-15332698D01*
X7158467Y-15332698D02*
X7177515Y-15323174D01*
X7177515Y-15323174D02*
X7225134Y-15323174D01*
X7225134Y-15323174D02*
X7244182Y-15332698D01*
X7244182Y-15332698D02*
X7253705Y-15342222D01*
X7253705Y-15342222D02*
X7263229Y-15361269D01*
X7263229Y-15361269D02*
X7263229Y-15408888D01*
X7263229Y-15408888D02*
X7253705Y-15427936D01*
X7253705Y-15427936D02*
X7244182Y-15437460D01*
X7244182Y-15437460D02*
X7225134Y-15446984D01*
X7225134Y-15446984D02*
X7177515Y-15446984D01*
X7177515Y-15446984D02*
X7158467Y-15437460D01*
X7158467Y-15437460D02*
X7148943Y-15427936D01*
X7387039Y-15246984D02*
X7406086Y-15246984D01*
X7406086Y-15246984D02*
X7425134Y-15256508D01*
X7425134Y-15256508D02*
X7434658Y-15266031D01*
X7434658Y-15266031D02*
X7444182Y-15285079D01*
X7444182Y-15285079D02*
X7453705Y-15323174D01*
X7453705Y-15323174D02*
X7453705Y-15370793D01*
X7453705Y-15370793D02*
X7444182Y-15408888D01*
X7444182Y-15408888D02*
X7434658Y-15427936D01*
X7434658Y-15427936D02*
X7425134Y-15437460D01*
X7425134Y-15437460D02*
X7406086Y-15446984D01*
X7406086Y-15446984D02*
X7387039Y-15446984D01*
X7387039Y-15446984D02*
X7367991Y-15437460D01*
X7367991Y-15437460D02*
X7358467Y-15427936D01*
X7358467Y-15427936D02*
X7348943Y-15408888D01*
X7348943Y-15408888D02*
X7339420Y-15370793D01*
X7339420Y-15370793D02*
X7339420Y-15323174D01*
X7339420Y-15323174D02*
X7348943Y-15285079D01*
X7348943Y-15285079D02*
X7358467Y-15266031D01*
X7358467Y-15266031D02*
X7367991Y-15256508D01*
X7367991Y-15256508D02*
X7387039Y-15246984D01*
X7539420Y-15446984D02*
X7539420Y-15313650D01*
X7539420Y-15332698D02*
X7548943Y-15323174D01*
X7548943Y-15323174D02*
X7567991Y-15313650D01*
X7567991Y-15313650D02*
X7596563Y-15313650D01*
X7596563Y-15313650D02*
X7615610Y-15323174D01*
X7615610Y-15323174D02*
X7625134Y-15342222D01*
X7625134Y-15342222D02*
X7625134Y-15446984D01*
X7625134Y-15342222D02*
X7634658Y-15323174D01*
X7634658Y-15323174D02*
X7653705Y-15313650D01*
X7653705Y-15313650D02*
X7682277Y-15313650D01*
X7682277Y-15313650D02*
X7701324Y-15323174D01*
X7701324Y-15323174D02*
X7710848Y-15342222D01*
X7710848Y-15342222D02*
X7710848Y-15446984D01*
X7806086Y-15446984D02*
X7806086Y-15313650D01*
X7806086Y-15332698D02*
X7815610Y-15323174D01*
X7815610Y-15323174D02*
X7834658Y-15313650D01*
X7834658Y-15313650D02*
X7863229Y-15313650D01*
X7863229Y-15313650D02*
X7882277Y-15323174D01*
X7882277Y-15323174D02*
X7891801Y-15342222D01*
X7891801Y-15342222D02*
X7891801Y-15446984D01*
X7891801Y-15342222D02*
X7901324Y-15323174D01*
X7901324Y-15323174D02*
X7920372Y-15313650D01*
X7920372Y-15313650D02*
X7948943Y-15313650D01*
X7948943Y-15313650D02*
X7967991Y-15323174D01*
X7967991Y-15323174D02*
X7977515Y-15342222D01*
X7977515Y-15342222D02*
X7977515Y-15446984D01*
X8367991Y-15237460D02*
X8196563Y-15494603D01*
X8625134Y-15246984D02*
X8644182Y-15246984D01*
X8644182Y-15246984D02*
X8663229Y-15256508D01*
X8663229Y-15256508D02*
X8672753Y-15266031D01*
X8672753Y-15266031D02*
X8682277Y-15285079D01*
X8682277Y-15285079D02*
X8691801Y-15323174D01*
X8691801Y-15323174D02*
X8691801Y-15370793D01*
X8691801Y-15370793D02*
X8682277Y-15408888D01*
X8682277Y-15408888D02*
X8672753Y-15427936D01*
X8672753Y-15427936D02*
X8663229Y-15437460D01*
X8663229Y-15437460D02*
X8644182Y-15446984D01*
X8644182Y-15446984D02*
X8625134Y-15446984D01*
X8625134Y-15446984D02*
X8606087Y-15437460D01*
X8606087Y-15437460D02*
X8596563Y-15427936D01*
X8596563Y-15427936D02*
X8587039Y-15408888D01*
X8587039Y-15408888D02*
X8577515Y-15370793D01*
X8577515Y-15370793D02*
X8577515Y-15323174D01*
X8577515Y-15323174D02*
X8587039Y-15285079D01*
X8587039Y-15285079D02*
X8596563Y-15266031D01*
X8596563Y-15266031D02*
X8606087Y-15256508D01*
X8606087Y-15256508D02*
X8625134Y-15246984D01*
X8777515Y-15427936D02*
X8787039Y-15437460D01*
X8787039Y-15437460D02*
X8777515Y-15446984D01*
X8777515Y-15446984D02*
X8767991Y-15437460D01*
X8767991Y-15437460D02*
X8777515Y-15427936D01*
X8777515Y-15427936D02*
X8777515Y-15446984D01*
X8977515Y-15446984D02*
X8863229Y-15446984D01*
X8920372Y-15446984D02*
X8920372Y-15246984D01*
X8920372Y-15246984D02*
X8901325Y-15275555D01*
X8901325Y-15275555D02*
X8882277Y-15294603D01*
X8882277Y-15294603D02*
X8863229Y-15304127D01*
X9053706Y-15266031D02*
X9063229Y-15256508D01*
X9063229Y-15256508D02*
X9082277Y-15246984D01*
X9082277Y-15246984D02*
X9129896Y-15246984D01*
X9129896Y-15246984D02*
X9148944Y-15256508D01*
X9148944Y-15256508D02*
X9158468Y-15266031D01*
X9158468Y-15266031D02*
X9167991Y-15285079D01*
X9167991Y-15285079D02*
X9167991Y-15304127D01*
X9167991Y-15304127D02*
X9158468Y-15332698D01*
X9158468Y-15332698D02*
X9044182Y-15446984D01*
X9044182Y-15446984D02*
X9167991Y-15446984D01*
X9282277Y-15332698D02*
X9263229Y-15323174D01*
X9263229Y-15323174D02*
X9253706Y-15313650D01*
X9253706Y-15313650D02*
X9244182Y-15294603D01*
X9244182Y-15294603D02*
X9244182Y-15285079D01*
X9244182Y-15285079D02*
X9253706Y-15266031D01*
X9253706Y-15266031D02*
X9263229Y-15256508D01*
X9263229Y-15256508D02*
X9282277Y-15246984D01*
X9282277Y-15246984D02*
X9320372Y-15246984D01*
X9320372Y-15246984D02*
X9339420Y-15256508D01*
X9339420Y-15256508D02*
X9348944Y-15266031D01*
X9348944Y-15266031D02*
X9358468Y-15285079D01*
X9358468Y-15285079D02*
X9358468Y-15294603D01*
X9358468Y-15294603D02*
X9348944Y-15313650D01*
X9348944Y-15313650D02*
X9339420Y-15323174D01*
X9339420Y-15323174D02*
X9320372Y-15332698D01*
X9320372Y-15332698D02*
X9282277Y-15332698D01*
X9282277Y-15332698D02*
X9263229Y-15342222D01*
X9263229Y-15342222D02*
X9253706Y-15351746D01*
X9253706Y-15351746D02*
X9244182Y-15370793D01*
X9244182Y-15370793D02*
X9244182Y-15408888D01*
X9244182Y-15408888D02*
X9253706Y-15427936D01*
X9253706Y-15427936D02*
X9263229Y-15437460D01*
X9263229Y-15437460D02*
X9282277Y-15446984D01*
X9282277Y-15446984D02*
X9320372Y-15446984D01*
X9320372Y-15446984D02*
X9339420Y-15437460D01*
X9339420Y-15437460D02*
X9348944Y-15427936D01*
X9348944Y-15427936D02*
X9358468Y-15408888D01*
X9358468Y-15408888D02*
X9358468Y-15370793D01*
X9358468Y-15370793D02*
X9348944Y-15351746D01*
X9348944Y-15351746D02*
X9339420Y-15342222D01*
X9339420Y-15342222D02*
X9320372Y-15332698D01*
X9482277Y-15246984D02*
X9501325Y-15246984D01*
X9501325Y-15246984D02*
X9520372Y-15256508D01*
X9520372Y-15256508D02*
X9529896Y-15266031D01*
X9529896Y-15266031D02*
X9539420Y-15285079D01*
X9539420Y-15285079D02*
X9548944Y-15323174D01*
X9548944Y-15323174D02*
X9548944Y-15370793D01*
X9548944Y-15370793D02*
X9539420Y-15408888D01*
X9539420Y-15408888D02*
X9529896Y-15427936D01*
X9529896Y-15427936D02*
X9520372Y-15437460D01*
X9520372Y-15437460D02*
X9501325Y-15446984D01*
X9501325Y-15446984D02*
X9482277Y-15446984D01*
X9482277Y-15446984D02*
X9463229Y-15437460D01*
X9463229Y-15437460D02*
X9453706Y-15427936D01*
X9453706Y-15427936D02*
X9444182Y-15408888D01*
X9444182Y-15408888D02*
X9434658Y-15370793D01*
X9434658Y-15370793D02*
X9434658Y-15323174D01*
X9434658Y-15323174D02*
X9444182Y-15285079D01*
X9444182Y-15285079D02*
X9453706Y-15266031D01*
X9453706Y-15266031D02*
X9463229Y-15256508D01*
X9463229Y-15256508D02*
X9482277Y-15246984D01*
X9625134Y-15246984D02*
X9625134Y-15285079D01*
X9701325Y-15246984D02*
X9701325Y-15285079D01*
X9996563Y-15523174D02*
X9987039Y-15513650D01*
X9987039Y-15513650D02*
X9967991Y-15485079D01*
X9967991Y-15485079D02*
X9958468Y-15466031D01*
X9958468Y-15466031D02*
X9948944Y-15437460D01*
X9948944Y-15437460D02*
X9939420Y-15389841D01*
X9939420Y-15389841D02*
X9939420Y-15351746D01*
X9939420Y-15351746D02*
X9948944Y-15304127D01*
X9948944Y-15304127D02*
X9958468Y-15275555D01*
X9958468Y-15275555D02*
X9967991Y-15256508D01*
X9967991Y-15256508D02*
X9987039Y-15227936D01*
X9987039Y-15227936D02*
X9996563Y-15218412D01*
X10053706Y-15246984D02*
X10177515Y-15246984D01*
X10177515Y-15246984D02*
X10110849Y-15323174D01*
X10110849Y-15323174D02*
X10139420Y-15323174D01*
X10139420Y-15323174D02*
X10158468Y-15332698D01*
X10158468Y-15332698D02*
X10167991Y-15342222D01*
X10167991Y-15342222D02*
X10177515Y-15361269D01*
X10177515Y-15361269D02*
X10177515Y-15408888D01*
X10177515Y-15408888D02*
X10167991Y-15427936D01*
X10167991Y-15427936D02*
X10158468Y-15437460D01*
X10158468Y-15437460D02*
X10139420Y-15446984D01*
X10139420Y-15446984D02*
X10082277Y-15446984D01*
X10082277Y-15446984D02*
X10063230Y-15437460D01*
X10063230Y-15437460D02*
X10053706Y-15427936D01*
X10415611Y-15446984D02*
X10415611Y-15246984D01*
X10501325Y-15446984D02*
X10501325Y-15342222D01*
X10501325Y-15342222D02*
X10491801Y-15323174D01*
X10491801Y-15323174D02*
X10472753Y-15313650D01*
X10472753Y-15313650D02*
X10444182Y-15313650D01*
X10444182Y-15313650D02*
X10425134Y-15323174D01*
X10425134Y-15323174D02*
X10415611Y-15332698D01*
X10625134Y-15446984D02*
X10606087Y-15437460D01*
X10606087Y-15437460D02*
X10596563Y-15427936D01*
X10596563Y-15427936D02*
X10587039Y-15408888D01*
X10587039Y-15408888D02*
X10587039Y-15351746D01*
X10587039Y-15351746D02*
X10596563Y-15332698D01*
X10596563Y-15332698D02*
X10606087Y-15323174D01*
X10606087Y-15323174D02*
X10625134Y-15313650D01*
X10625134Y-15313650D02*
X10653706Y-15313650D01*
X10653706Y-15313650D02*
X10672753Y-15323174D01*
X10672753Y-15323174D02*
X10682277Y-15332698D01*
X10682277Y-15332698D02*
X10691801Y-15351746D01*
X10691801Y-15351746D02*
X10691801Y-15408888D01*
X10691801Y-15408888D02*
X10682277Y-15427936D01*
X10682277Y-15427936D02*
X10672753Y-15437460D01*
X10672753Y-15437460D02*
X10653706Y-15446984D01*
X10653706Y-15446984D02*
X10625134Y-15446984D01*
X10806087Y-15446984D02*
X10787039Y-15437460D01*
X10787039Y-15437460D02*
X10777515Y-15418412D01*
X10777515Y-15418412D02*
X10777515Y-15246984D01*
X10958468Y-15437460D02*
X10939420Y-15446984D01*
X10939420Y-15446984D02*
X10901325Y-15446984D01*
X10901325Y-15446984D02*
X10882277Y-15437460D01*
X10882277Y-15437460D02*
X10872753Y-15418412D01*
X10872753Y-15418412D02*
X10872753Y-15342222D01*
X10872753Y-15342222D02*
X10882277Y-15323174D01*
X10882277Y-15323174D02*
X10901325Y-15313650D01*
X10901325Y-15313650D02*
X10939420Y-15313650D01*
X10939420Y-15313650D02*
X10958468Y-15323174D01*
X10958468Y-15323174D02*
X10967992Y-15342222D01*
X10967992Y-15342222D02*
X10967992Y-15361269D01*
X10967992Y-15361269D02*
X10872753Y-15380317D01*
X11044182Y-15437460D02*
X11063230Y-15446984D01*
X11063230Y-15446984D02*
X11101325Y-15446984D01*
X11101325Y-15446984D02*
X11120373Y-15437460D01*
X11120373Y-15437460D02*
X11129896Y-15418412D01*
X11129896Y-15418412D02*
X11129896Y-15408888D01*
X11129896Y-15408888D02*
X11120373Y-15389841D01*
X11120373Y-15389841D02*
X11101325Y-15380317D01*
X11101325Y-15380317D02*
X11072753Y-15380317D01*
X11072753Y-15380317D02*
X11053706Y-15370793D01*
X11053706Y-15370793D02*
X11044182Y-15351746D01*
X11044182Y-15351746D02*
X11044182Y-15342222D01*
X11044182Y-15342222D02*
X11053706Y-15323174D01*
X11053706Y-15323174D02*
X11072753Y-15313650D01*
X11072753Y-15313650D02*
X11101325Y-15313650D01*
X11101325Y-15313650D02*
X11120373Y-15323174D01*
X11196563Y-15523174D02*
X11206087Y-15513650D01*
X11206087Y-15513650D02*
X11225134Y-15485079D01*
X11225134Y-15485079D02*
X11234658Y-15466031D01*
X11234658Y-15466031D02*
X11244182Y-15437460D01*
X11244182Y-15437460D02*
X11253706Y-15389841D01*
X11253706Y-15389841D02*
X11253706Y-15351746D01*
X11253706Y-15351746D02*
X11244182Y-15304127D01*
X11244182Y-15304127D02*
X11234658Y-15275555D01*
X11234658Y-15275555D02*
X11225134Y-15256508D01*
X11225134Y-15256508D02*
X11206087Y-15227936D01*
X11206087Y-15227936D02*
X11196563Y-15218412D01*
M02*
