M48
; DRILL file {KiCad 7.0.7} date Wed Nov 29 11:07:55 2023
; FORMAT={-:-/ absolute / inch / decimal}
; #@! TF.CreationDate,2023-11-29T11:07:55+01:00
; #@! TF.GenerationSoftware,Kicad,Pcbnew,7.0.7
; #@! TF.FileFunction,Plated,1,2,PTH
FMAT,2
INCH
; #@! TA.AperFunction,Plated,PTH,ViaDrill
T1C0.0157
; #@! TA.AperFunction,Plated,PTH,ComponentDrill
T2C0.0374
; #@! TA.AperFunction,Plated,PTH,ComponentDrill
T3C0.0394
; #@! TA.AperFunction,Plated,PTH,ComponentDrill
T4C0.0433
; #@! TA.AperFunction,Plated,PTH,ComponentDrill
T5C0.0472
; #@! TA.AperFunction,Plated,PTH,ViaDrill
T6C0.1083
; #@! TA.AperFunction,Plated,PTH,ViaDrill
T7C0.1280
%
G90
G05
T1
X2.5675Y-3.7756
X2.7913Y-2.9591
X2.8045Y-4.4177
X2.8161Y-3.1598
X2.8177Y-3.5492
X2.8191Y-4.1606
X2.8341Y-3.502
X2.849Y-2.9728
X2.8518Y-4.6409
X2.8563Y-3.8705
X2.8797Y-4.1827
X2.8797Y-4.4299
X2.9069Y-4.2197
X2.9191Y-4.6614
X2.937Y-4.2459
X2.939Y-3.1323
X2.9437Y-3.5476
X2.9472Y-3.6657
X2.9622Y-2.9362
X2.98Y-4.42
X2.98Y-4.57
X2.9959Y-3.926
X3.002Y-4.7173
X3.0203Y-2.9394
X3.0404Y-4.5654
X3.0463Y-4.2748
X3.0833Y-4.3921
X3.11Y-3.2524
X3.11Y-3.952
X3.11Y-4.3272
X3.1224Y-4.4717
X3.128Y-4.3713
X3.1508Y-4.6976
X3.175Y-4.3807
X3.1882Y-3.6724
X3.1894Y-3.5476
X3.1913Y-2.8012
X3.2081Y-4.126
X3.2211Y-4.4479
X3.2331Y-4.487
X3.2352Y-3.9894
X3.2352Y-4.2961
X3.2577Y-3.878
X3.2593Y-4.3472
X3.2927Y-2.9636
X3.3065Y-4.3626
X3.3159Y-4.2957
X3.3199Y-2.6992
X3.3268Y-4.2291
X3.3293Y-3.1882
X3.3388Y-4.0303
X3.3407Y-3.7408
X3.3433Y-3.9772
X3.3528Y-3.8291
X3.3691Y-4.0768
X3.3907Y-3.2287
X3.4043Y-4.5181
X3.4085Y-2.8831
X3.4157Y-4.447
X3.4203Y-4.2561
X3.4215Y-3.9756
X3.428Y-3.5583
X3.4291Y-3.6756
X3.4424Y-4.3664
X3.4514Y-3.3283
X3.4587Y-4.2319
X3.4589Y-3.4276
X3.4636Y-4.552
X3.4657Y-3.1181
X3.4736Y-4.0457
X3.4935Y-3.3744
X3.5195Y-3.9104
X3.5335Y-3.6465
X3.5339Y-4.4882
X3.5423Y-4.313
X3.5516Y-4.7031
X3.5545Y-4.1878
X3.5622Y-3.8291
X3.5839Y-4.6752
X3.6004Y-3.711
X3.6087Y-4.5965
X3.6185Y-4.6406
X3.6219Y-4.1563
X3.6333Y-4.3909
X3.6333Y-4.3909
X3.6459Y-4.0134
X3.6541Y-4.1827
X3.6687Y-3.0402
X3.7108Y-4.5988
X3.7207Y-4.3055
X3.725Y-4.4862
X3.7258Y-4.7709
X3.7293Y-2.8906
X3.7366Y-4.1035
X3.7366Y-4.1602
X3.7431Y-3.8815
X3.7443Y-4.6744
X3.7514Y-4.6146
X3.7579Y-4.1936
X3.7646Y-3.2299
X3.7868Y-4.6
X3.7911Y-3.7406
X3.8189Y-3.1283
X3.824Y-4.4433
X3.8313Y-4.8756
X3.8333Y-3.0543
X3.8341Y-4.5394
X3.8467Y-5.0244
X3.8484Y-3.6571
X3.86Y-4.33
X3.8636Y-4.4213
X3.8711Y-4.2807
X3.8756Y-3.989
X3.899Y-3.6331
X3.9026Y-4.4457
X3.9033Y-4.2087
X3.9222Y-2.8984
X3.9366Y-4.5965
X3.9505Y-4.7759
X3.9624Y-4.6724
X3.9671Y-3.7654
X3.977Y-4.4984
X3.9919Y-4.7463
X3.997Y-3.0516
X4.0028Y-4.3437
X4.0177Y-3.6488
X4.02Y-3.99
X4.02Y-4.7
X4.0315Y-3.237
X4.0675Y-4.1886
X4.0868Y-4.6067
X4.1157Y-3.4953
X4.1197Y-3.5575
X4.1226Y-3.9386
X4.123Y-4.3287
X4.1626Y-3.615
X4.1811Y-4.4697
X4.2268Y-4.2929
X4.2343Y-3.8748
X4.2587Y-3.6492
X4.2969Y-4.4681
X4.2982Y-3.9731
X4.2982Y-4.41
X4.3106Y-4.6161
X4.3291Y-3.7969
X4.3419Y-5.0311
X4.352Y-2.9047
X4.3728Y-3.6232
X4.4646Y-4.6209
X4.4984Y-3.374
X4.5016Y-3.5165
X4.513Y-3.95
X4.514Y-4.2579
X4.5748Y-3.5516
X4.663Y-3.1632
X4.6947Y-4.613
X4.7551Y-5.0398
X4.8407Y-3.6972
X4.86Y-3.06
X4.9409Y-3.3106
X5.0343Y-2.9083
X5.0356Y-4.6063
X5.0407Y-4.37
X5.0459Y-3.1089
X5.0467Y-4.2083
X5.18Y-3.41
X5.1969Y-3.5063
X5.21Y-3.06
X5.2285Y-3.9807
X5.2333Y-4.2
X5.348Y-3.285
X5.348Y-3.3724
X5.35Y-3.4705
X5.3573Y-4.6114
X5.3805Y-3.1049
X5.4Y-4.37
X5.42Y-4.3
X5.4291Y-4.178
X5.54Y-3.06
X5.6091Y-3.7469
X5.65Y-3.97
X5.6516Y-3.6809
X5.67Y-4.5205
X5.68Y-4.36
X5.7096Y-3.0193
X5.7289Y-4.9453
X5.7344Y-3.4735
X5.7628Y-4.6073
X5.8055Y-3.334
X5.8386Y-4.1748
X5.9805Y-3.048
X5.9904Y-4.9626
X6.0748Y-3.5703
X6.0748Y-4.1124
X6.1982Y-4.6252
X6.21Y-3.17
X6.28Y-3.17
X6.29Y-3.38
T2
X4.5793Y-4.5205
X4.5793Y-4.6189
X4.5793Y-4.7173
X4.5793Y-4.8157
X4.5793Y-4.9142
X4.5793Y-5.0126
X5.4233Y-3.6294
X5.4233Y-3.7278
X5.4233Y-3.8262
X5.4233Y-3.9247
X5.8515Y-2.7474
X5.8515Y-2.8458
X5.8515Y-2.9442
X5.8515Y-3.0426
X5.8516Y-4.7597
X5.8516Y-4.8582
X5.8516Y-4.9566
X5.9445Y-4.3307
X5.9445Y-4.4292
X5.9445Y-4.5276
X5.9447Y-3.2748
X5.9447Y-3.3732
X5.9447Y-3.4716
X5.9447Y-3.5701
X5.9449Y-3.8026
X5.9449Y-3.901
X5.9449Y-3.9994
X5.9449Y-4.0979
X6.1173Y-2.7475
X6.1173Y-2.8459
X6.1173Y-2.9444
X6.1173Y-3.0428
X6.1174Y-4.7601
X6.1174Y-4.8585
X6.1174Y-4.957
X6.2103Y-4.3306
X6.2103Y-4.429
X6.2103Y-4.5274
X6.2109Y-3.8025
X6.2109Y-3.901
X6.2109Y-3.9994
X6.2109Y-4.0978
X6.2109Y-3.2749
X6.2109Y-3.3733
X6.2109Y-3.4717
X6.2109Y-3.5702
T3
X4.0526Y-3.3937
X4.1526Y-3.3937
X4.2526Y-3.3937
X4.4662Y-2.8197
X4.5646Y-2.8197
X4.8063Y-2.8221
X4.8309Y-4.5004
X4.9047Y-2.8221
X4.9293Y-4.5004
X5.141Y-2.8229
X5.1616Y-4.5
X5.2394Y-2.8229
X5.26Y-4.5
X5.4748Y-2.8232
X5.495Y-4.4984
X5.5732Y-2.8232
X5.5935Y-4.4984
T4
X2.6173Y-2.926
X2.6173Y-3.026
X2.6173Y-3.126
X2.6173Y-3.226
X2.6173Y-3.326
X2.6173Y-3.426
X2.6173Y-3.526
X2.6173Y-3.626
X2.6173Y-3.726
X2.6173Y-3.826
X2.6173Y-3.926
X2.6173Y-4.026
X2.6173Y-4.126
X2.6173Y-4.226
X2.6173Y-4.326
X2.6173Y-4.426
X2.6173Y-4.526
X2.6173Y-4.626
X2.6173Y-4.726
X2.6173Y-4.826
X2.7173Y-2.926
X2.7173Y-3.026
X2.7173Y-3.126
X2.7173Y-3.226
X2.7173Y-3.326
X2.7173Y-3.426
X2.7173Y-3.526
X2.7173Y-3.626
X2.7173Y-3.726
X2.7173Y-3.826
X2.7173Y-3.926
X2.7173Y-4.026
X2.7173Y-4.126
X2.7173Y-4.226
X2.7173Y-4.326
X2.7173Y-4.426
X2.7173Y-4.526
X2.7173Y-4.626
X2.7173Y-4.726
X2.7173Y-4.826
X3.6685Y-3.3894
X3.6685Y-3.4894
X3.7685Y-3.3894
X3.7685Y-3.4894
X3.8685Y-3.3894
X3.8685Y-3.4894
X4.3904Y-4.0689
X4.3904Y-4.2461
X4.6463Y-4.0689
X4.6463Y-4.2461
X4.7927Y-4.7138
X4.7927Y-4.9697
X4.9698Y-4.7138
X4.9698Y-4.9697
X5.0974Y-3.6299
X5.0974Y-3.7283
X5.0974Y-3.8268
X5.0974Y-3.9252
X5.0974Y-4.0236
X5.1222Y-4.7161
X5.1222Y-4.972
X5.2994Y-4.7161
X5.2994Y-4.972
X5.4588Y-4.7146
X5.4588Y-4.9705
X5.636Y-4.7146
X5.636Y-4.9705
T5
X3.3181Y-2.8022
X3.515Y-2.8022
X3.7335Y-2.8016
X3.9303Y-2.8016
T6
X2.6697Y-2.7256
T7
X3.0626Y-2.7236
X6.3303Y-2.7236
X6.3303Y-5.0071
T0
M30
