G04 #@! TF.GenerationSoftware,KiCad,Pcbnew,7.0.7*
G04 #@! TF.CreationDate,2023-10-12T15:34:55+02:00*
G04 #@! TF.ProjectId,Astroplant_VFR,41737472-6f70-46c6-916e-745f5646522e,0.5*
G04 #@! TF.SameCoordinates,Original*
G04 #@! TF.FileFunction,Paste,Top*
G04 #@! TF.FilePolarity,Positive*
%FSLAX46Y46*%
G04 Gerber Fmt 4.6, Leading zero omitted, Abs format (unit mm)*
G04 Created by KiCad (PCBNEW 7.0.7) date 2023-10-12 15:34:55*
%MOMM*%
%LPD*%
G01*
G04 APERTURE LIST*
G04 Aperture macros list*
%AMRoundRect*
0 Rectangle with rounded corners*
0 $1 Rounding radius*
0 $2 $3 $4 $5 $6 $7 $8 $9 X,Y pos of 4 corners*
0 Add a 4 corners polygon primitive as box body*
4,1,4,$2,$3,$4,$5,$6,$7,$8,$9,$2,$3,0*
0 Add four circle primitives for the rounded corners*
1,1,$1+$1,$2,$3*
1,1,$1+$1,$4,$5*
1,1,$1+$1,$6,$7*
1,1,$1+$1,$8,$9*
0 Add four rect primitives between the rounded corners*
20,1,$1+$1,$2,$3,$4,$5,0*
20,1,$1+$1,$4,$5,$6,$7,0*
20,1,$1+$1,$6,$7,$8,$9,0*
20,1,$1+$1,$8,$9,$2,$3,0*%
G04 Aperture macros list end*
%ADD10R,4.400000X2.500000*%
%ADD11RoundRect,0.243750X0.456250X-0.243750X0.456250X0.243750X-0.456250X0.243750X-0.456250X-0.243750X0*%
%ADD12RoundRect,0.243750X0.243750X0.456250X-0.243750X0.456250X-0.243750X-0.456250X0.243750X-0.456250X0*%
%ADD13R,4.150000X1.900000*%
%ADD14RoundRect,0.218750X0.256250X-0.218750X0.256250X0.218750X-0.256250X0.218750X-0.256250X-0.218750X0*%
%ADD15R,2.500000X1.800000*%
%ADD16RoundRect,0.218750X-0.218750X-0.256250X0.218750X-0.256250X0.218750X0.256250X-0.218750X0.256250X0*%
%ADD17R,0.900000X0.800000*%
%ADD18R,0.800000X0.900000*%
%ADD19RoundRect,0.243750X-0.456250X0.243750X-0.456250X-0.243750X0.456250X-0.243750X0.456250X0.243750X0*%
%ADD20RoundRect,0.218750X-0.256250X0.218750X-0.256250X-0.218750X0.256250X-0.218750X0.256250X0.218750X0*%
%ADD21RoundRect,0.243750X-0.243750X-0.456250X0.243750X-0.456250X0.243750X0.456250X-0.243750X0.456250X0*%
G04 APERTURE END LIST*
D10*
X138820000Y-52070000D03*
X130420000Y-52070000D03*
D11*
X109600000Y-47737500D03*
X109600000Y-45862500D03*
D12*
X111337500Y-43300000D03*
X109462500Y-43300000D03*
D13*
X124075000Y-51600000D03*
X117125000Y-51600000D03*
D14*
X177200000Y-95487500D03*
X177200000Y-93912500D03*
D15*
X165500000Y-48600000D03*
X161500000Y-48600000D03*
X174400000Y-48700000D03*
X170400000Y-48700000D03*
X156700000Y-48700000D03*
X152700000Y-48700000D03*
D16*
X117212500Y-69800000D03*
X118787500Y-69800000D03*
D17*
X169100000Y-67650000D03*
X169100000Y-69550000D03*
X171100000Y-68600000D03*
X168900000Y-73550000D03*
X168900000Y-75450000D03*
X170900000Y-74500000D03*
D18*
X157050000Y-57500000D03*
X158950000Y-57500000D03*
X158000000Y-55500000D03*
X168450000Y-57900000D03*
X170350000Y-57900000D03*
X169400000Y-55900000D03*
X145350000Y-57500000D03*
X147250000Y-57500000D03*
X146300000Y-55500000D03*
D19*
X164200000Y-67662500D03*
X164200000Y-69537500D03*
D11*
X174900000Y-69637500D03*
X174900000Y-67762500D03*
D19*
X164200000Y-73562500D03*
X164200000Y-75437500D03*
X174900000Y-73362500D03*
X174900000Y-75237500D03*
X153400000Y-73562500D03*
X153400000Y-75437500D03*
D20*
X177200000Y-90412500D03*
X177200000Y-91987500D03*
D19*
X157900000Y-73525000D03*
X157900000Y-75400000D03*
D21*
X157062500Y-62000000D03*
X158937500Y-62000000D03*
X168462500Y-62100000D03*
X170337500Y-62100000D03*
X145362500Y-61900000D03*
X147237500Y-61900000D03*
D12*
X123137500Y-69800000D03*
X121262500Y-69800000D03*
M02*
