G04 #@! TF.GenerationSoftware,KiCad,Pcbnew,7.0.7*
G04 #@! TF.CreationDate,2023-10-12T15:34:55+02:00*
G04 #@! TF.ProjectId,Astroplant_VFR,41737472-6f70-46c6-916e-745f5646522e,0.5*
G04 #@! TF.SameCoordinates,Original*
G04 #@! TF.FileFunction,Soldermask,Top*
G04 #@! TF.FilePolarity,Negative*
%FSLAX46Y46*%
G04 Gerber Fmt 4.6, Leading zero omitted, Abs format (unit mm)*
G04 Created by KiCad (PCBNEW 7.0.7) date 2023-10-12 15:34:55*
%MOMM*%
%LPD*%
G01*
G04 APERTURE LIST*
G04 Aperture macros list*
%AMRoundRect*
0 Rectangle with rounded corners*
0 $1 Rounding radius*
0 $2 $3 $4 $5 $6 $7 $8 $9 X,Y pos of 4 corners*
0 Add a 4 corners polygon primitive as box body*
4,1,4,$2,$3,$4,$5,$6,$7,$8,$9,$2,$3,0*
0 Add four circle primitives for the rounded corners*
1,1,$1+$1,$2,$3*
1,1,$1+$1,$4,$5*
1,1,$1+$1,$6,$7*
1,1,$1+$1,$8,$9*
0 Add four rect primitives between the rounded corners*
20,1,$1+$1,$2,$3,$4,$5,0*
20,1,$1+$1,$4,$5,$6,$7,0*
20,1,$1+$1,$6,$7,$8,$9,0*
20,1,$1+$1,$8,$9,$2,$3,0*%
%AMFreePoly0*
4,1,23,0.586777,0.930194,0.656366,0.874698,0.666410,0.860940,1.166410,0.110940,1.198065,0.027751,1.190491,-0.060935,1.166410,-0.110940,0.666410,-0.860940,0.601795,-0.922156,0.517019,-0.949275,0.500000,-0.950000,-0.500000,-0.950000,-0.586777,-0.930194,-0.656366,-0.874698,-0.694986,-0.794504,-0.700000,-0.750000,-0.700000,0.750000,-0.680194,0.836777,-0.624698,0.906366,-0.544504,0.944986,
-0.500000,0.950000,0.500000,0.950000,0.586777,0.930194,0.586777,0.930194,$1*%
G04 Aperture macros list end*
%ADD10C,0.010000*%
%ADD11RoundRect,0.200000X2.200000X1.250000X-2.200000X1.250000X-2.200000X-1.250000X2.200000X-1.250000X0*%
%ADD12RoundRect,0.443750X0.456250X-0.243750X0.456250X0.243750X-0.456250X0.243750X-0.456250X-0.243750X0*%
%ADD13RoundRect,0.443750X0.243750X0.456250X-0.243750X0.456250X-0.243750X-0.456250X0.243750X-0.456250X0*%
%ADD14RoundRect,0.200000X2.075000X0.950000X-2.075000X0.950000X-2.075000X-0.950000X2.075000X-0.950000X0*%
%ADD15RoundRect,0.418750X0.256250X-0.218750X0.256250X0.218750X-0.256250X0.218750X-0.256250X-0.218750X0*%
%ADD16RoundRect,0.200000X1.250000X0.900000X-1.250000X0.900000X-1.250000X-0.900000X1.250000X-0.900000X0*%
%ADD17RoundRect,0.418750X-0.218750X-0.256250X0.218750X-0.256250X0.218750X0.256250X-0.218750X0.256250X0*%
%ADD18RoundRect,0.200000X0.850000X0.975000X-0.850000X0.975000X-0.850000X-0.975000X0.850000X-0.975000X0*%
%ADD19O,2.100000X2.350000*%
%ADD20RoundRect,0.200000X-0.850000X-0.850000X0.850000X-0.850000X0.850000X0.850000X-0.850000X0.850000X0*%
%ADD21O,2.100000X2.100000*%
%ADD22RoundRect,0.200000X-0.975000X0.850000X-0.975000X-0.850000X0.975000X-0.850000X0.975000X0.850000X0*%
%ADD23O,2.350000X2.100000*%
%ADD24RoundRect,0.200000X0.850000X1.000000X-0.850000X1.000000X-0.850000X-1.000000X0.850000X-1.000000X0*%
%ADD25O,2.100000X2.400000*%
%ADD26RoundRect,0.200000X-0.850000X0.850000X-0.850000X-0.850000X0.850000X-0.850000X0.850000X0.850000X0*%
%ADD27R,1.500000X1.500000*%
%ADD28FreePoly0,270.000000*%
%ADD29FreePoly0,90.000000*%
%ADD30RoundRect,0.200000X-0.450000X-0.400000X0.450000X-0.400000X0.450000X0.400000X-0.450000X0.400000X0*%
%ADD31RoundRect,0.200000X0.400000X-0.450000X0.400000X0.450000X-0.400000X0.450000X-0.400000X-0.450000X0*%
%ADD32RoundRect,0.443750X-0.456250X0.243750X-0.456250X-0.243750X0.456250X-0.243750X0.456250X0.243750X0*%
%ADD33RoundRect,0.418750X-0.256250X0.218750X-0.256250X-0.218750X0.256250X-0.218750X0.256250X0.218750X0*%
%ADD34RoundRect,0.443750X-0.243750X-0.456250X0.243750X-0.456250X0.243750X0.456250X-0.243750X0.456250X0*%
%ADD35C,2.400000*%
%ADD36RoundRect,0.200000X1.500000X1.500000X-1.500000X1.500000X-1.500000X-1.500000X1.500000X-1.500000X0*%
%ADD37C,3.400000*%
G04 APERTURE END LIST*
D10*
X153743162Y-71385235D02*
X153773454Y-71394978D01*
X153807142Y-71419834D01*
X153830425Y-71455522D01*
X153840788Y-71497888D01*
X153841089Y-71506590D01*
X153833430Y-71546996D01*
X153812655Y-71581198D01*
X153782068Y-71606744D01*
X153744971Y-71621185D01*
X153704668Y-71622068D01*
X153690100Y-71618624D01*
X153660375Y-71605938D01*
X153637821Y-71586444D01*
X153619237Y-71559984D01*
X153604575Y-71522108D01*
X153604459Y-71484517D01*
X153616633Y-71449622D01*
X153638845Y-71419835D01*
X153668839Y-71397566D01*
X153704363Y-71385229D01*
X153743162Y-71385235D01*
G36*
X153743162Y-71385235D02*
G01*
X153773454Y-71394978D01*
X153807142Y-71419834D01*
X153830425Y-71455522D01*
X153840788Y-71497888D01*
X153841089Y-71506590D01*
X153833430Y-71546996D01*
X153812655Y-71581198D01*
X153782068Y-71606744D01*
X153744971Y-71621185D01*
X153704668Y-71622068D01*
X153690100Y-71618624D01*
X153660375Y-71605938D01*
X153637821Y-71586444D01*
X153619237Y-71559984D01*
X153604575Y-71522108D01*
X153604459Y-71484517D01*
X153616633Y-71449622D01*
X153638845Y-71419835D01*
X153668839Y-71397566D01*
X153704363Y-71385229D01*
X153743162Y-71385235D01*
G37*
X153779138Y-70920046D02*
X153817450Y-70932581D01*
X153860421Y-70960806D01*
X153891497Y-70999724D01*
X153909234Y-71046706D01*
X153912192Y-71099121D01*
X153911654Y-71104268D01*
X153898443Y-71155970D01*
X153872750Y-71196383D01*
X153835178Y-71224969D01*
X153786324Y-71241193D01*
X153754635Y-71244663D01*
X153713271Y-71244172D01*
X153683753Y-71238022D01*
X153673167Y-71233235D01*
X153630103Y-71202372D01*
X153601695Y-71164117D01*
X153586968Y-71116780D01*
X153584267Y-71079528D01*
X153591779Y-71028883D01*
X153612636Y-70985747D01*
X153644320Y-70951708D01*
X153684311Y-70928354D01*
X153730090Y-70917270D01*
X153779138Y-70920046D01*
G36*
X153779138Y-70920046D02*
G01*
X153817450Y-70932581D01*
X153860421Y-70960806D01*
X153891497Y-70999724D01*
X153909234Y-71046706D01*
X153912192Y-71099121D01*
X153911654Y-71104268D01*
X153898443Y-71155970D01*
X153872750Y-71196383D01*
X153835178Y-71224969D01*
X153786324Y-71241193D01*
X153754635Y-71244663D01*
X153713271Y-71244172D01*
X153683753Y-71238022D01*
X153673167Y-71233235D01*
X153630103Y-71202372D01*
X153601695Y-71164117D01*
X153586968Y-71116780D01*
X153584267Y-71079528D01*
X153591779Y-71028883D01*
X153612636Y-70985747D01*
X153644320Y-70951708D01*
X153684311Y-70928354D01*
X153730090Y-70917270D01*
X153779138Y-70920046D01*
G37*
X154258994Y-70907875D02*
X154296630Y-70926459D01*
X154297492Y-70927109D01*
X154330574Y-70961933D01*
X154352240Y-71004869D01*
X154362014Y-71052011D01*
X154359418Y-71099453D01*
X154343976Y-71143289D01*
X154326872Y-71167944D01*
X154289844Y-71199646D01*
X154246163Y-71220489D01*
X154200032Y-71229449D01*
X154155650Y-71225500D01*
X154130367Y-71215865D01*
X154084886Y-71183265D01*
X154053305Y-71141197D01*
X154036226Y-71090652D01*
X154033186Y-71055908D01*
X154041020Y-71007450D01*
X154063603Y-70964466D01*
X154098905Y-70930156D01*
X154121362Y-70916927D01*
X154165839Y-70902790D01*
X154213557Y-70899879D01*
X154258994Y-70907875D01*
G36*
X154258994Y-70907875D02*
G01*
X154296630Y-70926459D01*
X154297492Y-70927109D01*
X154330574Y-70961933D01*
X154352240Y-71004869D01*
X154362014Y-71052011D01*
X154359418Y-71099453D01*
X154343976Y-71143289D01*
X154326872Y-71167944D01*
X154289844Y-71199646D01*
X154246163Y-71220489D01*
X154200032Y-71229449D01*
X154155650Y-71225500D01*
X154130367Y-71215865D01*
X154084886Y-71183265D01*
X154053305Y-71141197D01*
X154036226Y-71090652D01*
X154033186Y-71055908D01*
X154041020Y-71007450D01*
X154063603Y-70964466D01*
X154098905Y-70930156D01*
X154121362Y-70916927D01*
X154165839Y-70902790D01*
X154213557Y-70899879D01*
X154258994Y-70907875D01*
G37*
X154221356Y-71353361D02*
X154260337Y-71376883D01*
X154271861Y-71388092D01*
X154297332Y-71427745D01*
X154310274Y-71473606D01*
X154311109Y-71521779D01*
X154300260Y-71568368D01*
X154278150Y-71609479D01*
X154245200Y-71641214D01*
X154244345Y-71641785D01*
X154207690Y-71658604D01*
X154163974Y-71667729D01*
X154119934Y-71668463D01*
X154082309Y-71660108D01*
X154079409Y-71658860D01*
X154040166Y-71632351D01*
X154010592Y-71594961D01*
X153991704Y-71550364D01*
X153984516Y-71502232D01*
X153990043Y-71454240D01*
X154009301Y-71410060D01*
X154010252Y-71408604D01*
X154041594Y-71375530D01*
X154082286Y-71353162D01*
X154128419Y-71341807D01*
X154176079Y-71341771D01*
X154221356Y-71353361D01*
G36*
X154221356Y-71353361D02*
G01*
X154260337Y-71376883D01*
X154271861Y-71388092D01*
X154297332Y-71427745D01*
X154310274Y-71473606D01*
X154311109Y-71521779D01*
X154300260Y-71568368D01*
X154278150Y-71609479D01*
X154245200Y-71641214D01*
X154244345Y-71641785D01*
X154207690Y-71658604D01*
X154163974Y-71667729D01*
X154119934Y-71668463D01*
X154082309Y-71660108D01*
X154079409Y-71658860D01*
X154040166Y-71632351D01*
X154010592Y-71594961D01*
X153991704Y-71550364D01*
X153984516Y-71502232D01*
X153990043Y-71454240D01*
X154009301Y-71410060D01*
X154010252Y-71408604D01*
X154041594Y-71375530D01*
X154082286Y-71353162D01*
X154128419Y-71341807D01*
X154176079Y-71341771D01*
X154221356Y-71353361D01*
G37*
X158691287Y-65474233D02*
X158746963Y-65478893D01*
X158814154Y-65486218D01*
X158890320Y-65495848D01*
X158972923Y-65507422D01*
X159059424Y-65520580D01*
X159147285Y-65534961D01*
X159233968Y-65550204D01*
X159316933Y-65565949D01*
X159341600Y-65570896D01*
X159392205Y-65581598D01*
X159447656Y-65594023D01*
X159505425Y-65607531D01*
X159562983Y-65621482D01*
X159617802Y-65635238D01*
X159667354Y-65648157D01*
X159709111Y-65659602D01*
X159740545Y-65668931D01*
X159759127Y-65675506D01*
X159762639Y-65677410D01*
X159770297Y-65691681D01*
X159773405Y-65712820D01*
X159771547Y-65726152D01*
X159764651Y-65740551D01*
X159750736Y-65758643D01*
X159727826Y-65783056D01*
X159699257Y-65811267D01*
X159658142Y-65850907D01*
X159608951Y-65897888D01*
X159552685Y-65951283D01*
X159490340Y-66010166D01*
X159422918Y-66073610D01*
X159351416Y-66140689D01*
X159276834Y-66210476D01*
X159200170Y-66282046D01*
X159122423Y-66354472D01*
X159044592Y-66426827D01*
X158967677Y-66498186D01*
X158892676Y-66567622D01*
X158820588Y-66634208D01*
X158752411Y-66697019D01*
X158689146Y-66755127D01*
X158631790Y-66807607D01*
X158581344Y-66853533D01*
X158538804Y-66891977D01*
X158505172Y-66922014D01*
X158481444Y-66942718D01*
X158468621Y-66953161D01*
X158466692Y-66954267D01*
X158465352Y-66946374D01*
X158464915Y-66924944D01*
X158465385Y-66893350D01*
X158466586Y-66859017D01*
X158467554Y-66834559D01*
X158469009Y-66794810D01*
X158470897Y-66741404D01*
X158473161Y-66675975D01*
X158475747Y-66600155D01*
X158478600Y-66515580D01*
X158481662Y-66423882D01*
X158484880Y-66326695D01*
X158488196Y-66225653D01*
X158490416Y-66157553D01*
X158494315Y-66037412D01*
X158497754Y-65933042D01*
X158500862Y-65843292D01*
X158503773Y-65767011D01*
X158506616Y-65703046D01*
X158509524Y-65650246D01*
X158512628Y-65607460D01*
X158516059Y-65573535D01*
X158519948Y-65547321D01*
X158524428Y-65527666D01*
X158529629Y-65513418D01*
X158535683Y-65503426D01*
X158542722Y-65496538D01*
X158550875Y-65491602D01*
X158560276Y-65487467D01*
X158567191Y-65484633D01*
X158591546Y-65478088D01*
X158624459Y-65473718D01*
X158649663Y-65472600D01*
X158691287Y-65474233D01*
G36*
X158691287Y-65474233D02*
G01*
X158746963Y-65478893D01*
X158814154Y-65486218D01*
X158890320Y-65495848D01*
X158972923Y-65507422D01*
X159059424Y-65520580D01*
X159147285Y-65534961D01*
X159233968Y-65550204D01*
X159316933Y-65565949D01*
X159341600Y-65570896D01*
X159392205Y-65581598D01*
X159447656Y-65594023D01*
X159505425Y-65607531D01*
X159562983Y-65621482D01*
X159617802Y-65635238D01*
X159667354Y-65648157D01*
X159709111Y-65659602D01*
X159740545Y-65668931D01*
X159759127Y-65675506D01*
X159762639Y-65677410D01*
X159770297Y-65691681D01*
X159773405Y-65712820D01*
X159771547Y-65726152D01*
X159764651Y-65740551D01*
X159750736Y-65758643D01*
X159727826Y-65783056D01*
X159699257Y-65811267D01*
X159658142Y-65850907D01*
X159608951Y-65897888D01*
X159552685Y-65951283D01*
X159490340Y-66010166D01*
X159422918Y-66073610D01*
X159351416Y-66140689D01*
X159276834Y-66210476D01*
X159200170Y-66282046D01*
X159122423Y-66354472D01*
X159044592Y-66426827D01*
X158967677Y-66498186D01*
X158892676Y-66567622D01*
X158820588Y-66634208D01*
X158752411Y-66697019D01*
X158689146Y-66755127D01*
X158631790Y-66807607D01*
X158581344Y-66853533D01*
X158538804Y-66891977D01*
X158505172Y-66922014D01*
X158481444Y-66942718D01*
X158468621Y-66953161D01*
X158466692Y-66954267D01*
X158465352Y-66946374D01*
X158464915Y-66924944D01*
X158465385Y-66893350D01*
X158466586Y-66859017D01*
X158467554Y-66834559D01*
X158469009Y-66794810D01*
X158470897Y-66741404D01*
X158473161Y-66675975D01*
X158475747Y-66600155D01*
X158478600Y-66515580D01*
X158481662Y-66423882D01*
X158484880Y-66326695D01*
X158488196Y-66225653D01*
X158490416Y-66157553D01*
X158494315Y-66037412D01*
X158497754Y-65933042D01*
X158500862Y-65843292D01*
X158503773Y-65767011D01*
X158506616Y-65703046D01*
X158509524Y-65650246D01*
X158512628Y-65607460D01*
X158516059Y-65573535D01*
X158519948Y-65547321D01*
X158524428Y-65527666D01*
X158529629Y-65513418D01*
X158535683Y-65503426D01*
X158542722Y-65496538D01*
X158550875Y-65491602D01*
X158560276Y-65487467D01*
X158567191Y-65484633D01*
X158591546Y-65478088D01*
X158624459Y-65473718D01*
X158649663Y-65472600D01*
X158691287Y-65474233D01*
G37*
X155172385Y-66933100D02*
X155166582Y-67159946D01*
X155160288Y-67390630D01*
X155153574Y-67623001D01*
X155146511Y-67854912D01*
X155139171Y-68084212D01*
X155131627Y-68308753D01*
X155123949Y-68526386D01*
X155116209Y-68734960D01*
X155108478Y-68932328D01*
X155100829Y-69116339D01*
X155095832Y-69230059D01*
X155092257Y-69306709D01*
X155089051Y-69368320D01*
X155086041Y-69416779D01*
X155083054Y-69453972D01*
X155079915Y-69481786D01*
X155076452Y-69502105D01*
X155072490Y-69516818D01*
X155068568Y-69526392D01*
X155053496Y-69548922D01*
X155037588Y-69559217D01*
X155036300Y-69559402D01*
X155026882Y-69555308D01*
X155003871Y-69542920D01*
X154968137Y-69522749D01*
X154920548Y-69495311D01*
X154861975Y-69461119D01*
X154793286Y-69420687D01*
X154715351Y-69374527D01*
X154629038Y-69323155D01*
X154535218Y-69267084D01*
X154434758Y-69206826D01*
X154328529Y-69142897D01*
X154217400Y-69075810D01*
X154190029Y-69059256D01*
X154081129Y-68993304D01*
X153975998Y-68929510D01*
X153875578Y-68868454D01*
X153780812Y-68810714D01*
X153692643Y-68756867D01*
X153612011Y-68707492D01*
X153539861Y-68663168D01*
X153477134Y-68624472D01*
X153424773Y-68591984D01*
X153383721Y-68566282D01*
X153354919Y-68547944D01*
X153339311Y-68537548D01*
X153337012Y-68535779D01*
X153322351Y-68519504D01*
X153315314Y-68501386D01*
X153313350Y-68474366D01*
X153313334Y-68470282D01*
X153314468Y-68444304D01*
X153319874Y-68425659D01*
X153332552Y-68407632D01*
X153349317Y-68389785D01*
X153358395Y-68381132D01*
X153379069Y-68361811D01*
X153410473Y-68332616D01*
X153451743Y-68294346D01*
X153502015Y-68247799D01*
X153560424Y-68193770D01*
X153626104Y-68133057D01*
X153698193Y-68066457D01*
X153775824Y-67994768D01*
X153858133Y-67918787D01*
X153944256Y-67839310D01*
X154033328Y-67757135D01*
X154124484Y-67673059D01*
X154216860Y-67587879D01*
X154309591Y-67502392D01*
X154401812Y-67417396D01*
X154492660Y-67333688D01*
X154581268Y-67252064D01*
X154666773Y-67173322D01*
X154748310Y-67098259D01*
X154825014Y-67027673D01*
X154896020Y-66962359D01*
X154960465Y-66903117D01*
X155017483Y-66850741D01*
X155066209Y-66806031D01*
X155105780Y-66769783D01*
X155135330Y-66742793D01*
X155153995Y-66725860D01*
X155157963Y-66722309D01*
X155178026Y-66704500D01*
X155172385Y-66933100D01*
G36*
X155172385Y-66933100D02*
G01*
X155166582Y-67159946D01*
X155160288Y-67390630D01*
X155153574Y-67623001D01*
X155146511Y-67854912D01*
X155139171Y-68084212D01*
X155131627Y-68308753D01*
X155123949Y-68526386D01*
X155116209Y-68734960D01*
X155108478Y-68932328D01*
X155100829Y-69116339D01*
X155095832Y-69230059D01*
X155092257Y-69306709D01*
X155089051Y-69368320D01*
X155086041Y-69416779D01*
X155083054Y-69453972D01*
X155079915Y-69481786D01*
X155076452Y-69502105D01*
X155072490Y-69516818D01*
X155068568Y-69526392D01*
X155053496Y-69548922D01*
X155037588Y-69559217D01*
X155036300Y-69559402D01*
X155026882Y-69555308D01*
X155003871Y-69542920D01*
X154968137Y-69522749D01*
X154920548Y-69495311D01*
X154861975Y-69461119D01*
X154793286Y-69420687D01*
X154715351Y-69374527D01*
X154629038Y-69323155D01*
X154535218Y-69267084D01*
X154434758Y-69206826D01*
X154328529Y-69142897D01*
X154217400Y-69075810D01*
X154190029Y-69059256D01*
X154081129Y-68993304D01*
X153975998Y-68929510D01*
X153875578Y-68868454D01*
X153780812Y-68810714D01*
X153692643Y-68756867D01*
X153612011Y-68707492D01*
X153539861Y-68663168D01*
X153477134Y-68624472D01*
X153424773Y-68591984D01*
X153383721Y-68566282D01*
X153354919Y-68547944D01*
X153339311Y-68537548D01*
X153337012Y-68535779D01*
X153322351Y-68519504D01*
X153315314Y-68501386D01*
X153313350Y-68474366D01*
X153313334Y-68470282D01*
X153314468Y-68444304D01*
X153319874Y-68425659D01*
X153332552Y-68407632D01*
X153349317Y-68389785D01*
X153358395Y-68381132D01*
X153379069Y-68361811D01*
X153410473Y-68332616D01*
X153451743Y-68294346D01*
X153502015Y-68247799D01*
X153560424Y-68193770D01*
X153626104Y-68133057D01*
X153698193Y-68066457D01*
X153775824Y-67994768D01*
X153858133Y-67918787D01*
X153944256Y-67839310D01*
X154033328Y-67757135D01*
X154124484Y-67673059D01*
X154216860Y-67587879D01*
X154309591Y-67502392D01*
X154401812Y-67417396D01*
X154492660Y-67333688D01*
X154581268Y-67252064D01*
X154666773Y-67173322D01*
X154748310Y-67098259D01*
X154825014Y-67027673D01*
X154896020Y-66962359D01*
X154960465Y-66903117D01*
X155017483Y-66850741D01*
X155066209Y-66806031D01*
X155105780Y-66769783D01*
X155135330Y-66742793D01*
X155153995Y-66725860D01*
X155157963Y-66722309D01*
X155178026Y-66704500D01*
X155172385Y-66933100D01*
G37*
X154546953Y-69893571D02*
X154661545Y-69915258D01*
X154773193Y-69952670D01*
X154880879Y-70005591D01*
X154983581Y-70073808D01*
X155080279Y-70157106D01*
X155107076Y-70184077D01*
X155190100Y-70281784D01*
X155257878Y-70385391D01*
X155310295Y-70493764D01*
X155347236Y-70605771D01*
X155368586Y-70720277D01*
X155374229Y-70836149D01*
X155364050Y-70952254D01*
X155337935Y-71067458D01*
X155295766Y-71180628D01*
X155237431Y-71290630D01*
X155222063Y-71314832D01*
X155187637Y-71361874D01*
X155143490Y-71414050D01*
X155093590Y-71467275D01*
X155041905Y-71517460D01*
X154992403Y-71560519D01*
X154959193Y-71585610D01*
X154886583Y-71630464D01*
X154806322Y-71670914D01*
X154724865Y-71703988D01*
X154657648Y-71724547D01*
X154614156Y-71734499D01*
X154572209Y-71742484D01*
X154534917Y-71748092D01*
X154505390Y-71750916D01*
X154486737Y-71750546D01*
X154481734Y-71747677D01*
X154486486Y-71738399D01*
X154498956Y-71719761D01*
X154516462Y-71695770D01*
X154516762Y-71695372D01*
X154559990Y-71628337D01*
X154597421Y-71550947D01*
X154626171Y-71469527D01*
X154634802Y-71436355D01*
X154642774Y-71398914D01*
X154647732Y-71366122D01*
X154650070Y-71332519D01*
X154650179Y-71292645D01*
X154648600Y-71244521D01*
X154644408Y-71176835D01*
X154637230Y-71120603D01*
X154625772Y-71070430D01*
X154608740Y-71020921D01*
X154584841Y-70966682D01*
X154579112Y-70954767D01*
X154527085Y-70865725D01*
X154463245Y-70788572D01*
X154387360Y-70723118D01*
X154299200Y-70669175D01*
X154198532Y-70626553D01*
X154163816Y-70615327D01*
X154130156Y-70605779D01*
X154100678Y-70599287D01*
X154070528Y-70595277D01*
X154034848Y-70593175D01*
X153988784Y-70592408D01*
X153969500Y-70592348D01*
X153914488Y-70592890D01*
X153871545Y-70594965D01*
X153835841Y-70599044D01*
X153802545Y-70605599D01*
X153783233Y-70610503D01*
X153712131Y-70634099D01*
X153642256Y-70665301D01*
X153579963Y-70701098D01*
X153555056Y-70718695D01*
X153513910Y-70750112D01*
X153519863Y-70691573D01*
X153533216Y-70617214D01*
X153557915Y-70536294D01*
X153592183Y-70452951D01*
X153634240Y-70371327D01*
X153682311Y-70295559D01*
X153700577Y-70270735D01*
X153763933Y-70197584D01*
X153838733Y-70126912D01*
X153920622Y-70062196D01*
X154005243Y-70006910D01*
X154079567Y-69968344D01*
X154195726Y-69924994D01*
X154313023Y-69898224D01*
X154430439Y-69887821D01*
X154546953Y-69893571D01*
G36*
X154546953Y-69893571D02*
G01*
X154661545Y-69915258D01*
X154773193Y-69952670D01*
X154880879Y-70005591D01*
X154983581Y-70073808D01*
X155080279Y-70157106D01*
X155107076Y-70184077D01*
X155190100Y-70281784D01*
X155257878Y-70385391D01*
X155310295Y-70493764D01*
X155347236Y-70605771D01*
X155368586Y-70720277D01*
X155374229Y-70836149D01*
X155364050Y-70952254D01*
X155337935Y-71067458D01*
X155295766Y-71180628D01*
X155237431Y-71290630D01*
X155222063Y-71314832D01*
X155187637Y-71361874D01*
X155143490Y-71414050D01*
X155093590Y-71467275D01*
X155041905Y-71517460D01*
X154992403Y-71560519D01*
X154959193Y-71585610D01*
X154886583Y-71630464D01*
X154806322Y-71670914D01*
X154724865Y-71703988D01*
X154657648Y-71724547D01*
X154614156Y-71734499D01*
X154572209Y-71742484D01*
X154534917Y-71748092D01*
X154505390Y-71750916D01*
X154486737Y-71750546D01*
X154481734Y-71747677D01*
X154486486Y-71738399D01*
X154498956Y-71719761D01*
X154516462Y-71695770D01*
X154516762Y-71695372D01*
X154559990Y-71628337D01*
X154597421Y-71550947D01*
X154626171Y-71469527D01*
X154634802Y-71436355D01*
X154642774Y-71398914D01*
X154647732Y-71366122D01*
X154650070Y-71332519D01*
X154650179Y-71292645D01*
X154648600Y-71244521D01*
X154644408Y-71176835D01*
X154637230Y-71120603D01*
X154625772Y-71070430D01*
X154608740Y-71020921D01*
X154584841Y-70966682D01*
X154579112Y-70954767D01*
X154527085Y-70865725D01*
X154463245Y-70788572D01*
X154387360Y-70723118D01*
X154299200Y-70669175D01*
X154198532Y-70626553D01*
X154163816Y-70615327D01*
X154130156Y-70605779D01*
X154100678Y-70599287D01*
X154070528Y-70595277D01*
X154034848Y-70593175D01*
X153988784Y-70592408D01*
X153969500Y-70592348D01*
X153914488Y-70592890D01*
X153871545Y-70594965D01*
X153835841Y-70599044D01*
X153802545Y-70605599D01*
X153783233Y-70610503D01*
X153712131Y-70634099D01*
X153642256Y-70665301D01*
X153579963Y-70701098D01*
X153555056Y-70718695D01*
X153513910Y-70750112D01*
X153519863Y-70691573D01*
X153533216Y-70617214D01*
X153557915Y-70536294D01*
X153592183Y-70452951D01*
X153634240Y-70371327D01*
X153682311Y-70295559D01*
X153700577Y-70270735D01*
X153763933Y-70197584D01*
X153838733Y-70126912D01*
X153920622Y-70062196D01*
X154005243Y-70006910D01*
X154079567Y-69968344D01*
X154195726Y-69924994D01*
X154313023Y-69898224D01*
X154430439Y-69887821D01*
X154546953Y-69893571D01*
G37*
X159947673Y-65864185D02*
X159951340Y-65874255D01*
X159957545Y-65898220D01*
X159965713Y-65933332D01*
X159975270Y-65976841D01*
X159985640Y-66025998D01*
X159996248Y-66078053D01*
X160006520Y-66130257D01*
X160015881Y-66179862D01*
X160023755Y-66224117D01*
X160026905Y-66243067D01*
X160062156Y-66513202D01*
X160081570Y-66786303D01*
X160085240Y-67060779D01*
X160073259Y-67335044D01*
X160045721Y-67607508D01*
X160002719Y-67876584D01*
X159944346Y-68140682D01*
X159907237Y-68277996D01*
X159887624Y-68337211D01*
X159867123Y-68380606D01*
X159844939Y-68409294D01*
X159820279Y-68424390D01*
X159800610Y-68427467D01*
X159778317Y-68428472D01*
X159763509Y-68430668D01*
X159753874Y-68430679D01*
X159728278Y-68429982D01*
X159687676Y-68428614D01*
X159633023Y-68426614D01*
X159565277Y-68424021D01*
X159485391Y-68420873D01*
X159394322Y-68417210D01*
X159293025Y-68413071D01*
X159182456Y-68408493D01*
X159063570Y-68403516D01*
X158937323Y-68398178D01*
X158804670Y-68392518D01*
X158666568Y-68386575D01*
X158534728Y-68380856D01*
X158392566Y-68374638D01*
X158255056Y-68368570D01*
X158123146Y-68362695D01*
X157997784Y-68357058D01*
X157879919Y-68351703D01*
X157770499Y-68346675D01*
X157670473Y-68342019D01*
X157580789Y-68337778D01*
X157502394Y-68333998D01*
X157436238Y-68330722D01*
X157383270Y-68327995D01*
X157344436Y-68325863D01*
X157320686Y-68324368D01*
X157312965Y-68323587D01*
X157317932Y-68316796D01*
X157334678Y-68299100D01*
X157362563Y-68271100D01*
X157400946Y-68233402D01*
X157449185Y-68186609D01*
X157506640Y-68131325D01*
X157572671Y-68068153D01*
X157646637Y-67997697D01*
X157727895Y-67920560D01*
X157815807Y-67837348D01*
X157909731Y-67748662D01*
X158009026Y-67655108D01*
X158113052Y-67557288D01*
X158221168Y-67455807D01*
X158332732Y-67351268D01*
X158447104Y-67244275D01*
X158563644Y-67135431D01*
X158681710Y-67025341D01*
X158800661Y-66914608D01*
X158919858Y-66803835D01*
X159038659Y-66693627D01*
X159156423Y-66584587D01*
X159272509Y-66477319D01*
X159278633Y-66471667D01*
X159384584Y-66373896D01*
X159478788Y-66287000D01*
X159561930Y-66210359D01*
X159634695Y-66143350D01*
X159697768Y-66085351D01*
X159751833Y-66035741D01*
X159797575Y-65993898D01*
X159835679Y-65959201D01*
X159866830Y-65931026D01*
X159891712Y-65908753D01*
X159911011Y-65891761D01*
X159925411Y-65879426D01*
X159935596Y-65871127D01*
X159942253Y-65866243D01*
X159946065Y-65864152D01*
X159947673Y-65864185D01*
G36*
X159947673Y-65864185D02*
G01*
X159951340Y-65874255D01*
X159957545Y-65898220D01*
X159965713Y-65933332D01*
X159975270Y-65976841D01*
X159985640Y-66025998D01*
X159996248Y-66078053D01*
X160006520Y-66130257D01*
X160015881Y-66179862D01*
X160023755Y-66224117D01*
X160026905Y-66243067D01*
X160062156Y-66513202D01*
X160081570Y-66786303D01*
X160085240Y-67060779D01*
X160073259Y-67335044D01*
X160045721Y-67607508D01*
X160002719Y-67876584D01*
X159944346Y-68140682D01*
X159907237Y-68277996D01*
X159887624Y-68337211D01*
X159867123Y-68380606D01*
X159844939Y-68409294D01*
X159820279Y-68424390D01*
X159800610Y-68427467D01*
X159778317Y-68428472D01*
X159763509Y-68430668D01*
X159753874Y-68430679D01*
X159728278Y-68429982D01*
X159687676Y-68428614D01*
X159633023Y-68426614D01*
X159565277Y-68424021D01*
X159485391Y-68420873D01*
X159394322Y-68417210D01*
X159293025Y-68413071D01*
X159182456Y-68408493D01*
X159063570Y-68403516D01*
X158937323Y-68398178D01*
X158804670Y-68392518D01*
X158666568Y-68386575D01*
X158534728Y-68380856D01*
X158392566Y-68374638D01*
X158255056Y-68368570D01*
X158123146Y-68362695D01*
X157997784Y-68357058D01*
X157879919Y-68351703D01*
X157770499Y-68346675D01*
X157670473Y-68342019D01*
X157580789Y-68337778D01*
X157502394Y-68333998D01*
X157436238Y-68330722D01*
X157383270Y-68327995D01*
X157344436Y-68325863D01*
X157320686Y-68324368D01*
X157312965Y-68323587D01*
X157317932Y-68316796D01*
X157334678Y-68299100D01*
X157362563Y-68271100D01*
X157400946Y-68233402D01*
X157449185Y-68186609D01*
X157506640Y-68131325D01*
X157572671Y-68068153D01*
X157646637Y-67997697D01*
X157727895Y-67920560D01*
X157815807Y-67837348D01*
X157909731Y-67748662D01*
X158009026Y-67655108D01*
X158113052Y-67557288D01*
X158221168Y-67455807D01*
X158332732Y-67351268D01*
X158447104Y-67244275D01*
X158563644Y-67135431D01*
X158681710Y-67025341D01*
X158800661Y-66914608D01*
X158919858Y-66803835D01*
X159038659Y-66693627D01*
X159156423Y-66584587D01*
X159272509Y-66477319D01*
X159278633Y-66471667D01*
X159384584Y-66373896D01*
X159478788Y-66287000D01*
X159561930Y-66210359D01*
X159634695Y-66143350D01*
X159697768Y-66085351D01*
X159751833Y-66035741D01*
X159797575Y-65993898D01*
X159835679Y-65959201D01*
X159866830Y-65931026D01*
X159891712Y-65908753D01*
X159911011Y-65891761D01*
X159925411Y-65879426D01*
X159935596Y-65871127D01*
X159942253Y-65866243D01*
X159946065Y-65864152D01*
X159947673Y-65864185D01*
G37*
X158200836Y-65474252D02*
X158239525Y-65477065D01*
X158267755Y-65482731D01*
X158287662Y-65491665D01*
X158301377Y-65504283D01*
X158310462Y-65519725D01*
X158312251Y-65526911D01*
X158313542Y-65540200D01*
X158314311Y-65560561D01*
X158314536Y-65588959D01*
X158314192Y-65626363D01*
X158313258Y-65673739D01*
X158311708Y-65732056D01*
X158309521Y-65802279D01*
X158306672Y-65885376D01*
X158303138Y-65982315D01*
X158298897Y-66094062D01*
X158293924Y-66221585D01*
X158292954Y-66246182D01*
X158288561Y-66356024D01*
X158284198Y-66462562D01*
X158279929Y-66564359D01*
X158275821Y-66659975D01*
X158271936Y-66747970D01*
X158268342Y-66826905D01*
X158265101Y-66895340D01*
X158262281Y-66951837D01*
X158259944Y-66994955D01*
X158258157Y-67023256D01*
X158257536Y-67030921D01*
X158250140Y-67088308D01*
X158239111Y-67133600D01*
X158222835Y-67171511D01*
X158199700Y-67206759D01*
X158195617Y-67212009D01*
X158186562Y-67221389D01*
X158166216Y-67241174D01*
X158135736Y-67270286D01*
X158096278Y-67307649D01*
X158049000Y-67352189D01*
X157995059Y-67402828D01*
X157935613Y-67458492D01*
X157871817Y-67518104D01*
X157804830Y-67580588D01*
X157735808Y-67644869D01*
X157665908Y-67709870D01*
X157596288Y-67774516D01*
X157528104Y-67837732D01*
X157462514Y-67898440D01*
X157400675Y-67955565D01*
X157343744Y-68008032D01*
X157292877Y-68054764D01*
X157249232Y-68094685D01*
X157213967Y-68126721D01*
X157188237Y-68149794D01*
X157173201Y-68162829D01*
X157171853Y-68163920D01*
X157161541Y-68170266D01*
X157157803Y-68164332D01*
X157157468Y-68151220D01*
X157157776Y-68140051D01*
X157158619Y-68112922D01*
X157159963Y-68070795D01*
X157161777Y-68014635D01*
X157164030Y-67945405D01*
X157166689Y-67864068D01*
X157169724Y-67771587D01*
X157173102Y-67668926D01*
X157176792Y-67557049D01*
X157180762Y-67436919D01*
X157184981Y-67309499D01*
X157189416Y-67175753D01*
X157194037Y-67036644D01*
X157198781Y-66894048D01*
X157204703Y-66717096D01*
X157210149Y-66556396D01*
X157215148Y-66411275D01*
X157219727Y-66281060D01*
X157223916Y-66165077D01*
X157227741Y-66062654D01*
X157231232Y-65973117D01*
X157234416Y-65895793D01*
X157237322Y-65830008D01*
X157239978Y-65775090D01*
X157242412Y-65730364D01*
X157244652Y-65695158D01*
X157246727Y-65668798D01*
X157248664Y-65650612D01*
X157250492Y-65639924D01*
X157251430Y-65637065D01*
X157262184Y-65619160D01*
X157277007Y-65603778D01*
X157297693Y-65590281D01*
X157326038Y-65578033D01*
X157363835Y-65566395D01*
X157412879Y-65554732D01*
X157474966Y-65542406D01*
X157551889Y-65528780D01*
X157560660Y-65527289D01*
X157783499Y-65496580D01*
X158014876Y-65478414D01*
X158083554Y-65475522D01*
X158149557Y-65473876D01*
X158200836Y-65474252D01*
G36*
X158200836Y-65474252D02*
G01*
X158239525Y-65477065D01*
X158267755Y-65482731D01*
X158287662Y-65491665D01*
X158301377Y-65504283D01*
X158310462Y-65519725D01*
X158312251Y-65526911D01*
X158313542Y-65540200D01*
X158314311Y-65560561D01*
X158314536Y-65588959D01*
X158314192Y-65626363D01*
X158313258Y-65673739D01*
X158311708Y-65732056D01*
X158309521Y-65802279D01*
X158306672Y-65885376D01*
X158303138Y-65982315D01*
X158298897Y-66094062D01*
X158293924Y-66221585D01*
X158292954Y-66246182D01*
X158288561Y-66356024D01*
X158284198Y-66462562D01*
X158279929Y-66564359D01*
X158275821Y-66659975D01*
X158271936Y-66747970D01*
X158268342Y-66826905D01*
X158265101Y-66895340D01*
X158262281Y-66951837D01*
X158259944Y-66994955D01*
X158258157Y-67023256D01*
X158257536Y-67030921D01*
X158250140Y-67088308D01*
X158239111Y-67133600D01*
X158222835Y-67171511D01*
X158199700Y-67206759D01*
X158195617Y-67212009D01*
X158186562Y-67221389D01*
X158166216Y-67241174D01*
X158135736Y-67270286D01*
X158096278Y-67307649D01*
X158049000Y-67352189D01*
X157995059Y-67402828D01*
X157935613Y-67458492D01*
X157871817Y-67518104D01*
X157804830Y-67580588D01*
X157735808Y-67644869D01*
X157665908Y-67709870D01*
X157596288Y-67774516D01*
X157528104Y-67837732D01*
X157462514Y-67898440D01*
X157400675Y-67955565D01*
X157343744Y-68008032D01*
X157292877Y-68054764D01*
X157249232Y-68094685D01*
X157213967Y-68126721D01*
X157188237Y-68149794D01*
X157173201Y-68162829D01*
X157171853Y-68163920D01*
X157161541Y-68170266D01*
X157157803Y-68164332D01*
X157157468Y-68151220D01*
X157157776Y-68140051D01*
X157158619Y-68112922D01*
X157159963Y-68070795D01*
X157161777Y-68014635D01*
X157164030Y-67945405D01*
X157166689Y-67864068D01*
X157169724Y-67771587D01*
X157173102Y-67668926D01*
X157176792Y-67557049D01*
X157180762Y-67436919D01*
X157184981Y-67309499D01*
X157189416Y-67175753D01*
X157194037Y-67036644D01*
X157198781Y-66894048D01*
X157204703Y-66717096D01*
X157210149Y-66556396D01*
X157215148Y-66411275D01*
X157219727Y-66281060D01*
X157223916Y-66165077D01*
X157227741Y-66062654D01*
X157231232Y-65973117D01*
X157234416Y-65895793D01*
X157237322Y-65830008D01*
X157239978Y-65775090D01*
X157242412Y-65730364D01*
X157244652Y-65695158D01*
X157246727Y-65668798D01*
X157248664Y-65650612D01*
X157250492Y-65639924D01*
X157251430Y-65637065D01*
X157262184Y-65619160D01*
X157277007Y-65603778D01*
X157297693Y-65590281D01*
X157326038Y-65578033D01*
X157363835Y-65566395D01*
X157412879Y-65554732D01*
X157474966Y-65542406D01*
X157551889Y-65528780D01*
X157560660Y-65527289D01*
X157783499Y-65496580D01*
X158014876Y-65478414D01*
X158083554Y-65475522D01*
X158149557Y-65473876D01*
X158200836Y-65474252D01*
G37*
X155946656Y-70308476D02*
X156020473Y-70309767D01*
X156106346Y-70311675D01*
X156203303Y-70314165D01*
X156310372Y-70317204D01*
X156426580Y-70320756D01*
X156550957Y-70324789D01*
X156682531Y-70329267D01*
X156820329Y-70334158D01*
X156963379Y-70339426D01*
X157110710Y-70345038D01*
X157261351Y-70350959D01*
X157414328Y-70357156D01*
X157568670Y-70363594D01*
X157723406Y-70370240D01*
X157877563Y-70377059D01*
X158030170Y-70384017D01*
X158180254Y-70391081D01*
X158326844Y-70398215D01*
X158384867Y-70401110D01*
X158439867Y-70404015D01*
X158488980Y-70406876D01*
X158529757Y-70409528D01*
X158559746Y-70411807D01*
X158576501Y-70413547D01*
X158579151Y-70414167D01*
X158580069Y-70414512D01*
X158581080Y-70414660D01*
X158581606Y-70415149D01*
X158581070Y-70416521D01*
X158578896Y-70419315D01*
X158574506Y-70424071D01*
X158567322Y-70431329D01*
X158556768Y-70441629D01*
X158542266Y-70455512D01*
X158523240Y-70473517D01*
X158499111Y-70496185D01*
X158469302Y-70524054D01*
X158433238Y-70557666D01*
X158390339Y-70597561D01*
X158340030Y-70644277D01*
X158281732Y-70698357D01*
X158214869Y-70760338D01*
X158138863Y-70830763D01*
X158053137Y-70910169D01*
X157957114Y-70999098D01*
X157850217Y-71098090D01*
X157731868Y-71207684D01*
X157644682Y-71288423D01*
X157521000Y-71402941D01*
X157409114Y-71506485D01*
X157308413Y-71599603D01*
X157218286Y-71682842D01*
X157138121Y-71756751D01*
X157067307Y-71821880D01*
X157005232Y-71878775D01*
X156951285Y-71927985D01*
X156904854Y-71970058D01*
X156865327Y-72005543D01*
X156832094Y-72034989D01*
X156804543Y-72058943D01*
X156782062Y-72077953D01*
X156764041Y-72092568D01*
X156749866Y-72103337D01*
X156738928Y-72110807D01*
X156730614Y-72115527D01*
X156724314Y-72118046D01*
X156719414Y-72118911D01*
X156718503Y-72118933D01*
X156693857Y-72114757D01*
X156672227Y-72099830D01*
X156664068Y-72091417D01*
X156656926Y-72080343D01*
X156642597Y-72055188D01*
X156621604Y-72016946D01*
X156594471Y-71966612D01*
X156561722Y-71905180D01*
X156523881Y-71833644D01*
X156481472Y-71752999D01*
X156435019Y-71664239D01*
X156385046Y-71568359D01*
X156332077Y-71466352D01*
X156276636Y-71359213D01*
X156219247Y-71247937D01*
X156203831Y-71217983D01*
X156130533Y-71075346D01*
X156064842Y-70947179D01*
X156006497Y-70832958D01*
X155955238Y-70732160D01*
X155910803Y-70644259D01*
X155872931Y-70568733D01*
X155841362Y-70505057D01*
X155815835Y-70452707D01*
X155796088Y-70411160D01*
X155781862Y-70379890D01*
X155772894Y-70358374D01*
X155768924Y-70346089D01*
X155768667Y-70343961D01*
X155771120Y-70323532D01*
X155781257Y-70313464D01*
X155791382Y-70310155D01*
X155807258Y-70308640D01*
X155839077Y-70307878D01*
X155885867Y-70307835D01*
X155946656Y-70308476D01*
G36*
X155946656Y-70308476D02*
G01*
X156020473Y-70309767D01*
X156106346Y-70311675D01*
X156203303Y-70314165D01*
X156310372Y-70317204D01*
X156426580Y-70320756D01*
X156550957Y-70324789D01*
X156682531Y-70329267D01*
X156820329Y-70334158D01*
X156963379Y-70339426D01*
X157110710Y-70345038D01*
X157261351Y-70350959D01*
X157414328Y-70357156D01*
X157568670Y-70363594D01*
X157723406Y-70370240D01*
X157877563Y-70377059D01*
X158030170Y-70384017D01*
X158180254Y-70391081D01*
X158326844Y-70398215D01*
X158384867Y-70401110D01*
X158439867Y-70404015D01*
X158488980Y-70406876D01*
X158529757Y-70409528D01*
X158559746Y-70411807D01*
X158576501Y-70413547D01*
X158579151Y-70414167D01*
X158580069Y-70414512D01*
X158581080Y-70414660D01*
X158581606Y-70415149D01*
X158581070Y-70416521D01*
X158578896Y-70419315D01*
X158574506Y-70424071D01*
X158567322Y-70431329D01*
X158556768Y-70441629D01*
X158542266Y-70455512D01*
X158523240Y-70473517D01*
X158499111Y-70496185D01*
X158469302Y-70524054D01*
X158433238Y-70557666D01*
X158390339Y-70597561D01*
X158340030Y-70644277D01*
X158281732Y-70698357D01*
X158214869Y-70760338D01*
X158138863Y-70830763D01*
X158053137Y-70910169D01*
X157957114Y-70999098D01*
X157850217Y-71098090D01*
X157731868Y-71207684D01*
X157644682Y-71288423D01*
X157521000Y-71402941D01*
X157409114Y-71506485D01*
X157308413Y-71599603D01*
X157218286Y-71682842D01*
X157138121Y-71756751D01*
X157067307Y-71821880D01*
X157005232Y-71878775D01*
X156951285Y-71927985D01*
X156904854Y-71970058D01*
X156865327Y-72005543D01*
X156832094Y-72034989D01*
X156804543Y-72058943D01*
X156782062Y-72077953D01*
X156764041Y-72092568D01*
X156749866Y-72103337D01*
X156738928Y-72110807D01*
X156730614Y-72115527D01*
X156724314Y-72118046D01*
X156719414Y-72118911D01*
X156718503Y-72118933D01*
X156693857Y-72114757D01*
X156672227Y-72099830D01*
X156664068Y-72091417D01*
X156656926Y-72080343D01*
X156642597Y-72055188D01*
X156621604Y-72016946D01*
X156594471Y-71966612D01*
X156561722Y-71905180D01*
X156523881Y-71833644D01*
X156481472Y-71752999D01*
X156435019Y-71664239D01*
X156385046Y-71568359D01*
X156332077Y-71466352D01*
X156276636Y-71359213D01*
X156219247Y-71247937D01*
X156203831Y-71217983D01*
X156130533Y-71075346D01*
X156064842Y-70947179D01*
X156006497Y-70832958D01*
X155955238Y-70732160D01*
X155910803Y-70644259D01*
X155872931Y-70568733D01*
X155841362Y-70505057D01*
X155815835Y-70452707D01*
X155796088Y-70411160D01*
X155781862Y-70379890D01*
X155772894Y-70358374D01*
X155768924Y-70346089D01*
X155768667Y-70343961D01*
X155771120Y-70323532D01*
X155781257Y-70313464D01*
X155791382Y-70310155D01*
X155807258Y-70308640D01*
X155839077Y-70307878D01*
X155885867Y-70307835D01*
X155946656Y-70308476D01*
G37*
X157026719Y-65867510D02*
X157025080Y-65928991D01*
X157023098Y-66003368D01*
X157020879Y-66086607D01*
X157018531Y-66174678D01*
X157016162Y-66263548D01*
X157013879Y-66349186D01*
X157012871Y-66387000D01*
X157008605Y-66541772D01*
X157004080Y-66696207D01*
X156999337Y-66849287D01*
X156994420Y-66999996D01*
X156989370Y-67147316D01*
X156984232Y-67290231D01*
X156979047Y-67427723D01*
X156973859Y-67558777D01*
X156968710Y-67682374D01*
X156963642Y-67797498D01*
X156958699Y-67903133D01*
X156953923Y-67998260D01*
X156949357Y-68081864D01*
X156945044Y-68152927D01*
X156941026Y-68210432D01*
X156937346Y-68253363D01*
X156934047Y-68280702D01*
X156933097Y-68285908D01*
X156912867Y-68352208D01*
X156880525Y-68413529D01*
X156833956Y-68473769D01*
X156827000Y-68481449D01*
X156815242Y-68493245D01*
X156792017Y-68515632D01*
X156758293Y-68547708D01*
X156715039Y-68588571D01*
X156663223Y-68637319D01*
X156603814Y-68693048D01*
X156537779Y-68754857D01*
X156466088Y-68821843D01*
X156389709Y-68893105D01*
X156309609Y-68967739D01*
X156226758Y-69044843D01*
X156142124Y-69123516D01*
X156056675Y-69202855D01*
X155971379Y-69281958D01*
X155887205Y-69359921D01*
X155805122Y-69435844D01*
X155726096Y-69508823D01*
X155651098Y-69577957D01*
X155582387Y-69641156D01*
X155550448Y-69668795D01*
X155517832Y-69694201D01*
X155489665Y-69713487D01*
X155479145Y-69719472D01*
X155431816Y-69736265D01*
X155385317Y-69739524D01*
X155343448Y-69729225D01*
X155327536Y-69720434D01*
X155306119Y-69702444D01*
X155290264Y-69682966D01*
X155288473Y-69679668D01*
X155287239Y-69673952D01*
X155286331Y-69662159D01*
X155285766Y-69643641D01*
X155285562Y-69617751D01*
X155285735Y-69583841D01*
X155286303Y-69541265D01*
X155287282Y-69489374D01*
X155288691Y-69427522D01*
X155290545Y-69355062D01*
X155292862Y-69271346D01*
X155295660Y-69175727D01*
X155298955Y-69067557D01*
X155302764Y-68946190D01*
X155307105Y-68810978D01*
X155311994Y-68661274D01*
X155317450Y-68496430D01*
X155323488Y-68315800D01*
X155328440Y-68168684D01*
X155333824Y-68010338D01*
X155339150Y-67856062D01*
X155344384Y-67706750D01*
X155349491Y-67563300D01*
X155354438Y-67426606D01*
X155359188Y-67297564D01*
X155363709Y-67177070D01*
X155367965Y-67066019D01*
X155371922Y-66965306D01*
X155375546Y-66875828D01*
X155378801Y-66798480D01*
X155381654Y-66734157D01*
X155384071Y-66683755D01*
X155386016Y-66648170D01*
X155387455Y-66628297D01*
X155387836Y-66625199D01*
X155399460Y-66574008D01*
X155416894Y-66529325D01*
X155442127Y-66488432D01*
X155477147Y-66448606D01*
X155523945Y-66407127D01*
X155576565Y-66367013D01*
X155785247Y-66224622D01*
X156006169Y-66091300D01*
X156236424Y-65968550D01*
X156473103Y-65857875D01*
X156713296Y-65760779D01*
X156830224Y-65719013D01*
X156878924Y-65702569D01*
X156923985Y-65687711D01*
X156962186Y-65675474D01*
X156990306Y-65666893D01*
X157003748Y-65663274D01*
X157032329Y-65657054D01*
X157026719Y-65867510D01*
G36*
X157026719Y-65867510D02*
G01*
X157025080Y-65928991D01*
X157023098Y-66003368D01*
X157020879Y-66086607D01*
X157018531Y-66174678D01*
X157016162Y-66263548D01*
X157013879Y-66349186D01*
X157012871Y-66387000D01*
X157008605Y-66541772D01*
X157004080Y-66696207D01*
X156999337Y-66849287D01*
X156994420Y-66999996D01*
X156989370Y-67147316D01*
X156984232Y-67290231D01*
X156979047Y-67427723D01*
X156973859Y-67558777D01*
X156968710Y-67682374D01*
X156963642Y-67797498D01*
X156958699Y-67903133D01*
X156953923Y-67998260D01*
X156949357Y-68081864D01*
X156945044Y-68152927D01*
X156941026Y-68210432D01*
X156937346Y-68253363D01*
X156934047Y-68280702D01*
X156933097Y-68285908D01*
X156912867Y-68352208D01*
X156880525Y-68413529D01*
X156833956Y-68473769D01*
X156827000Y-68481449D01*
X156815242Y-68493245D01*
X156792017Y-68515632D01*
X156758293Y-68547708D01*
X156715039Y-68588571D01*
X156663223Y-68637319D01*
X156603814Y-68693048D01*
X156537779Y-68754857D01*
X156466088Y-68821843D01*
X156389709Y-68893105D01*
X156309609Y-68967739D01*
X156226758Y-69044843D01*
X156142124Y-69123516D01*
X156056675Y-69202855D01*
X155971379Y-69281958D01*
X155887205Y-69359921D01*
X155805122Y-69435844D01*
X155726096Y-69508823D01*
X155651098Y-69577957D01*
X155582387Y-69641156D01*
X155550448Y-69668795D01*
X155517832Y-69694201D01*
X155489665Y-69713487D01*
X155479145Y-69719472D01*
X155431816Y-69736265D01*
X155385317Y-69739524D01*
X155343448Y-69729225D01*
X155327536Y-69720434D01*
X155306119Y-69702444D01*
X155290264Y-69682966D01*
X155288473Y-69679668D01*
X155287239Y-69673952D01*
X155286331Y-69662159D01*
X155285766Y-69643641D01*
X155285562Y-69617751D01*
X155285735Y-69583841D01*
X155286303Y-69541265D01*
X155287282Y-69489374D01*
X155288691Y-69427522D01*
X155290545Y-69355062D01*
X155292862Y-69271346D01*
X155295660Y-69175727D01*
X155298955Y-69067557D01*
X155302764Y-68946190D01*
X155307105Y-68810978D01*
X155311994Y-68661274D01*
X155317450Y-68496430D01*
X155323488Y-68315800D01*
X155328440Y-68168684D01*
X155333824Y-68010338D01*
X155339150Y-67856062D01*
X155344384Y-67706750D01*
X155349491Y-67563300D01*
X155354438Y-67426606D01*
X155359188Y-67297564D01*
X155363709Y-67177070D01*
X155367965Y-67066019D01*
X155371922Y-66965306D01*
X155375546Y-66875828D01*
X155378801Y-66798480D01*
X155381654Y-66734157D01*
X155384071Y-66683755D01*
X155386016Y-66648170D01*
X155387455Y-66628297D01*
X155387836Y-66625199D01*
X155399460Y-66574008D01*
X155416894Y-66529325D01*
X155442127Y-66488432D01*
X155477147Y-66448606D01*
X155523945Y-66407127D01*
X155576565Y-66367013D01*
X155785247Y-66224622D01*
X156006169Y-66091300D01*
X156236424Y-65968550D01*
X156473103Y-65857875D01*
X156713296Y-65760779D01*
X156830224Y-65719013D01*
X156878924Y-65702569D01*
X156923985Y-65687711D01*
X156962186Y-65675474D01*
X156990306Y-65666893D01*
X157003748Y-65663274D01*
X157032329Y-65657054D01*
X157026719Y-65867510D01*
G37*
X157257683Y-68529095D02*
X157316786Y-68530331D01*
X157387892Y-68532147D01*
X157469858Y-68534498D01*
X157561540Y-68537338D01*
X157661796Y-68540622D01*
X157769482Y-68544304D01*
X157883455Y-68548338D01*
X158002571Y-68552678D01*
X158125689Y-68557279D01*
X158251664Y-68562096D01*
X158379353Y-68567082D01*
X158507614Y-68572191D01*
X158635302Y-68577379D01*
X158761276Y-68582599D01*
X158884391Y-68587806D01*
X159003504Y-68592954D01*
X159117473Y-68597997D01*
X159225154Y-68602890D01*
X159325404Y-68607588D01*
X159417079Y-68612043D01*
X159499037Y-68616211D01*
X159570135Y-68620047D01*
X159629229Y-68623503D01*
X159675176Y-68626535D01*
X159706833Y-68629097D01*
X159723056Y-68631144D01*
X159724754Y-68631656D01*
X159744173Y-68644892D01*
X159753608Y-68661870D01*
X159756313Y-68688773D01*
X159756337Y-68691672D01*
X159752346Y-68715730D01*
X159740789Y-68752680D01*
X159722505Y-68800715D01*
X159698333Y-68858025D01*
X159669111Y-68922803D01*
X159635677Y-68993239D01*
X159598869Y-69067525D01*
X159559526Y-69143854D01*
X159518485Y-69220415D01*
X159476586Y-69295402D01*
X159476080Y-69296287D01*
X159339585Y-69520265D01*
X159189023Y-69739007D01*
X159023107Y-69954362D01*
X158988886Y-69996082D01*
X158939305Y-70055161D01*
X158897597Y-70102181D01*
X158861353Y-70138537D01*
X158828164Y-70165621D01*
X158795620Y-70184830D01*
X158761312Y-70197556D01*
X158722830Y-70205194D01*
X158677765Y-70209139D01*
X158623707Y-70210784D01*
X158617700Y-70210876D01*
X158595152Y-70210751D01*
X158556682Y-70209986D01*
X158503288Y-70208616D01*
X158435967Y-70206674D01*
X158355717Y-70204194D01*
X158263536Y-70201211D01*
X158160422Y-70197760D01*
X158047373Y-70193873D01*
X157925386Y-70189585D01*
X157795459Y-70184932D01*
X157658589Y-70179945D01*
X157515776Y-70174661D01*
X157368016Y-70169113D01*
X157216307Y-70163335D01*
X157108156Y-70159166D01*
X156956039Y-70153246D01*
X156808236Y-70147440D01*
X156665657Y-70141786D01*
X156529217Y-70136323D01*
X156399827Y-70131087D01*
X156278400Y-70126119D01*
X156165849Y-70121456D01*
X156063087Y-70117136D01*
X155971025Y-70113198D01*
X155890577Y-70109680D01*
X155822656Y-70106621D01*
X155768173Y-70104058D01*
X155728041Y-70102030D01*
X155703173Y-70100576D01*
X155694825Y-70099840D01*
X155665962Y-70088495D01*
X155637827Y-70067810D01*
X155635919Y-70065946D01*
X155619186Y-70047148D01*
X155610804Y-70029500D01*
X155607990Y-70005618D01*
X155607800Y-69991273D01*
X155614834Y-69943882D01*
X155634565Y-69892825D01*
X155664942Y-69842750D01*
X155683854Y-69819106D01*
X155693021Y-69809907D01*
X155713540Y-69790121D01*
X155744383Y-69760714D01*
X155784521Y-69722648D01*
X155832925Y-69676890D01*
X155888566Y-69624402D01*
X155950415Y-69566151D01*
X156017443Y-69503099D01*
X156088622Y-69436212D01*
X156162921Y-69366454D01*
X156239312Y-69294789D01*
X156316767Y-69222183D01*
X156394256Y-69149599D01*
X156470750Y-69078002D01*
X156545220Y-69008356D01*
X156616637Y-68941626D01*
X156683973Y-68878776D01*
X156746199Y-68820771D01*
X156802284Y-68768576D01*
X156851201Y-68723154D01*
X156891920Y-68685470D01*
X156923413Y-68656488D01*
X156944651Y-68637174D01*
X156948741Y-68633521D01*
X157016212Y-68583558D01*
X157088427Y-68548518D01*
X157163329Y-68529399D01*
X157163823Y-68529328D01*
X157180058Y-68528548D01*
X157211726Y-68528486D01*
X157257683Y-68529095D01*
G36*
X157257683Y-68529095D02*
G01*
X157316786Y-68530331D01*
X157387892Y-68532147D01*
X157469858Y-68534498D01*
X157561540Y-68537338D01*
X157661796Y-68540622D01*
X157769482Y-68544304D01*
X157883455Y-68548338D01*
X158002571Y-68552678D01*
X158125689Y-68557279D01*
X158251664Y-68562096D01*
X158379353Y-68567082D01*
X158507614Y-68572191D01*
X158635302Y-68577379D01*
X158761276Y-68582599D01*
X158884391Y-68587806D01*
X159003504Y-68592954D01*
X159117473Y-68597997D01*
X159225154Y-68602890D01*
X159325404Y-68607588D01*
X159417079Y-68612043D01*
X159499037Y-68616211D01*
X159570135Y-68620047D01*
X159629229Y-68623503D01*
X159675176Y-68626535D01*
X159706833Y-68629097D01*
X159723056Y-68631144D01*
X159724754Y-68631656D01*
X159744173Y-68644892D01*
X159753608Y-68661870D01*
X159756313Y-68688773D01*
X159756337Y-68691672D01*
X159752346Y-68715730D01*
X159740789Y-68752680D01*
X159722505Y-68800715D01*
X159698333Y-68858025D01*
X159669111Y-68922803D01*
X159635677Y-68993239D01*
X159598869Y-69067525D01*
X159559526Y-69143854D01*
X159518485Y-69220415D01*
X159476586Y-69295402D01*
X159476080Y-69296287D01*
X159339585Y-69520265D01*
X159189023Y-69739007D01*
X159023107Y-69954362D01*
X158988886Y-69996082D01*
X158939305Y-70055161D01*
X158897597Y-70102181D01*
X158861353Y-70138537D01*
X158828164Y-70165621D01*
X158795620Y-70184830D01*
X158761312Y-70197556D01*
X158722830Y-70205194D01*
X158677765Y-70209139D01*
X158623707Y-70210784D01*
X158617700Y-70210876D01*
X158595152Y-70210751D01*
X158556682Y-70209986D01*
X158503288Y-70208616D01*
X158435967Y-70206674D01*
X158355717Y-70204194D01*
X158263536Y-70201211D01*
X158160422Y-70197760D01*
X158047373Y-70193873D01*
X157925386Y-70189585D01*
X157795459Y-70184932D01*
X157658589Y-70179945D01*
X157515776Y-70174661D01*
X157368016Y-70169113D01*
X157216307Y-70163335D01*
X157108156Y-70159166D01*
X156956039Y-70153246D01*
X156808236Y-70147440D01*
X156665657Y-70141786D01*
X156529217Y-70136323D01*
X156399827Y-70131087D01*
X156278400Y-70126119D01*
X156165849Y-70121456D01*
X156063087Y-70117136D01*
X155971025Y-70113198D01*
X155890577Y-70109680D01*
X155822656Y-70106621D01*
X155768173Y-70104058D01*
X155728041Y-70102030D01*
X155703173Y-70100576D01*
X155694825Y-70099840D01*
X155665962Y-70088495D01*
X155637827Y-70067810D01*
X155635919Y-70065946D01*
X155619186Y-70047148D01*
X155610804Y-70029500D01*
X155607990Y-70005618D01*
X155607800Y-69991273D01*
X155614834Y-69943882D01*
X155634565Y-69892825D01*
X155664942Y-69842750D01*
X155683854Y-69819106D01*
X155693021Y-69809907D01*
X155713540Y-69790121D01*
X155744383Y-69760714D01*
X155784521Y-69722648D01*
X155832925Y-69676890D01*
X155888566Y-69624402D01*
X155950415Y-69566151D01*
X156017443Y-69503099D01*
X156088622Y-69436212D01*
X156162921Y-69366454D01*
X156239312Y-69294789D01*
X156316767Y-69222183D01*
X156394256Y-69149599D01*
X156470750Y-69078002D01*
X156545220Y-69008356D01*
X156616637Y-68941626D01*
X156683973Y-68878776D01*
X156746199Y-68820771D01*
X156802284Y-68768576D01*
X156851201Y-68723154D01*
X156891920Y-68685470D01*
X156923413Y-68656488D01*
X156944651Y-68637174D01*
X156948741Y-68633521D01*
X157016212Y-68583558D01*
X157088427Y-68548518D01*
X157163329Y-68529399D01*
X157163823Y-68529328D01*
X157180058Y-68528548D01*
X157211726Y-68528486D01*
X157257683Y-68529095D01*
G37*
D11*
X138820000Y-52070000D03*
X130420000Y-52070000D03*
D12*
X109600000Y-47737500D03*
X109600000Y-45862500D03*
D13*
X111337500Y-43300000D03*
X109462500Y-43300000D03*
D14*
X124075000Y-51600000D03*
X117125000Y-51600000D03*
D15*
X177200000Y-95487500D03*
X177200000Y-93912500D03*
D16*
X165500000Y-48600000D03*
X161500000Y-48600000D03*
X174400000Y-48700000D03*
X170400000Y-48700000D03*
X156700000Y-48700000D03*
X152700000Y-48700000D03*
D17*
X117212500Y-69800000D03*
X118787500Y-69800000D03*
D18*
X128500000Y-79800000D03*
D19*
X126000000Y-79800000D03*
X123500000Y-79800000D03*
X121000000Y-79800000D03*
X118500000Y-79800000D03*
X116000000Y-79800000D03*
D20*
X102230000Y-43370000D03*
D21*
X104770000Y-43370000D03*
X102230000Y-45910000D03*
X104770000Y-45910000D03*
X102230000Y-48450000D03*
X104770000Y-48450000D03*
X102230000Y-50990000D03*
X104770000Y-50990000D03*
X102230000Y-53530000D03*
X104770000Y-53530000D03*
X102230000Y-56070000D03*
X104770000Y-56070000D03*
X102230000Y-58610000D03*
X104770000Y-58610000D03*
X102230000Y-61150000D03*
X104770000Y-61150000D03*
X102230000Y-63690000D03*
X104770000Y-63690000D03*
X102230000Y-66230000D03*
X104770000Y-66230000D03*
X102230000Y-68770000D03*
X104770000Y-68770000D03*
X102230000Y-71310000D03*
X104770000Y-71310000D03*
X102230000Y-73850000D03*
X104770000Y-73850000D03*
X102230000Y-76390000D03*
X104770000Y-76390000D03*
X102230000Y-78930000D03*
X104770000Y-78930000D03*
X102230000Y-81470000D03*
X104770000Y-81470000D03*
X102230000Y-84010000D03*
X104770000Y-84010000D03*
X102230000Y-86550000D03*
X104770000Y-86550000D03*
X102230000Y-89090000D03*
X104770000Y-89090000D03*
X102230000Y-91630000D03*
X104770000Y-91630000D03*
D22*
X190400000Y-91100000D03*
D23*
X190400000Y-93600000D03*
X190400000Y-96100000D03*
D22*
X183500000Y-91100000D03*
D23*
X183500000Y-93600000D03*
X183500000Y-96100000D03*
D24*
X155500000Y-84600000D03*
D25*
X153000000Y-84600000D03*
D26*
X129500000Y-85500000D03*
D21*
X129500000Y-88040000D03*
X126960000Y-85500000D03*
X126960000Y-88040000D03*
X124420000Y-85500000D03*
X124420000Y-88040000D03*
X121880000Y-85500000D03*
X121880000Y-88040000D03*
D22*
X183500000Y-80100000D03*
D23*
X183500000Y-82600000D03*
X183500000Y-85100000D03*
D24*
X163900000Y-84600000D03*
D25*
X161400000Y-84600000D03*
D22*
X190400000Y-80100000D03*
D23*
X190400000Y-82600000D03*
X190400000Y-85100000D03*
D18*
X144900000Y-86400000D03*
D19*
X142400000Y-86400000D03*
X139900000Y-86400000D03*
X137400000Y-86400000D03*
D24*
X172300000Y-84600000D03*
D25*
X169800000Y-84600000D03*
D18*
X144600000Y-94900000D03*
D19*
X142100000Y-94900000D03*
X139600000Y-94900000D03*
X137100000Y-94900000D03*
D27*
X151400000Y-56300000D03*
X151400000Y-58700000D03*
D28*
X151400000Y-55500000D03*
D29*
X151400000Y-59500000D03*
D27*
X162600000Y-56200000D03*
X162600000Y-58600000D03*
D28*
X162600000Y-55400000D03*
D29*
X162600000Y-59400000D03*
D27*
X174300000Y-56100000D03*
X174300000Y-58500000D03*
D28*
X174300000Y-55300000D03*
D29*
X174300000Y-59300000D03*
D24*
X164300000Y-42600000D03*
D25*
X161800000Y-42600000D03*
D24*
X172800000Y-42600000D03*
D25*
X170300000Y-42600000D03*
D24*
X155900000Y-42600000D03*
D25*
X153400000Y-42600000D03*
D24*
X147400000Y-42600000D03*
D25*
X144900000Y-42600000D03*
D22*
X183500000Y-39600000D03*
D23*
X183500000Y-42100000D03*
X183500000Y-44600000D03*
X183500000Y-47100000D03*
D22*
X183500000Y-66600000D03*
D23*
X183500000Y-69100000D03*
X183500000Y-71600000D03*
X183500000Y-74100000D03*
D22*
X190400000Y-39600000D03*
D23*
X190400000Y-42100000D03*
X190400000Y-44600000D03*
X190400000Y-47100000D03*
D22*
X183500000Y-53100000D03*
D23*
X183500000Y-55600000D03*
X183500000Y-58100000D03*
X183500000Y-60600000D03*
D22*
X190400000Y-66600000D03*
D23*
X190400000Y-69100000D03*
X190400000Y-71600000D03*
X190400000Y-74100000D03*
D22*
X190400000Y-53100000D03*
D23*
X190400000Y-55600000D03*
X190400000Y-58100000D03*
X190400000Y-60600000D03*
D26*
X125800000Y-65700000D03*
D21*
X123260000Y-65700000D03*
X120720000Y-65700000D03*
D26*
X125800000Y-60700000D03*
D21*
X123260000Y-60700000D03*
D30*
X169100000Y-67650000D03*
X169100000Y-69550000D03*
X171100000Y-68600000D03*
X168900000Y-73550000D03*
X168900000Y-75450000D03*
X170900000Y-74500000D03*
D31*
X157050000Y-57500000D03*
X158950000Y-57500000D03*
X158000000Y-55500000D03*
X168450000Y-57900000D03*
X170350000Y-57900000D03*
X169400000Y-55900000D03*
X145350000Y-57500000D03*
X147250000Y-57500000D03*
X146300000Y-55500000D03*
D32*
X164200000Y-67662500D03*
X164200000Y-69537500D03*
D12*
X174900000Y-69637500D03*
X174900000Y-67762500D03*
D32*
X164200000Y-73562500D03*
X164200000Y-75437500D03*
X174900000Y-73362500D03*
X174900000Y-75237500D03*
X153400000Y-73562500D03*
X153400000Y-75437500D03*
D33*
X177200000Y-90412500D03*
X177200000Y-91987500D03*
D32*
X157900000Y-73525000D03*
X157900000Y-75400000D03*
D34*
X157062500Y-62000000D03*
X158937500Y-62000000D03*
X168462500Y-62100000D03*
X170337500Y-62100000D03*
X145362500Y-61900000D03*
X147237500Y-61900000D03*
D13*
X123137500Y-69800000D03*
X121262500Y-69800000D03*
D35*
X156200000Y-89900000D03*
X156200000Y-96400000D03*
X151700000Y-89900000D03*
X151700000Y-96400000D03*
D36*
X125500000Y-41400000D03*
D37*
X120420000Y-41400000D03*
D36*
X137200000Y-41400000D03*
D37*
X132120000Y-41400000D03*
D35*
X164800000Y-89930000D03*
X164800000Y-96430000D03*
X160300000Y-89930000D03*
X160300000Y-96430000D03*
X173410000Y-89840000D03*
X173410000Y-96340000D03*
X168910000Y-89840000D03*
X168910000Y-96340000D03*
M02*
