G04 #@! TF.GenerationSoftware,KiCad,Pcbnew,7.0.7*
G04 #@! TF.CreationDate,2023-10-12T15:34:55+02:00*
G04 #@! TF.ProjectId,Astroplant_VFR,41737472-6f70-46c6-916e-745f5646522e,0.5*
G04 #@! TF.SameCoordinates,Original*
G04 #@! TF.FileFunction,Other,ECO2*
%FSLAX46Y46*%
G04 Gerber Fmt 4.6, Leading zero omitted, Abs format (unit mm)*
G04 Created by KiCad (PCBNEW 7.0.7) date 2023-10-12 15:34:55*
%MOMM*%
%LPD*%
G01*
G04 APERTURE LIST*
%ADD10C,0.300000*%
%ADD11C,0.250000*%
G04 APERTURE END LIST*
D10*
X95464286Y-23878328D02*
X96392858Y-23878328D01*
X96392858Y-23878328D02*
X95892858Y-24449757D01*
X95892858Y-24449757D02*
X96107143Y-24449757D01*
X96107143Y-24449757D02*
X96250001Y-24521185D01*
X96250001Y-24521185D02*
X96321429Y-24592614D01*
X96321429Y-24592614D02*
X96392858Y-24735471D01*
X96392858Y-24735471D02*
X96392858Y-25092614D01*
X96392858Y-25092614D02*
X96321429Y-25235471D01*
X96321429Y-25235471D02*
X96250001Y-25306900D01*
X96250001Y-25306900D02*
X96107143Y-25378328D01*
X96107143Y-25378328D02*
X95678572Y-25378328D01*
X95678572Y-25378328D02*
X95535715Y-25306900D01*
X95535715Y-25306900D02*
X95464286Y-25235471D01*
X97035714Y-25235471D02*
X97107143Y-25306900D01*
X97107143Y-25306900D02*
X97035714Y-25378328D01*
X97035714Y-25378328D02*
X96964286Y-25306900D01*
X96964286Y-25306900D02*
X97035714Y-25235471D01*
X97035714Y-25235471D02*
X97035714Y-25378328D01*
X98464286Y-23878328D02*
X97750000Y-23878328D01*
X97750000Y-23878328D02*
X97678572Y-24592614D01*
X97678572Y-24592614D02*
X97750000Y-24521185D01*
X97750000Y-24521185D02*
X97892858Y-24449757D01*
X97892858Y-24449757D02*
X98250000Y-24449757D01*
X98250000Y-24449757D02*
X98392858Y-24521185D01*
X98392858Y-24521185D02*
X98464286Y-24592614D01*
X98464286Y-24592614D02*
X98535715Y-24735471D01*
X98535715Y-24735471D02*
X98535715Y-25092614D01*
X98535715Y-25092614D02*
X98464286Y-25235471D01*
X98464286Y-25235471D02*
X98392858Y-25306900D01*
X98392858Y-25306900D02*
X98250000Y-25378328D01*
X98250000Y-25378328D02*
X97892858Y-25378328D01*
X97892858Y-25378328D02*
X97750000Y-25306900D01*
X97750000Y-25306900D02*
X97678572Y-25235471D01*
X99464286Y-23878328D02*
X99607143Y-23878328D01*
X99607143Y-23878328D02*
X99750000Y-23949757D01*
X99750000Y-23949757D02*
X99821429Y-24021185D01*
X99821429Y-24021185D02*
X99892857Y-24164042D01*
X99892857Y-24164042D02*
X99964286Y-24449757D01*
X99964286Y-24449757D02*
X99964286Y-24806900D01*
X99964286Y-24806900D02*
X99892857Y-25092614D01*
X99892857Y-25092614D02*
X99821429Y-25235471D01*
X99821429Y-25235471D02*
X99750000Y-25306900D01*
X99750000Y-25306900D02*
X99607143Y-25378328D01*
X99607143Y-25378328D02*
X99464286Y-25378328D01*
X99464286Y-25378328D02*
X99321429Y-25306900D01*
X99321429Y-25306900D02*
X99250000Y-25235471D01*
X99250000Y-25235471D02*
X99178571Y-25092614D01*
X99178571Y-25092614D02*
X99107143Y-24806900D01*
X99107143Y-24806900D02*
X99107143Y-24449757D01*
X99107143Y-24449757D02*
X99178571Y-24164042D01*
X99178571Y-24164042D02*
X99250000Y-24021185D01*
X99250000Y-24021185D02*
X99321429Y-23949757D01*
X99321429Y-23949757D02*
X99464286Y-23878328D01*
X100892857Y-23878328D02*
X101035714Y-23878328D01*
X101035714Y-23878328D02*
X101178571Y-23949757D01*
X101178571Y-23949757D02*
X101250000Y-24021185D01*
X101250000Y-24021185D02*
X101321428Y-24164042D01*
X101321428Y-24164042D02*
X101392857Y-24449757D01*
X101392857Y-24449757D02*
X101392857Y-24806900D01*
X101392857Y-24806900D02*
X101321428Y-25092614D01*
X101321428Y-25092614D02*
X101250000Y-25235471D01*
X101250000Y-25235471D02*
X101178571Y-25306900D01*
X101178571Y-25306900D02*
X101035714Y-25378328D01*
X101035714Y-25378328D02*
X100892857Y-25378328D01*
X100892857Y-25378328D02*
X100750000Y-25306900D01*
X100750000Y-25306900D02*
X100678571Y-25235471D01*
X100678571Y-25235471D02*
X100607142Y-25092614D01*
X100607142Y-25092614D02*
X100535714Y-24806900D01*
X100535714Y-24806900D02*
X100535714Y-24449757D01*
X100535714Y-24449757D02*
X100607142Y-24164042D01*
X100607142Y-24164042D02*
X100678571Y-24021185D01*
X100678571Y-24021185D02*
X100750000Y-23949757D01*
X100750000Y-23949757D02*
X100892857Y-23878328D01*
X102321428Y-23878328D02*
X102464285Y-23878328D01*
X102464285Y-23878328D02*
X102607142Y-23949757D01*
X102607142Y-23949757D02*
X102678571Y-24021185D01*
X102678571Y-24021185D02*
X102749999Y-24164042D01*
X102749999Y-24164042D02*
X102821428Y-24449757D01*
X102821428Y-24449757D02*
X102821428Y-24806900D01*
X102821428Y-24806900D02*
X102749999Y-25092614D01*
X102749999Y-25092614D02*
X102678571Y-25235471D01*
X102678571Y-25235471D02*
X102607142Y-25306900D01*
X102607142Y-25306900D02*
X102464285Y-25378328D01*
X102464285Y-25378328D02*
X102321428Y-25378328D01*
X102321428Y-25378328D02*
X102178571Y-25306900D01*
X102178571Y-25306900D02*
X102107142Y-25235471D01*
X102107142Y-25235471D02*
X102035713Y-25092614D01*
X102035713Y-25092614D02*
X101964285Y-24806900D01*
X101964285Y-24806900D02*
X101964285Y-24449757D01*
X101964285Y-24449757D02*
X102035713Y-24164042D01*
X102035713Y-24164042D02*
X102107142Y-24021185D01*
X102107142Y-24021185D02*
X102178571Y-23949757D01*
X102178571Y-23949757D02*
X102321428Y-23878328D01*
X104607141Y-25378328D02*
X104607141Y-24378328D01*
X104607141Y-24521185D02*
X104678570Y-24449757D01*
X104678570Y-24449757D02*
X104821427Y-24378328D01*
X104821427Y-24378328D02*
X105035713Y-24378328D01*
X105035713Y-24378328D02*
X105178570Y-24449757D01*
X105178570Y-24449757D02*
X105249999Y-24592614D01*
X105249999Y-24592614D02*
X105249999Y-25378328D01*
X105249999Y-24592614D02*
X105321427Y-24449757D01*
X105321427Y-24449757D02*
X105464284Y-24378328D01*
X105464284Y-24378328D02*
X105678570Y-24378328D01*
X105678570Y-24378328D02*
X105821427Y-24449757D01*
X105821427Y-24449757D02*
X105892856Y-24592614D01*
X105892856Y-24592614D02*
X105892856Y-25378328D01*
X106607141Y-25378328D02*
X106607141Y-24378328D01*
X106607141Y-24521185D02*
X106678570Y-24449757D01*
X106678570Y-24449757D02*
X106821427Y-24378328D01*
X106821427Y-24378328D02*
X107035713Y-24378328D01*
X107035713Y-24378328D02*
X107178570Y-24449757D01*
X107178570Y-24449757D02*
X107249999Y-24592614D01*
X107249999Y-24592614D02*
X107249999Y-25378328D01*
X107249999Y-24592614D02*
X107321427Y-24449757D01*
X107321427Y-24449757D02*
X107464284Y-24378328D01*
X107464284Y-24378328D02*
X107678570Y-24378328D01*
X107678570Y-24378328D02*
X107821427Y-24449757D01*
X107821427Y-24449757D02*
X107892856Y-24592614D01*
X107892856Y-24592614D02*
X107892856Y-25378328D01*
X100000000Y-38500000D02*
X100000000Y-25913580D01*
X103500000Y-38500000D02*
X103500000Y-25913580D01*
X100000000Y-26500000D02*
X103500000Y-26500000D01*
X100000000Y-26500000D02*
X103500000Y-26500000D01*
X100000000Y-26500000D02*
X101126504Y-25913579D01*
X100000000Y-26500000D02*
X101126504Y-27086421D01*
X103500000Y-26500000D02*
X102373496Y-27086421D01*
X103500000Y-26500000D02*
X102373496Y-25913579D01*
X87378328Y-73714284D02*
X87378328Y-73999998D01*
X87378328Y-73999998D02*
X87449757Y-74142855D01*
X87449757Y-74142855D02*
X87521185Y-74214284D01*
X87521185Y-74214284D02*
X87735471Y-74357141D01*
X87735471Y-74357141D02*
X88021185Y-74428569D01*
X88021185Y-74428569D02*
X88592614Y-74428569D01*
X88592614Y-74428569D02*
X88735471Y-74357141D01*
X88735471Y-74357141D02*
X88806900Y-74285712D01*
X88806900Y-74285712D02*
X88878328Y-74142855D01*
X88878328Y-74142855D02*
X88878328Y-73857141D01*
X88878328Y-73857141D02*
X88806900Y-73714284D01*
X88806900Y-73714284D02*
X88735471Y-73642855D01*
X88735471Y-73642855D02*
X88592614Y-73571426D01*
X88592614Y-73571426D02*
X88235471Y-73571426D01*
X88235471Y-73571426D02*
X88092614Y-73642855D01*
X88092614Y-73642855D02*
X88021185Y-73714284D01*
X88021185Y-73714284D02*
X87949757Y-73857141D01*
X87949757Y-73857141D02*
X87949757Y-74142855D01*
X87949757Y-74142855D02*
X88021185Y-74285712D01*
X88021185Y-74285712D02*
X88092614Y-74357141D01*
X88092614Y-74357141D02*
X88235471Y-74428569D01*
X87378328Y-72214284D02*
X87378328Y-72928570D01*
X87378328Y-72928570D02*
X88092614Y-72999998D01*
X88092614Y-72999998D02*
X88021185Y-72928570D01*
X88021185Y-72928570D02*
X87949757Y-72785713D01*
X87949757Y-72785713D02*
X87949757Y-72428570D01*
X87949757Y-72428570D02*
X88021185Y-72285713D01*
X88021185Y-72285713D02*
X88092614Y-72214284D01*
X88092614Y-72214284D02*
X88235471Y-72142855D01*
X88235471Y-72142855D02*
X88592614Y-72142855D01*
X88592614Y-72142855D02*
X88735471Y-72214284D01*
X88735471Y-72214284D02*
X88806900Y-72285713D01*
X88806900Y-72285713D02*
X88878328Y-72428570D01*
X88878328Y-72428570D02*
X88878328Y-72785713D01*
X88878328Y-72785713D02*
X88806900Y-72928570D01*
X88806900Y-72928570D02*
X88735471Y-72999998D01*
X88735471Y-71499999D02*
X88806900Y-71428570D01*
X88806900Y-71428570D02*
X88878328Y-71499999D01*
X88878328Y-71499999D02*
X88806900Y-71571427D01*
X88806900Y-71571427D02*
X88735471Y-71499999D01*
X88735471Y-71499999D02*
X88878328Y-71499999D01*
X87378328Y-70499998D02*
X87378328Y-70357141D01*
X87378328Y-70357141D02*
X87449757Y-70214284D01*
X87449757Y-70214284D02*
X87521185Y-70142856D01*
X87521185Y-70142856D02*
X87664042Y-70071427D01*
X87664042Y-70071427D02*
X87949757Y-69999998D01*
X87949757Y-69999998D02*
X88306900Y-69999998D01*
X88306900Y-69999998D02*
X88592614Y-70071427D01*
X88592614Y-70071427D02*
X88735471Y-70142856D01*
X88735471Y-70142856D02*
X88806900Y-70214284D01*
X88806900Y-70214284D02*
X88878328Y-70357141D01*
X88878328Y-70357141D02*
X88878328Y-70499998D01*
X88878328Y-70499998D02*
X88806900Y-70642856D01*
X88806900Y-70642856D02*
X88735471Y-70714284D01*
X88735471Y-70714284D02*
X88592614Y-70785713D01*
X88592614Y-70785713D02*
X88306900Y-70857141D01*
X88306900Y-70857141D02*
X87949757Y-70857141D01*
X87949757Y-70857141D02*
X87664042Y-70785713D01*
X87664042Y-70785713D02*
X87521185Y-70714284D01*
X87521185Y-70714284D02*
X87449757Y-70642856D01*
X87449757Y-70642856D02*
X87378328Y-70499998D01*
X87378328Y-69071427D02*
X87378328Y-68928570D01*
X87378328Y-68928570D02*
X87449757Y-68785713D01*
X87449757Y-68785713D02*
X87521185Y-68714285D01*
X87521185Y-68714285D02*
X87664042Y-68642856D01*
X87664042Y-68642856D02*
X87949757Y-68571427D01*
X87949757Y-68571427D02*
X88306900Y-68571427D01*
X88306900Y-68571427D02*
X88592614Y-68642856D01*
X88592614Y-68642856D02*
X88735471Y-68714285D01*
X88735471Y-68714285D02*
X88806900Y-68785713D01*
X88806900Y-68785713D02*
X88878328Y-68928570D01*
X88878328Y-68928570D02*
X88878328Y-69071427D01*
X88878328Y-69071427D02*
X88806900Y-69214285D01*
X88806900Y-69214285D02*
X88735471Y-69285713D01*
X88735471Y-69285713D02*
X88592614Y-69357142D01*
X88592614Y-69357142D02*
X88306900Y-69428570D01*
X88306900Y-69428570D02*
X87949757Y-69428570D01*
X87949757Y-69428570D02*
X87664042Y-69357142D01*
X87664042Y-69357142D02*
X87521185Y-69285713D01*
X87521185Y-69285713D02*
X87449757Y-69214285D01*
X87449757Y-69214285D02*
X87378328Y-69071427D01*
X87378328Y-67642856D02*
X87378328Y-67499999D01*
X87378328Y-67499999D02*
X87449757Y-67357142D01*
X87449757Y-67357142D02*
X87521185Y-67285714D01*
X87521185Y-67285714D02*
X87664042Y-67214285D01*
X87664042Y-67214285D02*
X87949757Y-67142856D01*
X87949757Y-67142856D02*
X88306900Y-67142856D01*
X88306900Y-67142856D02*
X88592614Y-67214285D01*
X88592614Y-67214285D02*
X88735471Y-67285714D01*
X88735471Y-67285714D02*
X88806900Y-67357142D01*
X88806900Y-67357142D02*
X88878328Y-67499999D01*
X88878328Y-67499999D02*
X88878328Y-67642856D01*
X88878328Y-67642856D02*
X88806900Y-67785714D01*
X88806900Y-67785714D02*
X88735471Y-67857142D01*
X88735471Y-67857142D02*
X88592614Y-67928571D01*
X88592614Y-67928571D02*
X88306900Y-67999999D01*
X88306900Y-67999999D02*
X87949757Y-67999999D01*
X87949757Y-67999999D02*
X87664042Y-67928571D01*
X87664042Y-67928571D02*
X87521185Y-67857142D01*
X87521185Y-67857142D02*
X87449757Y-67785714D01*
X87449757Y-67785714D02*
X87378328Y-67642856D01*
X87378328Y-66214285D02*
X87378328Y-66071428D01*
X87378328Y-66071428D02*
X87449757Y-65928571D01*
X87449757Y-65928571D02*
X87521185Y-65857143D01*
X87521185Y-65857143D02*
X87664042Y-65785714D01*
X87664042Y-65785714D02*
X87949757Y-65714285D01*
X87949757Y-65714285D02*
X88306900Y-65714285D01*
X88306900Y-65714285D02*
X88592614Y-65785714D01*
X88592614Y-65785714D02*
X88735471Y-65857143D01*
X88735471Y-65857143D02*
X88806900Y-65928571D01*
X88806900Y-65928571D02*
X88878328Y-66071428D01*
X88878328Y-66071428D02*
X88878328Y-66214285D01*
X88878328Y-66214285D02*
X88806900Y-66357143D01*
X88806900Y-66357143D02*
X88735471Y-66428571D01*
X88735471Y-66428571D02*
X88592614Y-66500000D01*
X88592614Y-66500000D02*
X88306900Y-66571428D01*
X88306900Y-66571428D02*
X87949757Y-66571428D01*
X87949757Y-66571428D02*
X87664042Y-66500000D01*
X87664042Y-66500000D02*
X87521185Y-66428571D01*
X87521185Y-66428571D02*
X87449757Y-66357143D01*
X87449757Y-66357143D02*
X87378328Y-66214285D01*
X88878328Y-63928572D02*
X87878328Y-63928572D01*
X88021185Y-63928572D02*
X87949757Y-63857143D01*
X87949757Y-63857143D02*
X87878328Y-63714286D01*
X87878328Y-63714286D02*
X87878328Y-63500000D01*
X87878328Y-63500000D02*
X87949757Y-63357143D01*
X87949757Y-63357143D02*
X88092614Y-63285715D01*
X88092614Y-63285715D02*
X88878328Y-63285715D01*
X88092614Y-63285715D02*
X87949757Y-63214286D01*
X87949757Y-63214286D02*
X87878328Y-63071429D01*
X87878328Y-63071429D02*
X87878328Y-62857143D01*
X87878328Y-62857143D02*
X87949757Y-62714286D01*
X87949757Y-62714286D02*
X88092614Y-62642857D01*
X88092614Y-62642857D02*
X88878328Y-62642857D01*
X88878328Y-61928572D02*
X87878328Y-61928572D01*
X88021185Y-61928572D02*
X87949757Y-61857143D01*
X87949757Y-61857143D02*
X87878328Y-61714286D01*
X87878328Y-61714286D02*
X87878328Y-61500000D01*
X87878328Y-61500000D02*
X87949757Y-61357143D01*
X87949757Y-61357143D02*
X88092614Y-61285715D01*
X88092614Y-61285715D02*
X88878328Y-61285715D01*
X88092614Y-61285715D02*
X87949757Y-61214286D01*
X87949757Y-61214286D02*
X87878328Y-61071429D01*
X87878328Y-61071429D02*
X87878328Y-60857143D01*
X87878328Y-60857143D02*
X87949757Y-60714286D01*
X87949757Y-60714286D02*
X88092614Y-60642857D01*
X88092614Y-60642857D02*
X88878328Y-60642857D01*
X103000000Y-35000000D02*
X89413580Y-35000000D01*
X103000000Y-100000000D02*
X89413580Y-100000000D01*
X90000000Y-35000000D02*
X90000000Y-100000000D01*
X90000000Y-35000000D02*
X90000000Y-100000000D01*
X90000000Y-35000000D02*
X90586421Y-36126504D01*
X90000000Y-35000000D02*
X89413579Y-36126504D01*
X90000000Y-100000000D02*
X89413579Y-98873496D01*
X90000000Y-100000000D02*
X90586421Y-98873496D01*
D11*
X150571429Y-118128190D02*
X150476191Y-118080571D01*
X150476191Y-118080571D02*
X150428572Y-118032952D01*
X150428572Y-118032952D02*
X150380953Y-117937714D01*
X150380953Y-117937714D02*
X150380953Y-117890095D01*
X150380953Y-117890095D02*
X150428572Y-117794857D01*
X150428572Y-117794857D02*
X150476191Y-117747238D01*
X150476191Y-117747238D02*
X150571429Y-117699619D01*
X150571429Y-117699619D02*
X150761905Y-117699619D01*
X150761905Y-117699619D02*
X150857143Y-117747238D01*
X150857143Y-117747238D02*
X150904762Y-117794857D01*
X150904762Y-117794857D02*
X150952381Y-117890095D01*
X150952381Y-117890095D02*
X150952381Y-117937714D01*
X150952381Y-117937714D02*
X150904762Y-118032952D01*
X150904762Y-118032952D02*
X150857143Y-118080571D01*
X150857143Y-118080571D02*
X150761905Y-118128190D01*
X150761905Y-118128190D02*
X150571429Y-118128190D01*
X150571429Y-118128190D02*
X150476191Y-118175809D01*
X150476191Y-118175809D02*
X150428572Y-118223428D01*
X150428572Y-118223428D02*
X150380953Y-118318666D01*
X150380953Y-118318666D02*
X150380953Y-118509142D01*
X150380953Y-118509142D02*
X150428572Y-118604380D01*
X150428572Y-118604380D02*
X150476191Y-118652000D01*
X150476191Y-118652000D02*
X150571429Y-118699619D01*
X150571429Y-118699619D02*
X150761905Y-118699619D01*
X150761905Y-118699619D02*
X150857143Y-118652000D01*
X150857143Y-118652000D02*
X150904762Y-118604380D01*
X150904762Y-118604380D02*
X150952381Y-118509142D01*
X150952381Y-118509142D02*
X150952381Y-118318666D01*
X150952381Y-118318666D02*
X150904762Y-118223428D01*
X150904762Y-118223428D02*
X150857143Y-118175809D01*
X150857143Y-118175809D02*
X150761905Y-118128190D01*
X151285715Y-117699619D02*
X151904762Y-117699619D01*
X151904762Y-117699619D02*
X151571429Y-118080571D01*
X151571429Y-118080571D02*
X151714286Y-118080571D01*
X151714286Y-118080571D02*
X151809524Y-118128190D01*
X151809524Y-118128190D02*
X151857143Y-118175809D01*
X151857143Y-118175809D02*
X151904762Y-118271047D01*
X151904762Y-118271047D02*
X151904762Y-118509142D01*
X151904762Y-118509142D02*
X151857143Y-118604380D01*
X151857143Y-118604380D02*
X151809524Y-118652000D01*
X151809524Y-118652000D02*
X151714286Y-118699619D01*
X151714286Y-118699619D02*
X151428572Y-118699619D01*
X151428572Y-118699619D02*
X151333334Y-118652000D01*
X151333334Y-118652000D02*
X151285715Y-118604380D01*
X152333334Y-118604380D02*
X152380953Y-118652000D01*
X152380953Y-118652000D02*
X152333334Y-118699619D01*
X152333334Y-118699619D02*
X152285715Y-118652000D01*
X152285715Y-118652000D02*
X152333334Y-118604380D01*
X152333334Y-118604380D02*
X152333334Y-118699619D01*
X153000000Y-117699619D02*
X153095238Y-117699619D01*
X153095238Y-117699619D02*
X153190476Y-117747238D01*
X153190476Y-117747238D02*
X153238095Y-117794857D01*
X153238095Y-117794857D02*
X153285714Y-117890095D01*
X153285714Y-117890095D02*
X153333333Y-118080571D01*
X153333333Y-118080571D02*
X153333333Y-118318666D01*
X153333333Y-118318666D02*
X153285714Y-118509142D01*
X153285714Y-118509142D02*
X153238095Y-118604380D01*
X153238095Y-118604380D02*
X153190476Y-118652000D01*
X153190476Y-118652000D02*
X153095238Y-118699619D01*
X153095238Y-118699619D02*
X153000000Y-118699619D01*
X153000000Y-118699619D02*
X152904762Y-118652000D01*
X152904762Y-118652000D02*
X152857143Y-118604380D01*
X152857143Y-118604380D02*
X152809524Y-118509142D01*
X152809524Y-118509142D02*
X152761905Y-118318666D01*
X152761905Y-118318666D02*
X152761905Y-118080571D01*
X152761905Y-118080571D02*
X152809524Y-117890095D01*
X152809524Y-117890095D02*
X152857143Y-117794857D01*
X152857143Y-117794857D02*
X152904762Y-117747238D01*
X152904762Y-117747238D02*
X153000000Y-117699619D01*
X153952381Y-117699619D02*
X154047619Y-117699619D01*
X154047619Y-117699619D02*
X154142857Y-117747238D01*
X154142857Y-117747238D02*
X154190476Y-117794857D01*
X154190476Y-117794857D02*
X154238095Y-117890095D01*
X154238095Y-117890095D02*
X154285714Y-118080571D01*
X154285714Y-118080571D02*
X154285714Y-118318666D01*
X154285714Y-118318666D02*
X154238095Y-118509142D01*
X154238095Y-118509142D02*
X154190476Y-118604380D01*
X154190476Y-118604380D02*
X154142857Y-118652000D01*
X154142857Y-118652000D02*
X154047619Y-118699619D01*
X154047619Y-118699619D02*
X153952381Y-118699619D01*
X153952381Y-118699619D02*
X153857143Y-118652000D01*
X153857143Y-118652000D02*
X153809524Y-118604380D01*
X153809524Y-118604380D02*
X153761905Y-118509142D01*
X153761905Y-118509142D02*
X153714286Y-118318666D01*
X153714286Y-118318666D02*
X153714286Y-118080571D01*
X153714286Y-118080571D02*
X153761905Y-117890095D01*
X153761905Y-117890095D02*
X153809524Y-117794857D01*
X153809524Y-117794857D02*
X153857143Y-117747238D01*
X153857143Y-117747238D02*
X153952381Y-117699619D01*
X154904762Y-117699619D02*
X155000000Y-117699619D01*
X155000000Y-117699619D02*
X155095238Y-117747238D01*
X155095238Y-117747238D02*
X155142857Y-117794857D01*
X155142857Y-117794857D02*
X155190476Y-117890095D01*
X155190476Y-117890095D02*
X155238095Y-118080571D01*
X155238095Y-118080571D02*
X155238095Y-118318666D01*
X155238095Y-118318666D02*
X155190476Y-118509142D01*
X155190476Y-118509142D02*
X155142857Y-118604380D01*
X155142857Y-118604380D02*
X155095238Y-118652000D01*
X155095238Y-118652000D02*
X155000000Y-118699619D01*
X155000000Y-118699619D02*
X154904762Y-118699619D01*
X154904762Y-118699619D02*
X154809524Y-118652000D01*
X154809524Y-118652000D02*
X154761905Y-118604380D01*
X154761905Y-118604380D02*
X154714286Y-118509142D01*
X154714286Y-118509142D02*
X154666667Y-118318666D01*
X154666667Y-118318666D02*
X154666667Y-118080571D01*
X154666667Y-118080571D02*
X154714286Y-117890095D01*
X154714286Y-117890095D02*
X154761905Y-117794857D01*
X154761905Y-117794857D02*
X154809524Y-117747238D01*
X154809524Y-117747238D02*
X154904762Y-117699619D01*
X155857143Y-117699619D02*
X155952381Y-117699619D01*
X155952381Y-117699619D02*
X156047619Y-117747238D01*
X156047619Y-117747238D02*
X156095238Y-117794857D01*
X156095238Y-117794857D02*
X156142857Y-117890095D01*
X156142857Y-117890095D02*
X156190476Y-118080571D01*
X156190476Y-118080571D02*
X156190476Y-118318666D01*
X156190476Y-118318666D02*
X156142857Y-118509142D01*
X156142857Y-118509142D02*
X156095238Y-118604380D01*
X156095238Y-118604380D02*
X156047619Y-118652000D01*
X156047619Y-118652000D02*
X155952381Y-118699619D01*
X155952381Y-118699619D02*
X155857143Y-118699619D01*
X155857143Y-118699619D02*
X155761905Y-118652000D01*
X155761905Y-118652000D02*
X155714286Y-118604380D01*
X155714286Y-118604380D02*
X155666667Y-118509142D01*
X155666667Y-118509142D02*
X155619048Y-118318666D01*
X155619048Y-118318666D02*
X155619048Y-118080571D01*
X155619048Y-118080571D02*
X155666667Y-117890095D01*
X155666667Y-117890095D02*
X155714286Y-117794857D01*
X155714286Y-117794857D02*
X155761905Y-117747238D01*
X155761905Y-117747238D02*
X155857143Y-117699619D01*
X157380953Y-118699619D02*
X157380953Y-118032952D01*
X157380953Y-118128190D02*
X157428572Y-118080571D01*
X157428572Y-118080571D02*
X157523810Y-118032952D01*
X157523810Y-118032952D02*
X157666667Y-118032952D01*
X157666667Y-118032952D02*
X157761905Y-118080571D01*
X157761905Y-118080571D02*
X157809524Y-118175809D01*
X157809524Y-118175809D02*
X157809524Y-118699619D01*
X157809524Y-118175809D02*
X157857143Y-118080571D01*
X157857143Y-118080571D02*
X157952381Y-118032952D01*
X157952381Y-118032952D02*
X158095238Y-118032952D01*
X158095238Y-118032952D02*
X158190477Y-118080571D01*
X158190477Y-118080571D02*
X158238096Y-118175809D01*
X158238096Y-118175809D02*
X158238096Y-118699619D01*
X158714286Y-118699619D02*
X158714286Y-118032952D01*
X158714286Y-118128190D02*
X158761905Y-118080571D01*
X158761905Y-118080571D02*
X158857143Y-118032952D01*
X158857143Y-118032952D02*
X159000000Y-118032952D01*
X159000000Y-118032952D02*
X159095238Y-118080571D01*
X159095238Y-118080571D02*
X159142857Y-118175809D01*
X159142857Y-118175809D02*
X159142857Y-118699619D01*
X159142857Y-118175809D02*
X159190476Y-118080571D01*
X159190476Y-118080571D02*
X159285714Y-118032952D01*
X159285714Y-118032952D02*
X159428571Y-118032952D01*
X159428571Y-118032952D02*
X159523810Y-118080571D01*
X159523810Y-118080571D02*
X159571429Y-118175809D01*
X159571429Y-118175809D02*
X159571429Y-118699619D01*
X113500000Y-96500000D02*
X113500000Y-120086420D01*
X196500000Y-96500000D02*
X196500000Y-120086420D01*
X113500000Y-119500000D02*
X196500000Y-119500000D01*
X113500000Y-119500000D02*
X196500000Y-119500000D01*
X113500000Y-119500000D02*
X114626504Y-118913579D01*
X113500000Y-119500000D02*
X114626504Y-120086421D01*
X196500000Y-119500000D02*
X195373496Y-120086421D01*
X196500000Y-119500000D02*
X195373496Y-118913579D01*
D10*
X143214287Y-28878328D02*
X142357144Y-28878328D01*
X142785715Y-28878328D02*
X142785715Y-27378328D01*
X142785715Y-27378328D02*
X142642858Y-27592614D01*
X142642858Y-27592614D02*
X142500001Y-27735471D01*
X142500001Y-27735471D02*
X142357144Y-27806900D01*
X144142858Y-27378328D02*
X144285715Y-27378328D01*
X144285715Y-27378328D02*
X144428572Y-27449757D01*
X144428572Y-27449757D02*
X144500001Y-27521185D01*
X144500001Y-27521185D02*
X144571429Y-27664042D01*
X144571429Y-27664042D02*
X144642858Y-27949757D01*
X144642858Y-27949757D02*
X144642858Y-28306900D01*
X144642858Y-28306900D02*
X144571429Y-28592614D01*
X144571429Y-28592614D02*
X144500001Y-28735471D01*
X144500001Y-28735471D02*
X144428572Y-28806900D01*
X144428572Y-28806900D02*
X144285715Y-28878328D01*
X144285715Y-28878328D02*
X144142858Y-28878328D01*
X144142858Y-28878328D02*
X144000001Y-28806900D01*
X144000001Y-28806900D02*
X143928572Y-28735471D01*
X143928572Y-28735471D02*
X143857143Y-28592614D01*
X143857143Y-28592614D02*
X143785715Y-28306900D01*
X143785715Y-28306900D02*
X143785715Y-27949757D01*
X143785715Y-27949757D02*
X143857143Y-27664042D01*
X143857143Y-27664042D02*
X143928572Y-27521185D01*
X143928572Y-27521185D02*
X144000001Y-27449757D01*
X144000001Y-27449757D02*
X144142858Y-27378328D01*
X145571429Y-27378328D02*
X145714286Y-27378328D01*
X145714286Y-27378328D02*
X145857143Y-27449757D01*
X145857143Y-27449757D02*
X145928572Y-27521185D01*
X145928572Y-27521185D02*
X146000000Y-27664042D01*
X146000000Y-27664042D02*
X146071429Y-27949757D01*
X146071429Y-27949757D02*
X146071429Y-28306900D01*
X146071429Y-28306900D02*
X146000000Y-28592614D01*
X146000000Y-28592614D02*
X145928572Y-28735471D01*
X145928572Y-28735471D02*
X145857143Y-28806900D01*
X145857143Y-28806900D02*
X145714286Y-28878328D01*
X145714286Y-28878328D02*
X145571429Y-28878328D01*
X145571429Y-28878328D02*
X145428572Y-28806900D01*
X145428572Y-28806900D02*
X145357143Y-28735471D01*
X145357143Y-28735471D02*
X145285714Y-28592614D01*
X145285714Y-28592614D02*
X145214286Y-28306900D01*
X145214286Y-28306900D02*
X145214286Y-27949757D01*
X145214286Y-27949757D02*
X145285714Y-27664042D01*
X145285714Y-27664042D02*
X145357143Y-27521185D01*
X145357143Y-27521185D02*
X145428572Y-27449757D01*
X145428572Y-27449757D02*
X145571429Y-27378328D01*
X146714285Y-28735471D02*
X146785714Y-28806900D01*
X146785714Y-28806900D02*
X146714285Y-28878328D01*
X146714285Y-28878328D02*
X146642857Y-28806900D01*
X146642857Y-28806900D02*
X146714285Y-28735471D01*
X146714285Y-28735471D02*
X146714285Y-28878328D01*
X147714286Y-27378328D02*
X147857143Y-27378328D01*
X147857143Y-27378328D02*
X148000000Y-27449757D01*
X148000000Y-27449757D02*
X148071429Y-27521185D01*
X148071429Y-27521185D02*
X148142857Y-27664042D01*
X148142857Y-27664042D02*
X148214286Y-27949757D01*
X148214286Y-27949757D02*
X148214286Y-28306900D01*
X148214286Y-28306900D02*
X148142857Y-28592614D01*
X148142857Y-28592614D02*
X148071429Y-28735471D01*
X148071429Y-28735471D02*
X148000000Y-28806900D01*
X148000000Y-28806900D02*
X147857143Y-28878328D01*
X147857143Y-28878328D02*
X147714286Y-28878328D01*
X147714286Y-28878328D02*
X147571429Y-28806900D01*
X147571429Y-28806900D02*
X147500000Y-28735471D01*
X147500000Y-28735471D02*
X147428571Y-28592614D01*
X147428571Y-28592614D02*
X147357143Y-28306900D01*
X147357143Y-28306900D02*
X147357143Y-27949757D01*
X147357143Y-27949757D02*
X147428571Y-27664042D01*
X147428571Y-27664042D02*
X147500000Y-27521185D01*
X147500000Y-27521185D02*
X147571429Y-27449757D01*
X147571429Y-27449757D02*
X147714286Y-27378328D01*
X149142857Y-27378328D02*
X149285714Y-27378328D01*
X149285714Y-27378328D02*
X149428571Y-27449757D01*
X149428571Y-27449757D02*
X149500000Y-27521185D01*
X149500000Y-27521185D02*
X149571428Y-27664042D01*
X149571428Y-27664042D02*
X149642857Y-27949757D01*
X149642857Y-27949757D02*
X149642857Y-28306900D01*
X149642857Y-28306900D02*
X149571428Y-28592614D01*
X149571428Y-28592614D02*
X149500000Y-28735471D01*
X149500000Y-28735471D02*
X149428571Y-28806900D01*
X149428571Y-28806900D02*
X149285714Y-28878328D01*
X149285714Y-28878328D02*
X149142857Y-28878328D01*
X149142857Y-28878328D02*
X149000000Y-28806900D01*
X149000000Y-28806900D02*
X148928571Y-28735471D01*
X148928571Y-28735471D02*
X148857142Y-28592614D01*
X148857142Y-28592614D02*
X148785714Y-28306900D01*
X148785714Y-28306900D02*
X148785714Y-27949757D01*
X148785714Y-27949757D02*
X148857142Y-27664042D01*
X148857142Y-27664042D02*
X148928571Y-27521185D01*
X148928571Y-27521185D02*
X149000000Y-27449757D01*
X149000000Y-27449757D02*
X149142857Y-27378328D01*
X150571428Y-27378328D02*
X150714285Y-27378328D01*
X150714285Y-27378328D02*
X150857142Y-27449757D01*
X150857142Y-27449757D02*
X150928571Y-27521185D01*
X150928571Y-27521185D02*
X150999999Y-27664042D01*
X150999999Y-27664042D02*
X151071428Y-27949757D01*
X151071428Y-27949757D02*
X151071428Y-28306900D01*
X151071428Y-28306900D02*
X150999999Y-28592614D01*
X150999999Y-28592614D02*
X150928571Y-28735471D01*
X150928571Y-28735471D02*
X150857142Y-28806900D01*
X150857142Y-28806900D02*
X150714285Y-28878328D01*
X150714285Y-28878328D02*
X150571428Y-28878328D01*
X150571428Y-28878328D02*
X150428571Y-28806900D01*
X150428571Y-28806900D02*
X150357142Y-28735471D01*
X150357142Y-28735471D02*
X150285713Y-28592614D01*
X150285713Y-28592614D02*
X150214285Y-28306900D01*
X150214285Y-28306900D02*
X150214285Y-27949757D01*
X150214285Y-27949757D02*
X150285713Y-27664042D01*
X150285713Y-27664042D02*
X150357142Y-27521185D01*
X150357142Y-27521185D02*
X150428571Y-27449757D01*
X150428571Y-27449757D02*
X150571428Y-27378328D01*
X151999999Y-27378328D02*
X152142856Y-27378328D01*
X152142856Y-27378328D02*
X152285713Y-27449757D01*
X152285713Y-27449757D02*
X152357142Y-27521185D01*
X152357142Y-27521185D02*
X152428570Y-27664042D01*
X152428570Y-27664042D02*
X152499999Y-27949757D01*
X152499999Y-27949757D02*
X152499999Y-28306900D01*
X152499999Y-28306900D02*
X152428570Y-28592614D01*
X152428570Y-28592614D02*
X152357142Y-28735471D01*
X152357142Y-28735471D02*
X152285713Y-28806900D01*
X152285713Y-28806900D02*
X152142856Y-28878328D01*
X152142856Y-28878328D02*
X151999999Y-28878328D01*
X151999999Y-28878328D02*
X151857142Y-28806900D01*
X151857142Y-28806900D02*
X151785713Y-28735471D01*
X151785713Y-28735471D02*
X151714284Y-28592614D01*
X151714284Y-28592614D02*
X151642856Y-28306900D01*
X151642856Y-28306900D02*
X151642856Y-27949757D01*
X151642856Y-27949757D02*
X151714284Y-27664042D01*
X151714284Y-27664042D02*
X151785713Y-27521185D01*
X151785713Y-27521185D02*
X151857142Y-27449757D01*
X151857142Y-27449757D02*
X151999999Y-27378328D01*
X154285712Y-28878328D02*
X154285712Y-27878328D01*
X154285712Y-28021185D02*
X154357141Y-27949757D01*
X154357141Y-27949757D02*
X154499998Y-27878328D01*
X154499998Y-27878328D02*
X154714284Y-27878328D01*
X154714284Y-27878328D02*
X154857141Y-27949757D01*
X154857141Y-27949757D02*
X154928570Y-28092614D01*
X154928570Y-28092614D02*
X154928570Y-28878328D01*
X154928570Y-28092614D02*
X154999998Y-27949757D01*
X154999998Y-27949757D02*
X155142855Y-27878328D01*
X155142855Y-27878328D02*
X155357141Y-27878328D01*
X155357141Y-27878328D02*
X155499998Y-27949757D01*
X155499998Y-27949757D02*
X155571427Y-28092614D01*
X155571427Y-28092614D02*
X155571427Y-28878328D01*
X156285712Y-28878328D02*
X156285712Y-27878328D01*
X156285712Y-28021185D02*
X156357141Y-27949757D01*
X156357141Y-27949757D02*
X156499998Y-27878328D01*
X156499998Y-27878328D02*
X156714284Y-27878328D01*
X156714284Y-27878328D02*
X156857141Y-27949757D01*
X156857141Y-27949757D02*
X156928570Y-28092614D01*
X156928570Y-28092614D02*
X156928570Y-28878328D01*
X156928570Y-28092614D02*
X156999998Y-27949757D01*
X156999998Y-27949757D02*
X157142855Y-27878328D01*
X157142855Y-27878328D02*
X157357141Y-27878328D01*
X157357141Y-27878328D02*
X157499998Y-27949757D01*
X157499998Y-27949757D02*
X157571427Y-28092614D01*
X157571427Y-28092614D02*
X157571427Y-28878328D01*
X200000000Y-38000000D02*
X200000000Y-29413580D01*
X100000000Y-38000000D02*
X100000000Y-29413580D01*
X200000000Y-30000000D02*
X100000000Y-30000000D01*
X200000000Y-30000000D02*
X100000000Y-30000000D01*
X200000000Y-30000000D02*
X198873496Y-30586421D01*
X200000000Y-30000000D02*
X198873496Y-29413579D01*
X100000000Y-30000000D02*
X101126504Y-29413579D01*
X100000000Y-30000000D02*
X101126504Y-30586421D01*
X93378328Y-43035713D02*
X93378328Y-42107141D01*
X93378328Y-42107141D02*
X93949757Y-42607141D01*
X93949757Y-42607141D02*
X93949757Y-42392856D01*
X93949757Y-42392856D02*
X94021185Y-42249999D01*
X94021185Y-42249999D02*
X94092614Y-42178570D01*
X94092614Y-42178570D02*
X94235471Y-42107141D01*
X94235471Y-42107141D02*
X94592614Y-42107141D01*
X94592614Y-42107141D02*
X94735471Y-42178570D01*
X94735471Y-42178570D02*
X94806900Y-42249999D01*
X94806900Y-42249999D02*
X94878328Y-42392856D01*
X94878328Y-42392856D02*
X94878328Y-42821427D01*
X94878328Y-42821427D02*
X94806900Y-42964284D01*
X94806900Y-42964284D02*
X94735471Y-43035713D01*
X94735471Y-41464285D02*
X94806900Y-41392856D01*
X94806900Y-41392856D02*
X94878328Y-41464285D01*
X94878328Y-41464285D02*
X94806900Y-41535713D01*
X94806900Y-41535713D02*
X94735471Y-41464285D01*
X94735471Y-41464285D02*
X94878328Y-41464285D01*
X93378328Y-40035713D02*
X93378328Y-40749999D01*
X93378328Y-40749999D02*
X94092614Y-40821427D01*
X94092614Y-40821427D02*
X94021185Y-40749999D01*
X94021185Y-40749999D02*
X93949757Y-40607142D01*
X93949757Y-40607142D02*
X93949757Y-40249999D01*
X93949757Y-40249999D02*
X94021185Y-40107142D01*
X94021185Y-40107142D02*
X94092614Y-40035713D01*
X94092614Y-40035713D02*
X94235471Y-39964284D01*
X94235471Y-39964284D02*
X94592614Y-39964284D01*
X94592614Y-39964284D02*
X94735471Y-40035713D01*
X94735471Y-40035713D02*
X94806900Y-40107142D01*
X94806900Y-40107142D02*
X94878328Y-40249999D01*
X94878328Y-40249999D02*
X94878328Y-40607142D01*
X94878328Y-40607142D02*
X94806900Y-40749999D01*
X94806900Y-40749999D02*
X94735471Y-40821427D01*
X93378328Y-39035713D02*
X93378328Y-38892856D01*
X93378328Y-38892856D02*
X93449757Y-38749999D01*
X93449757Y-38749999D02*
X93521185Y-38678571D01*
X93521185Y-38678571D02*
X93664042Y-38607142D01*
X93664042Y-38607142D02*
X93949757Y-38535713D01*
X93949757Y-38535713D02*
X94306900Y-38535713D01*
X94306900Y-38535713D02*
X94592614Y-38607142D01*
X94592614Y-38607142D02*
X94735471Y-38678571D01*
X94735471Y-38678571D02*
X94806900Y-38749999D01*
X94806900Y-38749999D02*
X94878328Y-38892856D01*
X94878328Y-38892856D02*
X94878328Y-39035713D01*
X94878328Y-39035713D02*
X94806900Y-39178571D01*
X94806900Y-39178571D02*
X94735471Y-39249999D01*
X94735471Y-39249999D02*
X94592614Y-39321428D01*
X94592614Y-39321428D02*
X94306900Y-39392856D01*
X94306900Y-39392856D02*
X93949757Y-39392856D01*
X93949757Y-39392856D02*
X93664042Y-39321428D01*
X93664042Y-39321428D02*
X93521185Y-39249999D01*
X93521185Y-39249999D02*
X93449757Y-39178571D01*
X93449757Y-39178571D02*
X93378328Y-39035713D01*
X93378328Y-37607142D02*
X93378328Y-37464285D01*
X93378328Y-37464285D02*
X93449757Y-37321428D01*
X93449757Y-37321428D02*
X93521185Y-37250000D01*
X93521185Y-37250000D02*
X93664042Y-37178571D01*
X93664042Y-37178571D02*
X93949757Y-37107142D01*
X93949757Y-37107142D02*
X94306900Y-37107142D01*
X94306900Y-37107142D02*
X94592614Y-37178571D01*
X94592614Y-37178571D02*
X94735471Y-37250000D01*
X94735471Y-37250000D02*
X94806900Y-37321428D01*
X94806900Y-37321428D02*
X94878328Y-37464285D01*
X94878328Y-37464285D02*
X94878328Y-37607142D01*
X94878328Y-37607142D02*
X94806900Y-37750000D01*
X94806900Y-37750000D02*
X94735471Y-37821428D01*
X94735471Y-37821428D02*
X94592614Y-37892857D01*
X94592614Y-37892857D02*
X94306900Y-37964285D01*
X94306900Y-37964285D02*
X93949757Y-37964285D01*
X93949757Y-37964285D02*
X93664042Y-37892857D01*
X93664042Y-37892857D02*
X93521185Y-37821428D01*
X93521185Y-37821428D02*
X93449757Y-37750000D01*
X93449757Y-37750000D02*
X93378328Y-37607142D01*
X93378328Y-36178571D02*
X93378328Y-36035714D01*
X93378328Y-36035714D02*
X93449757Y-35892857D01*
X93449757Y-35892857D02*
X93521185Y-35821429D01*
X93521185Y-35821429D02*
X93664042Y-35750000D01*
X93664042Y-35750000D02*
X93949757Y-35678571D01*
X93949757Y-35678571D02*
X94306900Y-35678571D01*
X94306900Y-35678571D02*
X94592614Y-35750000D01*
X94592614Y-35750000D02*
X94735471Y-35821429D01*
X94735471Y-35821429D02*
X94806900Y-35892857D01*
X94806900Y-35892857D02*
X94878328Y-36035714D01*
X94878328Y-36035714D02*
X94878328Y-36178571D01*
X94878328Y-36178571D02*
X94806900Y-36321429D01*
X94806900Y-36321429D02*
X94735471Y-36392857D01*
X94735471Y-36392857D02*
X94592614Y-36464286D01*
X94592614Y-36464286D02*
X94306900Y-36535714D01*
X94306900Y-36535714D02*
X93949757Y-36535714D01*
X93949757Y-36535714D02*
X93664042Y-36464286D01*
X93664042Y-36464286D02*
X93521185Y-36392857D01*
X93521185Y-36392857D02*
X93449757Y-36321429D01*
X93449757Y-36321429D02*
X93378328Y-36178571D01*
X94878328Y-33892858D02*
X93878328Y-33892858D01*
X94021185Y-33892858D02*
X93949757Y-33821429D01*
X93949757Y-33821429D02*
X93878328Y-33678572D01*
X93878328Y-33678572D02*
X93878328Y-33464286D01*
X93878328Y-33464286D02*
X93949757Y-33321429D01*
X93949757Y-33321429D02*
X94092614Y-33250001D01*
X94092614Y-33250001D02*
X94878328Y-33250001D01*
X94092614Y-33250001D02*
X93949757Y-33178572D01*
X93949757Y-33178572D02*
X93878328Y-33035715D01*
X93878328Y-33035715D02*
X93878328Y-32821429D01*
X93878328Y-32821429D02*
X93949757Y-32678572D01*
X93949757Y-32678572D02*
X94092614Y-32607143D01*
X94092614Y-32607143D02*
X94878328Y-32607143D01*
X94878328Y-31892858D02*
X93878328Y-31892858D01*
X94021185Y-31892858D02*
X93949757Y-31821429D01*
X93949757Y-31821429D02*
X93878328Y-31678572D01*
X93878328Y-31678572D02*
X93878328Y-31464286D01*
X93878328Y-31464286D02*
X93949757Y-31321429D01*
X93949757Y-31321429D02*
X94092614Y-31250001D01*
X94092614Y-31250001D02*
X94878328Y-31250001D01*
X94092614Y-31250001D02*
X93949757Y-31178572D01*
X93949757Y-31178572D02*
X93878328Y-31035715D01*
X93878328Y-31035715D02*
X93878328Y-30821429D01*
X93878328Y-30821429D02*
X93949757Y-30678572D01*
X93949757Y-30678572D02*
X94092614Y-30607143D01*
X94092614Y-30607143D02*
X94878328Y-30607143D01*
X103500000Y-35000000D02*
X95413580Y-35000000D01*
X103500000Y-38500000D02*
X95413580Y-38500000D01*
X96000000Y-35000000D02*
X96000000Y-38500000D01*
X96000000Y-35000000D02*
X96000000Y-38500000D01*
X96000000Y-35000000D02*
X96586421Y-36126504D01*
X96000000Y-35000000D02*
X95413579Y-36126504D01*
X96000000Y-38500000D02*
X95413579Y-37373496D01*
X96000000Y-38500000D02*
X96586421Y-37373496D01*
M02*
