G04 #@! TF.GenerationSoftware,KiCad,Pcbnew,7.0.7*
G04 #@! TF.CreationDate,2023-10-12T15:34:55+02:00*
G04 #@! TF.ProjectId,Astroplant_VFR,41737472-6f70-46c6-916e-745f5646522e,0.5*
G04 #@! TF.SameCoordinates,Original*
G04 #@! TF.FileFunction,Soldermask,Bot*
G04 #@! TF.FilePolarity,Negative*
%FSLAX46Y46*%
G04 Gerber Fmt 4.6, Leading zero omitted, Abs format (unit mm)*
G04 Created by KiCad (PCBNEW 7.0.7) date 2023-10-12 15:34:55*
%MOMM*%
%LPD*%
G01*
G04 APERTURE LIST*
G04 Aperture macros list*
%AMRoundRect*
0 Rectangle with rounded corners*
0 $1 Rounding radius*
0 $2 $3 $4 $5 $6 $7 $8 $9 X,Y pos of 4 corners*
0 Add a 4 corners polygon primitive as box body*
4,1,4,$2,$3,$4,$5,$6,$7,$8,$9,$2,$3,0*
0 Add four circle primitives for the rounded corners*
1,1,$1+$1,$2,$3*
1,1,$1+$1,$4,$5*
1,1,$1+$1,$6,$7*
1,1,$1+$1,$8,$9*
0 Add four rect primitives between the rounded corners*
20,1,$1+$1,$2,$3,$4,$5,0*
20,1,$1+$1,$4,$5,$6,$7,0*
20,1,$1+$1,$6,$7,$8,$9,0*
20,1,$1+$1,$8,$9,$2,$3,0*%
G04 Aperture macros list end*
%ADD10C,0.010000*%
%ADD11RoundRect,0.200000X0.850000X0.975000X-0.850000X0.975000X-0.850000X-0.975000X0.850000X-0.975000X0*%
%ADD12O,2.100000X2.350000*%
%ADD13RoundRect,0.200000X-0.850000X-0.850000X0.850000X-0.850000X0.850000X0.850000X-0.850000X0.850000X0*%
%ADD14O,2.100000X2.100000*%
%ADD15RoundRect,0.200000X-0.975000X0.850000X-0.975000X-0.850000X0.975000X-0.850000X0.975000X0.850000X0*%
%ADD16O,2.350000X2.100000*%
%ADD17RoundRect,0.200000X0.850000X1.000000X-0.850000X1.000000X-0.850000X-1.000000X0.850000X-1.000000X0*%
%ADD18O,2.100000X2.400000*%
%ADD19RoundRect,0.200000X-0.850000X0.850000X-0.850000X-0.850000X0.850000X-0.850000X0.850000X0.850000X0*%
%ADD20C,2.400000*%
%ADD21RoundRect,0.200000X1.500000X1.500000X-1.500000X1.500000X-1.500000X-1.500000X1.500000X-1.500000X0*%
%ADD22C,3.400000*%
G04 APERTURE END LIST*
D10*
X154878692Y-66433933D02*
X155016200Y-66434750D01*
X155026000Y-66434825D01*
X155212416Y-66436858D01*
X155371874Y-66440246D01*
X155510956Y-66445605D01*
X155636245Y-66453551D01*
X155754325Y-66464702D01*
X155871777Y-66479674D01*
X155995185Y-66499082D01*
X156131132Y-66523544D01*
X156286200Y-66553676D01*
X156382414Y-66573543D01*
X156838601Y-66688152D01*
X157281996Y-66833227D01*
X157711407Y-67007576D01*
X158125641Y-67210005D01*
X158523502Y-67439321D01*
X158903799Y-67694329D01*
X159265337Y-67973836D01*
X159606923Y-68276650D01*
X159927364Y-68601575D01*
X160225465Y-68947420D01*
X160500033Y-69312989D01*
X160749875Y-69697091D01*
X160973797Y-70098530D01*
X161170606Y-70516115D01*
X161339108Y-70948650D01*
X161478109Y-71394943D01*
X161586417Y-71853800D01*
X161603928Y-71942688D01*
X161630864Y-72085864D01*
X161652611Y-72213874D01*
X161669710Y-72332844D01*
X161682699Y-72448903D01*
X161692117Y-72568179D01*
X161698504Y-72696798D01*
X161702398Y-72840890D01*
X161704339Y-73006581D01*
X161704866Y-73200000D01*
X161704714Y-73311862D01*
X161703463Y-73489032D01*
X161700497Y-73641898D01*
X161695277Y-73776588D01*
X161687262Y-73899231D01*
X161675916Y-74015954D01*
X161660697Y-74132884D01*
X161641067Y-74256150D01*
X161616486Y-74391880D01*
X161586417Y-74546200D01*
X161567154Y-74639456D01*
X161452539Y-75096050D01*
X161307465Y-75539812D01*
X161133123Y-75969550D01*
X160930704Y-76384074D01*
X160701399Y-76782192D01*
X160446400Y-77162713D01*
X160166897Y-77524447D01*
X159864081Y-77866202D01*
X159539144Y-78186786D01*
X159193276Y-78485010D01*
X158827669Y-78759682D01*
X158443514Y-79009610D01*
X158042001Y-79233604D01*
X157624322Y-79430473D01*
X157191668Y-79599026D01*
X156745231Y-79738071D01*
X156286200Y-79846417D01*
X156197312Y-79863928D01*
X156054136Y-79890864D01*
X155926126Y-79912612D01*
X155807156Y-79929710D01*
X155691097Y-79942699D01*
X155571821Y-79952117D01*
X155443202Y-79958504D01*
X155299110Y-79962398D01*
X155133419Y-79964340D01*
X154940000Y-79964867D01*
X154828138Y-79964715D01*
X154650968Y-79963464D01*
X154498102Y-79960498D01*
X154363412Y-79955277D01*
X154240769Y-79947263D01*
X154124046Y-79935916D01*
X154007116Y-79920697D01*
X153883850Y-79901067D01*
X153748120Y-79876487D01*
X153593800Y-79846417D01*
X153500544Y-79827154D01*
X153043950Y-79712539D01*
X152600188Y-79567465D01*
X152170450Y-79393123D01*
X151755926Y-79190704D01*
X151357808Y-78961400D01*
X150977287Y-78706400D01*
X150615553Y-78426897D01*
X150273798Y-78124081D01*
X149953214Y-77799144D01*
X149654990Y-77453276D01*
X149380318Y-77087669D01*
X149130390Y-76703514D01*
X148906396Y-76302001D01*
X148709527Y-75884323D01*
X148540974Y-75451669D01*
X148401929Y-75005231D01*
X148293583Y-74546200D01*
X148276072Y-74457312D01*
X148249136Y-74314136D01*
X148227388Y-74186126D01*
X148210290Y-74067156D01*
X148197301Y-73951097D01*
X148187883Y-73831822D01*
X148183936Y-73752351D01*
X151757528Y-73752351D01*
X151766456Y-73792869D01*
X151800892Y-73843324D01*
X151862366Y-73907843D01*
X151875830Y-73920683D01*
X151918691Y-73960951D01*
X151982863Y-74020807D01*
X152066000Y-74098078D01*
X152165758Y-74190593D01*
X152279792Y-74296180D01*
X152405758Y-74412667D01*
X152541311Y-74537884D01*
X152684106Y-74669657D01*
X152831800Y-74805815D01*
X153695400Y-75601568D01*
X153701049Y-75505684D01*
X153701341Y-75499634D01*
X153702043Y-75449560D01*
X153701517Y-75369551D01*
X153699861Y-75262869D01*
X153697177Y-75132776D01*
X153693566Y-74982536D01*
X153689129Y-74815409D01*
X153683966Y-74634660D01*
X153678179Y-74443549D01*
X153671868Y-74245339D01*
X153665135Y-74043293D01*
X153658079Y-73840672D01*
X153650802Y-73640740D01*
X153643406Y-73446758D01*
X153635990Y-73261989D01*
X153628655Y-73089695D01*
X153621503Y-72933139D01*
X153617582Y-72858623D01*
X153611188Y-72770034D01*
X153603827Y-72708431D01*
X153594948Y-72669655D01*
X153584002Y-72649545D01*
X153580285Y-72647387D01*
X153821555Y-72647387D01*
X153822177Y-72714565D01*
X153823741Y-72798275D01*
X153826264Y-72900440D01*
X153829764Y-73022984D01*
X153834259Y-73167832D01*
X153839767Y-73336908D01*
X153846305Y-73532135D01*
X153853892Y-73755439D01*
X153862545Y-74008743D01*
X153872283Y-74293972D01*
X153873409Y-74327055D01*
X153882075Y-74582447D01*
X153889739Y-74806477D01*
X153896647Y-75001357D01*
X153903048Y-75169300D01*
X153909186Y-75312519D01*
X153915310Y-75433227D01*
X153921665Y-75533636D01*
X153928498Y-75615960D01*
X153936056Y-75682411D01*
X153944585Y-75735202D01*
X153954333Y-75776545D01*
X153965546Y-75808654D01*
X153978470Y-75833742D01*
X153993352Y-75854020D01*
X154010439Y-75871702D01*
X154029978Y-75889001D01*
X154052215Y-75908130D01*
X154058024Y-75913181D01*
X154144249Y-75980854D01*
X154255591Y-76057939D01*
X154386384Y-76141067D01*
X154530966Y-76226866D01*
X154683672Y-76311968D01*
X154838838Y-76393001D01*
X154990800Y-76466595D01*
X155073144Y-76503098D01*
X155169893Y-76543343D01*
X155272714Y-76584099D01*
X155374187Y-76622553D01*
X155466889Y-76655893D01*
X155543397Y-76681308D01*
X155596289Y-76695986D01*
X155651445Y-76707945D01*
X155642705Y-76465273D01*
X155640704Y-76407244D01*
X155637520Y-76309397D01*
X155633720Y-76188256D01*
X155629483Y-76049664D01*
X155624986Y-75899462D01*
X155620410Y-75743494D01*
X155615930Y-75587600D01*
X155613642Y-75508998D01*
X155608079Y-75329424D01*
X155601815Y-75139919D01*
X155595160Y-74949239D01*
X155588423Y-74766143D01*
X155581915Y-74599388D01*
X155575945Y-74457731D01*
X155575640Y-74450854D01*
X155569257Y-74309367D01*
X155563767Y-74197213D01*
X155560966Y-74149256D01*
X155782447Y-74149256D01*
X155782638Y-74184479D01*
X155783446Y-74232823D01*
X155784922Y-74296361D01*
X155787114Y-74377166D01*
X155790074Y-74477310D01*
X155793850Y-74598865D01*
X155798494Y-74743905D01*
X155804055Y-74914503D01*
X155810582Y-75112731D01*
X155818127Y-75340661D01*
X155826739Y-75600367D01*
X155831000Y-75728626D01*
X155837873Y-75933284D01*
X155843902Y-76107945D01*
X155849242Y-76255084D01*
X155854045Y-76377173D01*
X155858465Y-76476686D01*
X155862655Y-76556094D01*
X155866769Y-76617871D01*
X155870960Y-76664490D01*
X155875381Y-76698423D01*
X155880186Y-76722144D01*
X155885527Y-76738125D01*
X155891559Y-76748839D01*
X155898434Y-76756760D01*
X155903957Y-76761570D01*
X155948219Y-76784269D01*
X156018429Y-76806422D01*
X156109214Y-76827452D01*
X156215200Y-76846783D01*
X156331013Y-76863839D01*
X156451281Y-76878044D01*
X156570629Y-76888823D01*
X156683684Y-76895599D01*
X156785074Y-76897795D01*
X156869424Y-76894837D01*
X156931361Y-76886147D01*
X156965511Y-76871151D01*
X156971051Y-76864707D01*
X156976845Y-76853407D01*
X156981232Y-76835796D01*
X156984214Y-76808815D01*
X156985793Y-76769406D01*
X156985970Y-76714511D01*
X156984747Y-76641070D01*
X156982124Y-76546026D01*
X156978104Y-76426319D01*
X156972688Y-76278891D01*
X156965877Y-76100684D01*
X156961583Y-75989889D01*
X156954482Y-75810602D01*
X156948223Y-75660565D01*
X156942579Y-75536799D01*
X156937322Y-75436325D01*
X156935473Y-75407244D01*
X157145894Y-75407244D01*
X157146258Y-75462536D01*
X157149224Y-75532567D01*
X157150416Y-75554954D01*
X157153716Y-75626573D01*
X157157747Y-75723832D01*
X157162292Y-75841069D01*
X157167135Y-75972626D01*
X157172059Y-76112842D01*
X157176850Y-76256057D01*
X157179852Y-76342558D01*
X157185072Y-76472103D01*
X157190650Y-76589002D01*
X157196337Y-76689013D01*
X157201881Y-76767894D01*
X157207034Y-76821404D01*
X157211546Y-76845300D01*
X157225831Y-76865188D01*
X157250673Y-76882440D01*
X157287565Y-76893080D01*
X157340037Y-76897120D01*
X157411620Y-76894575D01*
X157505843Y-76885460D01*
X157626238Y-76869788D01*
X157776333Y-76847574D01*
X157852524Y-76834779D01*
X157946460Y-76817040D01*
X158048088Y-76796331D01*
X158151559Y-76773986D01*
X158251020Y-76751341D01*
X158340623Y-76729728D01*
X158414515Y-76710483D01*
X158466847Y-76694938D01*
X158491767Y-76684429D01*
X158501090Y-76674718D01*
X158512933Y-76646618D01*
X158512886Y-76646206D01*
X158499083Y-76627643D01*
X158461652Y-76587736D01*
X158401976Y-76527805D01*
X158321437Y-76449167D01*
X158221416Y-76353142D01*
X158103296Y-76241049D01*
X157968459Y-76114207D01*
X157818286Y-75973934D01*
X157654160Y-75821550D01*
X157477462Y-75658374D01*
X157404609Y-75591535D01*
X157324875Y-75519055D01*
X157256171Y-75457339D01*
X157201946Y-75409456D01*
X157165646Y-75378476D01*
X157150720Y-75367467D01*
X157148066Y-75373923D01*
X157145894Y-75407244D01*
X156935473Y-75407244D01*
X156932227Y-75356167D01*
X156927066Y-75293346D01*
X156921613Y-75244884D01*
X156915640Y-75207803D01*
X156908922Y-75179125D01*
X156901231Y-75155873D01*
X156892340Y-75135069D01*
X156890423Y-75131680D01*
X156866925Y-75102901D01*
X156821022Y-75054165D01*
X156754983Y-74987697D01*
X156671079Y-74905720D01*
X156571578Y-74810457D01*
X156458752Y-74704132D01*
X156334870Y-74588969D01*
X156267711Y-74527022D01*
X156159088Y-74427228D01*
X156059588Y-74336306D01*
X155971827Y-74256619D01*
X155898422Y-74190527D01*
X155841987Y-74140393D01*
X155805138Y-74108579D01*
X155790492Y-74097446D01*
X155788997Y-74097410D01*
X155786853Y-74098119D01*
X155785075Y-74101585D01*
X155783715Y-74109881D01*
X155782822Y-74125081D01*
X155782447Y-74149256D01*
X155560966Y-74149256D01*
X155558679Y-74110076D01*
X155553498Y-74043639D01*
X155547735Y-73993586D01*
X155540894Y-73955599D01*
X155532485Y-73925363D01*
X155532383Y-73925102D01*
X155941889Y-73925102D01*
X155941993Y-73925325D01*
X155957103Y-73942355D01*
X155995168Y-73980593D01*
X156054358Y-74038323D01*
X156132842Y-74113829D01*
X156228788Y-74205396D01*
X156340365Y-74311307D01*
X156465742Y-74429847D01*
X156603088Y-74559299D01*
X156750573Y-74697948D01*
X156906363Y-74844079D01*
X157068630Y-74995974D01*
X157235540Y-75151918D01*
X157405264Y-75310196D01*
X157575970Y-75469091D01*
X157745827Y-75626888D01*
X157913004Y-75781870D01*
X158075670Y-75932322D01*
X158231993Y-76076528D01*
X158380143Y-76212772D01*
X158518288Y-76339338D01*
X158532191Y-76351975D01*
X158592365Y-76404913D01*
X158642633Y-76446370D01*
X158678081Y-76472431D01*
X158693796Y-76479182D01*
X158703027Y-76457663D01*
X158716183Y-76407566D01*
X158731791Y-76334996D01*
X158748816Y-76245664D01*
X158766225Y-76145284D01*
X158782983Y-76039567D01*
X158798056Y-75934225D01*
X158810411Y-75834970D01*
X158819045Y-75744899D01*
X158829617Y-75559087D01*
X158833383Y-75356599D01*
X158830548Y-75147445D01*
X158821319Y-74941634D01*
X158805904Y-74749175D01*
X158784508Y-74580078D01*
X158778168Y-74540910D01*
X158753581Y-74403711D01*
X158726422Y-74271358D01*
X158697926Y-74148629D01*
X158669333Y-74040303D01*
X158641880Y-73951158D01*
X158616803Y-73885974D01*
X158595340Y-73849528D01*
X158588778Y-73842482D01*
X158580315Y-73834493D01*
X158569739Y-73827742D01*
X158554785Y-73822248D01*
X158533186Y-73818031D01*
X158502676Y-73815110D01*
X158460991Y-73813505D01*
X158405864Y-73813235D01*
X158335030Y-73814320D01*
X158246223Y-73816779D01*
X158137177Y-73820632D01*
X158005626Y-73825899D01*
X157849306Y-73832599D01*
X157665950Y-73840752D01*
X157453292Y-73850377D01*
X157209067Y-73861494D01*
X157208407Y-73861524D01*
X157020058Y-73870030D01*
X156838904Y-73878083D01*
X156668274Y-73885544D01*
X156511499Y-73892273D01*
X156371906Y-73898130D01*
X156252826Y-73902976D01*
X156157588Y-73906671D01*
X156089521Y-73909074D01*
X156051955Y-73910047D01*
X156048599Y-73910087D01*
X155992693Y-73912681D01*
X155954418Y-73918056D01*
X155941889Y-73925102D01*
X155532383Y-73925102D01*
X155522015Y-73898560D01*
X155508990Y-73870874D01*
X155499411Y-73853201D01*
X155482529Y-73827827D01*
X155458621Y-73797547D01*
X155425687Y-73760371D01*
X155381728Y-73714310D01*
X155324742Y-73657372D01*
X155252731Y-73587569D01*
X155163694Y-73502908D01*
X155055630Y-73401401D01*
X154926541Y-73281057D01*
X154774426Y-73139885D01*
X154696142Y-73067441D01*
X154569480Y-72950662D01*
X154450469Y-72841463D01*
X154341554Y-72742059D01*
X154245183Y-72654665D01*
X154163802Y-72581498D01*
X154099858Y-72524772D01*
X154055797Y-72486702D01*
X154034067Y-72469505D01*
X153981065Y-72445617D01*
X153914258Y-72441686D01*
X153855360Y-72469196D01*
X153848328Y-72474171D01*
X153842061Y-72478372D01*
X153836593Y-72483711D01*
X153831941Y-72492112D01*
X153828124Y-72505498D01*
X153825159Y-72525795D01*
X153823064Y-72554926D01*
X153821857Y-72594815D01*
X153821555Y-72647387D01*
X153580285Y-72647387D01*
X153578339Y-72646257D01*
X153566344Y-72646026D01*
X153547028Y-72651387D01*
X153518232Y-72663546D01*
X153477797Y-72683709D01*
X153423566Y-72713080D01*
X153353379Y-72752866D01*
X153265079Y-72804271D01*
X153156507Y-72868502D01*
X153025504Y-72946763D01*
X152869913Y-73040260D01*
X152687574Y-73150199D01*
X152535355Y-73242213D01*
X152386069Y-73332734D01*
X152247441Y-73417072D01*
X152122096Y-73493618D01*
X152012658Y-73560761D01*
X151921750Y-73616893D01*
X151851995Y-73660403D01*
X151806017Y-73689681D01*
X151786440Y-73703117D01*
X151772578Y-73717644D01*
X151757528Y-73752351D01*
X148183936Y-73752351D01*
X148181496Y-73703202D01*
X148177602Y-73559110D01*
X148175660Y-73393419D01*
X148175133Y-73200000D01*
X148175285Y-73088138D01*
X148176536Y-72910969D01*
X148179502Y-72758103D01*
X148184723Y-72623412D01*
X148192737Y-72500769D01*
X148204084Y-72384047D01*
X148219303Y-72267116D01*
X148238933Y-72143850D01*
X148263513Y-72008121D01*
X148293583Y-71853800D01*
X148395406Y-71418937D01*
X148457818Y-71216142D01*
X151168697Y-71216142D01*
X151172313Y-71253043D01*
X151182395Y-71309231D01*
X151197114Y-71376565D01*
X151214643Y-71446904D01*
X151233153Y-71512108D01*
X151250817Y-71564035D01*
X151284121Y-71642893D01*
X151393817Y-71844215D01*
X151530966Y-72027905D01*
X151693130Y-72191375D01*
X151877867Y-72332031D01*
X152082735Y-72447283D01*
X152201784Y-72497958D01*
X152411312Y-72559656D01*
X152622860Y-72587866D01*
X152835074Y-72582666D01*
X153046599Y-72544136D01*
X153256083Y-72472353D01*
X153462170Y-72367397D01*
X153471508Y-72361669D01*
X153542896Y-72310565D01*
X153626544Y-72241038D01*
X153698066Y-72175637D01*
X154161798Y-72175637D01*
X154171929Y-72242743D01*
X154209649Y-72313719D01*
X154219534Y-72325207D01*
X154253708Y-72360601D01*
X154308028Y-72414641D01*
X154379630Y-72484616D01*
X154465655Y-72567819D01*
X154563239Y-72661540D01*
X154669521Y-72763071D01*
X154781639Y-72869701D01*
X154896730Y-72978723D01*
X155011934Y-73087426D01*
X155124388Y-73193103D01*
X155231230Y-73293044D01*
X155329598Y-73384540D01*
X155416630Y-73464882D01*
X155489465Y-73531361D01*
X155545241Y-73581268D01*
X155581095Y-73611894D01*
X155586957Y-73616636D01*
X155609654Y-73635024D01*
X155631045Y-73651123D01*
X155653326Y-73664992D01*
X155678695Y-73676693D01*
X155709348Y-73686286D01*
X155747482Y-73693833D01*
X155795293Y-73699393D01*
X155854979Y-73703028D01*
X155928735Y-73704798D01*
X156018759Y-73704764D01*
X156127247Y-73702988D01*
X156256396Y-73699529D01*
X156408402Y-73694448D01*
X156585463Y-73687806D01*
X156789774Y-73679664D01*
X157023533Y-73670083D01*
X157288937Y-73659123D01*
X157482683Y-73651027D01*
X157701639Y-73641539D01*
X157889575Y-73632943D01*
X158048081Y-73625147D01*
X158178744Y-73618056D01*
X158283154Y-73611578D01*
X158362899Y-73605620D01*
X158419569Y-73600089D01*
X158454752Y-73594891D01*
X158470037Y-73589934D01*
X158484392Y-73571909D01*
X158495789Y-73532360D01*
X158494058Y-73521819D01*
X158479522Y-73479633D01*
X158452309Y-73415276D01*
X158414958Y-73333867D01*
X158370004Y-73240526D01*
X158319984Y-73140374D01*
X158267436Y-73038528D01*
X158214898Y-72940110D01*
X158164905Y-72850239D01*
X158119995Y-72774034D01*
X158077998Y-72706999D01*
X157992952Y-72578473D01*
X157904392Y-72452911D01*
X157815329Y-72334025D01*
X157728773Y-72225528D01*
X157647736Y-72131135D01*
X157575228Y-72054559D01*
X157514260Y-71999513D01*
X157467844Y-71969711D01*
X157423260Y-71958370D01*
X157344374Y-71950747D01*
X157239244Y-71949100D01*
X157238588Y-71949109D01*
X157203482Y-71950012D01*
X157138525Y-71952106D01*
X157046750Y-71955272D01*
X156931189Y-71959395D01*
X156794875Y-71964357D01*
X156640843Y-71970043D01*
X156472124Y-71976336D01*
X156291752Y-71983119D01*
X156102760Y-71990276D01*
X155908181Y-71997690D01*
X155711048Y-72005244D01*
X155514395Y-72012823D01*
X155321253Y-72020309D01*
X155134658Y-72027586D01*
X154957641Y-72034537D01*
X154793235Y-72041046D01*
X154644474Y-72046997D01*
X154514391Y-72052272D01*
X154406019Y-72056756D01*
X154322391Y-72060331D01*
X154266541Y-72062881D01*
X154241500Y-72064290D01*
X154223768Y-72074185D01*
X154194933Y-72099334D01*
X154179666Y-72118353D01*
X154161798Y-72175637D01*
X153698066Y-72175637D01*
X153714938Y-72160208D01*
X153800558Y-72075195D01*
X153875888Y-71993117D01*
X153933411Y-71921094D01*
X153998573Y-71819463D01*
X154001535Y-71813833D01*
X154330400Y-71813833D01*
X154330578Y-71818470D01*
X154335386Y-71830671D01*
X154351077Y-71838500D01*
X154383397Y-71842903D01*
X154438090Y-71844827D01*
X154520900Y-71845218D01*
X154550481Y-71845022D01*
X154634588Y-71843544D01*
X154746755Y-71840741D01*
X154883097Y-71836764D01*
X155039729Y-71831761D01*
X155212768Y-71825884D01*
X155398329Y-71819280D01*
X155592528Y-71812101D01*
X155791480Y-71804496D01*
X155991302Y-71796614D01*
X156188109Y-71788605D01*
X156378016Y-71780619D01*
X156557140Y-71772806D01*
X156721596Y-71765315D01*
X156867500Y-71758297D01*
X156990968Y-71751900D01*
X157088115Y-71746274D01*
X157263496Y-71735267D01*
X156313808Y-70855627D01*
X156292918Y-70836280D01*
X156141914Y-70696557D01*
X155998054Y-70563662D01*
X155863302Y-70439399D01*
X155739623Y-70325567D01*
X155628980Y-70223968D01*
X155533337Y-70136403D01*
X155454659Y-70064674D01*
X155394909Y-70010583D01*
X155356051Y-69975930D01*
X155340050Y-69962517D01*
X155317665Y-69959555D01*
X155279779Y-69978557D01*
X155274420Y-69985162D01*
X155253268Y-70019260D01*
X155219485Y-70078599D01*
X155174749Y-70159935D01*
X155120738Y-70260025D01*
X155059129Y-70375624D01*
X154991602Y-70503489D01*
X154919834Y-70640377D01*
X154845503Y-70783042D01*
X154770287Y-70928241D01*
X154695864Y-71072731D01*
X154623912Y-71213267D01*
X154556110Y-71346605D01*
X154494135Y-71469502D01*
X154439665Y-71578714D01*
X154394378Y-71670997D01*
X154359953Y-71743107D01*
X154338068Y-71791801D01*
X154330400Y-71813833D01*
X154001535Y-71813833D01*
X154072130Y-71679646D01*
X154134348Y-71533866D01*
X154178463Y-71396600D01*
X154190844Y-71342598D01*
X154214432Y-71150700D01*
X154210207Y-70950113D01*
X154178681Y-70748279D01*
X154120365Y-70552639D01*
X154107086Y-70518781D01*
X154013666Y-70331126D01*
X153892992Y-70154977D01*
X153749228Y-69994049D01*
X153586537Y-69852056D01*
X153409082Y-69732712D01*
X153221027Y-69639729D01*
X153026533Y-69576824D01*
X153006571Y-69572218D01*
X152932071Y-69557130D01*
X152865446Y-69546544D01*
X152819135Y-69542519D01*
X152755670Y-69542400D01*
X152830759Y-69644401D01*
X152904439Y-69764542D01*
X152969278Y-69917309D01*
X153014661Y-70082426D01*
X153038023Y-70250347D01*
X153036800Y-70411523D01*
X153029976Y-70472666D01*
X152991852Y-70661226D01*
X152928868Y-70829270D01*
X152839495Y-70980233D01*
X152722203Y-71117546D01*
X152608895Y-71217933D01*
X152456583Y-71316790D01*
X152290883Y-71386127D01*
X152109198Y-71426973D01*
X151908933Y-71440359D01*
X151723666Y-71429545D01*
X151555501Y-71395285D01*
X151400340Y-71335650D01*
X151251577Y-71248717D01*
X151222988Y-71230149D01*
X151187622Y-71210741D01*
X151170538Y-71206484D01*
X151168697Y-71216142D01*
X148457818Y-71216142D01*
X148533860Y-70969059D01*
X148648309Y-70672772D01*
X151283705Y-70672772D01*
X151313754Y-70761864D01*
X151316020Y-70766043D01*
X151370554Y-70834646D01*
X151439738Y-70877977D01*
X151517392Y-70897161D01*
X151597337Y-70893325D01*
X151673391Y-70867595D01*
X151739375Y-70821096D01*
X151789108Y-70754954D01*
X151816411Y-70670295D01*
X151817267Y-70654693D01*
X152017667Y-70654693D01*
X152027787Y-70735415D01*
X152064329Y-70812103D01*
X152123767Y-70875231D01*
X152195843Y-70913166D01*
X152279376Y-70929865D01*
X152361939Y-70923822D01*
X152432146Y-70894332D01*
X152495681Y-70834010D01*
X152538097Y-70750050D01*
X152552400Y-70648154D01*
X152552373Y-70640814D01*
X152547997Y-70583994D01*
X152531817Y-70541822D01*
X152497631Y-70497200D01*
X152481677Y-70480365D01*
X152433257Y-70439158D01*
X152388108Y-70411945D01*
X152372911Y-70406127D01*
X152285933Y-70392006D01*
X152202331Y-70408193D01*
X152127466Y-70451769D01*
X152066703Y-70519813D01*
X152025404Y-70609406D01*
X152017667Y-70654693D01*
X151817267Y-70654693D01*
X151818901Y-70624872D01*
X151802455Y-70539979D01*
X151762259Y-70464685D01*
X151702869Y-70409463D01*
X151699037Y-70407122D01*
X151609500Y-70368774D01*
X151522135Y-70363890D01*
X151434937Y-70392342D01*
X151374845Y-70432490D01*
X151316188Y-70502179D01*
X151285162Y-70584241D01*
X151283705Y-70672772D01*
X148648309Y-70672772D01*
X148702792Y-70531723D01*
X148901201Y-70108354D01*
X149002303Y-69926555D01*
X151318742Y-69926555D01*
X151326364Y-69995923D01*
X151356712Y-70056071D01*
X151404792Y-70102085D01*
X151465610Y-70129050D01*
X151534170Y-70132053D01*
X151605480Y-70106178D01*
X151616900Y-70098500D01*
X151660194Y-70053054D01*
X151692834Y-69995321D01*
X151705733Y-69940333D01*
X151704857Y-69927671D01*
X151704770Y-69927406D01*
X151947196Y-69927406D01*
X151950995Y-70007270D01*
X151980515Y-70089545D01*
X152035595Y-70150964D01*
X152114176Y-70189402D01*
X152214199Y-70202737D01*
X152294107Y-70193769D01*
X152372154Y-70158568D01*
X152429356Y-70096676D01*
X152465748Y-70008067D01*
X152473732Y-69942594D01*
X152459386Y-69855584D01*
X152419897Y-69777430D01*
X152359447Y-69715658D01*
X152282218Y-69677796D01*
X152240011Y-69667193D01*
X152194518Y-69662965D01*
X152151591Y-69672983D01*
X152095546Y-69699033D01*
X152058007Y-69720305D01*
X151997319Y-69772472D01*
X151962137Y-69838804D01*
X151947196Y-69927406D01*
X151704770Y-69927406D01*
X151686173Y-69870588D01*
X151650018Y-69814518D01*
X151605480Y-69774489D01*
X151598459Y-69770537D01*
X151526116Y-69748711D01*
X151453348Y-69755759D01*
X151388991Y-69789260D01*
X151341879Y-69846789D01*
X151338841Y-69852882D01*
X151318742Y-69926555D01*
X149002303Y-69926555D01*
X149128084Y-69700375D01*
X149382439Y-69309212D01*
X149663263Y-68936289D01*
X149969556Y-68583032D01*
X150300315Y-68250865D01*
X150654537Y-67941214D01*
X151031221Y-67655502D01*
X151429365Y-67395155D01*
X151743279Y-67216022D01*
X152149996Y-67015189D01*
X152567442Y-66843741D01*
X152997873Y-66700947D01*
X153443548Y-66586077D01*
X153906727Y-66498399D01*
X154389667Y-66437182D01*
X154405210Y-66436274D01*
X154456000Y-66435009D01*
X154533353Y-66434124D01*
X154632659Y-66433638D01*
X154749308Y-66433568D01*
X154878692Y-66433933D01*
G36*
X154878692Y-66433933D02*
G01*
X155016200Y-66434750D01*
X155026000Y-66434825D01*
X155212416Y-66436858D01*
X155371874Y-66440246D01*
X155510956Y-66445605D01*
X155636245Y-66453551D01*
X155754325Y-66464702D01*
X155871777Y-66479674D01*
X155995185Y-66499082D01*
X156131132Y-66523544D01*
X156286200Y-66553676D01*
X156382414Y-66573543D01*
X156838601Y-66688152D01*
X157281996Y-66833227D01*
X157711407Y-67007576D01*
X158125641Y-67210005D01*
X158523502Y-67439321D01*
X158903799Y-67694329D01*
X159265337Y-67973836D01*
X159606923Y-68276650D01*
X159927364Y-68601575D01*
X160225465Y-68947420D01*
X160500033Y-69312989D01*
X160749875Y-69697091D01*
X160973797Y-70098530D01*
X161170606Y-70516115D01*
X161339108Y-70948650D01*
X161478109Y-71394943D01*
X161586417Y-71853800D01*
X161603928Y-71942688D01*
X161630864Y-72085864D01*
X161652611Y-72213874D01*
X161669710Y-72332844D01*
X161682699Y-72448903D01*
X161692117Y-72568179D01*
X161698504Y-72696798D01*
X161702398Y-72840890D01*
X161704339Y-73006581D01*
X161704866Y-73200000D01*
X161704714Y-73311862D01*
X161703463Y-73489032D01*
X161700497Y-73641898D01*
X161695277Y-73776588D01*
X161687262Y-73899231D01*
X161675916Y-74015954D01*
X161660697Y-74132884D01*
X161641067Y-74256150D01*
X161616486Y-74391880D01*
X161586417Y-74546200D01*
X161567154Y-74639456D01*
X161452539Y-75096050D01*
X161307465Y-75539812D01*
X161133123Y-75969550D01*
X160930704Y-76384074D01*
X160701399Y-76782192D01*
X160446400Y-77162713D01*
X160166897Y-77524447D01*
X159864081Y-77866202D01*
X159539144Y-78186786D01*
X159193276Y-78485010D01*
X158827669Y-78759682D01*
X158443514Y-79009610D01*
X158042001Y-79233604D01*
X157624322Y-79430473D01*
X157191668Y-79599026D01*
X156745231Y-79738071D01*
X156286200Y-79846417D01*
X156197312Y-79863928D01*
X156054136Y-79890864D01*
X155926126Y-79912612D01*
X155807156Y-79929710D01*
X155691097Y-79942699D01*
X155571821Y-79952117D01*
X155443202Y-79958504D01*
X155299110Y-79962398D01*
X155133419Y-79964340D01*
X154940000Y-79964867D01*
X154828138Y-79964715D01*
X154650968Y-79963464D01*
X154498102Y-79960498D01*
X154363412Y-79955277D01*
X154240769Y-79947263D01*
X154124046Y-79935916D01*
X154007116Y-79920697D01*
X153883850Y-79901067D01*
X153748120Y-79876487D01*
X153593800Y-79846417D01*
X153500544Y-79827154D01*
X153043950Y-79712539D01*
X152600188Y-79567465D01*
X152170450Y-79393123D01*
X151755926Y-79190704D01*
X151357808Y-78961400D01*
X150977287Y-78706400D01*
X150615553Y-78426897D01*
X150273798Y-78124081D01*
X149953214Y-77799144D01*
X149654990Y-77453276D01*
X149380318Y-77087669D01*
X149130390Y-76703514D01*
X148906396Y-76302001D01*
X148709527Y-75884323D01*
X148540974Y-75451669D01*
X148401929Y-75005231D01*
X148293583Y-74546200D01*
X148276072Y-74457312D01*
X148249136Y-74314136D01*
X148227388Y-74186126D01*
X148210290Y-74067156D01*
X148197301Y-73951097D01*
X148187883Y-73831822D01*
X148183936Y-73752351D01*
X151757528Y-73752351D01*
X151766456Y-73792869D01*
X151800892Y-73843324D01*
X151862366Y-73907843D01*
X151875830Y-73920683D01*
X151918691Y-73960951D01*
X151982863Y-74020807D01*
X152066000Y-74098078D01*
X152165758Y-74190593D01*
X152279792Y-74296180D01*
X152405758Y-74412667D01*
X152541311Y-74537884D01*
X152684106Y-74669657D01*
X152831800Y-74805815D01*
X153695400Y-75601568D01*
X153701049Y-75505684D01*
X153701341Y-75499634D01*
X153702043Y-75449560D01*
X153701517Y-75369551D01*
X153699861Y-75262869D01*
X153697177Y-75132776D01*
X153693566Y-74982536D01*
X153689129Y-74815409D01*
X153683966Y-74634660D01*
X153678179Y-74443549D01*
X153671868Y-74245339D01*
X153665135Y-74043293D01*
X153658079Y-73840672D01*
X153650802Y-73640740D01*
X153643406Y-73446758D01*
X153635990Y-73261989D01*
X153628655Y-73089695D01*
X153621503Y-72933139D01*
X153617582Y-72858623D01*
X153611188Y-72770034D01*
X153603827Y-72708431D01*
X153594948Y-72669655D01*
X153584002Y-72649545D01*
X153580285Y-72647387D01*
X153821555Y-72647387D01*
X153822177Y-72714565D01*
X153823741Y-72798275D01*
X153826264Y-72900440D01*
X153829764Y-73022984D01*
X153834259Y-73167832D01*
X153839767Y-73336908D01*
X153846305Y-73532135D01*
X153853892Y-73755439D01*
X153862545Y-74008743D01*
X153872283Y-74293972D01*
X153873409Y-74327055D01*
X153882075Y-74582447D01*
X153889739Y-74806477D01*
X153896647Y-75001357D01*
X153903048Y-75169300D01*
X153909186Y-75312519D01*
X153915310Y-75433227D01*
X153921665Y-75533636D01*
X153928498Y-75615960D01*
X153936056Y-75682411D01*
X153944585Y-75735202D01*
X153954333Y-75776545D01*
X153965546Y-75808654D01*
X153978470Y-75833742D01*
X153993352Y-75854020D01*
X154010439Y-75871702D01*
X154029978Y-75889001D01*
X154052215Y-75908130D01*
X154058024Y-75913181D01*
X154144249Y-75980854D01*
X154255591Y-76057939D01*
X154386384Y-76141067D01*
X154530966Y-76226866D01*
X154683672Y-76311968D01*
X154838838Y-76393001D01*
X154990800Y-76466595D01*
X155073144Y-76503098D01*
X155169893Y-76543343D01*
X155272714Y-76584099D01*
X155374187Y-76622553D01*
X155466889Y-76655893D01*
X155543397Y-76681308D01*
X155596289Y-76695986D01*
X155651445Y-76707945D01*
X155642705Y-76465273D01*
X155640704Y-76407244D01*
X155637520Y-76309397D01*
X155633720Y-76188256D01*
X155629483Y-76049664D01*
X155624986Y-75899462D01*
X155620410Y-75743494D01*
X155615930Y-75587600D01*
X155613642Y-75508998D01*
X155608079Y-75329424D01*
X155601815Y-75139919D01*
X155595160Y-74949239D01*
X155588423Y-74766143D01*
X155581915Y-74599388D01*
X155575945Y-74457731D01*
X155575640Y-74450854D01*
X155569257Y-74309367D01*
X155563767Y-74197213D01*
X155560966Y-74149256D01*
X155782447Y-74149256D01*
X155782638Y-74184479D01*
X155783446Y-74232823D01*
X155784922Y-74296361D01*
X155787114Y-74377166D01*
X155790074Y-74477310D01*
X155793850Y-74598865D01*
X155798494Y-74743905D01*
X155804055Y-74914503D01*
X155810582Y-75112731D01*
X155818127Y-75340661D01*
X155826739Y-75600367D01*
X155831000Y-75728626D01*
X155837873Y-75933284D01*
X155843902Y-76107945D01*
X155849242Y-76255084D01*
X155854045Y-76377173D01*
X155858465Y-76476686D01*
X155862655Y-76556094D01*
X155866769Y-76617871D01*
X155870960Y-76664490D01*
X155875381Y-76698423D01*
X155880186Y-76722144D01*
X155885527Y-76738125D01*
X155891559Y-76748839D01*
X155898434Y-76756760D01*
X155903957Y-76761570D01*
X155948219Y-76784269D01*
X156018429Y-76806422D01*
X156109214Y-76827452D01*
X156215200Y-76846783D01*
X156331013Y-76863839D01*
X156451281Y-76878044D01*
X156570629Y-76888823D01*
X156683684Y-76895599D01*
X156785074Y-76897795D01*
X156869424Y-76894837D01*
X156931361Y-76886147D01*
X156965511Y-76871151D01*
X156971051Y-76864707D01*
X156976845Y-76853407D01*
X156981232Y-76835796D01*
X156984214Y-76808815D01*
X156985793Y-76769406D01*
X156985970Y-76714511D01*
X156984747Y-76641070D01*
X156982124Y-76546026D01*
X156978104Y-76426319D01*
X156972688Y-76278891D01*
X156965877Y-76100684D01*
X156961583Y-75989889D01*
X156954482Y-75810602D01*
X156948223Y-75660565D01*
X156942579Y-75536799D01*
X156937322Y-75436325D01*
X156935473Y-75407244D01*
X157145894Y-75407244D01*
X157146258Y-75462536D01*
X157149224Y-75532567D01*
X157150416Y-75554954D01*
X157153716Y-75626573D01*
X157157747Y-75723832D01*
X157162292Y-75841069D01*
X157167135Y-75972626D01*
X157172059Y-76112842D01*
X157176850Y-76256057D01*
X157179852Y-76342558D01*
X157185072Y-76472103D01*
X157190650Y-76589002D01*
X157196337Y-76689013D01*
X157201881Y-76767894D01*
X157207034Y-76821404D01*
X157211546Y-76845300D01*
X157225831Y-76865188D01*
X157250673Y-76882440D01*
X157287565Y-76893080D01*
X157340037Y-76897120D01*
X157411620Y-76894575D01*
X157505843Y-76885460D01*
X157626238Y-76869788D01*
X157776333Y-76847574D01*
X157852524Y-76834779D01*
X157946460Y-76817040D01*
X158048088Y-76796331D01*
X158151559Y-76773986D01*
X158251020Y-76751341D01*
X158340623Y-76729728D01*
X158414515Y-76710483D01*
X158466847Y-76694938D01*
X158491767Y-76684429D01*
X158501090Y-76674718D01*
X158512933Y-76646618D01*
X158512886Y-76646206D01*
X158499083Y-76627643D01*
X158461652Y-76587736D01*
X158401976Y-76527805D01*
X158321437Y-76449167D01*
X158221416Y-76353142D01*
X158103296Y-76241049D01*
X157968459Y-76114207D01*
X157818286Y-75973934D01*
X157654160Y-75821550D01*
X157477462Y-75658374D01*
X157404609Y-75591535D01*
X157324875Y-75519055D01*
X157256171Y-75457339D01*
X157201946Y-75409456D01*
X157165646Y-75378476D01*
X157150720Y-75367467D01*
X157148066Y-75373923D01*
X157145894Y-75407244D01*
X156935473Y-75407244D01*
X156932227Y-75356167D01*
X156927066Y-75293346D01*
X156921613Y-75244884D01*
X156915640Y-75207803D01*
X156908922Y-75179125D01*
X156901231Y-75155873D01*
X156892340Y-75135069D01*
X156890423Y-75131680D01*
X156866925Y-75102901D01*
X156821022Y-75054165D01*
X156754983Y-74987697D01*
X156671079Y-74905720D01*
X156571578Y-74810457D01*
X156458752Y-74704132D01*
X156334870Y-74588969D01*
X156267711Y-74527022D01*
X156159088Y-74427228D01*
X156059588Y-74336306D01*
X155971827Y-74256619D01*
X155898422Y-74190527D01*
X155841987Y-74140393D01*
X155805138Y-74108579D01*
X155790492Y-74097446D01*
X155788997Y-74097410D01*
X155786853Y-74098119D01*
X155785075Y-74101585D01*
X155783715Y-74109881D01*
X155782822Y-74125081D01*
X155782447Y-74149256D01*
X155560966Y-74149256D01*
X155558679Y-74110076D01*
X155553498Y-74043639D01*
X155547735Y-73993586D01*
X155540894Y-73955599D01*
X155532485Y-73925363D01*
X155532383Y-73925102D01*
X155941889Y-73925102D01*
X155941993Y-73925325D01*
X155957103Y-73942355D01*
X155995168Y-73980593D01*
X156054358Y-74038323D01*
X156132842Y-74113829D01*
X156228788Y-74205396D01*
X156340365Y-74311307D01*
X156465742Y-74429847D01*
X156603088Y-74559299D01*
X156750573Y-74697948D01*
X156906363Y-74844079D01*
X157068630Y-74995974D01*
X157235540Y-75151918D01*
X157405264Y-75310196D01*
X157575970Y-75469091D01*
X157745827Y-75626888D01*
X157913004Y-75781870D01*
X158075670Y-75932322D01*
X158231993Y-76076528D01*
X158380143Y-76212772D01*
X158518288Y-76339338D01*
X158532191Y-76351975D01*
X158592365Y-76404913D01*
X158642633Y-76446370D01*
X158678081Y-76472431D01*
X158693796Y-76479182D01*
X158703027Y-76457663D01*
X158716183Y-76407566D01*
X158731791Y-76334996D01*
X158748816Y-76245664D01*
X158766225Y-76145284D01*
X158782983Y-76039567D01*
X158798056Y-75934225D01*
X158810411Y-75834970D01*
X158819045Y-75744899D01*
X158829617Y-75559087D01*
X158833383Y-75356599D01*
X158830548Y-75147445D01*
X158821319Y-74941634D01*
X158805904Y-74749175D01*
X158784508Y-74580078D01*
X158778168Y-74540910D01*
X158753581Y-74403711D01*
X158726422Y-74271358D01*
X158697926Y-74148629D01*
X158669333Y-74040303D01*
X158641880Y-73951158D01*
X158616803Y-73885974D01*
X158595340Y-73849528D01*
X158588778Y-73842482D01*
X158580315Y-73834493D01*
X158569739Y-73827742D01*
X158554785Y-73822248D01*
X158533186Y-73818031D01*
X158502676Y-73815110D01*
X158460991Y-73813505D01*
X158405864Y-73813235D01*
X158335030Y-73814320D01*
X158246223Y-73816779D01*
X158137177Y-73820632D01*
X158005626Y-73825899D01*
X157849306Y-73832599D01*
X157665950Y-73840752D01*
X157453292Y-73850377D01*
X157209067Y-73861494D01*
X157208407Y-73861524D01*
X157020058Y-73870030D01*
X156838904Y-73878083D01*
X156668274Y-73885544D01*
X156511499Y-73892273D01*
X156371906Y-73898130D01*
X156252826Y-73902976D01*
X156157588Y-73906671D01*
X156089521Y-73909074D01*
X156051955Y-73910047D01*
X156048599Y-73910087D01*
X155992693Y-73912681D01*
X155954418Y-73918056D01*
X155941889Y-73925102D01*
X155532383Y-73925102D01*
X155522015Y-73898560D01*
X155508990Y-73870874D01*
X155499411Y-73853201D01*
X155482529Y-73827827D01*
X155458621Y-73797547D01*
X155425687Y-73760371D01*
X155381728Y-73714310D01*
X155324742Y-73657372D01*
X155252731Y-73587569D01*
X155163694Y-73502908D01*
X155055630Y-73401401D01*
X154926541Y-73281057D01*
X154774426Y-73139885D01*
X154696142Y-73067441D01*
X154569480Y-72950662D01*
X154450469Y-72841463D01*
X154341554Y-72742059D01*
X154245183Y-72654665D01*
X154163802Y-72581498D01*
X154099858Y-72524772D01*
X154055797Y-72486702D01*
X154034067Y-72469505D01*
X153981065Y-72445617D01*
X153914258Y-72441686D01*
X153855360Y-72469196D01*
X153848328Y-72474171D01*
X153842061Y-72478372D01*
X153836593Y-72483711D01*
X153831941Y-72492112D01*
X153828124Y-72505498D01*
X153825159Y-72525795D01*
X153823064Y-72554926D01*
X153821857Y-72594815D01*
X153821555Y-72647387D01*
X153580285Y-72647387D01*
X153578339Y-72646257D01*
X153566344Y-72646026D01*
X153547028Y-72651387D01*
X153518232Y-72663546D01*
X153477797Y-72683709D01*
X153423566Y-72713080D01*
X153353379Y-72752866D01*
X153265079Y-72804271D01*
X153156507Y-72868502D01*
X153025504Y-72946763D01*
X152869913Y-73040260D01*
X152687574Y-73150199D01*
X152535355Y-73242213D01*
X152386069Y-73332734D01*
X152247441Y-73417072D01*
X152122096Y-73493618D01*
X152012658Y-73560761D01*
X151921750Y-73616893D01*
X151851995Y-73660403D01*
X151806017Y-73689681D01*
X151786440Y-73703117D01*
X151772578Y-73717644D01*
X151757528Y-73752351D01*
X148183936Y-73752351D01*
X148181496Y-73703202D01*
X148177602Y-73559110D01*
X148175660Y-73393419D01*
X148175133Y-73200000D01*
X148175285Y-73088138D01*
X148176536Y-72910969D01*
X148179502Y-72758103D01*
X148184723Y-72623412D01*
X148192737Y-72500769D01*
X148204084Y-72384047D01*
X148219303Y-72267116D01*
X148238933Y-72143850D01*
X148263513Y-72008121D01*
X148293583Y-71853800D01*
X148395406Y-71418937D01*
X148457818Y-71216142D01*
X151168697Y-71216142D01*
X151172313Y-71253043D01*
X151182395Y-71309231D01*
X151197114Y-71376565D01*
X151214643Y-71446904D01*
X151233153Y-71512108D01*
X151250817Y-71564035D01*
X151284121Y-71642893D01*
X151393817Y-71844215D01*
X151530966Y-72027905D01*
X151693130Y-72191375D01*
X151877867Y-72332031D01*
X152082735Y-72447283D01*
X152201784Y-72497958D01*
X152411312Y-72559656D01*
X152622860Y-72587866D01*
X152835074Y-72582666D01*
X153046599Y-72544136D01*
X153256083Y-72472353D01*
X153462170Y-72367397D01*
X153471508Y-72361669D01*
X153542896Y-72310565D01*
X153626544Y-72241038D01*
X153698066Y-72175637D01*
X154161798Y-72175637D01*
X154171929Y-72242743D01*
X154209649Y-72313719D01*
X154219534Y-72325207D01*
X154253708Y-72360601D01*
X154308028Y-72414641D01*
X154379630Y-72484616D01*
X154465655Y-72567819D01*
X154563239Y-72661540D01*
X154669521Y-72763071D01*
X154781639Y-72869701D01*
X154896730Y-72978723D01*
X155011934Y-73087426D01*
X155124388Y-73193103D01*
X155231230Y-73293044D01*
X155329598Y-73384540D01*
X155416630Y-73464882D01*
X155489465Y-73531361D01*
X155545241Y-73581268D01*
X155581095Y-73611894D01*
X155586957Y-73616636D01*
X155609654Y-73635024D01*
X155631045Y-73651123D01*
X155653326Y-73664992D01*
X155678695Y-73676693D01*
X155709348Y-73686286D01*
X155747482Y-73693833D01*
X155795293Y-73699393D01*
X155854979Y-73703028D01*
X155928735Y-73704798D01*
X156018759Y-73704764D01*
X156127247Y-73702988D01*
X156256396Y-73699529D01*
X156408402Y-73694448D01*
X156585463Y-73687806D01*
X156789774Y-73679664D01*
X157023533Y-73670083D01*
X157288937Y-73659123D01*
X157482683Y-73651027D01*
X157701639Y-73641539D01*
X157889575Y-73632943D01*
X158048081Y-73625147D01*
X158178744Y-73618056D01*
X158283154Y-73611578D01*
X158362899Y-73605620D01*
X158419569Y-73600089D01*
X158454752Y-73594891D01*
X158470037Y-73589934D01*
X158484392Y-73571909D01*
X158495789Y-73532360D01*
X158494058Y-73521819D01*
X158479522Y-73479633D01*
X158452309Y-73415276D01*
X158414958Y-73333867D01*
X158370004Y-73240526D01*
X158319984Y-73140374D01*
X158267436Y-73038528D01*
X158214898Y-72940110D01*
X158164905Y-72850239D01*
X158119995Y-72774034D01*
X158077998Y-72706999D01*
X157992952Y-72578473D01*
X157904392Y-72452911D01*
X157815329Y-72334025D01*
X157728773Y-72225528D01*
X157647736Y-72131135D01*
X157575228Y-72054559D01*
X157514260Y-71999513D01*
X157467844Y-71969711D01*
X157423260Y-71958370D01*
X157344374Y-71950747D01*
X157239244Y-71949100D01*
X157238588Y-71949109D01*
X157203482Y-71950012D01*
X157138525Y-71952106D01*
X157046750Y-71955272D01*
X156931189Y-71959395D01*
X156794875Y-71964357D01*
X156640843Y-71970043D01*
X156472124Y-71976336D01*
X156291752Y-71983119D01*
X156102760Y-71990276D01*
X155908181Y-71997690D01*
X155711048Y-72005244D01*
X155514395Y-72012823D01*
X155321253Y-72020309D01*
X155134658Y-72027586D01*
X154957641Y-72034537D01*
X154793235Y-72041046D01*
X154644474Y-72046997D01*
X154514391Y-72052272D01*
X154406019Y-72056756D01*
X154322391Y-72060331D01*
X154266541Y-72062881D01*
X154241500Y-72064290D01*
X154223768Y-72074185D01*
X154194933Y-72099334D01*
X154179666Y-72118353D01*
X154161798Y-72175637D01*
X153698066Y-72175637D01*
X153714938Y-72160208D01*
X153800558Y-72075195D01*
X153875888Y-71993117D01*
X153933411Y-71921094D01*
X153998573Y-71819463D01*
X154001535Y-71813833D01*
X154330400Y-71813833D01*
X154330578Y-71818470D01*
X154335386Y-71830671D01*
X154351077Y-71838500D01*
X154383397Y-71842903D01*
X154438090Y-71844827D01*
X154520900Y-71845218D01*
X154550481Y-71845022D01*
X154634588Y-71843544D01*
X154746755Y-71840741D01*
X154883097Y-71836764D01*
X155039729Y-71831761D01*
X155212768Y-71825884D01*
X155398329Y-71819280D01*
X155592528Y-71812101D01*
X155791480Y-71804496D01*
X155991302Y-71796614D01*
X156188109Y-71788605D01*
X156378016Y-71780619D01*
X156557140Y-71772806D01*
X156721596Y-71765315D01*
X156867500Y-71758297D01*
X156990968Y-71751900D01*
X157088115Y-71746274D01*
X157263496Y-71735267D01*
X156313808Y-70855627D01*
X156292918Y-70836280D01*
X156141914Y-70696557D01*
X155998054Y-70563662D01*
X155863302Y-70439399D01*
X155739623Y-70325567D01*
X155628980Y-70223968D01*
X155533337Y-70136403D01*
X155454659Y-70064674D01*
X155394909Y-70010583D01*
X155356051Y-69975930D01*
X155340050Y-69962517D01*
X155317665Y-69959555D01*
X155279779Y-69978557D01*
X155274420Y-69985162D01*
X155253268Y-70019260D01*
X155219485Y-70078599D01*
X155174749Y-70159935D01*
X155120738Y-70260025D01*
X155059129Y-70375624D01*
X154991602Y-70503489D01*
X154919834Y-70640377D01*
X154845503Y-70783042D01*
X154770287Y-70928241D01*
X154695864Y-71072731D01*
X154623912Y-71213267D01*
X154556110Y-71346605D01*
X154494135Y-71469502D01*
X154439665Y-71578714D01*
X154394378Y-71670997D01*
X154359953Y-71743107D01*
X154338068Y-71791801D01*
X154330400Y-71813833D01*
X154001535Y-71813833D01*
X154072130Y-71679646D01*
X154134348Y-71533866D01*
X154178463Y-71396600D01*
X154190844Y-71342598D01*
X154214432Y-71150700D01*
X154210207Y-70950113D01*
X154178681Y-70748279D01*
X154120365Y-70552639D01*
X154107086Y-70518781D01*
X154013666Y-70331126D01*
X153892992Y-70154977D01*
X153749228Y-69994049D01*
X153586537Y-69852056D01*
X153409082Y-69732712D01*
X153221027Y-69639729D01*
X153026533Y-69576824D01*
X153006571Y-69572218D01*
X152932071Y-69557130D01*
X152865446Y-69546544D01*
X152819135Y-69542519D01*
X152755670Y-69542400D01*
X152830759Y-69644401D01*
X152904439Y-69764542D01*
X152969278Y-69917309D01*
X153014661Y-70082426D01*
X153038023Y-70250347D01*
X153036800Y-70411523D01*
X153029976Y-70472666D01*
X152991852Y-70661226D01*
X152928868Y-70829270D01*
X152839495Y-70980233D01*
X152722203Y-71117546D01*
X152608895Y-71217933D01*
X152456583Y-71316790D01*
X152290883Y-71386127D01*
X152109198Y-71426973D01*
X151908933Y-71440359D01*
X151723666Y-71429545D01*
X151555501Y-71395285D01*
X151400340Y-71335650D01*
X151251577Y-71248717D01*
X151222988Y-71230149D01*
X151187622Y-71210741D01*
X151170538Y-71206484D01*
X151168697Y-71216142D01*
X148457818Y-71216142D01*
X148533860Y-70969059D01*
X148648309Y-70672772D01*
X151283705Y-70672772D01*
X151313754Y-70761864D01*
X151316020Y-70766043D01*
X151370554Y-70834646D01*
X151439738Y-70877977D01*
X151517392Y-70897161D01*
X151597337Y-70893325D01*
X151673391Y-70867595D01*
X151739375Y-70821096D01*
X151789108Y-70754954D01*
X151816411Y-70670295D01*
X151817267Y-70654693D01*
X152017667Y-70654693D01*
X152027787Y-70735415D01*
X152064329Y-70812103D01*
X152123767Y-70875231D01*
X152195843Y-70913166D01*
X152279376Y-70929865D01*
X152361939Y-70923822D01*
X152432146Y-70894332D01*
X152495681Y-70834010D01*
X152538097Y-70750050D01*
X152552400Y-70648154D01*
X152552373Y-70640814D01*
X152547997Y-70583994D01*
X152531817Y-70541822D01*
X152497631Y-70497200D01*
X152481677Y-70480365D01*
X152433257Y-70439158D01*
X152388108Y-70411945D01*
X152372911Y-70406127D01*
X152285933Y-70392006D01*
X152202331Y-70408193D01*
X152127466Y-70451769D01*
X152066703Y-70519813D01*
X152025404Y-70609406D01*
X152017667Y-70654693D01*
X151817267Y-70654693D01*
X151818901Y-70624872D01*
X151802455Y-70539979D01*
X151762259Y-70464685D01*
X151702869Y-70409463D01*
X151699037Y-70407122D01*
X151609500Y-70368774D01*
X151522135Y-70363890D01*
X151434937Y-70392342D01*
X151374845Y-70432490D01*
X151316188Y-70502179D01*
X151285162Y-70584241D01*
X151283705Y-70672772D01*
X148648309Y-70672772D01*
X148702792Y-70531723D01*
X148901201Y-70108354D01*
X149002303Y-69926555D01*
X151318742Y-69926555D01*
X151326364Y-69995923D01*
X151356712Y-70056071D01*
X151404792Y-70102085D01*
X151465610Y-70129050D01*
X151534170Y-70132053D01*
X151605480Y-70106178D01*
X151616900Y-70098500D01*
X151660194Y-70053054D01*
X151692834Y-69995321D01*
X151705733Y-69940333D01*
X151704857Y-69927671D01*
X151704770Y-69927406D01*
X151947196Y-69927406D01*
X151950995Y-70007270D01*
X151980515Y-70089545D01*
X152035595Y-70150964D01*
X152114176Y-70189402D01*
X152214199Y-70202737D01*
X152294107Y-70193769D01*
X152372154Y-70158568D01*
X152429356Y-70096676D01*
X152465748Y-70008067D01*
X152473732Y-69942594D01*
X152459386Y-69855584D01*
X152419897Y-69777430D01*
X152359447Y-69715658D01*
X152282218Y-69677796D01*
X152240011Y-69667193D01*
X152194518Y-69662965D01*
X152151591Y-69672983D01*
X152095546Y-69699033D01*
X152058007Y-69720305D01*
X151997319Y-69772472D01*
X151962137Y-69838804D01*
X151947196Y-69927406D01*
X151704770Y-69927406D01*
X151686173Y-69870588D01*
X151650018Y-69814518D01*
X151605480Y-69774489D01*
X151598459Y-69770537D01*
X151526116Y-69748711D01*
X151453348Y-69755759D01*
X151388991Y-69789260D01*
X151341879Y-69846789D01*
X151338841Y-69852882D01*
X151318742Y-69926555D01*
X149002303Y-69926555D01*
X149128084Y-69700375D01*
X149382439Y-69309212D01*
X149663263Y-68936289D01*
X149969556Y-68583032D01*
X150300315Y-68250865D01*
X150654537Y-67941214D01*
X151031221Y-67655502D01*
X151429365Y-67395155D01*
X151743279Y-67216022D01*
X152149996Y-67015189D01*
X152567442Y-66843741D01*
X152997873Y-66700947D01*
X153443548Y-66586077D01*
X153906727Y-66498399D01*
X154389667Y-66437182D01*
X154405210Y-66436274D01*
X154456000Y-66435009D01*
X154533353Y-66434124D01*
X154632659Y-66433638D01*
X154749308Y-66433568D01*
X154878692Y-66433933D01*
G37*
D11*
X128500000Y-79800000D03*
D12*
X126000000Y-79800000D03*
X123500000Y-79800000D03*
X121000000Y-79800000D03*
X118500000Y-79800000D03*
X116000000Y-79800000D03*
D13*
X102230000Y-43370000D03*
D14*
X104770000Y-43370000D03*
X102230000Y-45910000D03*
X104770000Y-45910000D03*
X102230000Y-48450000D03*
X104770000Y-48450000D03*
X102230000Y-50990000D03*
X104770000Y-50990000D03*
X102230000Y-53530000D03*
X104770000Y-53530000D03*
X102230000Y-56070000D03*
X104770000Y-56070000D03*
X102230000Y-58610000D03*
X104770000Y-58610000D03*
X102230000Y-61150000D03*
X104770000Y-61150000D03*
X102230000Y-63690000D03*
X104770000Y-63690000D03*
X102230000Y-66230000D03*
X104770000Y-66230000D03*
X102230000Y-68770000D03*
X104770000Y-68770000D03*
X102230000Y-71310000D03*
X104770000Y-71310000D03*
X102230000Y-73850000D03*
X104770000Y-73850000D03*
X102230000Y-76390000D03*
X104770000Y-76390000D03*
X102230000Y-78930000D03*
X104770000Y-78930000D03*
X102230000Y-81470000D03*
X104770000Y-81470000D03*
X102230000Y-84010000D03*
X104770000Y-84010000D03*
X102230000Y-86550000D03*
X104770000Y-86550000D03*
X102230000Y-89090000D03*
X104770000Y-89090000D03*
X102230000Y-91630000D03*
X104770000Y-91630000D03*
D15*
X190400000Y-91100000D03*
D16*
X190400000Y-93600000D03*
X190400000Y-96100000D03*
D15*
X183500000Y-91100000D03*
D16*
X183500000Y-93600000D03*
X183500000Y-96100000D03*
D17*
X155500000Y-84600000D03*
D18*
X153000000Y-84600000D03*
D19*
X129500000Y-85500000D03*
D14*
X129500000Y-88040000D03*
X126960000Y-85500000D03*
X126960000Y-88040000D03*
X124420000Y-85500000D03*
X124420000Y-88040000D03*
X121880000Y-85500000D03*
X121880000Y-88040000D03*
D15*
X183500000Y-80100000D03*
D16*
X183500000Y-82600000D03*
X183500000Y-85100000D03*
D17*
X163900000Y-84600000D03*
D18*
X161400000Y-84600000D03*
D15*
X190400000Y-80100000D03*
D16*
X190400000Y-82600000D03*
X190400000Y-85100000D03*
D11*
X144900000Y-86400000D03*
D12*
X142400000Y-86400000D03*
X139900000Y-86400000D03*
X137400000Y-86400000D03*
D17*
X172300000Y-84600000D03*
D18*
X169800000Y-84600000D03*
D11*
X144600000Y-94900000D03*
D12*
X142100000Y-94900000D03*
X139600000Y-94900000D03*
X137100000Y-94900000D03*
D17*
X164300000Y-42600000D03*
D18*
X161800000Y-42600000D03*
D17*
X172800000Y-42600000D03*
D18*
X170300000Y-42600000D03*
D17*
X155900000Y-42600000D03*
D18*
X153400000Y-42600000D03*
D17*
X147400000Y-42600000D03*
D18*
X144900000Y-42600000D03*
D15*
X183500000Y-39600000D03*
D16*
X183500000Y-42100000D03*
X183500000Y-44600000D03*
X183500000Y-47100000D03*
D15*
X183500000Y-66600000D03*
D16*
X183500000Y-69100000D03*
X183500000Y-71600000D03*
X183500000Y-74100000D03*
D15*
X190400000Y-39600000D03*
D16*
X190400000Y-42100000D03*
X190400000Y-44600000D03*
X190400000Y-47100000D03*
D15*
X183500000Y-53100000D03*
D16*
X183500000Y-55600000D03*
X183500000Y-58100000D03*
X183500000Y-60600000D03*
D15*
X190400000Y-66600000D03*
D16*
X190400000Y-69100000D03*
X190400000Y-71600000D03*
X190400000Y-74100000D03*
D15*
X190400000Y-53100000D03*
D16*
X190400000Y-55600000D03*
X190400000Y-58100000D03*
X190400000Y-60600000D03*
D19*
X125800000Y-65700000D03*
D14*
X123260000Y-65700000D03*
X120720000Y-65700000D03*
D19*
X125800000Y-60700000D03*
D14*
X123260000Y-60700000D03*
D20*
X156200000Y-89900000D03*
X156200000Y-96400000D03*
X151700000Y-89900000D03*
X151700000Y-96400000D03*
D21*
X125500000Y-41400000D03*
D22*
X120420000Y-41400000D03*
D21*
X137200000Y-41400000D03*
D22*
X132120000Y-41400000D03*
D20*
X164800000Y-89930000D03*
X164800000Y-96430000D03*
X160300000Y-89930000D03*
X160300000Y-96430000D03*
X173410000Y-89840000D03*
X173410000Y-96340000D03*
X168910000Y-89840000D03*
X168910000Y-96340000D03*
M02*
